<?xml version="1.0" encoding="UTF-8" standalone="no"?>
<!-- Created with Inkscape (http://www.inkscape.org/) -->

<svg
   xmlns:dc="http://purl.org/dc/elements/1.1/"
   xmlns:cc="http://creativecommons.org/ns#"
   xmlns:rdf="http://www.w3.org/1999/02/22-rdf-syntax-ns#"
   xmlns:svg="http://www.w3.org/2000/svg"
   xmlns="http://www.w3.org/2000/svg"
   xmlns:sodipodi="http://sodipodi.sourceforge.net/DTD/sodipodi-0.dtd"
   xmlns:inkscape="http://www.inkscape.org/namespaces/inkscape"
   width="170"
   height="60"
   id="svg3788"
   version="1.1"
   inkscape:version="0.48.1 r9760"
   sodipodi:docname="New document 5">
  <defs
     id="defs3790" />
  <sodipodi:namedview
     id="base"
     pagecolor="#ffffff"
     bordercolor="#666666"
     borderopacity="1.0"
     inkscape:pageopacity="0.0"
     inkscape:pageshadow="2"
     inkscape:zoom="4"
     inkscape:cx="98.500815"
     inkscape:cy="14.334534"
     inkscape:document-units="px"
     inkscape:current-layer="layer1"
     showgrid="false"
     inkscape:window-width="1171"
     inkscape:window-height="729"
     inkscape:window-x="1515"
     inkscape:window-y="97"
     inkscape:window-maximized="0" />
  <metadata
     id="metadata3793">
    <rdf:RDF>
      <cc:Work
         rdf:about="">
        <dc:format>image/svg+xml</dc:format>
        <dc:type
           rdf:resource="http://purl.org/dc/dcmitype/StillImage" />
        <dc:title></dc:title>
      </cc:Work>
    </rdf:RDF>
  </metadata>
  <g
     inkscape:label="Layer 1"
     inkscape:groupmode="layer"
     id="layer1"
     transform="translate(0,-992.36217)">
    <g
       id="g3824"
       transform="matrix(0.8416096,0,0,0.85693307,20.086103,348.58053)">
      <rect
         y="766.02875"
         x="73.318359"
         height="37.299877"
         width="39.951546"
         id="rect3783"
         style="fill:#000000;fill-opacity:1;stroke:none;display:inline" />
      <path
         inkscape:export-ydpi="75.779999"
         inkscape:export-xdpi="75.779999"
         inkscape:export-filename="/home/romaia/stoq/stoq.launchpad.master/stoq/data/pixmaps/stoq_logo.png"
         inkscape:connector-curvature="0"
         id="path4437-0-3"
         d="m 7.2183447,752.7502 c -10.56555,-0.0802 -23.5722307,3.49341 -27.2081007,14.69007 -3.24002,7.8159 0.95036,16.96192 8.531971,20.36007 9.2363897,5.22552 20.8841997,3.32627 29.85318,8.93319 7.21326,7.72976 -5.814841,11.87148 -12.8983503,11.125 -8.932077,-0.80978 -10.03507,-7.19243 -12.57169,-10.40192 -5.0426397,-0.0148 -10.0852807,-0.0296 -15.1279207,-0.0444 -1.09375,9.3117 3.803649,17.84699 14.1978007,20.78283 4.7206615,1.73197 29.0753903,4.11894 39.8445403,-5.41263 9.20544,-7.70289 6.68399,-24.28294 -4.50569,-28.81386 -8.54696,-4.56397 -18.5967303,-4.89713 -27.33037032,-8.86046 -8.65840248,-6.48298 5.14750842,-11.1428 12.18081032,-9.55921 9.68609,1.56889 7.19129,6.8888 11.33147,7.31376 6.52676,0.0302 12.95354,-0.0395 19.44152,-0.0481 0,13.82621 0,27.65243 0,41.47864 5.41795,0.0161 10.83591,0.0321 16.25386,0.0482 0.0322,-13.85838 0.0643,-27.71675 0.0965,-41.57513 2.6203,0.54124 9.46497,-1.84782 6.04004,2.82705 -6.01624,16.06888 5.25093,35.37295 22.091632,38.29312 10.93872,2.36594 22.954653,-2.15183 29.600833,-11.16859 8.88455,13.82493 29.78316,17.57399 42.87735,7.6205 4.35016,2.22256 9.11682,11.4382 12.62322,4.26374 0.91379,-1.86367 5.00591,-4.03091 3.8778,-5.69956 -2.86371,-2.22236 -5.72742,-4.44472 -8.59113,-6.66708 8.25195,-12.19723 3.68342,-30.21773 -8.92022,-37.59672 -12.31306,-8.08877 -30.36439,-5.74614 -39.84131,5.66779 -7.59177,-14.03449 -27.210743,-19.2385 -40.740223,-10.73916 -3.033872,2.25828 -7.171492,0.77402 -10.742172,1.2175 -12.30835,0.0389 -24.61669,0.0777 -36.92504,0.11655 -6.34607,-5.67835 -15.05778,-8.07926 -23.4403103,-8.15122 z m 86.8158023,16.01269 c 11.838233,-0.54024 20.406243,13.84799 14.292103,24.0014 -5.13441,10.55777 -21.644283,11.35715 -27.770053,1.34013 -7.406932,-10.30712 0.77378,-25.71602 13.47795,-25.34153 z m 48.086313,3.32794 c 10.53196,-0.51096 16.49189,11.56982 13.71898,20.7056 -1.50352,9.91612 -14.43244,15.02449 -22.17993,8.58173 -9.5793,-7.43051 -7.53926,-26.43039 5.29458,-28.97346 l 1.54265,-0.2342 1.62372,-0.0797 z"
         style="fill:#fd0500;fill-opacity:1;stroke:#000000;stroke-width:3;stroke-linecap:butt;stroke-linejoin:round;stroke-miterlimit:4;stroke-opacity:0.7326203;stroke-dasharray:none;stroke-dashoffset:0;display:inline"
         sodipodi:nodetypes="cccccccccccccccccccccccccccccccccccccccccc" />
    </g>
  </g>
</svg>
