/* XPM */
static char * add_xpm[] = {
"25 25 485 2",
"  	c None",
". 	c #878786",
"+ 	c #777776",
"@ 	c #717170",
"# 	c #767675",
"$ 	c #858584",
"% 	c #606060",
"& 	c #525150",
"* 	c #4B4A47",
"= 	c #454441",
"- 	c #43423F",
"; 	c #454341",
"> 	c #4A4946",
", 	c #50504E",
"' 	c #5D5D5C",
") 	c #7E7D7D",
"! 	c #9B9B9B",
"~ 	c #737372",
"{ 	c #4B4B49",
"] 	c #211F1A",
"^ 	c #201705",
"/ 	c #2F2204",
"( 	c #3A2904",
"_ 	c #3C2B05",
": 	c #372805",
"< 	c #2C1F04",
"[ 	c #1B1404",
"} 	c #1D1B17",
"| 	c #454444",
"1 	c #6D6C6C",
"2 	c #959494",
"3 	c #989897",
"4 	c #5A5A58",
"5 	c #2B2720",
"6 	c #291F09",
"7 	c #4A3507",
"8 	c #745307",
"9 	c #976D0A",
"0 	c #AA790B",
"a 	c #AE7C0B",
"b 	c #A4740A",
"c 	c #8D6308",
"d 	c #674905",
"e 	c #3E2D06",
"f 	c #221A07",
"g 	c #25221B",
"h 	c #535150",
"i 	c #8F8F8F",
"j 	c #52514E",
"k 	c #30291C",
"l 	c #46340B",
"m 	c #845F0C",
"n 	c #C78F11",
"o 	c #E1A412",
"p 	c #EAAA11",
"q 	c #EEAB0F",
"r 	c #EEA70D",
"s 	c #E8A20C",
"t 	c #DC9B0A",
"u 	c #CA8E09",
"v 	c #A87808",
"w 	c #6D4E06",
"x 	c #392A07",
"y 	c #282217",
"z 	c #494846",
"A 	c #8E8E8D",
"B 	c #AAAAAA",
"C 	c #5A5957",
"D 	c #342D1F",
"E 	c #543D0A",
"F 	c #9E740F",
"G 	c #DCA31A",
"H 	c #F5B624",
"I 	c #FCB926",
"J 	c #FCB820",
"K 	c #FCB416",
"L 	c #F9AF0F",
"M 	c #F4AA0B",
"N 	c #EBA50B",
"O 	c #E19E0A",
"P 	c #D49508",
"Q 	c #B98307",
"R 	c #805B06",
"S 	c #423006",
"T 	c #2B261A",
"U 	c #51504E",
"V 	c #A0A0A0",
"W 	c #BABABA",
"X 	c #787877",
"Y 	c #343026",
"Z 	c #4C390B",
"` 	c #9D730E",
" .	c #E4A91C",
"..	c #FCBD2D",
"+.	c #FCC03C",
"@.	c #FCC041",
"#.	c #FCBD37",
"$.	c #FCB725",
"%.	c #FBB115",
"&.	c #F5AB0D",
"*.	c #ECA50B",
"=.	c #E39F0A",
"-.	c #DC9B08",
";.	c #D49608",
">.	c #7C5906",
",.	c #3B2C08",
"'.	c #2C2820",
").	c #B2B2B2",
"!.	c #9D9D9D",
"~.	c #42403E",
"{.	c #35280E",
"].	c #89620A",
"^.	c #DBA014",
"/.	c #FDBC26",
"(.	c #FCBF3F",
"_.	c #FCC453",
":.	c #FDC654",
"<.	c #FDBF3F",
"[.	c #FEBF3B",
"}.	c #FBB728",
"|.	c #F1A90B",
"1.	c #EAA40A",
"2.	c #E5A109",
"3.	c #DB9B08",
"4.	c #D19408",
"5.	c #CC9107",
"6.	c #AB7A06",
"7.	c #684A05",
"8.	c #281F0B",
"9.	c #373634",
"0.	c #929191",
"a.	c #CFCFCF",
"b.	c #C4C3C3",
"c.	c #807F7F",
"d.	c #241F16",
"e.	c #553D07",
"f.	c #C18A0C",
"g.	c #F8B318",
"h.	c #FDBA2C",
"i.	c #FDC145",
"j.	c #FDC85E",
"k.	c #FDCC6E",
"l.	c #FEC550",
"m.	c #FEF6E5",
"n.	c #FEF4DD",
"o.	c #F3A909",
"p.	c #E7A20A",
"q.	c #DA9909",
"r.	c #D29508",
"s.	c #C98F07",
"t.	c #BE8706",
"u.	c #916705",
"v.	c #3E2D04",
"w.	c #1A1710",
"x.	c #727272",
"y.	c #BBBBBB",
"z.	c #A9A9A9",
"A.	c #5A5A59",
"B.	c #281F09",
"C.	c #856009",
"D.	c #DD9F0E",
"E.	c #FCB516",
"F.	c #FCB627",
"G.	c #FEBE3B",
"H.	c #FDC85B",
"I.	c #FCCB6A",
"J.	c #FEC450",
"K.	c #FEF9EE",
"L.	c #FEF8E9",
"M.	c #F2AA0A",
"N.	c #E6A20A",
"O.	c #DA9A08",
"P.	c #CF9207",
"Q.	c #D09308",
"R.	c #C78D07",
"S.	c #C18906",
"T.	c #A87706",
"U.	c #624705",
"V.	c #1F1808",
"W.	c #4E4E4E",
"X.	c #9F9F9F",
"Y.	c #3F3F3E",
"Z.	c #332608",
"`.	c #A6760A",
" +	c #E9A50D",
".+	c #FCB211",
"++	c #FCB215",
"@+	c #FEBA2A",
"#+	c #FEBE39",
"$+	c #FEC041",
"%+	c #FEBC32",
"&+	c #FEF8EC",
"*+	c #EFA507",
"=+	c #E49E07",
"-+	c #D89606",
";+	c #CD9107",
">+	c #C68E0B",
",+	c #C18B0C",
"'+	c #BE870B",
")+	c #B07E05",
"!+	c #795705",
"~+	c #281E06",
"{+	c #353534",
"]+	c #8D8D8D",
"^+	c #908F8F",
"/+	c #32302F",
"(+	c #3B2B06",
"_+	c #B37E0A",
":+	c #E9A40C",
"<+	c #F7AD0E",
"[+	c #F7AE0F",
"}+	c #FDC03B",
"|+	c #FEE9BC",
"1+	c #FEEABF",
"2+	c #FEEABC",
"3+	c #FEFDF9",
"4+	c #FEFDF8",
"5+	c #F9E4B4",
"6+	c #F6E1B4",
"7+	c #F2DEB0",
"8+	c #D2A130",
"9+	c #C59018",
"0+	c #BF880C",
"a+	c #B9840A",
"b+	c #AB7B06",
"c+	c #835E05",
"d+	c #2C2005",
"e+	c #262626",
"f+	c #858585",
"g+	c #2D2B29",
"h+	c #B47F0A",
"i+	c #E4A10C",
"j+	c #F0A90E",
"k+	c #EEA70B",
"l+	c #F8CC6E",
"m+	c #FEFEFC",
"n+	c #FEFDFC",
"o+	c #FFFFFE",
"p+	c #FEFDFB",
"q+	c #D8B35F",
"r+	c #BF8C16",
"s+	c #BA850D",
"t+	c #B17F08",
"u+	c #A47406",
"v+	c #846006",
"w+	c #2E2204",
"x+	c #212120",
"y+	c #828282",
"z+	c #2E2D2B",
"A+	c #3A2906",
"B+	c #AC7A09",
"C+	c #DE9C0A",
"D+	c #E4A20C",
"E+	c #EAA40B",
"F+	c #EFB12A",
"G+	c #F0B22C",
"H+	c #EEB02C",
"I+	c #FDF8EC",
"J+	c #FCF7EC",
"K+	c #DEA62B",
"L+	c #D7A22B",
"M+	c #CF9C28",
"N+	c #C08B0F",
"O+	c #BB8711",
"P+	c #B8840C",
"Q+	c #AD7C07",
"R+	c #9F7105",
"S+	c #805C05",
"T+	c #2C2004",
"U+	c #232322",
"V+	c #848484",
"W+	c #979796",
"X+	c #393938",
"Y+	c #302407",
"Z+	c #9A6E08",
"`+	c #D3950A",
" @	c #E19E09",
".@	c #DD9C09",
"+@	c #DE9C09",
"@@	c #E29F0B",
"#@	c #E2A00B",
"$@	c #E09E0A",
"%@	c #FCF6EA",
"&@	c #FBF6EA",
"*@	c #CA9008",
"=@	c #C18A07",
"-@	c #B98508",
";@	c #B4810A",
">@	c #AA7A06",
",@	c #9C7005",
"'@	c #745404",
")@	c #271D05",
"!@	c #2F2E2E",
"~@	c #8C8C8C",
"{@	c #A5A5A4",
"]@	c #4F4F4E",
"^@	c #261D08",
"/@	c #7D5906",
"(@	c #C38B08",
"_@	c #D99A08",
":@	c #D79807",
"<@	c #D39607",
"[@	c #D69708",
"}@	c #D49606",
"|@	c #FBF6E9",
"1@	c #FAF5E8",
"2@	c #C78D05",
"3@	c #C08806",
"4@	c #B88405",
"5@	c #B58107",
"6@	c #B48108",
"7@	c #AE7D06",
"8@	c #A67704",
"9@	c #976D04",
"0@	c #5F4404",
"a@	c #1F1806",
"b@	c #6E6E6E",
"c@	c #1B160B",
"d@	c #533B04",
"e@	c #AB7A07",
"f@	c #CF9308",
"g@	c #D09407",
"h@	c #CB8F06",
"i@	c #CA8F06",
"j@	c #C88D05",
"k@	c #E2C685",
"l@	c #DFC484",
"m@	c #C08E15",
"n@	c #B88409",
"o@	c #B37F05",
"p@	c #B17E05",
"q@	c #AE7D05",
"r@	c #A97904",
"s@	c #A17404",
"t@	c #856004",
"u@	c #412F03",
"v@	c #17130A",
"w@	c #626262",
"x@	c #D6D6D6",
"y@	c #989898",
"z@	c #2B2A28",
"A@	c #2C2208",
"B@	c #7E5A06",
"C@	c #BB8607",
"D@	c #CB9006",
"E@	c #C98E07",
"F@	c #C58C06",
"G@	c #BE8805",
"H@	c #BA8304",
"I@	c #B78207",
"J@	c #B48005",
"K@	c #B27F04",
"L@	c #B07D04",
"M@	c #AB7A03",
"N@	c #A77803",
"O@	c #A37603",
"P@	c #956C04",
"Q@	c #634903",
"R@	c #241C06",
"S@	c #232221",
"T@	c #D2D2D2",
"U@	c #B7B7B7",
"V@	c #616161",
"W@	c #211D14",
"X@	c #412F04",
"Y@	c #8B6405",
"Z@	c #BD8705",
"`@	c #C38B06",
" #	c #C18A05",
".#	c #C18905",
"+#	c #BF8805",
"@#	c #B98304",
"##	c #B68004",
"$#	c #B27E03",
"%#	c #AC7A03",
"&#	c #A57603",
"*#	c #A37503",
"=#	c #9C7103",
"-#	c #725304",
";#	c #352703",
">#	c #1C1911",
",#	c #565656",
"'#	c #AFAFAF",
")#	c #444341",
"!#	c #272010",
"~#	c #4B3604",
"{#	c #886105",
"]#	c #B27E05",
"^#	c #BC8605",
"/#	c #BB8505",
"(#	c #B88305",
"_#	c #B58205",
":#	c #B17E04",
"<#	c #AF7C04",
"[#	c #AB7903",
"}#	c #A87803",
"|#	c #A47603",
"1#	c #996E04",
"2#	c #735304",
"3#	c #3F2E03",
"4#	c #211B0F",
"5#	c #3D3C3A",
"6#	c #929292",
"7#	c #CACACA",
"8#	c #C3C3C3",
"9#	c #43423D",
"0#	c #282110",
"a#	c #423004",
"b#	c #735204",
"c#	c #976C06",
"d#	c #A77806",
"e#	c #AC7B05",
"f#	c #AD7C04",
"g#	c #AC7A04",
"h#	c #A87804",
"i#	c #A37404",
"j#	c #996E05",
"k#	c #876104",
"l#	c #654904",
"m#	c #392A03",
"n#	c #231D0F",
"o#	c #3C3B38",
"p#	c #7D7C7C",
"q#	c #BDBDBD",
"r#	c #BCBCBB",
"s#	c #81807E",
"t#	c #4C4942",
"u#	c #2F2818",
"v#	c #312407",
"w#	c #503A05",
"x#	c #6E5005",
"y#	c #7D5A04",
"z#	c #855F03",
"A#	c #866003",
"B#	c #815C03",
"C#	c #765503",
"D#	c #664904",
"E#	c #493503",
"F#	c #2B2005",
"G#	c #282315",
"H#	c #44423C",
"I#	c #797877",
"J#	c #B6B6B6",
"K#	c #C2C0BC",
"L#	c #A09A8E",
"M#	c #6C6455",
"N#	c #373127",
"O#	c #2C2516",
"P#	c #2D240D",
"Q#	c #312406",
"R#	c #372803",
"S#	c #3A2902",
"T#	c #2E2105",
"U#	c #29210A",
"V#	c #282212",
"W#	c #302C21",
"X#	c #5F5A4C",
"Y#	c #959086",
"Z#	c #BCBAB7",
"`#	c #D5D0C6",
" $	c #BEB8AE",
".$	c #A19A8F",
"+$	c #7F7665",
"@$	c #4E483C",
"#$	c #2C2921",
"$$	c #1C1912",
"%$	c #18150D",
"&$	c #1B1810",
"*$	c #28241A",
"=$	c #48402F",
"-$	c #746B54",
";$	c #999283",
">$	c #B6B1A6",
",$	c #CECAC1",
"'$	c #DCD6CC",
")$	c #C7C0B1",
"!$	c #A7A39A",
"~$	c #94918C",
"{$	c #8B8781",
"]$	c #89847B",
"^$	c #8A867D",
"/$	c #928D85",
"($	c #A39D90",
"_$	c #BEB6A3",
":$	c #D6D0C2",
"                    . + @ # $                     ",
"              $ % & * = - ; > , ' )               ",
"          ! ~ { ] ^ / ( _ : < [ } | 1 2           ",
"        3 4 5 6 7 8 9 0 a b c d e f g h i         ",
"      3 j k l m n o p q r s t u v w x y z A       ",
"    B C D E F G H I J K L M N O P Q R S T U V     ",
"  W X Y Z `  ...+.@.#.$.%.&.*.=.-.;.Q >.,.'.1 ).  ",
"  !.~.{.].^./.(._.:.<.[.}.|.1.2.3.4.5.6.7.8.9.0.a.",
"b.c.d.e.f.g.h.i.j.k.l.m.n.o.p.-.q.r.s.t.u.v.w.x.y.",
"z.A.B.C.D.E.F.G.H.I.J.K.L.M.N.O.P.Q.R.S.T.U.V.W.X.",
"3 Y.Z.`. +.+++@+#+$+%+&+L.*+=+-+;+>+,+'+)+!+~+{+]+",
"^+/+(+_+:+<+[+}+|+1+2+3+4+5+6+7+8+9+0+a+b+c+d+e+f+",
"]+g+e h+i+j+k+l+m+n+m+o+o+m+p+n+q+r+s+t+u+v+w+x+y+",
"i z+A+B+C+:+D+E+F+G+H+I+J+K+L+M+N+O+P+Q+R+S+T+U+V+",
"W+X+Y+Z+`+ @.@+@@@#@$@%@&@4.*@=@-@P+;@>@,@'@)@!@~@",
"{@]@^@/@(@_@:@<@[@[@}@|@1@2@3@4@5@6@7@8@9@0@a@| ! ",
"y.b@c@d@e@f@Q.g@h@i@j@k@l@m@n@o@p@q@r@s@t@u@v@w@).",
"x@y@z@A@B@C@D@E@D@F@G@H@I@J@K@L@M@N@O@P@Q@R@S@]+T@",
"  U@V@W@X@Y@Z@`@3@ #.#+#@###$#%#&#*#=#-#;#>#,#'#  ",
"  a.! )#!#~#{#]#^#/#(#_#:#<#[#}#|#1#2#3#4#5#6#7#  ",
"    8#$ 9#0#a#b#c#d#e#f#g#h#i#j#k#l#m#n#o#p#q#    ",
"      r#s#t#u#v#w#x#y#z#A#B#C#D#E#F#G#H#I#J#      ",
"        K#L#M#N#O#P#Q#R#S#;#T#U#V#W#X#Y#Z#        ",
"          `# $.$+$@$#$$$%$&$*$=$-$;$>$,$          ",
"              '$)$!$~${$]$^$/$($_$:$              "};
