/* XPM */
static char * bank_xpm[] = {
"24 24 111 2",
"  	c None",
". 	c #000000",
"+ 	c #FFFFFF",
"@ 	c #010101",
"# 	c #181818",
"$ 	c #5D5D5D",
"% 	c #D3D3D3",
"& 	c #C9C9C9",
"* 	c #A1A1A1",
"= 	c #E3E3E3",
"- 	c #A7A7A7",
"; 	c #3A3A3A",
"> 	c #080808",
", 	c #060606",
"' 	c #303030",
") 	c #B0B0B0",
"! 	c #EEEEEE",
"~ 	c #DDDDDD",
"{ 	c #D2D2D2",
"] 	c #FEFEFE",
"^ 	c #C7C7C7",
"/ 	c #747474",
"( 	c #ACACAC",
"_ 	c #8B8B8B",
": 	c #2B2B2B",
"< 	c #030303",
"[ 	c #313131",
"} 	c #F6F6F6",
"| 	c #FDFDFD",
"1 	c #FCFCFC",
"2 	c #C6C6C6",
"3 	c #535353",
"4 	c #7E7E7E",
"5 	c #A6A6A6",
"6 	c #B3B3B3",
"7 	c #161616",
"8 	c #979797",
"9 	c #F3F3F3",
"0 	c #FBFBFB",
"a 	c #FAFAFA",
"b 	c #C4C4C4",
"c 	c #4A4A4A",
"d 	c #6D6D6D",
"e 	c #919191",
"f 	c #BBBBBB",
"g 	c #B7B7B7",
"h 	c #C2C2C2",
"i 	c #D1D1D1",
"j 	c #C3C3C3",
"k 	c #474747",
"l 	c #6E6E6E",
"m 	c #737373",
"n 	c #343434",
"o 	c #F9F9F9",
"p 	c #F8F8F8",
"q 	c #F7F7F7",
"r 	c #373737",
"s 	c #2A2A2A",
"t 	c #C1C1C1",
"u 	c #ABABAB",
"v 	c #6C6C6C",
"w 	c #B8B8B8",
"x 	c #909090",
"y 	c #B5B5B5",
"z 	c #8F8F8F",
"A 	c #9D9D9D",
"B 	c #454545",
"C 	c #787878",
"D 	c #585858",
"E 	c #DEDEDE",
"F 	c #2D2D2D",
"G 	c #2E2E2E",
"H 	c #DBDBDB",
"I 	c #222222",
"J 	c #D9D9D9",
"K 	c #131313",
"L 	c #393939",
"M 	c #1E1E1E",
"N 	c #292929",
"O 	c #414141",
"P 	c #1D1D1D",
"Q 	c #424242",
"R 	c #F5F5F5",
"S 	c #575757",
"T 	c #F2F2F2",
"U 	c #232323",
"V 	c #1A1A1A",
"W 	c #3C3C3C",
"X 	c #F4F4F4",
"Y 	c #F1F1F1",
"Z 	c #323232",
"` 	c #5E5E5E",
" .	c #1B1B1B",
"..	c #484848",
"+.	c #F0F0F0",
"@.	c #727272",
"#.	c #555555",
"$.	c #8C8C8C",
"%.	c #EFEFEF",
"&.	c #666666",
"*.	c #878787",
"=.	c #5A5A5A",
"-.	c #606060",
";.	c #C0C0C0",
">.	c #BDBDBD",
",.	c #EDEDED",
"'.	c #BABABA",
").	c #6A6A6A",
"!.	c #ECECEC",
"~.	c #EBEBEB",
"{.	c #B9B9B9",
"                                                ",
"                      .                         ",
"      . . . . . . . . + . . . . . . . @         ",
"    # $ + + + + + . + % & . * = + + - ; >       ",
"  , ' ) ! ~ ~ ~ . + { ] + ^ . / ( ~ ~ _ : <     ",
"  < [ } ~ ~ ~ . + { | | 1 + 2 . 3 4 5 6 7 @     ",
"  . 8 9 ~ ~ . ] { | 1 1 0 a + b . c d e c .     ",
"  . f g h . ] i + + + + + + + + j . k l m .     ",
"  . 3 n . | | 1 1 0 a a o o p q q h . r s .     ",
"  . t u . . . . . . . . . . . . . . . k v .     ",
"  . t u . % w x . . y y z . . 6 6 A . B v .     ",
"  . t u C D E D F G D H D I [ D J D K L v .     ",
"  . t u u . o . M N . } . M O . 9 . P Q v .     ",
"  . t u u . p . M G . R . I S . T . U k v .     ",
"  . t u u . q . V W . X . n v . Y . Z ` v .     ",
"  . t u u . } .  .... 9 . G v . +.. O @.v .     ",
"  . t u u . R . Z / . T . #.$.. %.. &.@.v .     ",
"  . t u *.D X D =.*.D Y D -.*.D ! D S $.v .     ",
"  . f u . X 9 ;.. . Y +.>.. . ! ,.'.. $.)..     ",
"  . . . . . . . . . . . . . . . . . . . . .     ",
"      . } T Y Y +.+.%.! ! ,.!.!.~.~.{..         ",
"      . . . . . . . . . . . . . . . . .         ",
"                                                ",
"                                                "};
