/* XPM */
static char * currency_xpm[] = {
"24 24 267 2",
"  	c None",
". 	c #A6A7A6",
"+ 	c #373737",
"@ 	c #4C4C4C",
"# 	c #9A9B9A",
"$ 	c #686868",
"% 	c #5B5B5B",
"& 	c #B2B2B2",
"* 	c #C0C0C0",
"= 	c #292929",
"- 	c #747574",
"; 	c #B4B5B4",
"> 	c #C1C2C1",
", 	c #858685",
"' 	c #757675",
") 	c #5C5C5C",
"! 	c #8C8D8C",
"~ 	c #5A5B5A",
"{ 	c #A8A9A8",
"] 	c #050505",
"^ 	c #D7DBD7",
"/ 	c #8D8D8D",
"( 	c #DCDCDC",
"_ 	c #AAAAAA",
": 	c #6F6F6F",
"< 	c #000000",
"[ 	c #090909",
"} 	c #171817",
"| 	c #252524",
"1 	c #313231",
"2 	c #717371",
"3 	c #A1A2A1",
"4 	c #BCBFBC",
"5 	c #D6D8D6",
"6 	c #434443",
"7 	c #9D9E9D",
"8 	c #353535",
"9 	c #4A4A4A",
"0 	c #E4ECE4",
"a 	c #6D7F6C",
"b 	c #9BA29B",
"c 	c #E7EDE6",
"d 	c #DDE6DC",
"e 	c #D4E0D2",
"f 	c #CCDACA",
"g 	c #CFDDCE",
"h 	c #D2DFD1",
"i 	c #D6E1D5",
"j 	c #D9E4D8",
"k 	c #E0E9DF",
"l 	c #E6EDE5",
"m 	c #E8EEE8",
"n 	c #E4E9E3",
"o 	c #A7AAA7",
"p 	c #C4C7C4",
"q 	c #404D3D",
"r 	c #888888",
"s 	c #252525",
"t 	c #646464",
"u 	c #D4E0D3",
"v 	c #7C917A",
"w 	c #81927F",
"x 	c #4B5849",
"y 	c #96B193",
"z 	c #A3BDA0",
"A 	c #9AB097",
"B 	c #525D51",
"C 	c #313731",
"D 	c #6B7569",
"E 	c #C1D2BF",
"F 	c #C7D7C5",
"G 	c #BBC8B9",
"H 	c #727871",
"I 	c #484A48",
"J 	c #878887",
"K 	c #DEDEDD",
"L 	c #0B0B0B",
"M 	c #81A47D",
"N 	c #282928",
"O 	c #6D6D6D",
"P 	c #C2CEC1",
"Q 	c #9AAD97",
"R 	c #8EA58B",
"S 	c #93AB90",
"T 	c #9DB89A",
"U 	c #A6BFA3",
"V 	c #99AD96",
"W 	c #434B41",
"X 	c #6E7A6D",
"Y 	c #4F574E",
"Z 	c #A4B1A2",
"` 	c #C1CFBF",
" .	c #C2CCC1",
"..	c #D7E2D5",
"+.	c #E3EAE2",
"@.	c #E2EAE1",
"#.	c #EDF2EC",
"$.	c #83A67F",
"%.	c #A0A1A0",
"&.	c #282828",
"*.	c #737373",
"=.	c #BCC6BB",
"-.	c #99AD97",
";.	c #9BAB99",
">.	c #A4B7A3",
",.	c #A9C1A6",
"'.	c #7E8E7C",
").	c #525B50",
"!.	c #798278",
"~.	c #777C76",
"{.	c #A4AAA3",
"].	c #B7C0B6",
"^.	c #CDD8CB",
"/.	c #D9E3D7",
"(.	c #C3CBC3",
"_.	c #E5ECE4",
":.	c #ECF1EC",
"<.	c #85A680",
"[.	c #989898",
"}.	c #232323",
"|.	c #6E6E6E",
"1.	c #7C9578",
"2.	c #96A194",
"3.	c #ACB6AC",
"4.	c #BBCEB9",
"5.	c #C0D1BD",
"6.	c #A2ABA1",
"7.	c #9FA49F",
"8.	c #9C9F9B",
"9.	c #545854",
"0.	c #C8CDC7",
"a.	c #C1C9C1",
"b.	c #E9EEE9",
"c.	c #CDD1CC",
"d.	c #CBD1CA",
"e.	c #E5ECE5",
"f.	c #88A683",
"g.	c #979797",
"h.	c #789175",
"i.	c #747C73",
"j.	c #919891",
"k.	c #BDD0BC",
"l.	c #A2ABA2",
"m.	c #848883",
"n.	c #5F615E",
"o.	c #9CA09B",
"p.	c #434643",
"q.	c #080808",
"r.	c #050605",
"s.	c #2C2D2C",
"t.	c #737773",
"u.	c #E4E9E4",
"v.	c #111111",
"w.	c #848484",
"x.	c #A7B3A5",
"y.	c #ADC3A9",
"z.	c #899787",
"A.	c #888F87",
"B.	c #CFD9CD",
"C.	c #BBC4BA",
"D.	c #C1C8C1",
"E.	c #C2C8C2",
"F.	c #CCD1CC",
"G.	c #B8BCB8",
"H.	c #D2D2D2",
"I.	c #FEFEFD",
"J.	c #FCF9F0",
"K.	c #CFCABB",
"L.	c #070707",
"M.	c #A6A8A6",
"N.	c #87A582",
"O.	c #1D1D1D",
"P.	c #9B9B9B",
"Q.	c #738C71",
"R.	c #C3D4C2",
"S.	c #D5E1D5",
"T.	c #DAE4D9",
"U.	c #D9E4D9",
"V.	c #DCE6DB",
"W.	c #B0B7AF",
"X.	c #020202",
"Y.	c #E9E9E9",
"Z.	c #E5E4E2",
"`.	c #FDFBF4",
" +	c #C0B99E",
".+	c #383838",
"++	c #8FA388",
"@+	c #616261",
"#+	c #D5D5D5",
"$+	c #FEFCF9",
"%+	c #D3D3D3",
"&+	c #F0EFED",
"*+	c #E7E5DF",
"=+	c #EEE9D5",
"-+	c #95A395",
";+	c #8BA087",
">+	c #575857",
",+	c #B9B9B9",
"'+	c #536A51",
")+	c #364434",
"!+	c #40523E",
"~+	c #495C46",
"{+	c #151B15",
"]+	c #FFFFFF",
"^+	c #CCCCCB",
"/+	c #030202",
"(+	c #FEFDFB",
"_+	c #F3F2F1",
":+	c #E6DEC0",
"<+	c #010201",
"[+	c #BAC6B8",
"}+	c #999A99",
"|+	c #494949",
"1+	c #4D4D4D",
"2+	c #CBC8C2",
"3+	c #414141",
"4+	c #FCF8EF",
"5+	c #D2D2D1",
"6+	c #FDFDFB",
"7+	c #F9F6EA",
"8+	c #B2A67B",
"9+	c #A7A8A7",
"0+	c #C0C1C0",
"a+	c #BEBFBE",
"b+	c #BBBBBB",
"c+	c #060606",
"d+	c #4D4C46",
"e+	c #CDCDCD",
"f+	c #B5AE95",
"g+	c #DAD4BD",
"h+	c #D9D2B7",
"i+	c #040404",
"j+	c #939493",
"k+	c #AFB0AF",
"l+	c #BCBDBC",
"m+	c #C4C5C4",
"n+	c #3A3A3A",
"o+	c #090908",
"p+	c #FDFAF2",
"q+	c #484744",
"r+	c #080806",
"s+	c #010101",
"t+	c #6A6A6A",
"u+	c #9E9F9E",
"v+	c #070605",
"w+	c #FBF6E5",
"x+	c #FEFDFC",
"y+	c #ECE9DD",
"z+	c #F6EABF",
"A+	c #D9CC9E",
"B+	c #909190",
"C+	c #AEAFAE",
"D+	c #0F0F0F",
"E+	c #F9F2D8",
"F+	c #F3EFDF",
"G+	c #F2EEDF",
"H+	c #ECDEAC",
"I+	c #919291",
"J+	c #C6BC99",
"K+	c #C5B98F",
"L+	c #6F706F",
"M+	c #C5C6C5",
"N+	c #303030",
"O+	c #707170",
"P+	c #9D9D9D",
"Q+	c #B7B8B7",
"R+	c #9C9C9C",
"                                                ",
"  . + @                             # $         ",
"  % & * = - ;               > , ' ) ! ~         ",
"{ ] ^ / ( _ : < < < < [ } | 1 2 3 4 5 6 7       ",
"8 9 0 a b c d e f g h i j k l m n o p 8 q r     ",
"s t u v w x y z A B C D E F G H I J K L M < ;   ",
"N O P Q R S T U V W X Y Z `  ...+.@.#.< $.< %.  ",
"&.*.=.-.;.>.z ,.'.).!.~.{.].^./.(._.:.< <.< [.  ",
"}.|.=.1.2.3.4.5.6.7.8.9.0.a.b.c.d.e.:.< f.< g.  ",
"[ |.=.h.i.j.k.5.l.m.n.~.o.p.q.r.s.t.u.< f.< g.  ",
"v.w.x.y.z.A.B.C.D.E.F.G.q.H.I.J.K.L.M.< N.< g.  ",
"O.P.Q.R.S.T.U.V.W.p.q.X.H.Y.I.Z.`. +.+< ++< g.  ",
"@+#+< < < < < < < H.I.[ I.$+%+&+*+=+< -+;+< g.  ",
"  >+,+'+)+!+~+{+H.]+^+/+J.(+_+Z.`.:+<+q [+< }+  ",
"    |+1+< < < < I.2+[ 3+K.4+5+6+7+8+< < < < 9+  ",
"        0+a+b+c+J.d+H.e+[ f+g+h+8+i+t j+k+l+m+  ",
"              n+K.o+I.p+^+q+o+r+s+t+[.;         ",
"              u+c+v+J.w+x+y+z+A+] B+C+          ",
"                j+D+K.E+F+G+H+8+N }+l+          ",
"                  I+] f+J+K+8+i+L+. M+          ",
"                    B+N+] ] = O+P+Q+            ",
"                      Q+. P+R+. Q+              ",
"                        M+0+0+M+                ",
"                                                "};
