/* XPM */
static char * customer_xpm[] = {
"36 36 546 2",
"  	c None",
". 	c #FFFFFF",
"+ 	c #F2F2F2",
"@ 	c #E6E6E5",
"# 	c #F9F9F9",
"$ 	c #FCFCFC",
"% 	c #DBDBDB",
"& 	c #D4D4D4",
"* 	c #F7F7F7",
"= 	c #F5F4F0",
"- 	c #BFB9A8",
"; 	c #C0BAAA",
"> 	c #F4F3F0",
", 	c #F0EEE8",
"' 	c #BAA980",
") 	c #D2C299",
"! 	c #F9F7F0",
"~ 	c #EBE8E2",
"{ 	c #B4A171",
"] 	c #DCCEAA",
"^ 	c #FCFBF7",
"/ 	c #FEFDFC",
"( 	c #E4DFD3",
"_ 	c #B29F6F",
": 	c #E5D9BC",
"< 	c #FEFEFD",
"[ 	c #FBF9F5",
"} 	c #D9D0B9",
"| 	c #BAA97E",
"1 	c #EDE5CF",
"2 	c #F8F6F2",
"3 	c #CFC4A7",
"4 	c #C3B288",
"5 	c #F2EDDE",
"6 	c #F5F3EF",
"7 	c #C4B796",
"8 	c #CDBB91",
"9 	c #F8F5ED",
"0 	c #FEFEFE",
"a 	c #FFFFFE",
"b 	c #F2ECE1",
"c 	c #C0A66C",
"d 	c #D8C79D",
"e 	c #FCFBF9",
"f 	c #FEFDFD",
"g 	c #FFFEFF",
"h 	c #F4F7FA",
"i 	c #E2E9EF",
"j 	c #D0D6DC",
"k 	c #D0D1D1",
"l 	c #D3D5D6",
"m 	c #D0D4D9",
"n 	c #EFF2F6",
"o 	c #FBFCFE",
"p 	c #EDE2CE",
"q 	c #C39F5B",
"r 	c #DCCCAB",
"s 	c #F3F3F2",
"t 	c #F2F1F1",
"u 	c #F1F2F2",
"v 	c #E6EBF0",
"w 	c #C9D7E3",
"x 	c #AABAC8",
"y 	c #7E9AB0",
"z 	c #6384A0",
"A 	c #88949E",
"B 	c #879AB0",
"C 	c #82A1C3",
"D 	c #98B5D5",
"E 	c #ABC3DE",
"F 	c #C5D6E8",
"G 	c #EDF2F8",
"H 	c #FDFEFE",
"I 	c #FDFBF9",
"J 	c #E6D6BA",
"K 	c #C59E5D",
"L 	c #E2D4BE",
"M 	c #EFF0EF",
"N 	c #DCE2E7",
"O 	c #A4B9CB",
"P 	c #8FA3B4",
"Q 	c #7792A7",
"R 	c #3B709C",
"S 	c #20649C",
"T 	c #2568A2",
"U 	c #5D86AF",
"V 	c #678FBC",
"W 	c #628FC0",
"X 	c #618EC0",
"Y 	c #628EC0",
"Z 	c #6B95C4",
"` 	c #81A5CD",
" .	c #B6CBE2",
"..	c #EFF4F9",
"+.	c #FBF8F5",
"@.	c #DDC3A0",
"#.	c #BD965D",
"$.	c #AAB7BE",
"%.	c #85A3BB",
"&.	c #6688A4",
"*.	c #557C9D",
"=.	c #3972A2",
"-.	c #3978AC",
";.	c #5388B7",
">.	c #5F8DBD",
",.	c #6892C2",
"'.	c #6C95C5",
").	c #6A94C4",
"!.	c #6893C3",
"~.	c #6691C2",
"{.	c #5F8CBF",
"].	c #779EC8",
"^.	c #D0DEEC",
"/.	c #F8FAFC",
"(.	c #F7FAFC",
"_.	c #C6D3DC",
":.	c #B29C7E",
"<.	c #8C7755",
"[.	c #21649B",
"}.	c #376F9E",
"|.	c #497EAA",
"1.	c #6F9BC0",
"2.	c #A2BCD3",
"3.	c #D2DBE3",
"4.	c #DBE0E4",
"5.	c #B2C2D5",
"6.	c #86A3C6",
"7.	c #7598C1",
"8.	c #789BC6",
"9.	c #749AC8",
"0.	c #7299C8",
"a.	c #7098C7",
"b.	c #6D96C6",
"c.	c #6993C4",
"d.	c #6590C1",
"e.	c #608DBF",
"f.	c #729AC6",
"g.	c #BDD0E4",
"h.	c #F6F8FB",
"i.	c #F2F6FA",
"j.	c #B4CDE1",
"k.	c #5F93C0",
"l.	c #336E9E",
"m.	c #776E60",
"n.	c #707067",
"o.	c #548BB8",
"p.	c #9CB9D2",
"q.	c #C9D6E1",
"r.	c #E5E8EB",
"s.	c #EDEDED",
"t.	c #ECECEC",
"u.	c #EBEBEA",
"v.	c #E5E6E7",
"w.	c #D2D8DF",
"x.	c #BCC8D8",
"y.	c #9FB5D1",
"z.	c #99B2D4",
"A.	c #A3BAD8",
"B.	c #94B0D3",
"C.	c #799ECB",
"D.	c #7098C6",
"E.	c #6692C2",
"F.	c #6E97C5",
"G.	c #E9F0F6",
"H.	c #C5D7E8",
"I.	c #81AACD",
"J.	c #236CA8",
"K.	c #1160A0",
"L.	c #236BA7",
"M.	c #537B9C",
"N.	c #A88A6D",
"O.	c #E1CDBB",
"P.	c #F3F3F3",
"Q.	c #F0F0F0",
"R.	c #EFEFEE",
"S.	c #EEEDED",
"T.	c #EBEBEB",
"U.	c #E9E9E9",
"V.	c #E2E1E1",
"W.	c #ABADAF",
"X.	c #A4A7AB",
"Y.	c #D1D1D1",
"Z.	c #ECEBEB",
"`.	c #EAEBEC",
" +	c #CBD6E3",
".+	c #8EACD0",
"++	c #779CC8",
"@+	c #6D96C5",
"#+	c #6691C1",
"$+	c #6792C1",
"%+	c #DFE8F2",
"&+	c #FEFEFF",
"*+	c #FCFDFE",
"=+	c #DBE7F1",
"-+	c #9EBED9",
";+	c #5B91BE",
">+	c #3F7FB3",
",+	c #4D88B9",
"'+	c #79A5C9",
")+	c #9BBAD3",
"!+	c #C0D2E1",
"~+	c #E0D1C5",
"{+	c #DAAD88",
"]+	c #EDE1D7",
"^+	c #F1F1F0",
"/+	c #EEEEEE",
"(+	c #EAEAE9",
"_+	c #B2B5BB",
":+	c #C9CBCD",
"<+	c #CACAC9",
"[+	c #BEBDBC",
"}+	c #CAC9C9",
"|+	c #DFDFDF",
"1+	c #D5DCE4",
"2+	c #B4C5D9",
"3+	c #96B0CF",
"4+	c #7598C0",
"5+	c #7094BD",
"6+	c #6F94BE",
"7+	c #97B4D3",
"8+	c #D4DEE5",
"9+	c #7FA8CA",
"0+	c #86ADCF",
"a+	c #D1E0ED",
"b+	c #E5EEF5",
"c+	c #F4F6F8",
"d+	c #F4F4F4",
"e+	c #EAD1C0",
"f+	c #E2BA9D",
"g+	c #F2EBE5",
"h+	c #F1F1F1",
"i+	c #F0F0EF",
"j+	c #EFEEEE",
"k+	c #EAE9E9",
"l+	c #D9DADC",
"m+	c #CDD1D6",
"n+	c #E9EAEB",
"o+	c #D7D6D5",
"p+	c #C9C7C7",
"q+	c #B4B2B1",
"r+	c #D9D9D8",
"s+	c #E7E8E8",
"t+	c #DEE1E5",
"u+	c #CDD5DE",
"v+	c #CBD3DC",
"w+	c #93ABC7",
"x+	c #7096C1",
"y+	c #D0DDEC",
"z+	c #FDFDFD",
"A+	c #FDFCFC",
"B+	c #F5F5F5",
"C+	c #F8F8F8",
"D+	c #E9CBB8",
"E+	c #E8C9B7",
"F+	c #F5F4F2",
"G+	c #F4F4F3",
"H+	c #F1F0F0",
"I+	c #E6E6E6",
"J+	c #CDCFD2",
"K+	c #DEE1E4",
"L+	c #EBECEB",
"M+	c #E8E7E6",
"N+	c #ECECEB",
"O+	c #E8E8E8",
"P+	c #92A9C2",
"Q+	c #5F8ABA",
"R+	c #A0BBD9",
"S+	c #F6F6F6",
"T+	c #EDDDD4",
"U+	c #EEDFD7",
"V+	c #F6F6F5",
"W+	c #CECECE",
"X+	c #B1B1B3",
"Y+	c #D4D4D5",
"Z+	c #D1D0D0",
"`+	c #AFADAC",
" @	c #C2C1C0",
".@	c #D4D3D2",
"+@	c #E9E8E8",
"@@	c #E0E2E5",
"#@	c #8CA4C0",
"$@	c #5F8BBB",
"%@	c #84A7CE",
"&@	c #EAF0F6",
"*@	c #E5E4E4",
"=@	c #C7C6C6",
"-@	c #B6B5B5",
";@	c #B5B3B3",
">@	c #DBDCDD",
",@	c #F0F1F2",
"'@	c #F0EFEF",
")@	c #E3E2E2",
"!@	c #B4B4B5",
"~@	c #B3B4B6",
"{@	c #D2D2D1",
"]@	c #E2E2E2",
"^@	c #D9D8D8",
"/@	c #C0BEBE",
"(@	c #A4A2A1",
"_@	c #A5A3A1",
":@	c #C1BFBE",
"<@	c #DCDBDB",
"[@	c #EAEAEA",
"}@	c #D9DDE2",
"|@	c #87A2C0",
"1@	c #608CBD",
"2@	c #7099C6",
"3@	c #DEE8F2",
"4@	c #FBFBFB",
"5@	c #D5D4D4",
"6@	c #BCBBBB",
"7@	c #B2B1B1",
"8@	c #AEADAD",
"9@	c #A6A5A6",
"0@	c #868E99",
"a@	c #929DAA",
"b@	c #DFE1E4",
"c@	c #E4E4E4",
"d@	c #D3D5D8",
"e@	c #E7E8EA",
"f@	c #E9E9E8",
"g@	c #C5C4C3",
"h@	c #A09E9D",
"i@	c #C5C5C3",
"j@	c #D0D6DD",
"k@	c #829EBF",
"l@	c #608DBE",
"m@	c #6491C1",
"n@	c #D8E4F0",
"o@	c #DEDEDE",
"p@	c #D2D2D2",
"q@	c #CFCECE",
"r@	c #CBCACA",
"s@	c #BDBEC0",
"t@	c #8896A5",
"u@	c #6C7E94",
"v@	c #A5AEB9",
"w@	c #EEEEED",
"x@	c #DDDDDF",
"y@	c #D7D8DC",
"z@	c #F1F1F2",
"A@	c #DCDBDA",
"B@	c #E0E0DF",
"C@	c #C9D2DA",
"D@	c #7C9CBF",
"E@	c #6390C1",
"F@	c #D8E3EF",
"G@	c #EFEFEF",
"H@	c #DBDDDF",
"I@	c #96A8BC",
"J@	c #69829F",
"K@	c #7F90A3",
"L@	c #C8CED4",
"M@	c #D3D4D7",
"N@	c #E3E4E7",
"O@	c #F5F6F6",
"P@	c #B7B6B5",
"Q@	c #A3A1A0",
"R@	c #B4B3B1",
"S@	c #DDDDDD",
"T@	c #E7E7E7",
"U@	c #C1CCD8",
"V@	c #7698BE",
"W@	c #608DC0",
"X@	c #6A95C3",
"Y@	c #DBE6F1",
"Z@	c #F5F7F9",
"`@	c #B1C4D9",
" #	c #6A8CB1",
".#	c #6C85A1",
"+#	c #96A2B3",
"@#	c #D6D6D6",
"##	c #BDBFC3",
"$#	c #DCDDDE",
"%#	c #D6D5D5",
"&#	c #AEACAA",
"*#	c #8D8B89",
"=#	c #969392",
"-#	c #B9B7B7",
";#	c #E8E8E7",
">#	c #B7C5D4",
",#	c #6E93BC",
"'#	c #5E8CBF",
")#	c #7DA2CB",
"!#	c #E6EDF5",
"~#	c #FBFCFD",
"{#	c #CDDAE9",
"]#	c #7196BD",
"^#	c #6786A9",
"/#	c #7A8EA5",
"(#	c #BAC1CB",
"_#	c #B0B1B2",
":#	c #CECDCE",
"<#	c #EAEAEB",
"[#	c #E4E4E3",
"}#	c #CBCAC9",
"|#	c #A6A4A3",
"1#	c #A3A19F",
"2#	c #CDCDCC",
"3#	c #EBEBEC",
"4#	c #AFBED1",
"5#	c #6A91BC",
"6#	c #5D8BBE",
"7#	c #97B5D5",
"8#	c #FEFFFF",
"9#	c #E7EEF5",
"0#	c #88A9CC",
"a#	c #6388B1",
"b#	c #6C86A6",
"c#	c #8A9AAD",
"d#	c #DBDEE1",
"e#	c #C3C6CB",
"f#	c #AFB4BE",
"g#	c #A2A7B1",
"h#	c #9AA0A9",
"i#	c #9FA4AD",
"j#	c #A2A7AF",
"k#	c #B2B6BD",
"l#	c #DCDEDF",
"m#	c #F0F1F0",
"n#	c #E1E0E0",
"o#	c #E8E9EA",
"p#	c #A3B7CD",
"q#	c #668FBC",
"r#	c #BACEE3",
"s#	c #FDFDFE",
"t#	c #F9FBFD",
"u#	c #C4D6E7",
"v#	c #638DBA",
"w#	c #6589B1",
"x#	c #6D87A6",
"y#	c #8697AB",
"z#	c #A4AFBD",
"A#	c #939FB0",
"B#	c #7B899E",
"C#	c #7E8CA0",
"D#	c #8290A4",
"E#	c #8593A8",
"F#	c #8693A8",
"G#	c #8591A5",
"H#	c #8B96A6",
"I#	c #C1C6CE",
"J#	c #EBECED",
"K#	c #E4E5E9",
"L#	c #98AEC8",
"M#	c #628DBC",
"N#	c #84A8CE",
"O#	c #EEF2F8",
"P#	c #EDF3F8",
"Q#	c #8BACCF",
"R#	c #628CB9",
"S#	c #678BB3",
"T#	c #6E8BAD",
"U#	c #728CAB",
"V#	c #768EAC",
"W#	c #7991B0",
"X#	c #7D95B5",
"Y#	c #8199BA",
"Z#	c #849CBE",
"`#	c #859CBE",
" $	c #849ABA",
".$	c #7F93AE",
"+$	c #8A98AD",
"@$	c #BFC6CF",
"#$	c #EEEFEF",
"$$	c #DFE3E7",
"%$	c #8BA5C4",
"&$	c #648FBD",
"*$	c #CAD9EA",
"=$	c #CEDCEB",
"-$	c #799FC8",
";$	c #618CBC",
">$	c #688EBB",
",$	c #6D90BA",
"'$	c #7192BB",
")$	c #7698C2",
"!$	c #799CC6",
"~$	c #7C9EC9",
"{$	c #7EA0CB",
"]$	c #7FA0CB",
"^$	c #7E9FC9",
"/$	c #7B99BE",
"($	c #7891B1",
"_$	c #8294AC",
":$	c #CCD1D8",
"<$	c #EEEFF0",
"[$	c #DBE0E6",
"}$	c #809FC0",
"|$	c #A0BAD6",
"1$	c #F9FAFD",
"2$	c #FAFCFD",
"3$	c #7EA3CB",
"4$	c #6F98C7",
"5$	c #729AC8",
"6$	c #749BC9",
"7$	c #779CCA",
"8$	c #769BCA",
"9$	c #749AC7",
"0$	c #7395C0",
"a$	c #708FB3",
"b$	c #7B92AC",
"c$	c #B5C0CD",
"d$	c #DDE1E6",
"e$	c #D5DBE3",
"f$	c #B3C4D6",
"g$	c #EFF3F7",
"h$	c #FAFBFD",
"i$	c #D5E1EE",
"j$	c #83A7CE",
"k$	c #6490C1",
"l$	c #6892C4",
"m$	c #6A94C5",
"n$	c #6C96C6",
"o$	c #6F97C6",
"p$	c #6E97C6",
"q$	c #6C94C3",
"r$	c #6A90BD",
"s$	c #668AB1",
"t$	c #6D8CAE",
"u$	c #8EA3BC",
"v$	c #D1D8E0",
"w$	c #ECEEF1",
"x$	c #E2EBF4",
"y$	c #A7C1DC",
"z$	c #6F98C6",
"A$	c #608EC1",
"B$	c #6591C3",
"C$	c #6792C3",
"D$	c #6591C2",
"E$	c #628EBF",
"F$	c #85A4C7",
"G$	c #C4D0DD",
"H$	c #F0F1F3",
"I$	c #8EAFD2",
"J$	c #7CA2CB",
"K$	c #749CC7",
"L$	c #729BC7",
"M$	c #779EC9",
"N$	c #82A6CD",
"O$	c #9EBAD8",
"P$	c #D9E4EF",
"Q$	c #F9FAFC",
"R$	c #D9E4F0",
"S$	c #D4E0EE",
"T$	c #D6E1EF",
"U$	c #E2EAF3",
". . . . . . . . . . . . + @ # . . . . . . . . . . . . . . . . . . . . . ",
". . . . . . . . . . . $ % & * . . . . . . . . . . . . . . . . . . . . . ",
". . . . . . . . . . . = - ; > . . . . . . . . . . . . . . . . . . . . . ",
". . . . . . . . . . . , ' ) ! . . . . . . . . . . . . . . . . . . . . . ",
". . . . . . . . . . . ~ { ] ^ . . . . . . . . . . . . . . . . . . . . . ",
". . . . . . . . . . / ( _ : < . . . . . . . . . . . . . . . . . . . . . ",
". . . . . . . . . . [ } | 1 . . . . . . . . . . . . . . . . . . . . . . ",
". . . . . . . . . . 2 3 4 5 . . . . . . . . . . . . . . . . . . . . . . ",
". . . . . . . . . . 6 7 8 9 . . . . . . 0 0 . . . . . . . . . . . . . . ",
". . . . . . . . . a b c d e $ $ f g h i j k l m n o . . . . . . . . . . ",
". . . . . . . 0 0 / p q r s t u v w x y z A B C D E F G H . . . . . . . ",
". . . 0 . . . . . I J K L M N O P Q R S T U V W X Y Z `  .... . . . . . ",
". . . . . . . . . +.@.#.$.%.&.*.=.-.;.>.,.'.'.'.).!.~.Y {.].^./.. . . . ",
". . . . . . . . (._.:.<.[.}.|.1.2.3.4.5.6.7.8.9.0.a.b.c.d.e.f.g.h.. . . ",
". . . . . . i.j.k.l.m.n.o.p.q.r.s.t.u.v.w.x.y.z.A.B.C.D.Z E.e.F.F 0 . . ",
". . 0 G.H.I.J.K.L.M.N.O.P.+ Q.R.S.s.T.U.V.W.X.Y.Z.`. +.+++@+#+e.$+%+&+. ",
"*+=+-+;+>+,+'+)+!+~+{+]+P.+ ^+R./+s.T.(+% _+:+<+[+}+|+1+2+3+4+5+6+7+h . ",
"8+9+0+j.a+b+c+d+* e+f+g+P.+ h+i+j+s.t.k+l+m+n+(+o+p+q+r+s+t+u+v+w+x+y+&+",
"z+. . . . A+B+* C+D+E+F+G++ h+H+j+S.t.I+J+K+L+M+R.j+s.t.N+(+O+v.P+Q+R+/.",
". . . . 0 S+/+T./+T+U+V+d++ + ^+R./+U.W+X+Y+Z+`+ @.@+@t.N+u.U.@@#@$@%@&@",
". . . 0 C+*@=@-@;@=@>@,@d+P.+ ^+'@j+)@!@~@{@]@^@/@(@_@:@<@[@[@}@|@1@2@3@",
". . . 4@t.5@6@7@8@9@0@a@b@P.+ h+i+j+c@d@e@B+d++ + ^+f@g@h@i@(+j@k@l@m@n@",
". . . 4@s.o@p@q@r@s@t@u@v@e@P.+ i+w@x@y@z@A@B@h++ h+Q.j+T.T.T.C@D@e.E@F@",
". . . $ B+H+G@S.[@H@I@J@K@L@h++ Q.Z.M@N@O@P@Q@R@S@T@Q.'@/+s.t.U@V@W@X@Y@",
". . . . . . . . 0 Z@`@ #.#+#@@+ /+@###$#B++ %#&#*#=#-#^@;#s.s.>#,#'#)#!#",
". . . . . . . . . ~#{#]#^#/#(#h+I+!@_#:#<#d+S+d+[#}#|#1#2#t.3#4#5#6#7#h ",
". . . . . . . . . 8#9#0#a#b#c#d#T@e#f#g#h#i#j#k#l#m#s.n#@ w@o#p#q#m@r#s#",
". . . . . . . . . . t#u#v#w#x#y#z#A#B#C#D#E#F#G#H#I#J#+ h+i+K#L#M#N#O#. ",
". . . . . . . . . . . P#Q#R#S#T#U#V#W#X#Y#Z#`# $.$+$@$#$+ ^+$$%$&$*$s#. ",
". . . . . . . . . . . 0 =$-$;$>$,$'$)$!$~${$]$^$/$($_$:$<$h+[$}$|$1$. . ",
". . . . . . . . . . . . 2$=$3$Y ~.).4$5$6$7$7$8$9$0$a$b$c$d$e$f$g$. . . ",
". . . . 0 0 0 . . 0 0 0 . h$i$j$k$E@l$m$n$o$o$p$b.q$r$s$t$u$v$w$z+. . . ",
". . . . . . . . . . . . . . H x$y$z$A$E@B$C$C$C$D$k$E$M#F$G$H$4@0 . . . ",
". . . . . . . . . . . . . . . . . .. .I$J$K$f.L$M$N$O$P$h$. . . . . . . ",
". . . . . . . . . . . . . . . . . . 0 Q$&@R$S$T$U$i.H . . . . . . . . . ",
". . . . . . . . . . . . . . . . . . . . . . . . . . . . . . . . . . . . "};
