/* XPM */
static char * del_xpm[] = {
"24 24 106 2",
"  	c None",
". 	c #000000",
"+ 	c #5A5A5A",
"@ 	c #9B9B9B",
"# 	c #F9F9F9",
"$ 	c #EBEBEB",
"% 	c #DDDDDD",
"& 	c #C4C4C4",
"* 	c #7E7E7E",
"= 	c #646376",
"- 	c #B0B0C1",
"; 	c #E1E1E8",
"> 	c #EEEEF5",
", 	c #E7E7EE",
"' 	c #E9E9F2",
") 	c #BFBFCA",
"! 	c #686877",
"~ 	c #6D6A7D",
"{ 	c #A1A0B3",
"] 	c #B3B2C5",
"^ 	c #B1B0C7",
"/ 	c #9B9AAD",
"( 	c #716F84",
"_ 	c #7F7E8F",
": 	c #5B596A",
"< 	c #555463",
"[ 	c #78778A",
"} 	c #C5C5CE",
"| 	c #ADACC1",
"1 	c #A8A7BA",
"2 	c #8F8E9F",
"3 	c #C5C5D8",
"4 	c #D3D3E4",
"5 	c #ABAAB7",
"6 	c #9291A2",
"7 	c #3C3D47",
"8 	c #484754",
"9 	c #40424B",
"0 	c #3B3A41",
"a 	c #605E6F",
"b 	c #A6A4B7",
"c 	c #BAB8CB",
"d 	c #424242",
"e 	c #CDCCDD",
"f 	c #E0DFEC",
"g 	c #CBCBD8",
"h 	c #94949F",
"i 	c #818192",
"j 	c #B6B6C3",
"k 	c #ABAABD",
"l 	c #D9D8E5",
"m 	c #F6F6FB",
"n 	c #D2D2DD",
"o 	c #C7C6D3",
"p 	c #BBBACF",
"q 	c #8A8996",
"r 	c #B8B9BF",
"s 	c #D1D1E2",
"t 	c #CECEE1",
"u 	c #9494A5",
"v 	c #BEBEC5",
"w 	c #D6D6DD",
"x 	c #BCBBC8",
"y 	c #7D7C8D",
"z 	c #9D9CAF",
"A 	c #C9C8D5",
"B 	c #C9C9D2",
"C 	c #8E8D9C",
"D 	c #51505D",
"E 	c #0B0B0B",
"F 	c #111111",
"G 	c #676771",
"H 	c #3A3943",
"I 	c #26262D",
"J 	c #070708",
"K 	c #44434A",
"L 	c #66666A",
"M 	c #4B4B4B",
"N 	c #BBBBBB",
"O 	c #B0AFBE",
"P 	c #777589",
"Q 	c #575662",
"R 	c #26262B",
"S 	c #28282F",
"T 	c #43434F",
"U 	c #757388",
"V 	c #625F72",
"W 	c #504F5C",
"X 	c #636363",
"Y 	c #303030",
"Z 	c #101010",
"` 	c #0D0D0D",
" .	c #1D1D22",
"..	c #7C7A8F",
"+.	c #686879",
"@.	c #858491",
"#.	c #6F6C81",
"$.	c #525061",
"%.	c #858396",
"&.	c #9897A4",
"*.	c #9C9BA4",
"=.	c #686679",
"-.	c #AEAEB7",
";.	c #C1C0CF",
">.	c #BFBECF",
",.	c #585667",
"                . . . . . .                     ",
"            . + @ # $ % & * . .                 ",
"      . . . = - ; > , > ' ) ! ~ . . .           ",
"    . { ] ^ / ( _ : < < [ } | ( 1 { 2 .         ",
"  . { 3 3 4 5 6 < 7 8 9 0 a b 2 c 1 b 2 .       ",
"  d e 3 4 f g 5 h _ ! < ~ [ i j k k k / .       ",
"  . l m l l ' e n o | | 1 / | | k p 1 q .       ",
"  . { r m m m f l l s t p ^ p 4 g j _ [ .       ",
"  . u b v w ; m m m m m > ' l x u y ( [ .       ",
"  . y u z k ) A n B } j - / C C C _ ~ D E       ",
"    F G u j ) A g n ) 1 1 1 u i [ H I J         ",
"    . K L M N { { O b / q 2 P Q R S T .         ",
"    . U V = W X Y Z ` . . . .  .8 W W .         ",
"    . ..= q +.q y : @.#.$.+.a W a 8 : .         ",
"    . %.= &.#.*._ : h _ $.=.= W : 8 a .         ",
"    . %.= ) #.O -.a *.&.$.=.~ $.( $.( .         ",
"    . %.= - ( p ;.#.;.5 a %.U $.( $.( .         ",
"    . %.= - #.;.p #.>.b a %.U $.( $.#..         ",
"    . %.= b ( p >.( p b a %.U $.( $.( .         ",
"    . ..= O #.;.>.( ;.b a %.U $.( $.=..         ",
"    . #.= - ( p >.#.;.5 a %.U $.#.,.V .         ",
"      . V _ #.5 k ( ;.b a %.#.$.V < .           ",
"        . . . ,.V : [ =.: ,.,.. . .             ",
"              . . . . . . . .                   "};
