/* XPM */
static char * details_xpm[] = {
"22 20 126 2",
"  	c None",
". 	c #010101",
"+ 	c #040404",
"@ 	c #0E0F0E",
"# 	c #212221",
"$ 	c #3D3F3D",
"% 	c #6B6A69",
"& 	c #9B9897",
"* 	c #A0A2A0",
"= 	c #B0B1B1",
"- 	c #4E4E4E",
"; 	c #242A25",
"> 	c #2D332D",
", 	c #6E7B6D",
"' 	c #69726A",
") 	c #5D6E5D",
"! 	c #6B786B",
"~ 	c #444E48",
"{ 	c #414844",
"] 	c #575757",
"^ 	c #A8A9A9",
"/ 	c #C6C6C6",
"( 	c #D7DADB",
"_ 	c #E8E9E9",
": 	c #F4F4F4",
"< 	c #1E201F",
"[ 	c #58615D",
"} 	c #878D9B",
"| 	c #9A8E8A",
"1 	c #C2A292",
"2 	c #91A295",
"3 	c #6C7977",
"4 	c #373B3B",
"5 	c #272827",
"6 	c #8B8B8B",
"7 	c #D4D4D5",
"8 	c #B4B8B5",
"9 	c #020202",
"0 	c #191A1A",
"a 	c #242525",
"b 	c #EADACA",
"c 	c #FAE9CF",
"d 	c #D6BAAE",
"e 	c #8696A5",
"f 	c #677070",
"g 	c #4A4B4B",
"h 	c #CDCECC",
"i 	c #343535",
"j 	c #9B9C9C",
"k 	c #E0E1E1",
"l 	c #EACEB6",
"m 	c #868C9A",
"n 	c #1B1E1C",
"o 	c #939592",
"p 	c #BFC0BF",
"q 	c #000000",
"r 	c #6B6C6C",
"s 	c #DDDEDE",
"t 	c #E1E2E2",
"u 	c #FADAA0",
"v 	c #CA966E",
"w 	c #6A7280",
"x 	c #6F7870",
"y 	c #2A2B2A",
"z 	c #8B8C8C",
"A 	c #E3E4E4",
"B 	c #A6AEB6",
"C 	c #E6C282",
"D 	c #867A7A",
"E 	c #565A66",
"F 	c #9296A0",
"G 	c #7B7E7C",
"H 	c #0C0C0C",
"I 	c #868788",
"J 	c #DFE0E1",
"K 	c #D0D4D7",
"L 	c #B5BFCA",
"M 	c #9EB2BE",
"N 	c #6E8A9E",
"O 	c #4E6A82",
"P 	c #415669",
"Q 	c #434D52",
"R 	c #73777B",
"S 	c #5E605F",
"T 	c #1E1E1E",
"U 	c #7F8181",
"V 	c #D3D5D8",
"W 	c #AAB6C2",
"X 	c #99A9B5",
"Y 	c #8696A6",
"Z 	c #5A7286",
"` 	c #364A5A",
" .	c #263A46",
"..	c #1E2A33",
"+.	c #676C6E",
"@.	c #555656",
"#.	c #373837",
"$.	c #4E5050",
"%.	c #C1C3C7",
"&.	c #9FA2A0",
"*.	c #535553",
"=.	c #393B39",
"-.	c #232424",
";.	c #808481",
">.	c #A7ABA8",
",.	c #1B1B1B",
"'.	c #313131",
").	c #444947",
"!.	c #6A6A6A",
"~.	c #2E2E2E",
"{.	c #3D3D3D",
"].	c #282B28",
"^.	c #6B716B",
"/.	c #BFBFBF",
"(.	c #A8AAA9",
"_.	c #060706",
":.	c #060606",
"<.	c #181A18",
"[.	c #2B2D2B",
"}.	c #4C534F",
"|.	c #8D9396",
"1.	c #8E908F",
"2.	c #686A67",
"3.	c #3C413A",
"4.	c #121212",
"5.	c #0B0B0B",
"                                            ",
"          . + @ # $ % & * * * = = = = -     ",
"      ; > , ' ) ! ~ { ] ^ / ( _ : : : &     ",
"    < [ } ^ | 1 | 2 3 4 5 6 = 7 _ : _ 8 9   ",
"  0 a ^ ( 7 b c d = e f g ^ * = h _ : = 9   ",
"  i j k _ _ c c l = m 8 n o | o * p k = 9   ",
"q r s t _ 7 u u v m w = x y p o ^ h k = 9   ",
"q z t A 7 B C v D w E F G H 8 o & / k = 9   ",
"q I J K L M N O P P Q R S T 7 ^ ^ 7 _ = 9   ",
"q U V W X Y Z P `  ...+.@.#.p | & 8 7 = 9   ",
"q $.%._ k ( 7 h / = ^ &.*.=.8 * * / k * 9   ",
"  -.;.( 7 p = = * * ^ >.,.'.).).E !.!.~.    ",
"  {.].^./.^ o o 6 * (._.:.q                 ",
"      <.[.}.|.1.2.3.q q q q .               ",
"        _.+ :.4.5.q q q q q q q             ",
"                        q q q q q           ",
"                          q q q q q         ",
"                            q q q q         ",
"                              q q q         ",
"                                            "};
