/* XPM */
static char * draft_costs_xpm[] = {
"16 16 137 2",
"  	c None",
". 	c #0E0E0D",
"+ 	c #0D0E0D",
"@ 	c #0D0E0C",
"# 	c #0B0D0A",
"$ 	c #1B1D1A",
"% 	c #63685E",
"& 	c #E5F2D8",
"* 	c #E1EFD1",
"= 	c #D7E8C5",
"- 	c #BED7A5",
"; 	c #4C593E",
"> 	c #11160D",
", 	c #555A50",
"' 	c #E3F1D6",
") 	c #D8EBC4",
"! 	c #C9E4AF",
"~ 	c #B4CF9A",
"{ 	c #B2CC97",
"] 	c #B6D597",
"^ 	c #A7CF80",
"/ 	c #92BD68",
"( 	c #314221",
"_ 	c #DCEDCA",
": 	c #C7E3AB",
"< 	c #B3D98F",
"[ 	c #9AC076",
"} 	c #445634",
"| 	c #95BC6E",
"1 	c #9ACB6B",
"2 	c #8EBE5E",
"3 	c #7BAE4A",
"4 	c #283B15",
"5 	c #E1F0D2",
"6 	c #C6E3AB",
"7 	c #AED686",
"8 	c #92BB6A",
"9 	c #536E39",
"0 	c #182010",
"a 	c #88B65C",
"b 	c #90C35D",
"c 	c #7FB24D",
"d 	c #679A34",
"e 	c #0C1206",
"f 	c #606759",
"g 	c #CFE7B7",
"h 	c #B1D88B",
"i 	c #9FCE72",
"j 	c #648445",
"k 	c #3F542A",
"l 	c #516C36",
"m 	c #5F7E3F",
"n 	c #769D4F",
"o 	c #96C963",
"p 	c #8BBE58",
"q 	c #72A53F",
"r 	c #293F13",
"s 	c #DDEECB",
"t 	c #BEDE9F",
"u 	c #A4D179",
"v 	c #9ACC68",
"w 	c #638442",
"x 	c #253119",
"y 	c #304020",
"z 	c #99CC66",
"A 	c #98CB65",
"B 	c #92C55F",
"C 	c #7EB14B",
"D 	c #61942E",
"E 	c #050802",
"F 	c #D7EBC2",
"G 	c #B5DA91",
"H 	c #9FCE70",
"I 	c #7CA653",
"J 	c #2A381C",
"K 	c #000000",
"L 	c #2B391D",
"M 	c #7BA452",
"N 	c #95C863",
"O 	c #83B650",
"P 	c #62952F",
"Q 	c #060903",
"R 	c #D6EBC1",
"S 	c #B0D789",
"T 	c #9BCD6B",
"U 	c #94C761",
"V 	c #80B34D",
"W 	c #5F922C",
"X 	c #0D0E0B",
"Y 	c #D2E9BC",
"Z 	c #ADD686",
"` 	c #8FC25C",
" .	c #76A944",
"..	c #588B26",
"+.	c #57624C",
"@.	c #9BCC6A",
"#.	c #97CA65",
"$.	c #759C4E",
"%.	c #628341",
"&.	c #93C661",
"*.	c #82B550",
"=.	c #6A9D37",
"-.	c #253B0F",
";.	c #151910",
">.	c #ADD685",
",.	c #96C964",
"'.	c #91C45E",
").	c #83B156",
"!.	c #506B34",
"~.	c #82B055",
"{.	c #87BA54",
"].	c #5A8D27",
"^.	c #0A1004",
"/.	c #3B4B2C",
"(.	c #8ABA5A",
"_.	c #83B550",
":.	c #80AE52",
"<.	c #3A4F25",
"[.	c #3C5027",
"}.	c #83B155",
"|.	c #87B954",
"1.	c #73A640",
"2.	c #5C8F29",
"3.	c #1F320C",
"4.	c #2D3F1B",
"5.	c #71A43E",
"6.	c #75A842",
"7.	c #7DB04B",
"8.	c #77A649",
"9.	c #79A84B",
"0.	c #7FB24C",
"a.	c #6EA03B",
"b.	c #0D1307",
"c.	c #2E4418",
"d.	c #6DA03A",
"e.	c #6EA13B",
"f.	c #649731",
"            . + @ #             ",
"        $ % & * = - ; >         ",
"      , ' ) ! ~ { ] ^ / (       ",
"    , _ : < [ } } | 1 2 3 4     ",
"  $ 5 6 7 8 9 0 0 9 a b c d e   ",
"  f g h i j k l l m n o p q r   ",
"@ s t u v w x y l z z A B C D E ",
"@ F G H z I J K L M z z N O P Q ",
"@ R S T z z M L K J I z U V W E ",
"X Y Z T z z z l y x w A `  ...E ",
"  +.Z @.#.$.m l l k %.&.*.=.-.  ",
"  ;.>.,.'.).l 0 0 !.~.{.q ].^.  ",
"    /.(._.{.:.<.[.}.|.1.2.3.    ",
"      4.5.6.7.8.9.0.a.].3.      ",
"        b.c.=.d.e.f.r ^.        ",
"            Q Q Q Q             "};
