/* XPM */
static char * draft_book_xpm[] = {
"17 17 154 2",
"  	c None",
". 	c #0C0F13",
"+ 	c #11161A",
"@ 	c #0C1014",
"# 	c #010202",
"$ 	c #546474",
"% 	c #8499B1",
"& 	c #627C98",
"* 	c #506B88",
"= 	c #445F7B",
"- 	c #395572",
"; 	c #35516E",
"> 	c #375370",
", 	c #395471",
"' 	c #395570",
") 	c #2F3E4D",
"! 	c #11161C",
"~ 	c #16191E",
"{ 	c #7D8E9F",
"] 	c #6F88A2",
"^ 	c #546F8D",
"/ 	c #486583",
"( 	c #3B5875",
"_ 	c #324F6C",
": 	c #314E6B",
"< 	c #34516E",
"[ 	c #324C66",
"} 	c #263038",
"| 	c #000000",
"1 	c #010101",
"2 	c #414952",
"3 	c #859AB1",
"4 	c #5E7996",
"5 	c #4F6C8A",
"6 	c #425F7C",
"7 	c #395674",
"8 	c #35516D",
"9 	c #26394B",
"0 	c #555B60",
"a 	c #191A1B",
"b 	c #14171A",
"c 	c #7B8EA1",
"d 	c #728BA5",
"e 	c #54708E",
"f 	c #486482",
"g 	c #3E5A78",
"h 	c #33506E",
"i 	c #324A63",
"j 	c #2C3641",
"k 	c #4E5254",
"l 	c #454F59",
"m 	c #869CB3",
"n 	c #617C99",
"o 	c #506C8A",
"p 	c #45617E",
"q 	c #385572",
"r 	c #35526F",
"s 	c #293E51",
"t 	c #383D41",
"u 	c #666A6D",
"v 	c #0D0E10",
"w 	c #8191A2",
"x 	c #758DA7",
"y 	c #587391",
"z 	c #4C6886",
"A 	c #415E7C",
"B 	c #33506D",
"C 	c #334C66",
"D 	c #2D3840",
"E 	c #66696C",
"F 	c #35414D",
"G 	c #414A54",
"H 	c #8599AF",
"I 	c #66809B",
"J 	c #536F8D",
"K 	c #476381",
"L 	c #3C5976",
"M 	c #344F6B",
"N 	c #293C50",
"O 	c #41474A",
"P 	c #666E76",
"Q 	c #171A1D",
"R 	c #1C1D1D",
"S 	c #878F98",
"T 	c #9BABBB",
"U 	c #8FA0B0",
"V 	c #8396AA",
"W 	c #7C8FA3",
"X 	c #6C8094",
"Y 	c #617890",
"Z 	c #61788F",
"` 	c #62778E",
" .	c #566A80",
"..	c #3A434D",
"+.	c #626669",
"@.	c #464C53",
"#.	c #040507",
"$.	c #606C79",
"%.	c #3A4653",
"&.	c #475360",
"*.	c #56616E",
"=.	c #5B6673",
"-.	c #626E7B",
";.	c #5B6876",
">.	c #5D6B7A",
",.	c #606D7D",
"'.	c #66717E",
").	c #71777C",
"!.	c #676E75",
"~.	c #161F28",
"{.	c #5E656D",
"].	c #7B7C7D",
"^.	c #C2C4C5",
"/.	c #CDCECF",
"(.	c #D1D1D2",
"_.	c #E0E0E2",
":.	c #E1E3E5",
"<.	c #DFE2E6",
"[.	c #DDE0E4",
"}.	c #B6BABD",
"|.	c #8F9396",
"1.	c #455463",
"2.	c #050608",
"3.	c #54697E",
"4.	c #909DAB",
"5.	c #D2D5D9",
"6.	c #CAD1D9",
"7.	c #DBE0E4",
"8.	c #E1E3E4",
"9.	c #E6E7E8",
"0.	c #E4E4E6",
"a.	c #ADB0B4",
"b.	c #8A8F94",
"c.	c #12181D",
"d.	c #1E2832",
"e.	c #5B6977",
"f.	c #5C7288",
"g.	c #8594A3",
"h.	c #92A1AF",
"i.	c #B3BEC8",
"j.	c #B0B3B6",
"k.	c #6D7276",
"l.	c #050708",
"m.	c #070B0F",
"n.	c #101317",
"o.	c #0F1216",
"p.	c #3D5063",
"q.	c #5F6E7C",
"r.	c #828E98",
"s.	c #4D6277",
"t.	c #1A2129",
"u.	c #303841",
"v.	c #313A46",
"w.	c #202D39",
"                                  ",
"        . + + + + + + + + + + @   ",
"      # $ % & * = - ; > , ' ) !   ",
"      ~ { ] ^ / ( _ : : < [ } |   ",
"    1 2 3 4 5 6 7 _ : : 8 9 0 a   ",
"    b c d e f g h : : _ i j k +   ",
"  | l m n o p q _ : : r s t u |   ",
"  v w x y z A r : : B C D E F |   ",
"| G H I J K L B : : M N O P Q     ",
"R S T U V W X Y Z `  ...+.@.#.    ",
"+ $.%.&.*.=.-.;.>.,.'.).!.~.      ",
"+ {.].^./.(._.:.<.[.}.|.1.2.      ",
"+ + 3.4.5.6.7.8.9.0.a.b.c.        ",
"    d.+ e.f.g.h.i.:.j.k.l.        ",
"        m.n.o.p.q.r.s.t.          ",
"            | + u.v.w.#           ",
"                + + +             "};
