/* XPM */
static char * hint_xpm[] = {
"32 32 362 2",
"  	c None",
". 	c #909192",
"+ 	c #696A6F",
"@ 	c #5A5A61",
"# 	c #64666E",
"$ 	c #55565D",
"% 	c #65676F",
"& 	c #5D5F66",
"* 	c #515255",
"= 	c #606166",
"- 	c #87888A",
"; 	c #4F4F53",
"> 	c #66666C",
", 	c #93939F",
"' 	c #D7D8E8",
") 	c #DEDEEE",
"! 	c #DBDBEE",
"~ 	c #D9D9ED",
"{ 	c #D6D6EB",
"] 	c #CECFE4",
"^ 	c #9EA1B1",
"/ 	c #7F828C",
"( 	c #4C4D52",
"_ 	c #57585F",
": 	c #A1A2AE",
"< 	c #DADAE7",
"[ 	c #E4E4F2",
"} 	c #E2E2F1",
"| 	c #DFDFEF",
"1 	c #DCDCEE",
"2 	c #D8D8EC",
"3 	c #D4D4EB",
"4 	c #CFD0E8",
"5 	c #BEC1D5",
"6 	c #838690",
"7 	c #4B4D52",
"8 	c #5C5C60",
"9 	c #7D7D86",
"0 	c #DADAE3",
"a 	c #E4E4EF",
"b 	c #EBEBF5",
"c 	c #E9E9F4",
"d 	c #E6E6F3",
"e 	c #E3E3F1",
"f 	c #DFDFF0",
"g 	c #D7D7EC",
"h 	c #D1D3E9",
"i 	c #CED0E7",
"j 	c #C0C1D6",
"k 	c #72777E",
"l 	c #56595F",
"m 	c #4E4E50",
"n 	c #7C7C83",
"o 	c #D2D2DC",
"p 	c #ECECF4",
"q 	c #EEEEF7",
"r 	c #EFEFF7",
"s 	c #ECECF6",
"t 	c #EAEAF5",
"u 	c #E5E5F3",
"v 	c #DDDDEF",
"w 	c #D3D4EA",
"x 	c #CFD1E8",
"y 	c #CDD0E6",
"z 	c #B8BCCC",
"A 	c #696F75",
"B 	c #5D6067",
"C 	c #B2B2BB",
"D 	c #EFEFF6",
"E 	c #F5F5FA",
"F 	c #F6F6FA",
"G 	c #F4F4FA",
"H 	c #F1F1F8",
"I 	c #EDEDF6",
"J 	c #E5E5F2",
"K 	c #D5D6EB",
"L 	c #D0D2E8",
"M 	c #CCD0E5",
"N 	c #9EA6B0",
"O 	c #676B70",
"P 	c #4A4A4B",
"Q 	c #909096",
"R 	c #E0E0E9",
"S 	c #F8F8FB",
"T 	c #FAFAFC",
"U 	c #F7F7FB",
"V 	c #F4F4F9",
"W 	c #F0F0F8",
"X 	c #ECECF5",
"Y 	c #E8E8F4",
"Z 	c #D9D9EC",
"` 	c #D3D4E9",
" .	c #CCD0E4",
"..	c #CBD0E3",
"+.	c #CBD0E4",
"@.	c #737A80",
"#.	c #5B5E63",
"$.	c #474749",
"%.	c #AFAFB7",
"&.	c #FDFDFE",
"*.	c #F2F2F8",
"=.	c #E1E1F0",
"-.	c #D8DAEB",
";.	c #CFD4E5",
">.	c #CDD3E4",
",.	c #CBD1E2",
"'.	c #97A0A7",
").	c #5C5F64",
"!.	c #4A4B4E",
"~.	c #E2E2EB",
"{.	c #FBFBFC",
"].	c #F7F7FA",
"^.	c #F3F3F8",
"/.	c #EEEEF6",
"(.	c #E8E8F3",
"_.	c #DEE0EF",
":.	c #D3D9E8",
"<.	c #D0D6E6",
"[.	c #CCD2E3",
"}.	c #B3BAC7",
"|.	c #4E5256",
"1.	c #4C4C50",
"2.	c #D6D6DF",
"3.	c #F2F2F9",
"4.	c #F9F9FB",
"5.	c #FAFAFB",
"6.	c #FAFAFD",
"7.	c #F9F9FC",
"8.	c #F3F3F9",
"9.	c #E5E6F2",
"0.	c #D7DCE8",
"a.	c #D3DBE6",
"b.	c #D0D7E4",
"c.	c #BAC3CE",
"d.	c #52575B",
"e.	c #4E4F52",
"f.	c #DFDFEB",
"g.	c #FCFCFC",
"h.	c #FCFCFD",
"i.	c #F5F5F9",
"j.	c #EBEAEE",
"k.	c #E6E7F2",
"l.	c #D8E0E9",
"m.	c #D1DEE4",
"n.	c #CCD4E3",
"o.	c #B9C2CE",
"p.	c #585D62",
"q.	c #48494E",
"r.	c #C9C9D5",
"s.	c #E7E7F3",
"t.	c #F3F2F4",
"u.	c #F2F1F0",
"v.	c #F0F0F4",
"w.	c #EAEBF1",
"x.	c #E3E6EF",
"y.	c #D7E3E6",
"z.	c #D0E2E3",
"A.	c #D0DCE4",
"B.	c #A0AAB1",
"C.	c #585A5C",
"D.	c #56565A",
"E.	c #77787E",
"F.	c #E1E2F0",
"G.	c #E6E6F2",
"H.	c #EBECF5",
"I.	c #F1F0F7",
"J.	c #E2E1E2",
"K.	c #F2F3F8",
"L.	c #F1F1F7",
"M.	c #EEEFF6",
"N.	c #E6E6E6",
"O.	c #E5E7F0",
"P.	c #DDE3EA",
"Q.	c #D4E5E4",
"R.	c #CEE4E0",
"S.	c #CBDCDE",
"T.	c #6E757A",
"U.	c #595B5D",
"V.	c #5C5D62",
"W.	c #D7D9E8",
"X.	c #DCE1EC",
"Y.	c #E0E4EE",
"Z.	c #E3E7F0",
"`.	c #D4D5D7",
" +	c #E8EAF2",
".+	c #E8EAF3",
"++	c #E6E9F2",
"@+	c #E5E8F1",
"#+	c #D1D3D5",
"$+	c #D9E0E7",
"%+	c #D4E3E3",
"&+	c #CEEAE0",
"*+	c #CCE4E0",
"=+	c #BFCFD2",
"-+	c #6B7276",
";+	c #56575C",
">+	c #757780",
",+	c #D3DEE7",
"'+	c #D5E2E7",
")+	c #D8E1E9",
"!+	c #DFE6EA",
"~+	c #D8DBD9",
"{+	c #DDE3ED",
"]+	c #DCE2EC",
"^+	c #DAE1EB",
"/+	c #B4B9BC",
"(+	c #D1DFE1",
"_+	c #CEE6DF",
":+	c #CCE9DE",
"<+	c #CDE1E0",
"[+	c #94A0A3",
"}+	c #4A4C50",
"|+	c #616167",
"1+	c #9FA4AF",
"2+	c #CDDEE2",
"3+	c #CDDFE2",
"4+	c #D8E5E8",
"5+	c #ACB6B5",
"6+	c #CDDCE2",
"7+	c #CCDAE1",
"8+	c #CCD8E0",
"9+	c #CDD4D4",
"0+	c #C8CFC4",
"a+	c #CCE2DE",
"b+	c #CBECDE",
"c+	c #CCE8DF",
"d+	c #B1C0C2",
"e+	c #484B4E",
"f+	c #323336",
"g+	c #6A6B74",
"h+	c #C6CCDB",
"i+	c #CBDAE0",
"j+	c #CFDFE3",
"k+	c #BDC5BA",
"l+	c #CAD7D7",
"m+	c #CBDADE",
"n+	c #CBD9DE",
"o+	c #C8D2D1",
"p+	c #BACAC5",
"q+	c #CBE7DE",
"r+	c #CBE9DE",
"s+	c #B8CACA",
"t+	c #4E5154",
"u+	c #636466",
"v+	c #343438",
"w+	c #757781",
"x+	c #CBCEE3",
"y+	c #C5C9D3",
"z+	c #B7BEBC",
"A+	c #BCC1B9",
"B+	c #C7CDC1",
"C+	c #CCD0C1",
"D+	c #C7CDC6",
"E+	c #BCC5BA",
"F+	c #CAD8D3",
"G+	c #C0D2D2",
"H+	c #474A4D",
"I+	c #3C3C43",
"J+	c #8A888C",
"K+	c #BFBBB8",
"L+	c #B7B6B6",
"M+	c #BCBBB8",
"N+	c #C3C2BA",
"O+	c #CCC9BB",
"P+	c #CECBBA",
"Q+	c #CAC9B9",
"R+	c #C4C3B5",
"S+	c #292C2B",
"T+	c #575B5E",
"U+	c #2B2921",
"V+	c #E3D8B3",
"W+	c #DBD5C2",
"X+	c #DBD8CF",
"Y+	c #D5D1C7",
"Z+	c #D7D2C3",
"`+	c #D9D1B7",
" @	c #D6CCAA",
".@	c #B7A875",
"+@	c #332E1B",
"@@	c #322E22",
"#@	c #EDDFAA",
"$@	c #F5E9BF",
"%@	c #F5E9C1",
"&@	c #EEDFA9",
"*@	c #E7D79A",
"=@	c #DECD90",
"-@	c #D1BF80",
";@	c #A19156",
">@	c #302C1A",
",@	c #333129",
"'@	c #F7EDCD",
")@	c #EADFB8",
"!@	c #E0D6B4",
"~@	c #DACD9D",
"{@	c #D3C38A",
"]@	c #CCBD87",
"^@	c #CEC297",
"/@	c #B8A871",
"(@	c #38321F",
"_@	c #322F23",
":@	c #ECDDA8",
"<@	c #F5EAC4",
"[@	c #F6ECCA",
"}@	c #F0E1AB",
"|@	c #E7D595",
"1@	c #DCCB8B",
"2@	c #D0BF83",
"3@	c #A19360",
"4@	c #343020",
"5@	c #323027",
"6@	c #F3E8C2",
"7@	c #E9DEBB",
"8@	c #E0D7B7",
"9@	c #DACEA6",
"0@	c #CFC08A",
"a@	c #C5B67F",
"b@	c #C8BB8F",
"c@	c #B6A874",
"d@	c #36311D",
"e@	c #312E24",
"f@	c #E8DAA8",
"g@	c #F2E8C5",
"h@	c #F1E7C2",
"i@	c #EADCAC",
"j@	c #DFCE92",
"k@	c #D6C487",
"l@	c #C9B87B",
"m@	c #978851",
"n@	c #2C2817",
"o@	c #2D2B25",
"p@	c #E4DAB8",
"q@	c #E6DEBE",
"r@	c #DCD4B7",
"s@	c #CFC294",
"t@	c #C6B782",
"u@	c #BDAE7A",
"v@	c #BDB080",
"w@	c #A19467",
"x@	c #272315",
"y@	c #40403E",
"z@	c #4C4732",
"A@	c #E6DBAF",
"B@	c #E8DDB7",
"C@	c #DED09E",
"D@	c #D4C48A",
"E@	c #CCBC83",
"F@	c #B8A86D",
"G@	c #433C23",
"H@	c #050402",
"I@	c #020202",
"J@	c #3C392D",
"K@	c #625C48",
"L@	c #968E70",
"M@	c #706847",
"N@	c #423D2A",
"O@	c #211E11",
"P@	c #010101",
"Q@	c #121212",
"R@	c #6F6F6F",
"S@	c #3C3C3C",
"T@	c #090909",
"U@	c #000000",
"                                                                ",
"                    . + @ # $ % & * = -                         ",
"                  ; > , ' ) ! ~ { ] ^ / (                       ",
"                _ : < [ [ } | 1 2 3 4 5 6 7                     ",
"              8 9 0 a b c d e f ! g h i j k l                   ",
"            m n o p q r s t u } v ~ w x y z A B                 ",
"            * C D E F G H I c J f ! K L M M N O                 ",
"          P Q R E S T U V W X Y [ f Z `  ...+.@.#.              ",
"          $.%.r F T &.T U E *.r s Y =.-.;.>.,.'.).              ",
"          !.~.r E S {.T S ].E ^.H /.(._.:.<.[.}.|.              ",
"          1.2.I 3.F 4.4.5.6.7.S U 8./.9.0.a.b.c.d.              ",
"          e.f.t W V 4.g.{.h.T 4.h.i.j.k.l.m.n.o.p.              ",
"          q.r.s.X H t.u.S S T 7.8.v.w.x.y.z.A.B.C.              ",
"          D.E.F.G.H.I.J.K.K.*.L.M.N.O.P.Q.R.S.T.U.              ",
"            V.W.X.Y.Z.`. +.+.+++@+#+$+%+&+*+=+-+                ",
"            ;+>+,+'+)+!+~+{+]+^+^+/+(+_+:+<+[+}+                ",
"              |+1+2+3+4+5+6+7+8+9+0+a+b+c+d+e+                  ",
"              f+g+h+i+j+k+l+m+n+o+p+q+r+s+t+u+                  ",
"                v+w+x+y+z+A+B+C+D+E+F+G+H+e.                    ",
"                  I+J+K+L+M+N+O+P+Q+R+S+T+                      ",
"                    U+V+W+X+Y+Z+`+ @.@+@                        ",
"                    @@#@$@%@&@*@=@-@;@>@                        ",
"                    ,@'@)@!@~@{@]@^@/@(@                        ",
"                    _@:@<@[@}@|@1@2@3@4@                        ",
"                    5@6@7@8@9@0@a@b@c@d@                        ",
"                    e@f@g@h@i@j@k@l@m@n@                        ",
"                    o@p@q@r@s@t@u@v@w@x@                        ",
"                    y@z@A@B@C@D@E@F@G@H@                        ",
"                      I@J@K@L@M@N@O@P@                          ",
"                          Q@R@S@T@U@                            ",
"                            U@U@                                ",
"                                                                "};
