/* XPM */
static char * house_xpm[] = {
"91 72 257 2",
"  	c None",
". 	c #F1EBEC",
"+ 	c #E7E1E2",
"@ 	c #605C5D",
"# 	c #595657",
"$ 	c #AAA7A8",
"% 	c #EBE9EA",
"& 	c #E2DFE1",
"* 	c #CFCBCF",
"= 	c #4B4A4B",
"- 	c #DAD8DA",
"; 	c #E6E5E6",
"> 	c #BAB9BA",
", 	c #B0AFB0",
"' 	c #D5D4D6",
") 	c #C6C5C7",
"! 	c #F0EDF4",
"~ 	c #F5F2FA",
"{ 	c #B4B3B8",
"] 	c #AEAEB4",
"^ 	c #BDBDBF",
"/ 	c #DDDDDE",
"( 	c #D1D1D2",
"_ 	c #62646D",
": 	c #6C6E76",
"< 	c #00030C",
"[ 	c #72757D",
"} 	c #000E17",
"| 	c #001C29",
"1 	c #002534",
"2 	c #003548",
"3 	c #00AEDA",
"4 	c #00A2C9",
"5 	c #008FB1",
"6 	c #00191C",
"7 	c #000B0C",
"8 	c #028189",
"9 	c #F8FCFC",
"0 	c #EEEFEF",
"a 	c #E8E9E9",
"b 	c #E1E2E2",
"c 	c #076A62",
"d 	c #23684C",
"e 	c #0A2D17",
"f 	c #010D03",
"g 	c #000500",
"h 	c #2A5529",
"i 	c #061802",
"j 	c #59763F",
"k 	c #2B3105",
"l 	c #1B1605",
"m 	c #100C01",
"n 	c #4E3606",
"o 	c #8A571C",
"p 	c #6E4E2A",
"q 	c #713A03",
"r 	c #281502",
"s 	c #977B60",
"t 	c #F86400",
"u 	c #A89181",
"v 	c #CB4D00",
"w 	c #491D00",
"x 	c #3A1701",
"y 	c #D7CFCA",
"z 	c #933400",
"A 	c #B8A499",
"B 	c #C5B8B1",
"C 	c #A73600",
"D 	c #2E1F18",
"E 	c #4F372D",
"F 	c #EEDED7",
"G 	c #852500",
"H 	c #752000",
"I 	c #651B00",
"J 	c #591700",
"K 	c #A0634C",
"L 	c #71564C",
"M 	c #D6BFB6",
"N 	c #393635",
"O 	c #BD7B67",
"P 	c #E2C8C1",
"Q 	c #5D1200",
"R 	c #4F0D00",
"S 	c #969190",
"T 	c #E5B5AD",
"U 	c #624541",
"V 	c #71605E",
"W 	c #350400",
"X 	c #0E0100",
"Y 	c #D48E87",
"Z 	c #440501",
"` 	c #D2A8A5",
" .	c #E2D0CF",
"..	c #ECDDDC",
"+.	c #270100",
"@.	c #1A0100",
"#.	c #AE0000",
"$.	c #9F0000",
"%.	c #9B0000",
"&.	c #980000",
"*.	c #970000",
"=.	c #950000",
"-.	c #930000",
";.	c #910000",
">.	c #8E0000",
",.	c #8D0000",
"'.	c #880000",
").	c #860000",
"!.	c #850000",
"~.	c #830000",
"{.	c #810000",
"].	c #7F0000",
"^.	c #7D0000",
"/.	c #7B0000",
"(.	c #780000",
"_.	c #770000",
":.	c #740000",
"<.	c #700000",
"[.	c #6E0000",
"}.	c #6C0000",
"|.	c #6B0000",
"1.	c #690000",
"2.	c #660000",
"3.	c #640000",
"4.	c #610000",
"5.	c #5F0000",
"6.	c #5C0000",
"7.	c #590000",
"8.	c #510000",
"9.	c #050000",
"0.	c #A30101",
"a.	c #A70202",
"b.	c #9F0202",
"c.	c #9C0202",
"d.	c #910202",
"e.	c #A90303",
"f.	c #A30303",
"g.	c #800202",
"h.	c #790202",
"i.	c #950303",
"j.	c #A40404",
"k.	c #7D0303",
"l.	c #7A0303",
"m.	c #AE0505",
"n.	c #AB0505",
"o.	c #A80505",
"p.	c #950505",
"q.	c #B00707",
"r.	c #800505",
"s.	c #AD0808",
"t.	c #990707",
"u.	c #850606",
"v.	c #B20909",
"w.	c #B70A0A",
"x.	c #6D0606",
"y.	c #560505",
"z.	c #B20B0B",
"A.	c #900909",
"B.	c #BC0D0D",
"C.	c #9B0B0B",
"D.	c #5F0707",
"E.	c #B70E0E",
"F.	c #C21010",
"G.	c #BE1010",
"H.	c #770B0B",
"I.	c #6D0A0A",
"J.	c #C41313",
"K.	c #CA1616",
"L.	c #630B0B",
"M.	c #CF1919",
"N.	c #C51818",
"O.	c #580B0B",
"P.	c #AC1717",
"Q.	c #D41D1D",
"R.	c #DB2121",
"S.	c #E02525",
"T.	c #E52929",
"U.	c #EB2D2D",
"V.	c #521010",
"W.	c #F03030",
"X.	c #771818",
"Y.	c #A22121",
"Z.	c #F43434",
"`.	c #FB3838",
" +	c #FE4040",
".+	c #D93838",
"++	c #681B1B",
"@+	c #4B1616",
"#+	c #FC4C4C",
"$+	c #BE3E3E",
"%+	c #3A1414",
"&+	c #542121",
"*+	c #642E2E",
"=+	c #7F3D3D",
"-+	c #F3C9C9",
";+	c #1B1717",
">+	c #E6C8C8",
",+	c #F4D7D7",
"'+	c #ECD4D4",
")+	c #DBCDCD",
"!+	c #D6CACA",
"~+	c #232121",
"{+	c #4A4646",
"]+	c #E2D7D7",
"^+	c #504C4C",
"/+	c #2E2C2C",
"(+	c #767171",
"_+	c #CEC6C6",
":+	c #8E8989",
"<+	c #8A8585",
"[+	c #6F6B6B",
"}+	c #545151",
"|+	c #FCF4F4",
"1+	c #DAD3D3",
"2+	c #BCB6B6",
"3+	c #AFA9A9",
"4+	c #9D9898",
"5+	c #7B7777",
"6+	c #D6D0D0",
"7+	c #CFC9C9",
"8+	c #CBC5C5",
"9+	c #C2BCBC",
"0+	c #B3AEAE",
"a+	c #A9A4A4",
"b+	c #A19C9C",
"c+	c #918D8D",
"d+	c #837F7F",
"e+	c #676464",
"f+	c #413F3F",
"g+	c #ECE6E6",
"h+	c #E3DDDD",
"i+	c #D3CECE",
"j+	c #D0CBCB",
"k+	c #C8C3C3",
"l+	c #C4BFBF",
"m+	c #BEB9B9",
"n+	c #B7B2B2",
"o+	c #A5A1A1",
"p+	c #989494",
"q+	c #FDF8F8",
"r+	c #EEE9E9",
"s+	c #E0DBDB",
"t+	c #DCD7D7",
"u+	c #D7D2D2",
"v+	c #F3EFEF",
"w+	c #DEDADA",
"x+	c #F5F2F2",
"y+	c #C5C2C2",
"z+	c #CAC9C9",
"A+	c #C0C0C0",
"B+	c #FDFDFD",
"C+	c #FBFBFB",
"D+	c #F9F9F9",
"E+	c #F6F6F6",
"F+	c #D7D7D7",
"G+	c #CECECE",
"H+	c #000000",
"                                                                                                                                                                                      ",
"                                                                                                                                                                                      ",
"                                                                                                                                                                                      ",
"                                                                                                                                    k+[+%+Z 7.                                        ",
"                                                                                                                        B+0 $ U %+8.5.4.4.6.7.c+                                      ",
"                                                                                                                C+a+}+Z 7.6.1.[.1.4.5.5.6.7.7.5.F+                                    ",
"                                                                                                        6+d+&+8.4.:.(.:.[.|.1.2.2.3.4.5.5.6.6.7.5.C+                                  ",
"                                                                                              x+, L @+4.<.^.~./.:.<.<.[.[.}.|.1.2.2.3.4.5.5.6.6.7.V.                                  ",
"                                                                                      - <+E 7.1./.'.'.]./.(._._._.:.:.<.[.}.}.|.1.2.2.3.4.5.5.5.7.7.U                                 ",
"                                                                            E+l+V O.7.:.'.;.>.~.].^.^.^./.(.(._._._.:.<.<.<.[.}.1.1.2.2.3.4.4.5.6.6.6.p+                              ",
"                                                                    % p+*+8.1.^.;.&.;.).~.~.~.~.~.{.].].^././.(._._._.:.:.<.<.[.[.|.1.2.2.3.4.5.5.6.6.4./                             ",
"                                                          a l+[+&+6.}.'.%.%.;.'.'.'.).'.).).!.!.~.~.~.].{.].^././.(.(._.:.:.<.<.[.}.|.1.1.2.3.4.5.5.6.7.6.C+                          ",
"                                                C+!+(+V.8.}._.-.0.$.=.,.,.,.,.,.,.'.'.'.'.'.).!.!.~.~.~.{.].]./././.(.(._.:.:.<.<.[.}.|.1.2.2.3.4.4.5.6.7.V.                          ",
"                                        E+a+U V.5.[.;.0.0.&.=.;.;.;.;.;.>.;.>.>.,.,.,.,.,.'.'.'.).!.~.~.~.{.{.].^././.(._._.:.:.:.<.[.}.|.1.2.2.4.4.5.5.6.6.L                         ",
"                                    *+5.6.(.&.#.0.%.-.=.=.=.=.-.-.=.;.;.-.-.;.;.>.>.>.,.,.,.'.'.'.'.!.).~.~.{.~.^.^.^././.(._._.:.:.[.<.}.1.1.2.2.4.4.5.5.6.5.a+                      ",
"                                  v+~.'.0.&.*.=.&.&.&.&.&.*.&.&.&.*.*.=.=.=.-.-.;.;.;.>.>.>.,.,.,.'.).'.).!.~.~.{.{.^.^././.(._.:.:.<.<.[.}.1.1.2.2.4.5.5.6.6.4.b                     ",
"                                  r.^.].*.&.%.%.%.%.%.c.c.%.%.%.%.%.%.&.&.&.*.*.*.-.-.;.;.;.;.,.,.,.'.'.).).!.~.~.{.{.].^././.(._._.:.<.<.[.}.1.1.2.3.4.5.5.5.6.6.                    ",
"                                X.~.|.[.'.b.b.b.f.b.b.$.$.$.$.$.$.%.%.%.%.&.&.&.&.=.=.-.;.;.;.;.,.,.,.,.'.'.).!.~.~.{.{.^.^././.(._.:.:.<.<.[.}.1.1.2.3.4.5.6.6.7.&+                  ",
"                              =+{.[.7.B d.*.j.j.j.j.j.f.f.f.f.f.0.0.0.$.$.$.%.%.%.&.&.*.*.=.-.;.;.>.,.,.'.'.'.!.!.!.~.~.].]./././.(._.:.:.<.[.}.|.1.1.2.3.4.5.6.6.6.V                 ",
"                            d+~.:.7.u 6+)+>.j.o.n.o.n.n.o.n.o.o.o.a.a.0.0.0.$.$.$.%.%.&.&.*.*.-.-.;.>.,.,.'.'.'.).!.~.~.{.{.^.^././._._.:.:.<.<.}.|.1.2.2.4.4.5.6.6.5.,               ",
"                          , ~.(.7.s u+6+/ O c.s.s.s.s.s.s.s.s.s.n.n.e.e.a.0.0.0.0.$.$.%.%.&.&.*.-.;.;.;.>.,.'.'.'.).!.~.~.{.{.^.^././._.:.:.<.<.}.|.1.2.2.3.4.4.5.6.6.4.a             ",
"                        b !./.7.=+j+7+i+6+- P.o.z.z.z.z.z.z.v.v.v.q.q.q.n.e.e.a.0.0.0.$.&.%.&.&.*.=.-.;.;.>.,.,.'.'.).!.~.~.{.].]./.(.(._.:.:.<.<.}.|.1.1.2.3.4.5.5.6.7.7.            ",
"                      B+{./.7.X.- i+6+1+j+u+6+a.E.E.E.G.E.E.E.E.w.w.w.v.q.q.m.n.e.a.a.0.$.$.%.%.&.*.=.-.;.;.>.,.,.'.'.!.~.!.~.{.{.]././._._.:.:.<.<.}.|.1.1.2.3.4.5.5.7.7.&+          ",
"                      I./.7.I.- 1+1+t+h+t+h+s+Y v.J.J.G.G.G.G.G.G.B.E.w.w.v.v.q.m.n.e.a.0.0.$.%.%.&.*.=.-.;.;.>.,.'.'.).!.!.~.~.{.]././.(._._.:.<.<.[.|.1.1.2.3.4.5.5.6.7.7.[+        ",
"                    y+].<.8.u 6+1+t+t++ w++ h+h+q.J.N.J.J.J.J.J.G.G.B.B.w.z.w.v.q.m.e.e.a.0.0.$.%.%.&.*.=.;.;.>.,.,.'.'.).!.!.~.{.].^././.(._.:.<.<.<.}.|.1.2.2.4.5.5.6.7.7.y.        ",
"                  % ].<.8.s y+8+j+w+0+& s++ + g+Y G.K.K.K.N.N.N.J.J.J.F.G.B.w.w.v.v.m.n.e.a.0.0.$.%.&.&.=.-.;.;.>.,.'.'.'.).!.~.~.].^.^./.(._._.:.<.<.}.|.1.1.2.3.4.4.5.6.7.7.*+      ",
"                  :.:.8.=+z+8+k+* o 8 h L g++ g+E+.+M.Q.Q.N.N.M.M.K.K.K.J.J.G.B.B.w.v.q.m.e.a.0.0.$.%.&.&.*.=.;.;.>.,.'.'.).).!.~.~.].^././.(._.:.:.<.[.}.|.1.1.2.3.4.5.6.6.7.7.(+    ",
"                ++<.8.*+j+7+i+7+M 8 4 4 8 u h++ . % K.R.R.Q.Q.Q.Q.Q.M.M.K.K.J.F.G.B.w.w.q.m.e.a.a.0.$.%.%.&.*.=.;.;.,.,.'.'.).).!.~.{.]././.(._._.:.:.<.[.}.1.1.2.2.3.4.5.6.6.7.5.>   ",
"              *+[.8.L.^ l+8+j+7+T 4 4 4 3 n ; t+h++ T M.S.S.S.S.R.R.Q.Q.M.M.K.J.J.G.B.w.w.v.m.e.a.0.0.$.%.&.&.=.-.;.>.>.'.'.'.).!.~.{.].^././.(._.:.:.<.<.[.|.1.2.2.3.4.5.5.6.6.#     ",
"            (+|.8.8.> 0+2+m+8+_+P 4 4 4 3 8 B + 1+h+; .+S.T.T.T.T.S.R.R.Q.Q.M.M.K.J.F.G.B.w.v.m.n.a.0.0.$.%.&.*.=.-.;.,.,.,.'.'.).!.~.{.]././.(._._.:.<.<.[.}.1.1.2.3.4.4.4.{+E+      ",
"          $ 1.8.8.^ n+n+2+n+9+y+)+8 4 4 3 3 O . s+r+g+0 Q.U.W.U.U.T.T.S.S.R.Q.Q.M.K.K.F.G.B.w.q.m.e.a.0.$.$.%.&.=.=.;.;.,.,.'.'.).~.~.~.].]././._._._.:.<.<.[.|.1.1.2.2.f+x+          ",
"        F+2.8.Z $ n+n+2+m+k+y+k+z+K 3 4 3 3 O . h+x+x+x+-+R.T.Z.W.W.U.T.T.S.R.R.Q.M.M.K.F.G.B.w.q.m.e.a.0.$.%.&.&.=.-.;.>.,.,.'.'.!.~.~.{.].^./.(._._.:.:.<.[.}.1.1.+.;+              ",
"      D+5.8.Z 4+b+3+0+2+m+8+k+j+j+)+c 3 3 8 ` g++ x+x+|+B+#+Q.Z.`.Z.Z.W.U.T.T.S.R.Q.M.M.K.F.G.B.w.q.m.e.a.0.$.%.&.*.-.;.>.,.,.'.'.).!.~.{.].]././.(._.:.:.<.<.<.W ;+~+~+              ",
"      y.8.Z <+o+o+a+3+3+2+8+l+7+6+t+M h c q / s+h+r+v+x+|+9 Y R. +`.`.Z.W.W.T.T.S.R.Q.M.K.J.J.B.w.w.m.n.a.0.0.$.%.&.=.;.;.;.,.,.'.'.!.!.~.].^././.(._.:.:._.Z H+X ~+/+=               ",
"      @+U F+c+o+a+$ 3+3+0+m+7+j+i+1+t+% F % + s+t+h++ g+v+v+D+.+S. + +`.`.Z.W.U.T.S.R.Q.M.K.J.F.B.w.q.m.e.0.0.$.%.&.*.=.;.;.>.,.'.'.).!.~.{.].^./.(._./.Z 9.9.@.I N {+[+              ",
"            d+o+a+3+3+0+2+3+H+9.:+s+w+w++ + g++ g++ h+s++ g+g+x+K.`. + + +`.Z.W.U.T.S.R.Q.M.K.J.F.B.w.q.m.e.0.0.%.%.&.=.;.;.>.,.,.'.).!.~.{.].^./.].8.9.9.+.9.H+t }+# :+              ",
"            <+o+a+3+0+n+m+n+H H @.H+E i++ + g++ . . r+g++ + h++ T K.#+ + + +`.Z.W.U.T.S.R.Q.M.K.F.B.w.v.m.e.a.0.$.%.&.*.-.;.;.,.,.'.).!.~.~.{.~.7.9.H+@.+.H+< } t # # >               ",
"            c+4+o+3+3+n+m+2+Q w h G R H+H+p+E+h+. g+r+. g+. g++ a .+Q.#+ + + +`.Z.W.U.T.R.R.M.M.J.F.B.w.q.m.e.0.$.%.&.*.-.-.;.,.,.'.'.!.!.'.4.@.H++.@.m G g 6 6 C # # F+              ",
"            z+p+4+o+a+0+2+9+Q I 4 4 c G H X H+N h+. g+g++ . % g+. 0 B.Z.#+#+ + +`.Z.W.U.S.R.Q.M.K.J.G.w.v.m.e.a.0.$.%.&.=.-.;.>.,.,.'.,.|.+./+v z H+< k Q } | e H # ^+%               ",
"            ( o+b+4+o+a+n+^ I I 4 5 4 q I I z Z H+H+:+. h++ g+g+v+. ` v.#+#+#+ + +`.Z.U.T.S.R.Q.K.J.G.B.w.q.m.a.0.$.%.&.=.=.;.>.,.>.:.+./+/+/+v H } | q W 6 | n w }+#                 ",
"            ; a+b+b+3+a+3+{ I R 4 5 4 q I +.3 c G H X n 1+w+s+h+v+v+; $+G.#+#+ + +`.`.W.U.S.R.Q.M.K.J.G.w.v.m.e.0.$.%.%.*.=.;.-.].+.H+r /+N f+t J 1 1 C @.| | z w }+{+                ",
"              o+b+o+$ 3+n+{ H R 5 5 5 n I +.3 4 3 5 Z n t+u+i+t++ r+h+0 n.U.#+#+ + +`.Z.W.T.S.R.Q.K.J.G.E.v.q.n.a.0.$.%.&.&.,.+.9.@.+.W f+{+# t W 1 1 v @.| | v D }+f+                ",
"              :+c+4+o+a+0+{ q R 5 5 5 n H +.3 4 4 4 R w + h+t+t+s+h+t+h+M $.#+#+ + +`.`.W.T.S.R.Q.M.K.F.B.w.q.n.a.0.$.0.2.W 9.X W X q x @ [+_ t @.1 1 t X | | v /+}+=                 ",
"              :+p+4+p+b+3+3+q R 8 5 5 h H +.3 4 4 4 R x + + s+g++ w+1+6+s+$+o.#+#+ + +`.Z.U.T.R.Q.M.K.J.B.w.v.m.e.e./.@.9.X W @.7 } z x (+[+@ t g 1 | t 9.i Q l = ^+#                 ",
"              <+4+b+4+4+o+a+o R 8 5 5 h H +.4 4 4 4 Q x & + s+g+g++ + t+w+/ b.Q.#+ + +`.Z.W.T.S.R.Q.K.J.G.E.v.q.~.+.9.+.W W W 6 | 1 C n [+[+L t g 1 | t X +.;+~+= }+d+                ",
"              d+p+b+b+o+o+a+o R c 5 5 d H +.5 4 4 4 Q W - + s++ + h+g+h++ s+M -. +#+ + +`.W.T.S.R.Q.M.J.G.F.;.+.H+@.W 9.q C +.1 2 2 C E [+[+L t f | w R ;+~+/+N ^+# ^                 ",
"              d+:+S 4+o+o+, s R d 5 5 c H +.8 5 4 4 I +.- s+t++ h+h++ h+g+h+w+$+&.#+ + +`.Z.U.T.R.Q.M.M.o.W N I W @.} | z z +.2 2 2 v E [+[+p t m H l ~+/+/+N {+^+D+                  ",
"              :+:+c+c+4+4+3+s R h 5 5 8 H +.8 5 4 4 I +.- 6+6+t+t+s+h+h+g+h+t+0 *.J.#+ +`.Z.W.T.R.R.G.W f+f+E C @.| 1 1 z G @.2 2 2 v ^+[+e+o v @.~+~+/+N f+= ,                       ",
"              S :+c+c+p+4+a+u R h 5 5 8 H +.8 5 5 4 I +./ i+i+6+1+t+s+h++ s+w+g+K -.#+ +`.Z.W.T.T.J.W N f+f+E C @.1 1 2 C G @.2 2 1 v }+[+e+U z ~+/+/+N f+}+(+                        ",
"              $ <+S S p+S 4+b+R @.@.8 5 H +.c 5 5 4 I @.; t+t+6+j+j+6+w+h+u+w++ 0 i.G. +`.Z.W.R.Z N N f+^+# U C m 2 2 2 C H @.2 2 1 v e+e+e+^+~+/+N N {+}+;                           ",
"              ' d+c+c+p+p+4+b+$ s J +.@.H +.c 5 5 4 J @.a w+s+w+6+t+7+i+u+i+t++ + !+).Z. +W.y.f+{+{+f+# e+[+p C m 2 2 2 C Q m 2 2 1 C e+e+@ }+/+f+{+}+:+                              ",
"              D+5+S <+S p+4+o+o+o+] s J I W e 5 5 5 n @.& t+t+1+6+1+i+t+6+7+i+t+s+u+O '.L.N ^+{+}+# }+[+5+d+p C i 2 2 2 C R m 2 1 I Z e+@ e+# f+}+# 0                                 ",
"                  / (+c+c+p+o+a+o+a+$ ] s I +.+.c 4 n @.* 8+7+i+i+u+6+s+s+6+u+6+i+i+b B @ = }+@ @ @ e+d+:+<+p C i 2 2 2 C Z f k G r }+e+e+e+# # b+                                    ",
"                      ' d+S p+o+b+a+3+3+3+{ u I +.@.n @.8+l+l+k+8+6+i+t+s+6+s+t+6+7+j+t+@ @ @ @ [+d+5+<+<+<+p z i 2 2 2 C W R x /+/+}+e+e+e+# B+                                      ",
"                          > :+o+4+o+3+3+0+0+3+> u I Q X k+7+8+7+8+9+8+6+t+6+s+h+t+1+1+1+[+e+[+d+c+:+5+<+<+d+q z 6 2 2 e G +.D /+/+N # e+e+$                                           ",
"                              3+4+b+o+3+3+n+n+n+0+{ u u 7+8+8+i+i+y+8+k+_+7+t+s+t+w+t+s+5+d+S S S :+5+<+d+[+q z 6 2 z J ~+/+/+f+f+^+@ @                                               ",
"                                  4+o+o+o+n+0+m+2+2+n+n+9+y+l+j+6+k+6+j+k+9+_+6+t+w+t+h+4+p+S S c+<+5+5+5+5+q G w z r /+N N f+^+# @ >                                                 ",
"                                      <+a+$ a+n+n+m+l+n+n+n+m+l+j+l+6+6+j+7+8+8+8+i+t+s+4+p+p+c+c+<+(+d+5+5+q G W /+/+f+{+f+}+e+e+                                                    ",
"                                          <+3+3+3+m+m+2+9+n+2+n+9+m+j+i+7+i+j+i+7+l+8+6+b+p+S c+c+<+(+d+5+5+= /+/+N {+}+}+}+e+z+                                                      ",
"                                            E+c+0+3+n+n+9+n+m+m+m+n+9+k+l+i+j+6+6+8+j+7+4+S c+c+:+<+(+5+5+(+{+N f+= # @ e+(+                                                          ",
"                                                b S n+3+2+n+m+m+l+k+m+2+m+k+7+i+u+8+u+u+4+S c+:+<+d+[+(+(+[+{+f+^+@ [+5+                                                              ",
"                                                    F+c+0+3+n+2+m+k+l+9+m+n+l+8+i+l+u+t+p+c+c+:+<+d+e+(+(+(+# ^+@ e+/                                                                 ",
"                                                        z+4+n+0+n+l+9+9+9+2+m+2+l+m+i+1+p+c+c+<+d+5+[+(+(+[+e+e+d+                                                                    ",
"                                                            D+:+n+m+2+m+m+m+l+l+m+2+y+7+S :+:+d+5+(+[+(+(+(+[+a                                                                       ",
"                                                                0 <+n+n+2+2+y+l+8+y+m+m+S :+5+d+5+(+[+(+d+S                                                                           ",
"                                                                    / b+2+0+9+l+k+8+y+8+:+5+<+d+5+5+[+[+x+                                                                            ",
"                                                                        y+o+2+2+9+8+y+7+c+<+<+d+d+d+o+                                                                                ",
"                                                                            n+a+n+m+l+k+c+d+d+d+[+                                                                                    ",
"                                                                                a+3+n+m+:+d+<+,                                                                                       ",
"                                                                                    c+m+c+(+                                                                                          ",
"                                                                                        y+                                                                                            ",
"                                                                                                                                                                                      "};
