/* XPM */
static char * sale_xpm[] = {
"36 36 293 2",
"  	c None",
". 	c #FFFFFF",
"+ 	c #F9F8F8",
"@ 	c #EEEEED",
"# 	c #EEEEEE",
"$ 	c #F7F7F7",
"% 	c #D1B4B0",
"& 	c #AA776D",
"* 	c #B9958B",
"= 	c #CFBDB7",
"- 	c #E2E1E1",
"; 	c #CA9D98",
"> 	c #AD6051",
", 	c #C58E7F",
"' 	c #E7CCC3",
") 	c #E9E8E8",
"! 	c #CA9C97",
"~ 	c #E9E9E8",
"{ 	c #FEFEFE",
"] 	c #C99B96",
"^ 	c #E7E6E6",
"/ 	c #FCFCFC",
"( 	c #FDFDFD",
"_ 	c #F2EEEB",
": 	c #DBC5B8",
"< 	c #CCAA97",
"[ 	c #AD6D5D",
"} 	c #AC5F50",
"| 	c #C38D7E",
"1 	c #E5CAC1",
"2 	c #CCBAAF",
"3 	c #DBC7B9",
"4 	c #E8DED7",
"5 	c #F3F2F2",
"6 	c #FBFBFB",
"7 	c #F0EEED",
"8 	c #D1B9AB",
"9 	c #B7896E",
"0 	c #BA8E75",
"a 	c #D0B2A2",
"b 	c #D7BCB3",
"c 	c #E2CBC6",
"d 	c #ECDED9",
"e 	c #F4ECE9",
"f 	c #EAE2DD",
"g 	c #E6D8CE",
"h 	c #DFCDBF",
"i 	c #D9C6B9",
"j 	c #E6E2DF",
"k 	c #F6F5F5",
"l 	c #BC9882",
"m 	c #AC7B5F",
"n 	c #D4BCAE",
"o 	c #F8F4F1",
"p 	c #FCFAF8",
"q 	c #FAF7F5",
"r 	c #EAE1DB",
"s 	c #E0DEDD",
"t 	c #F5F5F5",
"u 	c #E5E5E4",
"v 	c #C3B4AC",
"w 	c #A27256",
"x 	c #DFD0C6",
"y 	c #EFEDEC",
"z 	c #E3E2E2",
"A 	c #EAE9E9",
"B 	c #CAC9C8",
"C 	c #A28473",
"D 	c #BEA392",
"E 	c #F4F0ED",
"F 	c #E8E1DE",
"G 	c #F2EEEC",
"H 	c #E3E2E1",
"I 	c #F4F4F4",
"J 	c #D6D5D5",
"K 	c #ACABA9",
"L 	c #8C6C5A",
"M 	c #E6DDD7",
"N 	c #E0D2CF",
"O 	c #87564B",
"P 	c #8A655A",
"Q 	c #9D8A83",
"R 	c #B9B1AD",
"S 	c #FBF9F7",
"T 	c #F2F0EE",
"U 	c #EAEAE9",
"V 	c #EBEAEA",
"W 	c #C3C1C1",
"X 	c #969493",
"Y 	c #7D6456",
"Z 	c #C5A6A1",
"` 	c #905145",
" .	c #A17568",
"..	c #B09A92",
"+.	c #8E8986",
"@.	c #DEDCDA",
"#.	c #F9F7F5",
"$.	c #ECEBEB",
"%.	c #E3E3E3",
"&.	c #B6B4B3",
"*.	c #8A8886",
"=.	c #6F6057",
"-.	c #F7F4F1",
";.	c #F8F3F1",
">.	c #D0B0A8",
",.	c #C49E94",
"'.	c #C9B3AB",
").	c #A3958C",
"!.	c #AEA299",
"~.	c #B9B4B1",
"{.	c #BCBAB9",
"].	c #C1BFBE",
"^.	c #D0CFCE",
"/.	c #E2E2E1",
"(.	c #F2F2F2",
"_.	c #B2B0B0",
":.	c #888584",
"<.	c #676360",
"[.	c #D6D1CD",
"}.	c #F9F5F3",
"|.	c #E6DFDA",
"1.	c #D1C2B8",
"2.	c #BDA99A",
"3.	c #BCACA1",
"4.	c #CDC9C7",
"5.	c #E1E0DF",
"6.	c #F1F1F1",
"7.	c #BBBAB8",
"8.	c #908E8C",
"9.	c #6E6A68",
"0.	c #8B8886",
"a.	c #FAF8F6",
"b.	c #F2ECE8",
"c.	c #E0D2CA",
"d.	c #DAD5D2",
"e.	c #EEEDED",
"f.	c #CFCECD",
"g.	c #A5A3A2",
"h.	c #7F7D7B",
"i.	c #686563",
"j.	c #A4A2A0",
"k.	c #F7F5F3",
"l.	c #F1EDE9",
"m.	c #DAD8D7",
"n.	c #E6E5E5",
"o.	c #C4C3C2",
"p.	c #A19E9D",
"q.	c #827F7E",
"r.	c #716E6C",
"s.	c #8C8987",
"t.	c #D6D3D1",
"u.	c #F0EEEC",
"v.	c #DFDEDD",
"w.	c #F8F8F8",
"x.	c #C9C8C7",
"y.	c #ADABAA",
"z.	c #979493",
"A.	c #888684",
"B.	c #7E7A78",
"C.	c #8F8C8A",
"D.	c #B3A5A2",
"E.	c #DACDC9",
"F.	c #F8F5F2",
"G.	c #E0DFDE",
"H.	c #D9C5B9",
"I.	c #AD8067",
"J.	c #A2785F",
"K.	c #997059",
"L.	c #916B55",
"M.	c #8E6955",
"N.	c #98887F",
"O.	c #84635F",
"P.	c #7C483D",
"Q.	c #8F6C62",
"R.	c #B7A9A3",
"S.	c #CECBC9",
"T.	c #F9F7F4",
"U.	c #EBE9E7",
"V.	c #EDEDED",
"W.	c #F3F3F3",
"X.	c #E9E9E9",
"Y.	c #CFBFB6",
"Z.	c #C8A591",
"`.	c #D9C3B6",
" +	c #DDCBC1",
".+	c #E1D4CB",
"++	c #E6DCD6",
"@+	c #ECE7E3",
"#+	c #A57F7A",
"$+	c #8F5144",
"%+	c #9E7266",
"&+	c #AE9991",
"*+	c #87827E",
"=+	c #B7A99F",
"-+	c #EAEAEA",
";+	c #CCCBCA",
">+	c #B3AFAC",
",+	c #D4C2B7",
"'+	c #BA8A82",
")+	c #A35B4C",
"!+	c #B58375",
"~+	c #C8AFA7",
"{+	c #9D8F86",
"]+	c #9E897B",
"^+	c #F9F6F4",
"/+	c #EDECEA",
"(+	c #EDECEC",
"_+	c #D3D2D1",
":+	c #AFAEAD",
"<+	c #8E8C8A",
"[+	c #A59B95",
"}+	c #EDDDD9",
"|+	c #B77467",
"1+	c #C28C7D",
"2+	c #D4BAB2",
"3+	c #A79488",
"4+	c #CABDB4",
"5+	c #E7E5E4",
"6+	c #807D7B",
"7+	c #6C6865",
"8+	c #E7E4E2",
"9+	c #F7F1EF",
"0+	c #E8D7D1",
"a+	c #E9DEDA",
"b+	c #EAE5E2",
"c+	c #F8F6F4",
"d+	c #E2E1E0",
"e+	c #DCDBDA",
"f+	c #AFADAC",
"g+	c #878482",
"h+	c #8D8A88",
"i+	c #E4E3E2",
"j+	c #A29F9E",
"k+	c #7E7B79",
"l+	c #696563",
"m+	c #9F9C9A",
"n+	c #F5F3F1",
"o+	c #F8F7F5",
"p+	c #E3E1E0",
"q+	c #E8E8E8",
"r+	c #F9F9F9",
"s+	c #E5E4E3",
"t+	c #A3A09F",
"u+	c #868482",
"v+	c #777472",
"w+	c #858281",
"x+	c #BFBDBB",
"y+	c #E6E4E2",
"z+	c #F4F1EF",
"A+	c #E1DFDE",
"B+	c #D9D8D7",
"C+	c #E5E4E4",
"D+	c #B3B1B0",
"E+	c #A09E9D",
"F+	c #959392",
"G+	c #866A65",
"H+	c #8D5F55",
"I+	c #A18178",
"J+	c #B9A9A2",
"K+	c #B7B5B4",
"L+	c #C2C1C0",
"M+	c #CDCCCC",
"N+	c #DFDFDE",
"O+	c #EFEFEE",
"P+	c #FAFAFA",
"Q+	c #FBFBFA",
"R+	c #E1E0E0",
"S+	c #D2D2D1",
"T+	c #C8C6C6",
"U+	c #C1C0BF",
"V+	c #9A7671",
"W+	c #8E5044",
"X+	c #A3766A",
"Y+	c #C3ABA3",
"Z+	c #CECDCC",
"`+	c #E4E4E3",
" @	c #F0EFEF",
".@	c #F1F0F0",
"+@	c #EDEDEC",
"@@	c #EBEBEB",
"#@	c #B68C87",
"$@	c #A25A4C",
"%@	c #BB8778",
"&@	c #DEC4BB",
"*@	c #C49791",
"=@	c #AD5F51",
"-@	c #F0F0EF",
";@	c #C49792",
">@	c #F0F0F0",
",@	c #DFCBC9",
"'@	c #CDABA4",
")@	c #D7BFB8",
"!@	c #E6DAD6",
". . . . . . . . . . . . . . . . . . . . . . . . . . . . . . . . . . . . ",
". . . . . . . . . . . . . . . + @ @ # $ . . . . . . . . . . . . . . . . ",
". . . . . . . . . . . . . . . % & * = - . . . . . . . . . . . . . . . . ",
". . . . . . . . . . . . . . . ; > , ' ) . . . . . . . . . . . . . . . . ",
". . . . . . . . . . . . . . . ; > , ' ) . . . . . . . . . . . . . . . . ",
". . . . . . . . . . . . . . . ! > , ' ~ . . . . . . . . . . . . . . . . ",
". . . . . . . . . . . . . . { ] > , ' ^ / ( . . . . . . . . . . . . . . ",
". . . . . . . . . . . / _ : < [ } | 1 2 3 4 5 6 { . . . . . . . . . . . ",
". . . . . . . . . 6 7 8 9 0 a b c d e f g h i j k { . . . . . . . . . . ",
". . . . . . . { $ ) l m n o p p p p p p p p q r s t . . . . . . . . . . ",
". . . . . . . $ u v w x p p p p p p p p p p p p y z 6 . . . . . . . . . ",
". . . . . . 6 A B C D p p p p p E F G p p p p p p H 5 . . . . . . . . . ",
". . . . . . I J K L M p p p p N O P Q R S p p p p T U { . . . . . . . . ",
". . . . . { V W X Y q p p p p Z `  ...+.@.p p p p #.$.( . . . . . . . . ",
". . . . . ( %.&.*.=.-.p p p p ;.>.,.'.).!.~.{.].^./.(.{ . . . . . . . . ",
". . . . . ( z _.:.<.[.p p p p p p p }.|.1.2.3.4.5.6.6 . . . . . . . . . ",
". . . . . { ~ 7.8.9.0.a.p p p p p p p p p p b.c.d.e.( . . . . . . . . . ",
". . . . . . I f.g.h.i.j.k.p p p p p p p p p p p l.m.6.. . . . . . . . . ",
". . . . . . / n.o.p.q.r.s.t.#.p p p p p p p p p p u.v.6 . . . . . . . . ",
". . . . . . . w.z x.y.z.A.B.C.D.E.F.p p p p p p p p G.I . . . . . . . . ",
". . . . . . { / H.I.J.K.L.M.N.O.P.Q.R.S.T.p p p p p U.V.. . . . . . . . ",
". . . . . / W.X.Y.Z.`. +.+++@+#+$+%+&+*+=+p p p p p y -+{ . . . . . . . ",
". . . . . $ z ;+>+,+p p p p p '+)+!+~+{+]+^+p p p p /+(+. . . . . . . . ",
". . . . . W._+:+<+[+p p p p p }+|+1+2+3+4+p p p p p 5+(.. . . . . . . . ",
". . . . . t ^.g.6+7+8+p p p p p 9+0+a+b+S p p p p c+d+w.. . . . . . . . ",
". . . . . 6 e+f+g+i.h+#.p p p p p p p p p p p p S i+e.( . . . . . . . . ",
". . . . . . # x.j+k+l+m+n+p p p p p p p p p p o+p+q+r+. . . . . . . . . ",
". . . . . . 6 s+o.t+u+v+w+x+y+z+a.p p p c+u.A+B+~ w.. . . . . . . . . . ",
". . . . . . . w.C+;+D+E+F+8.8.G+H+I+J+K+L+M+N+O+P+. . . . . . . . . . . ",
". . . . . . . . Q+O+R+S+T+L+U+V+W+X+Y+Z+`+ @+ { . . . . . . . . . . . . ",
". . . . . . . . . { P+t .@+@@@#@$@%@&@A / { . . . . . . . . . . . . . . ",
". . . . . . . . . . . . . { { *@=@, ' -@. . . . . . . . . . . . . . . . ",
". . . . . . . . . . . . . . . ;@> , ' >@. . . . . . . . . . . . . . . . ",
". . . . . . . . . . . . . . . ,@'@)@!@t . . . . . . . . . . . . . . . . ",
". . . . . . . . . . . . . . . . . . . . . . . . . . . . . . . . . . . . ",
". . . . . . . . . . . . . . . . . . . . . . . . . . . . . . . . . . . . "};
