/* XPM */
static char * partners_xpm[] = {
"32 24 444 2",
"  	c None",
". 	c #B3B4B2",
"+ 	c #B5B4B2",
"@ 	c #B8B7B3",
"# 	c #7B746C",
"$ 	c #64625F",
"% 	c #929392",
"& 	c #8D8E8D",
"* 	c #72716F",
"= 	c #4C4B49",
"- 	c #383633",
"; 	c #35322D",
"> 	c #49433A",
", 	c #5C5347",
"' 	c #52493C",
") 	c #8B7B67",
"! 	c #BAA892",
"~ 	c #817668",
"{ 	c #6C6964",
"] 	c #ACADAC",
"^ 	c #898989",
"/ 	c #C6C0B6",
"( 	c #5E5A55",
"_ 	c #4F4E4A",
": 	c #4D4D4C",
"< 	c #4D4B48",
"[ 	c #4E4A46",
"} 	c #5E5B57",
"| 	c #63605C",
"1 	c #504D49",
"2 	c #3A342E",
"3 	c #847462",
"4 	c #BFAD95",
"5 	c #E7D7C3",
"6 	c #E6D6C1",
"7 	c #E2CBAC",
"8 	c #A18E77",
"9 	c #736E68",
"0 	c #AAABAA",
"a 	c #909090",
"b 	c #494745",
"c 	c #504C46",
"d 	c #B8AFA3",
"e 	c #D3CDC4",
"f 	c #D4C5B2",
"g 	c #CBBFAD",
"h 	c #C3BBB1",
"i 	c #C7C1B8",
"j 	c #746E67",
"k 	c #4C4843",
"l 	c #5B544B",
"m 	c #B4A28C",
"n 	c #DBCCB9",
"o 	c #E9DDCD",
"p 	c #E2D4C1",
"q 	c #DCCAB4",
"r 	c #DBC7AE",
"s 	c #DCC7AD",
"t 	c #BBA78E",
"u 	c #797064",
"v 	c #6F6A64",
"w 	c #584F44",
"x 	c #5D5447",
"y 	c #C4B7A5",
"z 	c #ECE1D3",
"A 	c #EEDDC8",
"B 	c #F1E2CE",
"C 	c #F4E9DC",
"D 	c #DED2C4",
"E 	c #5D5751",
"F 	c #A99E8F",
"G 	c #E3D6C4",
"H 	c #EAE0D2",
"I 	c #E2D5C5",
"J 	c #D7C5AF",
"K 	c #C9B397",
"L 	c #B7A184",
"M 	c #BDA688",
"N 	c #D2BFA6",
"O 	c #D8C6AF",
"P 	c #DAC6AC",
"Q 	c #C0AA8F",
"R 	c #9D8A71",
"S 	c #AB9B86",
"T 	c #D2C6B6",
"U 	c #D7CCBC",
"V 	c #DBD1C4",
"W 	c #E0D2C0",
"X 	c #E4D7C4",
"Y 	c #EEDCC3",
"Z 	c #E9D9C3",
"` 	c #EFDECC",
" .	c #F1E5D6",
"..	c #EADED0",
"+.	c #524D46",
"@.	c #EADBC9",
"#.	c #E8DBC9",
"$.	c #CEBEA9",
"%.	c #C1AD94",
"&.	c #BFA98C",
"*.	c #A99479",
"=.	c #99856C",
"-.	c #AD967A",
";.	c #BCA586",
">.	c #C0A98A",
",.	c #C7B091",
"'.	c #CDB69A",
").	c #B5A289",
"!.	c #A8967F",
"~.	c #CEBBA3",
"{.	c #CCBCA7",
"].	c #CDC2B3",
"^.	c #CCC2B3",
"/.	c #CFC8BE",
"(.	c #E1CAB1",
"_.	c #E8CFB0",
":.	c #EDD5B6",
"<.	c #EDDAC3",
"[.	c #F4E4D1",
"}.	c #F7EADC",
"|.	c #565048",
"1.	c #E7D8C5",
"2.	c #E2D1BA",
"3.	c #C8B194",
"4.	c #AC977B",
"5.	c #8C7B64",
"6.	c #5F5346",
"7.	c #6B5E4E",
"8.	c #81705A",
"9.	c #9F8A6F",
"0.	c #AE987A",
"a.	c #B49D7F",
"b.	c #BCA686",
"c.	c #BDA587",
"d.	c #A69176",
"e.	c #AF9B81",
"f.	c #C5B29A",
"g.	c #C1B29D",
"h.	c #C3B7A5",
"i.	c #C9C1B6",
"j.	c #D2C8BB",
"k.	c #D7C7B2",
"l.	c #D5BFA3",
"m.	c #D8C0A1",
"n.	c #E3CCB1",
"o.	c #EBD7C1",
"p.	c #F0E0CF",
"q.	c #F3E6D8",
"r.	c #E9DAC9",
"s.	c #564F46",
"t.	c #D6C6B1",
"u.	c #DECFB9",
"v.	c #C6B195",
"w.	c #B19B7F",
"x.	c #5D5246",
"y.	c #74695B",
"z.	c #84745F",
"A.	c #5F5142",
"B.	c #70604F",
"C.	c #927E67",
"D.	c #A18D73",
"E.	c #A89479",
"F.	c #B29B7E",
"G.	c #B1997C",
"H.	c #B39D7F",
"I.	c #B9A486",
"J.	c #B7A690",
"K.	c #C0B3A4",
"L.	c #C7BFB3",
"M.	c #CFCBC4",
"N.	c #CCC3B7",
"O.	c #D1C2AE",
"P.	c #D4BEA3",
"Q.	c #D9C1A3",
"R.	c #DFC9AE",
"S.	c #ECD9C3",
"T.	c #F3E3D1",
"U.	c #F5E8D9",
"V.	c #F0DEC9",
"W.	c #6D655B",
"X.	c #C8C0B7",
"Y.	c #E3D9CD",
"Z.	c #B6A998",
"`.	c #B19D82",
" +	c #61574B",
".+	c #9E8F7A",
"++	c #C8B8A4",
"@+	c #A59178",
"#+	c #71614D",
"$+	c #86755F",
"%+	c #94846F",
"&+	c #A08E79",
"*+	c #A5917B",
"=+	c #B09A7F",
"-+	c #B0987C",
";+	c #BCA68C",
">+	c #BBAA93",
",+	c #BDAE9C",
"'+	c #C3BAAB",
")+	c #CBC5BB",
"!+	c #CBC7C0",
"~+	c #C4BCB0",
"{+	c #BFB3A2",
"]+	c #C8B49D",
"^+	c #D5BEA2",
"/+	c #D4BFA7",
"(+	c #E4D0B9",
"_+	c #ECDDCA",
":+	c #F5E8D8",
"<+	c #F5E6D5",
"[+	c #72695D",
"}+	c #D5CBC1",
"|+	c #D2C9BE",
"1+	c #C7B9A5",
"2+	c #867A69",
"3+	c #645B51",
"4+	c #C6B398",
"5+	c #DCD1BF",
"6+	c #D5C5AF",
"7+	c #998162",
"8+	c #6E604B",
"9+	c #7E705C",
"0+	c #867765",
"a+	c #92826E",
"b+	c #A89379",
"c+	c #AD9679",
"d+	c #AC977C",
"e+	c #B5A186",
"f+	c #B8A994",
"g+	c #C1B5A6",
"h+	c #C4BEB4",
"i+	c #565452",
"j+	c #56524B",
"k+	c #544C44",
"l+	c #574F45",
"m+	c #BBAA95",
"n+	c #C4B2A0",
"o+	c #CDBDAA",
"p+	c #D5C6B5",
"q+	c #E6D7C6",
"r+	c #857869",
"s+	c #B6A084",
"t+	c #BDA991",
"u+	c #897B69",
"v+	c #6D6051",
"w+	c #9E8B71",
"x+	c #EBE1D3",
"y+	c #E1D5C4",
"z+	c #E8DCCC",
"A+	c #D3BEA3",
"B+	c #978166",
"C+	c #6E604D",
"D+	c #7D6F5D",
"E+	c #95826A",
"F+	c #A69175",
"G+	c #AC967A",
"H+	c #897862",
"I+	c #978771",
"J+	c #6F675C",
"K+	c #54514D",
"L+	c #5E5D5B",
"M+	c #BEBEBC",
"N+	c #AEAFAD",
"O+	c #989793",
"P+	c #65625C",
"Q+	c #4A433B",
"R+	c #50483D",
"S+	c #655C50",
"T+	c #615B53",
"U+	c #A29584",
"V+	c #BAA995",
"W+	c #433D35",
"X+	c #9A8B78",
"Y+	c #B0A08D",
"Z+	c #CFBAA1",
"`+	c #E9DFD0",
" @	c #CBB8A0",
".@	c #DFD3C2",
"+@	c #CDBBA4",
"@@	c #8F7E6A",
"#@	c #766755",
"$@	c #9B876D",
"%@	c #AB9478",
"&@	c #9E8B70",
"*@	c #565148",
"=@	c #5D5B55",
"-@	c #4A4A4A",
";@	c #AFAFAF",
">@	c #B9B7B2",
",@	c #423C36",
"'@	c #C2AC90",
")@	c #F2EADF",
"!@	c #F0E7DC",
"~@	c #C8B59C",
"{@	c #837564",
"]@	c #887B69",
"^@	c #BAA589",
"/@	c #CAB396",
"(@	c #CAB397",
"_@	c #CFB89A",
":@	c #E5D6BF",
"<@	c #C8B397",
"[@	c #BDAB92",
"}@	c #CFC5B7",
"|@	c #97856F",
"1@	c #685844",
"2@	c #9B886E",
"3@	c #A79175",
"4@	c #756858",
"5@	c #4B4C4B",
"6@	c #A9AAA9",
"7@	c #4D4741",
"8@	c #BBA486",
"9@	c #E6D2BA",
"0@	c #DEC6A9",
"a@	c #D6BB9A",
"b@	c #DFCDB6",
"c@	c #DDCCB7",
"d@	c #756757",
"e@	c #97846B",
"f@	c #A0886D",
"g@	c #A88E6F",
"h@	c #CBB192",
"i@	c #D5BEA1",
"j@	c #A38C6F",
"k@	c #A69886",
"l@	c #9D8F7C",
"m@	c #74624B",
"n@	c #6A5840",
"o@	c #665845",
"p@	c #6B5F51",
"q@	c #575653",
"r@	c #A5A5A5",
"s@	c #BEBFBE",
"t@	c #7C7A76",
"u@	c #9C866B",
"v@	c #C0A686",
"w@	c #DFCAB0",
"x@	c #F4F0EA",
"y@	c #EAE1D6",
"z@	c #9A8975",
"A@	c #6C5C49",
"B@	c #99856D",
"C@	c #887359",
"D@	c #B6A087",
"E@	c #A69885",
"F@	c #736656",
"G@	c #665745",
"H@	c #685540",
"I@	c #615341",
"J@	c #4A4033",
"K@	c #565450",
"L@	c #8C8D8C",
"M@	c #B4B4B4",
"N@	c #A7A39D",
"O@	c #594F43",
"P@	c #AE9679",
"Q@	c #DAC3A4",
"R@	c #E5D6C5",
"S@	c #C9B7A2",
"T@	c #B5A086",
"U@	c #AC9D8B",
"V@	c #786650",
"W@	c #89765E",
"X@	c #776755",
"Y@	c #8F7D67",
"Z@	c #867763",
"`@	c #6A5F50",
" #	c #5D5141",
".#	c #625546",
"+#	c #4D463D",
"@#	c #4F4C48",
"##	c #818180",
"$#	c #A2A3A2",
"%#	c #ABA9A6",
"&#	c #47423C",
"*#	c #AA9479",
"=#	c #BFA687",
"-#	c #D1BDA1",
";#	c #E8E1D5",
">#	c #D4C7B7",
",#	c #756047",
"'#	c #8D7A65",
")#	c #685A4A",
"!#	c #625544",
"~#	c #6A5C4E",
"{#	c #4F463C",
"]#	c #363029",
"^#	c #47433E",
"/#	c #7D7E7C",
"(#	c #979897",
"_#	c #A5A5A3",
":#	c #42403D",
"<#	c #7C6D5A",
"[#	c #CFB696",
"}#	c #D6C5AF",
"|#	c #CCBAA4",
"1#	c #A79985",
"2#	c #514A40",
"3#	c #5A4B3B",
"4#	c #574A3C",
"5#	c #352E26",
"6#	c #49443C",
"7#	c #45413B",
"8#	c #646260",
"9#	c #858583",
"0#	c #989998",
"a#	c #AEAFAE",
"b#	c #413F3D",
"c#	c #4D4539",
"d#	c #A89173",
"e#	c #C3AE92",
"f#	c #DCD1C3",
"g#	c #60564A",
"h#	c #504231",
"i#	c #453B2E",
"j#	c #403D37",
"k#	c #5C5A57",
"l#	c #716F6B",
"m#	c #8B8A89",
"n#	c #A1A1A0",
"o#	c #B7B8B7",
"p#	c #878887",
"q#	c #514C47",
"r#	c #A18E75",
"s#	c #70604D",
"t#	c #41382E",
"u#	c #35322E",
"v#	c #4E4E4C",
"w#	c #6E6E6E",
"x#	c #888887",
"y#	c #9B9C9B",
"z#	c #959695",
"A#	c #6D6B68",
"B#	c #66615A",
"C#	c #6E6D6A",
"D#	c #767675",
"E#	c #7D7E7D",
"F#	c #8D8D8C",
"G#	c #A3A4A3",
"H#	c #A6A7A5",
"I#	c #989896",
"J#	c #929290",
"K#	c #999A99",
"                                                                ",
"                                                                ",
"                        . +   @ # $ %                           ",
"          &       * = - ; > , ' ) ! ~ { ]         ^             ",
"        / ( _ : < [ } | 1 2 3 4 5 6 7 8 9 & 0 a b c d e         ",
"            f g h i j k l m n o p q r s t u v w x y             ",
"          z A B C D E F G H I J K L M N O P Q R S T U           ",
"    V W X Y Z `  ...+.@.#.$.%.&.*.=.-.;.>.,.'.).!.~.{.].^./.    ",
"    n (._.:.<.[.}.z |.1.2.3.4.5.6.7.8.9.0.a.b.c.d.e.f.g.h.i.    ",
"  j.k.l.m.n.o.p.q.r.s.t.u.v.w.x.y.z.A.B.C.D.E.F.G.H.I.J.K.L.M.  ",
"  N.O.P.Q.R.S.T.U.V.W.X.Y.Z.`. +.+++@+#+$+%+&+*+=+-+;+>+,+'+)+  ",
"!+~+{+]+^+/+(+_+:+<+[+}+|+1+2+3+4+5+6+7+8+9+0+a+b+c+d+e+f+g+h+  ",
"+ i+j+k+l+m+n+o+p+q+r+s+t+u+v+w+x+y+z+A+B+C+D+E+F+G+H+I+J+K+L+M+",
"    N+O+P+Q+R+S+T+U+V+W+S+X+Y+Z+`+ @t..@+@@@#@$@%@&@*@=@-@;@    ",
"        >@,@'@)@!@~@{@]@^@/@(@_@:@<@[@}@].|@1@2@3@4@5@6@        ",
"          7@8@9@0@a@b@c@d@e@f@g@h@i@j@k@l@m@n@o@p@q@r@s@        ",
"          t@D+u@v@w@x@y@z@A@|@B@C@D@E@F@G@H@I@J@K@L@M@          ",
"            N@O@P@Q@R@S@T@U@V@W@X@Y@Z@`@ #.#+#@###$#            ",
"              %#&#*#=#-#;#>#,##@'#)#!#~#{#]#^#/#(#              ",
"                _#:#<#[#}#|#1#2#3#4#5#6#7#8#9#0#                ",
"                  a#b#c#d#e#f#g#h#i#j#k#l#m#n#                  ",
"                    o#p#q#r#s#t#u#v#w#x#y#                      ",
"                      s@z#A#B#C#D#E#F#G#                        ",
"                            H#I#J#K#                            "};
