/* XPM */
static char * phone_xpm[] = {
"25 25 197 2",
"  	c None",
". 	c #B1B9B4",
"+ 	c #B5BEB8",
"@ 	c #898F8B",
"# 	c #D7DDD8",
"$ 	c #C1C9C4",
"% 	c #949A96",
"& 	c #ABB4AE",
"* 	c #9BA39E",
"= 	c #202120",
"- 	c #D9E1DC",
"; 	c #E3E8E5",
"> 	c #A0A4A1",
", 	c #9BA29E",
"' 	c #BBC4BE",
") 	c #A6AFA9",
"! 	c #9AA29D",
"~ 	c #383A39",
"{ 	c #CDD6D0",
"] 	c #E2E8E4",
"^ 	c #999E9A",
"/ 	c #696C6A",
"( 	c #727773",
"_ 	c #A8B0AB",
": 	c #9FA8A2",
"< 	c #4B4F4D",
"[ 	c #080808",
"} 	c #959D98",
"| 	c #616765",
"1 	c #8C9390",
"2 	c #858C88",
"3 	c #858A86",
"4 	c #8E9490",
"5 	c #A4ACA7",
"6 	c #858D88",
"7 	c #2B2E2C",
"8 	c #474D4B",
"9 	c #3E4343",
"0 	c #494E4E",
"a 	c #494D4C",
"b 	c #767D7A",
"c 	c #98A09B",
"d 	c #969E98",
"e 	c #6C726E",
"f 	c #1E1F1E",
"g 	c #060606",
"h 	c #747A78",
"i 	c #434747",
"j 	c #7D8585",
"k 	c #8D9595",
"l 	c #7F8686",
"m 	c #4C5151",
"n 	c #555B59",
"o 	c #808883",
"p 	c #484D4A",
"q 	c #121413",
"r 	c #020202",
"s 	c #AFB9B2",
"t 	c #575C5B",
"u 	c #7D8484",
"v 	c #979F9F",
"w 	c #A4AAAA",
"x 	c #A1A8A8",
"y 	c #959D9D",
"z 	c #7A8281",
"A 	c #6B726E",
"B 	c #2E312F",
"C 	c #0C0D0C",
"D 	c #000000",
"E 	c #C0CBC4",
"F 	c #7F8885",
"G 	c #9DA5A5",
"H 	c #AEB4B4",
"I 	c #AFB5B5",
"J 	c #B0B6B6",
"K 	c #777F7A",
"L 	c #4A4F4B",
"M 	c #191B1A",
"N 	c #050605",
"O 	c #C0CBC3",
"P 	c #AAB6AE",
"Q 	c #939F96",
"R 	c #88918B",
"S 	c #9AA09E",
"T 	c #B2B8B8",
"U 	c #8A9290",
"V 	c #575D59",
"W 	c #262927",
"X 	c #0F100F",
"Y 	c #BABEB8",
"Z 	c #D8DCD4",
"` 	c #969D95",
" .	c #757F78",
"..	c #79837C",
"+.	c #707A74",
"@.	c #757D79",
"#.	c #7A827E",
"$.	c #5F6762",
"%.	c #333734",
"&.	c #161717",
"*.	c #060706",
"=.	c #B5B8B1",
"-.	c #AAADA6",
";.	c #5F615D",
">.	c #ABAEA8",
",.	c #717771",
"'.	c #616963",
").	c #616A64",
"!.	c #5E6661",
"~.	c #404742",
"{.	c #1A1C1B",
"].	c #0A0B0B",
"^.	c #010101",
"/.	c #ABB0A9",
"(.	c #A3A69F",
"_.	c #3C3E3A",
":.	c #6C6E6A",
"<.	c #747672",
"[.	c #5A5C59",
"}.	c #8A8E88",
"|.	c #565D58",
"1.	c #464E49",
"2.	c #202321",
"3.	c #101110",
"4.	c #040404",
"5.	c #A2A69E",
"6.	c #8E908A",
"7.	c #757773",
"8.	c #878985",
"9.	c #1F201E",
"0.	c #757873",
"a.	c #494A47",
"b.	c #3C423D",
"c.	c #252A27",
"d.	c #131414",
"e.	c #080909",
"f.	c #9AA098",
"g.	c #A7AAA4",
"h.	c #31332F",
"i.	c #71726F",
"j.	c #595A57",
"k.	c #7D7E7B",
"l.	c #4C4D4B",
"m.	c #252825",
"n.	c #282E2A",
"o.	c #141615",
"p.	c #0E0F0E",
"q.	c #9DA198",
"r.	c #7A7D77",
"s.	c #90928E",
"t.	c #585A56",
"u.	c #2C2D2B",
"v.	c #595A58",
"w.	c #252624",
"x.	c #262C27",
"y.	c #131714",
"z.	c #607267",
"A.	c #6E7F70",
"B.	c #40453E",
"C.	c #656861",
"D.	c #60625D",
"E.	c #797B77",
"F.	c #1C1D1C",
"G.	c #1A1F1C",
"H.	c #151916",
"I.	c #0D100E",
"J.	c #070807",
"K.	c #708977",
"L.	c #819D88",
"M.	c #526458",
"N.	c #343B34",
"O.	c #4D504A",
"P.	c #484B46",
"Q.	c #121613",
"R.	c #0C0E0C",
"S.	c #0B0D0B",
"T.	c #52695B",
"U.	c #637C6B",
"V.	c #5E7667",
"W.	c #506355",
"X.	c #2B352E",
"Y.	c #111613",
"Z.	c #0D120F",
"`.	c #090D0A",
" +	c #0A0D0B",
".+	c #020303",
"++	c #253329",
"@+	c #324239",
"#+	c #2B3830",
"$+	c #1A241E",
"%+	c #0E1410",
"&+	c #0A0E0B",
"*+	c #0B0F0D",
"=+	c #0B100C",
"-+	c #0A0E0C",
";+	c #070908",
">+	c #080A08",
"                                                  ",
"                                      .           ",
"                                    + @           ",
"                          # $ %   & * =           ",
"                      - ; > , ' ) ! ~             ",
"                    { ] ^ / ( _ : < [             ",
"                  } | 1 2 3 4 5 6 7 [             ",
"                  8 9 0 a b c d e f g             ",
"                h i j k l m n o p q r             ",
"              s t u v w x y z A B C D             ",
"              E F G H I J w K L M N               ",
"            O P Q R S T H U V W X r               ",
"          Y Z `  ...+.@.#.$.%.&.*.                ",
"          =.-.;.>.,.'.).!.~.{.].^.                ",
"        /.(._.:.<.[.}.|.1.2.3.4.                  ",
"        5.6.7.8.9.0.a.b.c.d.e.D                   ",
"      f.g.h.i.j.k.l.m.n.o.p.r                     ",
"      q.r.s.t.u.v.w.x.y.X g D                     ",
"    z.A.B.C.D.E.F.G.H.I.J.D                       ",
"    K.L.M.N.O.P.H.Q.R.S.^.                        ",
"    T.U.V.W.X.Y.Z.`. +.+                          ",
"      ++@+#+$+%+`.&+N D                           ",
"        *+=+-+&+ +;+D                             ",
"            >+;+.+                                ",
"                                                  "};
