/* XPM */
static char * product_xpm[] = {
"36 36 442 2",
"  	c None",
". 	c #FFFFFF",
"+ 	c #EBEBEA",
"@ 	c #EEEDED",
"# 	c #F7F7F7",
"$ 	c #BFBFBE",
"% 	c #C1C1C0",
"& 	c #CECECD",
"* 	c #E4E4E4",
"= 	c #F9F9F9",
"- 	c #C9C9C8",
"; 	c #ADADAD",
"> 	c #A4A4A4",
", 	c #BBBBBB",
"' 	c #F0F0F0",
") 	c #FAFAFA",
"! 	c #C7C6C6",
"~ 	c #B5B5B5",
"{ 	c #E5E5E5",
"] 	c #FBFBFB",
"^ 	c #9F9F9E",
"/ 	c #979797",
"( 	c #E6E6E6",
"_ 	c #DEDEDE",
": 	c #B8B8B8",
"< 	c #F5F5F5",
"[ 	c #9A9A9A",
"} 	c #919191",
"| 	c #CCCCCC",
"1 	c #999999",
"2 	c #EBEBEB",
"3 	c #C2C2C1",
"4 	c #8F8F90",
"5 	c #A2A2A2",
"6 	c #D0D0D0",
"7 	c #9D9D9D",
"8 	c #8E8E8F",
"9 	c #B6B6B7",
"0 	c #B2B2B1",
"a 	c #BDBDBC",
"b 	c #DBDBDB",
"c 	c #F3F3F3",
"d 	c #8B8B8B",
"e 	c #ABABAB",
"f 	c #E9E9E9",
"g 	c #BCB9AD",
"h 	c #A2A19D",
"i 	c #A29F99",
"j 	c #BAB4AA",
"k 	c #D7D4D1",
"l 	c #FEFEFE",
"m 	c #B1B1B2",
"n 	c #909090",
"o 	c #A9A9A9",
"p 	c #EFEFEF",
"q 	c #C0BFBC",
"r 	c #64625E",
"s 	c #504A39",
"t 	c #574F42",
"u 	c #484134",
"v 	c #918669",
"w 	c #5D574D",
"x 	c #A78F91",
"y 	c #A8A8A7",
"z 	c #7B7A7A",
"A 	c #808080",
"B 	c #383737",
"C 	c #44413A",
"D 	c #363028",
"E 	c #7F735D",
"F 	c #9E8E75",
"G 	c #9A8B73",
"H 	c #564E3E",
"I 	c #A79C79",
"J 	c #A69B78",
"K 	c #8C8264",
"L 	c #827064",
"M 	c #DFDBCD",
"N 	c #D8D6D0",
"O 	c #FDFDFD",
"P 	c #DDDDDD",
"Q 	c #B3B3B2",
"R 	c #ABAAA8",
"S 	c #807D78",
"T 	c #6E685E",
"U 	c #696663",
"V 	c #878786",
"W 	c #807D77",
"X 	c #766C5D",
"Y 	c #93846E",
"Z 	c #9C8C74",
"` 	c #998B72",
" .	c #93896E",
"..	c #4B4636",
"+.	c #A39877",
"@.	c #A09675",
"#.	c #9D9473",
"$.	c #9C9273",
"%.	c #988D6D",
"&.	c #7F7559",
"*.	c #D3CDBC",
"=.	c #D6D4CF",
"-.	c #F8F8F8",
";.	c #C8C8C8",
">.	c #999594",
",.	c #7B6F69",
"'.	c #5C554A",
").	c #756B5B",
"!.	c #887B67",
"~.	c #7A715E",
"{.	c #807E7A",
"].	c #868482",
"^.	c #7B756D",
"/.	c #8F8576",
"(.	c #958A70",
"_.	c #92886D",
":.	c #90886C",
"<.	c #9F9575",
"[.	c #9C9373",
"}.	c #999071",
"|.	c #968D6F",
"1.	c #979075",
"2.	c #9B9378",
"3.	c #6C685B",
"4.	c #7F7E7B",
"5.	c #CDCDCC",
"6.	c #716C62",
"7.	c #A89B78",
"8.	c #978E75",
"9.	c #71675A",
"0.	c #857D67",
"a.	c #92866D",
"b.	c #847E67",
"c.	c #736E60",
"d.	c #757268",
"e.	c #8E8E8D",
"f.	c #807E75",
"g.	c #857E66",
"h.	c #9B9172",
"i.	c #91886D",
"j.	c #837C64",
"k.	c #5E5A4B",
"l.	c #49463C",
"m.	c #554D3C",
"n.	c #5C5344",
"o.	c #867B6C",
"p.	c #A5A3A1",
"q.	c #7F7D79",
"r.	c #998E6E",
"s.	c #D4C494",
"t.	c #D1C192",
"u.	c #978B6A",
"v.	c #877B66",
"w.	c #837162",
"x.	c #958C76",
"y.	c #8A8267",
"z.	c #7F7860",
"A.	c #8C8C8A",
"B.	c #828076",
"C.	c #817B66",
"D.	c #8A8268",
"E.	c #4D4837",
"F.	c #7F7A69",
"G.	c #645F50",
"H.	c #5C564A",
"I.	c #534B3F",
"J.	c #7B6F5B",
"K.	c #9C8C73",
"L.	c #94856F",
"M.	c #736D64",
"N.	c #DAD9D8",
"O.	c #A2A2A1",
"P.	c #87806E",
"Q.	c #CABA8E",
"R.	c #C9BA8C",
"S.	c #B6A780",
"T.	c #A49877",
"U.	c #7B7461",
"V.	c #9F987F",
"W.	c #8F876C",
"X.	c #868170",
"Y.	c #84837E",
"Z.	c #8E8D8C",
"`.	c #5A5954",
" +	c #605E53",
".+	c #4F493D",
"++	c #877C6A",
"@+	c #887B66",
"#+	c #90826B",
"$+	c #9B8B73",
"%+	c #796D5B",
"&+	c #88837D",
"*+	c #F1F0F0",
"=+	c #FCFCFC",
"-+	c #D3D3D3",
";+	c #7E7969",
">+	c #C3B489",
",+	c #CCBC8E",
"'+	c #A29571",
")+	c #A0977D",
"!+	c #8A836D",
"~+	c #7C6D5E",
"{+	c #685A4D",
"]+	c #716654",
"^+	c #8D7E68",
"/+	c #978770",
"(+	c #6A6052",
"_+	c #B1AEA9",
":+	c #9D9A94",
"<+	c #B9AB83",
"[+	c #D3C394",
"}+	c #A69974",
"|+	c #4E4838",
"1+	c #4E463A",
"2+	c #897B66",
"3+	c #9A8A73",
"4+	c #817461",
"5+	c #6D6964",
"6+	c #C3C3C3",
"7+	c #EAEAEA",
"8+	c #8E8E8E",
"9+	c #D3C393",
"0+	c #877D5E",
"a+	c #6D654D",
"b+	c #4F473A",
"c+	c #5D5345",
"d+	c #9B8B74",
"e+	c #92836C",
"f+	c #4C453B",
"g+	c #5C5A58",
"h+	c #BABABA",
"i+	c #D1D1D1",
"j+	c #868276",
"k+	c #A99C77",
"l+	c #CEBE8F",
"m+	c #D2C292",
"n+	c #968B69",
"o+	c #5F5946",
"p+	c #7F765A",
"q+	c #615948",
"r+	c #3D3A31",
"s+	c #7A6E5B",
"t+	c #96866F",
"u+	c #7E715E",
"v+	c #464035",
"w+	c #110F0D",
"x+	c #B5B3B0",
"y+	c #E0DFDC",
"z+	c #999587",
"A+	c #A29879",
"B+	c #C0B186",
"C+	c #BBAD82",
"D+	c #645D47",
"E+	c #726C56",
"F+	c #8B8162",
"G+	c #685E4D",
"H+	c #5B5548",
"I+	c #36332B",
"J+	c #8B7D68",
"K+	c #968770",
"L+	c #7B6E5B",
"M+	c #554C3F",
"N+	c #3D382F",
"O+	c #302F29",
"P+	c #161513",
"Q+	c #8F8E87",
"R+	c #534E3D",
"S+	c #AC9F78",
"T+	c #D0C091",
"U+	c #D3C494",
"V+	c #6E674D",
"W+	c #585341",
"X+	c #8B8367",
"Y+	c #867C5E",
"Z+	c #6A604E",
"`+	c #867A66",
" @	c #31312B",
".@	c #61594A",
"+@	c #9A8A72",
"@@	c #8C7D68",
"#@	c #51493C",
"$@	c #3E3930",
"%@	c #393730",
"&@	c #434239",
"*@	c #414139",
"=@	c #161613",
"-@	c #ACABA7",
";@	c #585445",
">@	c #5E5845",
",@	c #766D53",
"'@	c #A29671",
")@	c #C4B689",
"!@	c #BBAD83",
"~@	c #373328",
"{@	c #7D765E",
"]@	c #9B9273",
"^@	c #918665",
"/@	c #695F4C",
"(@	c #9D8D74",
"_@	c #575346",
":@	c #2E2D27",
"<@	c #786C5A",
"[@	c #91826C",
"}@	c #6C6150",
"|@	c #50483C",
"1@	c #4E493F",
"2@	c #46453D",
"3@	c #44443C",
"4@	c #46453C",
"5@	c #1A1A17",
"6@	c #F6F6F6",
"7@	c #BDBCBB",
"8@	c #6C6859",
"9@	c #867F64",
"0@	c #6B6550",
"a@	c #4C4737",
"b@	c #645D48",
"c@	c #AC9F79",
"d@	c #6A624A",
"e@	c #5C5745",
"f@	c #8E866B",
"g@	c #A49A77",
"h@	c #958A68",
"i@	c #6C624E",
"j@	c #9D8D75",
"k@	c #807562",
"l@	c #3E3E36",
"m@	c #4C473D",
"n@	c #4E493D",
"o@	c #424037",
"p@	c #655F51",
"q@	c #746A59",
"r@	c #34312C",
"s@	c #E2E2E2",
"t@	c #C4C4C4",
"u@	c #888374",
"v@	c #B0A47F",
"w@	c #92896D",
"x@	c #817A61",
"y@	c #534F3E",
"z@	c #433F31",
"A@	c #403C2F",
"B@	c #8C8469",
"C@	c #BAAC84",
"D@	c #9A8E6B",
"E@	c #92846D",
"F@	c #5B574B",
"G@	c #3B3A33",
"H@	c #544F43",
"I@	c #44433B",
"J@	c #4B4A40",
"K@	c #756C5B",
"L@	c #8F806A",
"M@	c #3C3933",
"N@	c #D9D9D9",
"O@	c #D7D7D7",
"P@	c #858583",
"Q@	c #999076",
"R@	c #AFA27C",
"S@	c #A99D79",
"T@	c #817A60",
"U@	c #888166",
"V@	c #C8B98C",
"W@	c #5B5243",
"X@	c #998A72",
"Y@	c #6B6455",
"Z@	c #45443C",
"`@	c #4A4940",
" #	c #666052",
".#	c #91836D",
"+#	c #998A73",
"@#	c #897C67",
"##	c #71695C",
"$#	c #565553",
"%#	c #F2F2F2",
"&#	c #E7E7E7",
"*#	c #A7A6A5",
"=#	c #7E7A71",
"-#	c #7B725B",
";#	c #A39774",
">#	c #B2A680",
",#	c #A59A78",
"'#	c #CEBE90",
")#	c #9B8F6C",
"!#	c #5D5445",
"~#	c #4C4B41",
"{#	c #525045",
"]#	c #786F5D",
"^#	c #9A8C76",
"/#	c #887E6D",
"(#	c #746D64",
"_#	c #7A7670",
":#	c #A8A7A5",
"<#	c #D8D8D8",
"[#	c #E7E7E6",
"}#	c #B2B1B0",
"|#	c #67645B",
"1#	c #877E64",
"2#	c #BAAD84",
"3#	c #AEA27D",
"4#	c #BCAF85",
"5#	c #9C906D",
"6#	c #5E5446",
"7#	c #59554A",
"8#	c #605B4D",
"9#	c #786D5B",
"0#	c #7A7063",
"a#	c #6A6661",
"b#	c #72706E",
"c#	c #B2B2B2",
"d#	c #B6B6B6",
"e#	c #6D6B66",
"f#	c #90866A",
"g#	c #C2B388",
"h#	c #D2C293",
"i#	c #978C69",
"j#	c #695F4D",
"k#	c #95866F",
"l#	c #675F53",
"m#	c #6C6963",
"n#	c #878685",
"o#	c #E3E3E3",
"p#	c #9E9D9A",
"q#	c #837D6C",
"r#	c #A79A75",
"s#	c #AEA17A",
"t#	c #80745D",
"u#	c #807360",
"v#	c #6C6457",
"w#	c #716D67",
"x#	c #A4A3A2",
"y#	c #D2D2D2",
"z#	c #D9D9D8",
"A#	c #928C7D",
"B#	c #958A6B",
"C#	c #847C6D",
"D#	c #7E776D",
"E#	c #84817D",
"F#	c #DFDFDE",
"G#	c #CFCFCF",
"H#	c #A8A8A8",
"I#	c #CECECE",
". . . . . . . . . . . . . . . . . . . . . . . . . . . . . . . . . . . . ",
". . . . . . . . . . . . . . . . . . . . . . . . . . . . . . . . . . . . ",
". . . . . . . . . . . . . . . . . . . . . . . . . . . . . . . . . . . . ",
". . . . . . . . . . . . . . . + @ # . . . . . . . . . . . . . . . . . . ",
". . . . . . . . . . . . . . . $ % & * . . . . . . . . . . . . . . . . . ",
". . . . . . . . . . . . . . = - & ; > , ' . . . . . . . . . . . . . . . ",
". . . . . . . . . . . . . ) ! ~ { ] ^ / ( . . . . . . . . . . . . . . . ",
". . . . . . . . . . . . . _ ; : < = [ } * . . . . . . . . . . . . . . . ",
". . . . . . . . . . . . ] | 1 2 ] 3 4 5 6 . . . . . . . . . . . . . . . ",
". . . . . . . . . . . . ( 7 8 9 0 a b c . . . . . . . . . . . . . . . . ",
". . . . . . . . . . . . * 1 d e f . g h i j k . l l . . . . . . . . . . ",
". . . . . . . . . . . = m n o p q r s t u v w x . l . l . . . . . . . . ",
". . . . . . . . . . 2 y z A B C D E F G H I J K L M N O l . . . . . . . ",
". . . . . ] ' P Q R S T U V W X Y Z `  ...+.@.#.$.%.&.*.=.-.. . . . . . ",
". . . . l ;.>.,.'.).!.~.{.V ].^./.(._.:...<.[.}.|.1.2.3.4.( . . . . . . ",
". . . O 5.6.7.8.9.0.a.:.b.c.d.e.f.g.:.:...h.i.j.k.l.m.n.o.p.] . . . . . ",
". . l f q.r.s.t.u.v.w.x.:.y.z.A.d B.C.D.E.F.G.H.I.J.K.Z L.M.N.l . . . . ",
". l . O.P.Q.s.s.s.R.S.T.U.V.W.X.Y.Z.`. +.+++@+#+Z Z Z Z $+%+&+*+. . . . ",
"=+l -+;+>+s.s.s.s.s.s.s.,+'+)+!+~+{+]+^+$+Z Z Z Z Z Z Z Z /+(+_+=+. . . ",
"l * :+<+[+s.s.s.s.s.s.s.s.s.}+|+1+2+Z Z Z Z Z Z Z Z Z Z Z 3+4+5+6+l . . ",
"7+8+)+9+9+s.s.s.s.s.s.s.s.9+0+a+b+c+$+Z Z Z Z Z Z Z Z Z d+e+f+g+h+. . . ",
"=+i+j+k+l+s.s.s.s.s.s.s.m+n+o+p+q+r+s+$+Z Z Z Z Z Z t+u+v+w+x+-.. . . . ",
". . y+z+A+B+s.s.s.s.s.s.C+D+E+F+G+H+I+J+$+Z Z Z K+L+M+N+O+P+. . . . . . ",
". . . 2 Q+R+S+T+s.s.U+s.V+W+X+Y+Z+`+ @.@+@$+Z @@#@$@%@&@*@=@. . . . . . ",
". . . . -@;@>@,@'@)@s.!@~@{@]@^@/@(@_@:@<@[@}@|@1@2@3@3@4@5@6@. . . . . ",
". . . . 7@8@9@0@a@b@c@d@e@f@g@h@i@j@k@l@m@<@n@o@3@3@3@p@q@r@s@. . . . . ",
". . . . t@u@v@w@x@y@z@A@B@:.C@D@/@j@E@F@G@H@I@3@3@J@K@K+L@M@N@. . . . . ",
". . . . O@P@Q@R@S@}.T@U@:.}.V@n+W@Z X@Y@Z@3@3@`@ #.#+#@###$#%#. . . . . ",
". . . . . &#*#=#-#;#>#$.:.,#'#)#!#Z Z k@~#3@{#]#^#/#(#_#:#<#. . . . . . ",
". . . . . . ] [#}#|#1#2#3#4#9+5#6#Z Z L.7#8#9#0#a#b#c#{ = . . . . . . . ",
". . . . . . . . . 6@d#e#f#g#h#i#j#Z d+k#4+l#m#n#i+= . . . . . . . . . . ",
". . . . . . . . . . . o#p#q#r#s#t#X@u#v#w#x#y#< . . . . . . . . . . . . ",
". . . . . . . . . . . . ) z#A#B#C#D#E#}#F#-.. . . . . . . . . . . . . . ",
". . . . . . . . . . . . . . . G#H#I#. . . . . . . . . . . . . . . . . . ",
". . . . . . . . . . . . . . . . ] l . . . . . . . . . . . . . . . . . . ",
". . . . . . . . . . . . . . . . . . . . . . . . . . . . . . . . . . . . "};
