/* XPM */
static char * receive_xpm[] = {
"24 24 392 2",
"  	c None",
". 	c #E6E6E6",
"+ 	c #CACBCA",
"@ 	c #939493",
"# 	c #696A6B",
"$ 	c #555657",
"% 	c #6B6B6C",
"& 	c #959596",
"* 	c #CDCDCD",
"= 	c #E5E5E5",
"- 	c #AFB0AF",
"; 	c #464748",
"> 	c #0A0A0A",
", 	c #000000",
"' 	c #0B0B0B",
") 	c #4A4A4C",
"! 	c #B4B4B4",
"~ 	c #DADADA",
"{ 	c #545556",
"] 	c #000001",
"^ 	c #010D11",
"/ 	c #053E4F",
"( 	c #08627D",
"_ 	c #086F8F",
": 	c #086A89",
"< 	c #07526B",
"[ 	c #032C38",
"} 	c #000406",
"| 	c #5C5C5C",
"1 	c #DDDDDD",
"2 	c #28282A",
"3 	c #021116",
"4 	c #086D8D",
"5 	c #0BB5EA",
"6 	c #0CC0FE",
"7 	c #0BBEFD",
"8 	c #0CC4FE",
"9 	c #0CC1FA",
"0 	c #0ABAF3",
"a 	c #08B0E5",
"b 	c #068DB9",
"c 	c #054357",
"d 	c #030405",
"e 	c #2F2F30",
"f 	c #D2D2D2",
"g 	c #D6D6D6",
"h 	c #282A2B",
"i 	c #073340",
"j 	c #0CB0E4",
"k 	c #17BDFF",
"l 	c #1AC4FC",
"m 	c #18C8FC",
"n 	c #10C3FA",
"o 	c #0CBFF6",
"p 	c #0ABAEF",
"q 	c #0BB3E7",
"r 	c #08ADE0",
"s 	c #07ABDF",
"t 	c #07AAE0",
"u 	c #047397",
"v 	c #051116",
"w 	c #DBDBDB",
"x 	c #4D4D4E",
"y 	c #083744",
"z 	c #0FBCF7",
"A 	c #20C5FE",
"B 	c #2FCCF9",
"C 	c #37CFFC",
"D 	c #33D1FE",
"E 	c #25CCFE",
"F 	c #12C8FE",
"G 	c #0BC0F8",
"H 	c #09B1E6",
"I 	c #0BA9DB",
"J 	c #09A0D1",
"K 	c #09A5D9",
"L 	c #047CA5",
"M 	c #050F14",
"N 	c #575757",
"O 	c #9F9F9F",
"P 	c #04171D",
"Q 	c #0BADE4",
"R 	c #1AC4FE",
"S 	c #33CEFA",
"T 	c #48D5FE",
"U 	c #54D7FD",
"V 	c #4ED6FD",
"W 	c #3AD1FD",
"X 	c #22CBFE",
"Y 	c #0EC6FD",
"Z 	c #0BBDF3",
"` 	c #0BB6EB",
" .	c #01ABE0",
"..	c #009BCD",
"+.	c #0095C4",
"@.	c #059DD0",
"#.	c #046688",
"$.	c #020202",
"%.	c #A8A8A8",
"&.	c #3A3B3C",
"*.	c #08769A",
"=.	c #0EBBFE",
"-.	c #21C9FA",
";.	c #3ED2FE",
">.	c #5BD9FD",
",.	c #72E0FC",
"'.	c #64DCFD",
").	c #48D4FD",
"!.	c #2BCEFE",
"~.	c #11C8FE",
"{.	c #0DC0F6",
"].	c #00B3E9",
"^.	c #46A8C8",
"/.	c #A5CDDB",
"(.	c #71C0DB",
"_.	c #0792C0",
":.	c #0394C5",
"<.	c #033243",
"[.	c #434445",
"}.	c #B7B7B7",
"|.	c #040404",
"1.	c #001921",
"2.	c #0AB7ED",
"3.	c #0DC4FC",
"4.	c #20CCFE",
"5.	c #41D3FD",
"6.	c #5EDBFE",
"7.	c #72DFFC",
"8.	c #63DCFD",
"9.	c #47D4FD",
"0.	c #13C7FD",
"a.	c #01BFF9",
"b.	c #31A9CE",
"c.	c #D9E5E9",
"d.	c #D9F0FA",
"e.	c #DEEFF7",
"f.	c #5FB8D6",
"g.	c #008FBD",
"h.	c #066C8F",
"i.	c #090909",
"j.	c #C0C0C0",
"k.	c #7A7B7C",
"l.	c #064E65",
"m.	c #0CC0F6",
"n.	c #18C9FF",
"o.	c #25CAFD",
"p.	c #36CFFB",
"q.	c #4BD6FE",
"r.	c #39D0FD",
"s.	c #22CBFD",
"t.	c #0CC5FF",
"u.	c #0EADDD",
"v.	c #BBD4DD",
"w.	c #DCF3FB",
"x.	c #C5E5F0",
"y.	c #D7EDF6",
"z.	c #74C2DC",
"A.	c #0089B4",
"B.	c #0784B0",
"C.	c #021720",
"D.	c #858585",
"E.	c #4E4F50",
"F.	c #087092",
"G.	c #0CC0F9",
"H.	c #0BBFF4",
"I.	c #09BBF3",
"J.	c #6AC1DB",
"K.	c #A4DAEA",
"L.	c #53D4FA",
"M.	c #25CEFF",
"N.	c #27CDFE",
"O.	c #13C7FF",
"P.	c #00B6ED",
"Q.	c #8FC4D4",
"R.	c #E8F6FB",
"S.	c #CDE9F3",
"T.	c #D2EBF4",
"U.	c #BDE3F0",
"V.	c #199BC5",
"W.	c #0086B3",
"X.	c #0589B7",
"Y.	c #022E3E",
"Z.	c #595A59",
"`.	c #373837",
" +	c #087EA4",
".+	c #0DBCF3",
"++	c #00B8EF",
"@+	c #53B9D8",
"#+	c #FCF6F4",
"$+	c #FCFCFE",
"%+	c #E7F7FB",
"&+	c #43D2FD",
"*+	c #03C4FE",
"=+	c #00BFF8",
"-+	c #5BB4D0",
";+	c #EAF1F5",
">+	c #D2EDF7",
",+	c #D0E9F3",
"'+	c #D5ECF5",
")+	c #3EAED2",
"!+	c #008EBA",
"~+	c #0684B1",
"{+	c #0387B5",
"]+	c #03384D",
"^+	c #414143",
"/+	c #353635",
"(+	c #087AA0",
"_+	c #0DB7ED",
":+	c #00B0E4",
"<+	c #73C8E2",
"[+	c #F9FBFC",
"}+	c #DBF1F9",
"|+	c #EEF7FA",
"1+	c #E2F4FA",
"2+	c #32CAF8",
"3+	c #28AAD1",
"4+	c #DDE7EB",
"5+	c #DAF2FA",
"6+	c #CEE9F3",
"7+	c #DEF0F7",
"8+	c #6AC1DE",
"9+	c #0092BF",
"0+	c #078DBA",
"a+	c #0381AD",
"b+	c #0485B2",
"c+	c #03384C",
"d+	c #404041",
"e+	c #474849",
"f+	c #076989",
"g+	c #09B0E6",
"h+	c #06A9DD",
"i+	c #18B4E5",
"j+	c #C2E8F5",
"k+	c #EDF5FA",
"l+	c #DBF1F8",
"m+	c #EAF6FA",
"n+	c #CEEAF3",
"o+	c #C0DCE6",
"p+	c #E0F2FA",
"q+	c #CFEAF3",
"r+	c #DDEFF6",
"s+	c #98D4E9",
"t+	c #0093C4",
"u+	c #068FBD",
"v+	c #0588B5",
"w+	c #047EA9",
"x+	c #037FAC",
"y+	c #032D3C",
"z+	c #525354",
"A+	c #6E6E6F",
"B+	c #05455A",
"C+	c #0AA3D5",
"D+	c #00A8DD",
"E+	c #1AB3E2",
"F+	c #C0E6F4",
"G+	c #E7F4F9",
"H+	c #D5EDF6",
"I+	c #DDEFF7",
"J+	c #DCF2F9",
"K+	c #D0EBF4",
"L+	c #D6EDF5",
"M+	c #149DCA",
"N+	c #028FBE",
"O+	c #068BB8",
"P+	c #0483AF",
"Q+	c #037BA6",
"R+	c #0377A0",
"S+	c #01161E",
"T+	c #79797A",
"U+	c #00141C",
"V+	c #0697C8",
"W+	c #069FD0",
"X+	c #09A2D4",
"Y+	c #00A3D6",
"Z+	c #19ACDB",
"`+	c #BAE4F2",
" @	c #E0F1F7",
".@	c #CFEAF4",
"+@	c #D3ECF5",
"@@	c #38A9D0",
"#@	c #088CB9",
"$@	c #0484B1",
"%@	c #037DA8",
"&@	c #037CA7",
"*@	c #015E7E",
"=@	c #010101",
"-@	c #B2B2B2",
";@	c #E1E1E1",
">@	c #292A2B",
",@	c #045D7D",
"'@	c #07A0D4",
")@	c #0595C6",
"!@	c #099DCE",
"~@	c #009CCE",
"{@	c #19A6D3",
"]@	c #B5E0EF",
"^@	c #DCEEF6",
"/@	c #CAE7F2",
"(@	c #62BBD9",
"_@	c #0380AB",
":@	c #037AA6",
"<@	c #303031",
"[@	c #868686",
"}@	c #031318",
"|@	c #0486B2",
"1@	c #0492C1",
"2@	c #0896C6",
"3@	c #189DC9",
"4@	c #A0D5E8",
"5@	c #CBE8F3",
"6@	c #7CC4DD",
"7@	c #008AB8",
"8@	c #0589B6",
"9@	c #0383B0",
"0@	c #047FAA",
"a@	c #02769F",
"b@	c #025471",
"c@	c #909090",
"d@	c #E2E2E2",
"e@	c #032532",
"f@	c #048BB9",
"g@	c #0491C0",
"h@	c #058CB8",
"i@	c #078EBC",
"j@	c #018CBA",
"k@	c #078EBB",
"l@	c #1893BE",
"m@	c #0188B4",
"n@	c #0485B1",
"o@	c #02759E",
"p@	c #016184",
"q@	c #040C11",
"r@	c #373737",
"s@	c #BDBDBD",
"t@	c #0D0E0F",
"u@	c #04232E",
"v@	c #0378A1",
"w@	c #038EBE",
"x@	c #0486B4",
"y@	c #0584B0",
"z@	c #0382AE",
"A@	c #007FAB",
"B@	c #057FAA",
"C@	c #037CA6",
"D@	c #0279A2",
"E@	c #0379A3",
"F@	c #025775",
"G@	c #020D12",
"H@	c #121213",
"I@	c #C4C4C4",
"J@	c #ACB5B9",
"K@	c #0C1E24",
"L@	c #051115",
"M@	c #024A63",
"N@	c #0283B1",
"O@	c #0484B2",
"P@	c #0582AF",
"Q@	c #037EAA",
"R@	c #0277A2",
"S@	c #026286",
"T@	c #033143",
"U@	c #060708",
"V@	c #0F1B1F",
"W@	c #B3B5B7",
"X@	c #BFD9E2",
"Y@	c #293D43",
"Z@	c #000B0F",
"`@	c #042C3A",
" #	c #024056",
".#	c #024862",
"+#	c #01465F",
"@#	c #04394D",
"##	c #05222D",
"$#	c #020507",
"%#	c #2E3F44",
"&#	c #C3D6DC",
"*#	c #DFE4E6",
"=#	c #8AAFBA",
"-#	c #213035",
";#	c #2E3336",
">#	c #B8BBBD",
",#	c #E3E3E5",
"'#	c #DEE3E5",
")#	c #A8C7D1",
"!#	c #668B95",
"~#	c #38525B",
"{#	c #23383E",
"]#	c #21373E",
"^#	c #475256",
"/#	c #8F9496",
"(#	c #C9CED0",
"_#	c #E4E5E6",
"            . . + @ # $ $ % & * . .             ",
"        = . - ; > , , , , , , ' ) ! . =         ",
"      . ~ { ] , ^ / ( _ : < [ } , ] | 1 .       ",
"    . * 2 , 3 4 5 6 7 8 9 0 a b c d , e f .     ",
"  . g h , i j k l m n o p q r s t u v , e w .   ",
"  . x , y z A B C D E F G p H I J K L M , N .   ",
". O , P Q R S T U V W X Y Z `  ...+.@.#.$., %.. ",
". &., *.=.-.;.>.,.'.).!.~.{.].^./.(._.:.<., [.. ",
"}.|.1.2.3.4.5.6.7.8.9.!.0.a.b.c.d.e.f.g.h., i.j.",
"k., l.8 m.n.o.p.q.V r.s.t.u.v.w.x.y.z.A.B.C., D.",
"E., F.G.H.I.J.K.L.M.N.O.P.Q.R.S.T.U.V.W.X.Y., Z.",
"`.,  +.+++@+#+$+%+&+*+=+-+;+>+,+'+)+!+~+{+]+, ^+",
"/+, (+_+:+<+[+}+|+1+2+3+4+5+6+7+8+9+0+a+b+c+, d+",
"e+, f+g+h+i+j+k+l+m+n+o+p+q+r+s+t+u+v+w+x+y+, z+",
"A+, B+t C+D+E+F+G+H+I+J+K+L+U.M+N+O+P+Q+R+S+, T+",
"%., U+V+W+X+Y+Z+`+ @.@,+6++@@@g.#@$@%@&@*@, =@-@",
";@>@, ,@'@)@!@~@{@]@^@/@I+(@!+#@$@_@R+:@y+, <@. ",
". [@, }@|@)@1@2@t+3@4@5@6@7@8@9@0@a@&@b@|., c@. ",
"  d@e , e@f@g@h@i@j@k@l@m@n@a+Q+o@&@p@q@, r@.   ",
"  . s@t@, u@v@w@x@y@z@A@B@C@D@E@&@F@G@, H@I@.   ",
"    . J@K@, L@M@a@N@O@P@x+Q@R@S@T@U@, V@W@.     ",
"      . X@Y@, =@Z@`@ #.#+#@###$#=@, %#&#.       ",
"        . *#=#-#, , , , , , , , ;#>#,#.         ",
"            . '#)#!#~#{#]#^#/#(#_#.             "};
