/* XPM */
static char * remove_xpm[] = {
"25 25 484 2",
"  	c None",
". 	c #878786",
"+ 	c #777776",
"@ 	c #717170",
"# 	c #767675",
"$ 	c #858584",
"% 	c #606060",
"& 	c #525150",
"* 	c #4B4A47",
"= 	c #454441",
"- 	c #43423F",
"; 	c #454341",
"> 	c #4A4946",
", 	c #50504E",
"' 	c #5D5D5C",
") 	c #7E7D7D",
"! 	c #9B9B9B",
"~ 	c #737372",
"{ 	c #4B4B49",
"] 	c #211F1A",
"^ 	c #201705",
"/ 	c #2F2204",
"( 	c #3A2904",
"_ 	c #3C2B05",
": 	c #372805",
"< 	c #2C1F04",
"[ 	c #1B1404",
"} 	c #1D1B17",
"| 	c #454444",
"1 	c #6D6C6C",
"2 	c #959494",
"3 	c #989897",
"4 	c #5A5A58",
"5 	c #2B2720",
"6 	c #291F09",
"7 	c #4A3507",
"8 	c #745307",
"9 	c #976D0A",
"0 	c #AA790B",
"a 	c #AE7C0B",
"b 	c #A4740A",
"c 	c #8D6308",
"d 	c #674905",
"e 	c #3E2D06",
"f 	c #221A07",
"g 	c #25221B",
"h 	c #535150",
"i 	c #8F8F8F",
"j 	c #52514E",
"k 	c #30291C",
"l 	c #46340B",
"m 	c #845F0C",
"n 	c #C78F11",
"o 	c #E1A412",
"p 	c #EAAA11",
"q 	c #EEAB0F",
"r 	c #EEA70D",
"s 	c #E8A20C",
"t 	c #DC9B0A",
"u 	c #CA8E09",
"v 	c #A87808",
"w 	c #6D4E06",
"x 	c #392A07",
"y 	c #282217",
"z 	c #494846",
"A 	c #8E8E8D",
"B 	c #AAAAAA",
"C 	c #5A5957",
"D 	c #342D1F",
"E 	c #543D0A",
"F 	c #9E740F",
"G 	c #DCA31A",
"H 	c #F5B624",
"I 	c #FCB926",
"J 	c #FCB820",
"K 	c #FCB416",
"L 	c #F9AF0F",
"M 	c #F4AA0B",
"N 	c #EBA50B",
"O 	c #E19E0A",
"P 	c #D49508",
"Q 	c #B98307",
"R 	c #805B06",
"S 	c #423006",
"T 	c #2B261A",
"U 	c #51504E",
"V 	c #A0A0A0",
"W 	c #BABABA",
"X 	c #787877",
"Y 	c #343026",
"Z 	c #4C390B",
"` 	c #9D730E",
" .	c #E4A91C",
"..	c #FCBD2D",
"+.	c #FCC03C",
"@.	c #FCC041",
"#.	c #FCBD37",
"$.	c #FCB725",
"%.	c #FBB115",
"&.	c #F5AB0D",
"*.	c #ECA50B",
"=.	c #E39F0A",
"-.	c #DC9B08",
";.	c #D49608",
">.	c #7C5906",
",.	c #3B2C08",
"'.	c #2C2820",
").	c #B2B2B2",
"!.	c #9D9D9D",
"~.	c #42403E",
"{.	c #35280E",
"].	c #89620A",
"^.	c #DBA014",
"/.	c #FDBC26",
"(.	c #FCBF3F",
"_.	c #FCC554",
":.	c #FDC85C",
"<.	c #FDC34D",
"[.	c #FEBD35",
"}.	c #FEB61D",
"|.	c #F9AF0E",
"1.	c #F0A80B",
"2.	c #E6A20A",
"3.	c #DB9B08",
"4.	c #D19408",
"5.	c #CC9107",
"6.	c #AB7A06",
"7.	c #684A05",
"8.	c #281F0B",
"9.	c #373634",
"0.	c #929191",
"a.	c #CFCFCF",
"b.	c #C4C3C3",
"c.	c #807F7F",
"d.	c #241F16",
"e.	c #553D07",
"f.	c #C18A0C",
"g.	c #F8B318",
"h.	c #FDBA2C",
"i.	c #FDC248",
"j.	c #FDC962",
"k.	c #FDCB6C",
"l.	c #FDC658",
"m.	c #FEC03D",
"n.	c #FEB822",
"o.	c #FAB011",
"p.	c #F1A90C",
"q.	c #E7A30B",
"r.	c #DE9C0A",
"s.	c #D29508",
"t.	c #C98F07",
"u.	c #BE8706",
"v.	c #916705",
"w.	c #3E2D04",
"x.	c #1A1710",
"y.	c #727272",
"z.	c #BBBBBB",
"A.	c #A9A9A9",
"B.	c #5A5A59",
"C.	c #281F09",
"D.	c #856009",
"E.	c #DD9F0E",
"F.	c #FCB516",
"G.	c #FCB729",
"H.	c #FEC043",
"I.	c #FDC75A",
"J.	c #FDC963",
"K.	c #FDC452",
"L.	c #FEBE38",
"M.	c #FEB61F",
"N.	c #FAB010",
"O.	c #F0A90C",
"P.	c #E7A20B",
"Q.	c #DD9C0A",
"R.	c #D39509",
"S.	c #C78D07",
"T.	c #C28A06",
"U.	c #A77706",
"V.	c #624705",
"W.	c #1F1808",
"X.	c #4E4E4E",
"Y.	c #9F9F9F",
"Z.	c #3F3F3E",
"`.	c #332608",
" +	c #A6760A",
".+	c #E9A50D",
"++	c #FCB211",
"@+	c #FCB41C",
"#+	c #FEBB2E",
"$+	c #FDC03F",
"%+	c #FDC245",
"&+	c #FDBF3B",
"*+	c #FEB928",
"=+	c #FDB417",
"-+	c #F7AD0E",
";+	c #EFA70D",
">+	c #E5A00D",
",+	c #DB990D",
"'+	c #D19309",
")+	c #C68C07",
"!+	c #C08806",
"~+	c #AE7C05",
"{+	c #795705",
"]+	c #281E06",
"^+	c #353534",
"/+	c #8D8D8D",
"(+	c #908F8F",
"_+	c #32302F",
":+	c #3B2B06",
"<+	c #B37E0A",
"[+	c #E9A40C",
"}+	c #FAB726",
"|+	c #FECD63",
"1+	c #FEE2A6",
"2+	c #FEE1A4",
"3+	c #FEE0A1",
"4+	c #FEDE9A",
"5+	c #FDDB94",
"6+	c #FAD992",
"7+	c #F7D691",
"8+	c #F2D390",
"9+	c #EED193",
"0+	c #DCB355",
"a+	c #C9951E",
"b+	c #BD8608",
"c+	c #AF7D05",
"d+	c #835E05",
"e+	c #2C2005",
"f+	c #262626",
"g+	c #858585",
"h+	c #2D2B29",
"i+	c #B47F0A",
"j+	c #E4A10C",
"k+	c #F0A90E",
"l+	c #F5B835",
"m+	c #FBD98F",
"n+	c #FFF7E7",
"o+	c #FEF6E4",
"p+	c #FEF5E5",
"q+	c #FEF5E4",
"r+	c #FEF5E3",
"s+	c #FDF5E3",
"t+	c #FCF4E2",
"u+	c #FBF3E0",
"v+	c #FBF3E3",
"w+	c #E6CB8D",
"x+	c #CA9D35",
"y+	c #B9850B",
"z+	c #AC7C06",
"A+	c #846006",
"B+	c #2E2204",
"C+	c #212120",
"D+	c #828282",
"E+	c #2E2D2B",
"F+	c #3A2906",
"G+	c #AC7A09",
"H+	c #ECAE25",
"I+	c #F3C45F",
"J+	c #F8DB99",
"K+	c #F8DA99",
"L+	c #F7D99A",
"M+	c #F6D99A",
"N+	c #F4D99A",
"O+	c #F2D799",
"P+	c #EFD498",
"Q+	c #ECD297",
"R+	c #E9D097",
"S+	c #D7B35D",
"T+	c #C29323",
"U+	c #B68209",
"V+	c #A87905",
"W+	c #805C05",
"X+	c #2C2004",
"Y+	c #232322",
"Z+	c #848484",
"`+	c #979796",
" @	c #393938",
".@	c #302407",
"+@	c #9A6E08",
"@@	c #D3950A",
"#@	c #E19E09",
"$@	c #E3A00C",
"%@	c #E8A716",
"&@	c #ECAE26",
"*@	c #ECAF28",
"=@	c #EBAD28",
"-@	c #E8AC27",
";@	c #E5AA26",
">@	c #E0A726",
",@	c #DBA326",
"'@	c #D49F25",
")@	c #CE9A24",
"!@	c #C28D12",
"~@	c #B78407",
"{@	c #B17F04",
"]@	c #A27405",
"^@	c #745404",
"/@	c #271D05",
"(@	c #2F2E2E",
"_@	c #8C8C8C",
":@	c #A5A5A4",
"<@	c #4F4F4E",
"[@	c #261D08",
"}@	c #7D5906",
"|@	c #C38B08",
"1@	c #D99A08",
"2@	c #D99908",
"3@	c #DE9B07",
"4@	c #E09C05",
"5@	c #DF9B05",
"6@	c #DC9A05",
"7@	c #D89805",
"8@	c #D49505",
"9@	c #CF9105",
"0@	c #C88C05",
"a@	c #C08704",
"b@	c #B98304",
"c@	c #AC7C04",
"d@	c #976D04",
"e@	c #5F4404",
"f@	c #1F1806",
"g@	c #6E6E6E",
"h@	c #1B160B",
"i@	c #533B04",
"j@	c #AB7A07",
"k@	c #CF9308",
"l@	c #D09308",
"m@	c #D59709",
"n@	c #D69709",
"o@	c #D39508",
"p@	c #CB9107",
"q@	c #C78E07",
"r@	c #C18A07",
"s@	c #BB8507",
"t@	c #B38005",
"u@	c #AB7B04",
"v@	c #A47704",
"w@	c #856004",
"x@	c #412F03",
"y@	c #17130A",
"z@	c #626262",
"A@	c #D6D6D6",
"B@	c #989898",
"C@	c #2B2A28",
"D@	c #2C2208",
"E@	c #7E5A06",
"F@	c #BB8607",
"G@	c #CB9006",
"H@	c #C98E07",
"I@	c #C98F06",
"J@	c #C78D06",
"K@	c #C38A06",
"L@	c #B88405",
"M@	c #B28004",
"N@	c #AA7A04",
"O@	c #A77803",
"P@	c #966D04",
"Q@	c #634903",
"R@	c #241C06",
"S@	c #232221",
"T@	c #D2D2D2",
"U@	c #B7B7B7",
"V@	c #616161",
"W@	c #211D14",
"X@	c #412F04",
"Y@	c #8B6405",
"Z@	c #BD8705",
"`@	c #C38B06",
" #	c #C18A05",
".#	c #C18905",
"+#	c #BF8805",
"@#	c #BD8605",
"##	c #BA8405",
"$#	c #B58104",
"%#	c #AF7D04",
"&#	c #A87904",
"*#	c #A67803",
"=#	c #9D7203",
"-#	c #725304",
";#	c #352703",
">#	c #1C1911",
",#	c #565656",
"'#	c #AFAFAF",
")#	c #444341",
"!#	c #272010",
"~#	c #4B3604",
"{#	c #886105",
"]#	c #B27E05",
"^#	c #BC8605",
"/#	c #BB8505",
"(#	c #B88305",
"_#	c #B58205",
":#	c #B38004",
"<#	c #B07E04",
"[#	c #AD7B04",
"}#	c #A67703",
"|#	c #996E04",
"1#	c #735304",
"2#	c #3F2E03",
"3#	c #211B0F",
"4#	c #3D3C3A",
"5#	c #929292",
"6#	c #CACACA",
"7#	c #C3C3C3",
"8#	c #43423D",
"9#	c #282110",
"0#	c #423004",
"a#	c #735204",
"b#	c #976C06",
"c#	c #A77806",
"d#	c #AC7B05",
"e#	c #AD7C04",
"f#	c #AC7A04",
"g#	c #A87804",
"h#	c #A37404",
"i#	c #996E05",
"j#	c #876104",
"k#	c #654904",
"l#	c #392A03",
"m#	c #231D0F",
"n#	c #3C3B38",
"o#	c #7D7C7C",
"p#	c #BDBDBD",
"q#	c #BCBCBB",
"r#	c #81807E",
"s#	c #4C4942",
"t#	c #2F2818",
"u#	c #312407",
"v#	c #503A05",
"w#	c #6E5005",
"x#	c #7D5A04",
"y#	c #855F03",
"z#	c #866003",
"A#	c #815C03",
"B#	c #765503",
"C#	c #664904",
"D#	c #493503",
"E#	c #2B2005",
"F#	c #282315",
"G#	c #44423C",
"H#	c #797877",
"I#	c #B6B6B6",
"J#	c #C2C0BC",
"K#	c #A09A8E",
"L#	c #6C6455",
"M#	c #373127",
"N#	c #2C2516",
"O#	c #2D240D",
"P#	c #312406",
"Q#	c #372803",
"R#	c #3A2902",
"S#	c #2E2105",
"T#	c #29210A",
"U#	c #282212",
"V#	c #302C21",
"W#	c #5F5A4C",
"X#	c #959086",
"Y#	c #BCBAB7",
"Z#	c #D5D0C6",
"`#	c #BEB8AE",
" $	c #A19A8F",
".$	c #7F7665",
"+$	c #4E483C",
"@$	c #2C2921",
"#$	c #1C1912",
"$$	c #18150D",
"%$	c #1B1810",
"&$	c #28241A",
"*$	c #48402F",
"=$	c #746B54",
"-$	c #999283",
";$	c #B6B1A6",
">$	c #CECAC1",
",$	c #DCD6CC",
"'$	c #C7C0B1",
")$	c #A7A39A",
"!$	c #94918C",
"~$	c #8B8781",
"{$	c #89847B",
"]$	c #8A867D",
"^$	c #928D85",
"/$	c #A39D90",
"($	c #BEB6A3",
"_$	c #D6D0C2",
"                    . + @ # $                     ",
"              $ % & * = - ; > , ' )               ",
"          ! ~ { ] ^ / ( _ : < [ } | 1 2           ",
"        3 4 5 6 7 8 9 0 a b c d e f g h i         ",
"      3 j k l m n o p q r s t u v w x y z A       ",
"    B C D E F G H I J K L M N O P Q R S T U V     ",
"  W X Y Z `  ...+.@.#.$.%.&.*.=.-.;.Q >.,.'.1 ).  ",
"  !.~.{.].^./.(._.:.<.[.}.|.1.2.3.4.5.6.7.8.9.0.a.",
"b.c.d.e.f.g.h.i.j.k.l.m.n.o.p.q.r.s.t.u.v.w.x.y.z.",
"A.B.C.D.E.F.G.H.I.J.K.L.M.N.O.P.Q.R.S.T.U.V.W.X.Y.",
"3 Z.`. +.+++@+#+$+%+&+*+=+-+;+>+,+'+)+!+~+{+]+^+/+",
"(+_+:+<+[+-+}+|+1+2+3+4+5+6+7+8+9+0+a+b+c+d+e+f+g+",
"/+h+e i+j+k+l+m+n+o+p+q+r+s+t+u+v+w+x+y+z+A+B+C+D+",
"i E+F+G+r.[+H+I+J+K+L+M+N+O+P+Q+R+S+T+U+V+W+X+Y+Z+",
"`+ @.@+@@@#@$@%@&@*@=@-@;@>@,@'@)@!@~@{@]@^@/@(@_@",
":@<@[@}@|@1@2@3@4@4@5@6@7@8@9@0@a@b@{@c@d@e@f@| ! ",
"z.g@h@i@j@k@l@;.m@n@m@o@l@p@q@r@s@t@u@v@w@x@y@z@).",
"A@B@C@D@E@F@G@H@5.5.p@I@J@K@u.L@M@N@O@P@Q@R@S@/+T@",
"  U@V@W@X@Y@Z@`@!+ #.#+#@###$#%#&#*#=#-#;#>#,#'#  ",
"  a.! )#!#~#{#]#^#/#(#_#:#<#[#N@}#|#1#2#3#4#5#6#  ",
"    7#$ 8#9#0#a#b#c#d#e#f#g#h#i#j#k#l#m#n#o#p#    ",
"      q#r#s#t#u#v#w#x#y#z#A#B#C#D#E#F#G#H#I#      ",
"        J#K#L#M#N#O#P#Q#R#;#S#T#U#V#W#X#Y#        ",
"          Z#`# $.$+$@$#$$$%$&$*$=$-$;$>$          ",
"              ,$'$)$!$~${$]$^$/$($_$              "};
