/* XPM */
static char * report_xpm[] = {
"36 36 879 2",
"  	c None",
". 	c #FFFFFF",
"+ 	c #8D8A89",
"@ 	c #A9A6A5",
"# 	c #F8F7F7",
"$ 	c #FEFEFE",
"% 	c #FCFCFC",
"& 	c #E7E7E8",
"* 	c #707071",
"= 	c #474747",
"- 	c #8E8E8E",
"; 	c #DFDFDF",
"> 	c #EEEEEF",
", 	c #FAFAFA",
"' 	c #FDFDFD",
") 	c #FAFAFB",
"! 	c #D8D8DA",
"~ 	c #76767A",
"{ 	c #1E1E22",
"] 	c #121216",
"^ 	c #616165",
"/ 	c #B1B0B4",
"( 	c #88878B",
"_ 	c #E0E0E0",
": 	c #FCFCFB",
"< 	c #F0F0F0",
"[ 	c #ACACAF",
"} 	c #4C4C52",
"| 	c #3C3A43",
"1 	c #8D8C93",
"2 	c #75747B",
"3 	c #212128",
"4 	c #3D3C44",
"5 	c #35343A",
"6 	c #AAAAAC",
"7 	c #FFFFFE",
"8 	c #FDFDFE",
"9 	c #E8E8E7",
"0 	c #9D9D9C",
"a 	c #515155",
"b 	c #74737A",
"c 	c #BDBCC3",
"d 	c #EFEEF3",
"e 	c #BBB9C1",
"f 	c #2F2E37",
"g 	c #75747C",
"h 	c #5D5C65",
"i 	c #79797B",
"j 	c #FEFEFD",
"k 	c #FEFDFE",
"l 	c #FDFDFC",
"m 	c #FEFEFC",
"n 	c #FDFDFA",
"o 	c #FFFFFC",
"p 	c #FFFFFD",
"q 	c #FCFBFA",
"r 	c #DCDADE",
"s 	c #878589",
"t 	c #6A6A6D",
"u 	c #B3B2B7",
"v 	c #E7E7EA",
"w 	c #F6F7F7",
"x 	c #F8F9F7",
"y 	c #E2E1E7",
"z 	c #595961",
"A 	c #5E5E63",
"B 	c #807F8A",
"C 	c #4C4C50",
"D 	c #EBEBE9",
"E 	c #FDFEFA",
"F 	c #FFFEFF",
"G 	c #E8E9E6",
"H 	c #E3E4E0",
"I 	c #EAEBE7",
"J 	c #F3F4EF",
"K 	c #F8F8F6",
"L 	c #FBFBFC",
"M 	c #FEFDFC",
"N 	c #FFFEFC",
"O 	c #FFFEFB",
"P 	c #FFFFFB",
"Q 	c #FEFEFA",
"R 	c #FCFCF8",
"S 	c #F2F2EF",
"T 	c #C9C8CB",
"U 	c #8A8992",
"V 	c #A4A4B1",
"W 	c #DDDFEA",
"X 	c #EDEDFB",
"Y 	c #E8E6F6",
"Z 	c #E7E4F6",
"` 	c #F6F6F8",
" .	c #F8F8FA",
"..	c #A0A1A6",
"+.	c #353639",
"@.	c #8E8D97",
"#.	c #3D3D43",
"$.	c #BDBDBC",
"%.	c #FDFDF9",
"&.	c #999A97",
"*.	c #585958",
"=.	c #6B6B6D",
"-.	c #87888A",
";.	c #9F9FA0",
">.	c #B5B6B5",
",.	c #CBCCC9",
"'.	c #DBDDD8",
").	c #E8EAE2",
"!.	c #F3F4ED",
"~.	c #FAFAF6",
"{.	c #FCFCFA",
"].	c #FEFEFB",
"^.	c #FDFDFB",
"/.	c #EEEEF2",
"(.	c #C3C3CE",
"_.	c #A8A9B8",
":.	c #C4C5DA",
"<.	c #D9DDF1",
"[.	c #D7DBF7",
"}.	c #D5D3FB",
"|.	c #E1DBF8",
"1.	c #F4F0F9",
"2.	c #FCFBFC",
"3.	c #FBFCFE",
"4.	c #D5D5DA",
"5.	c #393940",
"6.	c #7C7C85",
"7.	c #55545C",
"8.	c #858587",
"9.	c #F6F6F4",
"0.	c #909293",
"a.	c #22232C",
"b.	c #515161",
"c.	c #656574",
"d.	c #696A77",
"e.	c #6C6C7D",
"f.	c #717282",
"g.	c #7B7C8B",
"h.	c #868795",
"i.	c #9D9EA8",
"j.	c #B0B1B8",
"k.	c #C6C6D2",
"l.	c #DEDEEA",
"m.	c #ECEDF3",
"n.	c #F2F2F8",
"o.	c #D2D1E2",
"p.	c #BEBEDC",
"q.	c #C8CAF0",
"r.	c #CDD0FC",
"s.	c #CBCFF9",
"t.	c #CBCFF7",
"u.	c #DDDEFB",
"v.	c #F4F3FE",
"w.	c #FBFBFB",
"x.	c #F5F5F8",
"y.	c #F6F7F8",
"z.	c #F1F2F6",
"A.	c #60606A",
"B.	c #5C5C64",
"C.	c #7C7B83",
"D.	c #525156",
"E.	c #E2E2E1",
"F.	c #B5B9B6",
"G.	c #3A3C43",
"H.	c #848697",
"I.	c #595B6A",
"J.	c #5C5D6B",
"K.	c #6F6F84",
"L.	c #82829B",
"M.	c #8F8FAC",
"N.	c #9A99B9",
"O.	c #A5A6C4",
"P.	c #ACB0CC",
"Q.	c #B7BBDE",
"R.	c #BEC1E6",
"S.	c #C2C5E2",
"T.	c #A9ACBD",
"U.	c #A5A6B8",
"V.	c #BFC2E0",
"W.	c #C6CAF7",
"X.	c #C6CDFD",
"Y.	c #CDD1FB",
"Z.	c #DEE1FA",
"`.	c #EEF3FC",
" +	c #E9ECFB",
".+	c #E0E1FA",
"++	c #E7E6F5",
"@+	c #FAFBFC",
"#+	c #A3A3AE",
"$+	c #424248",
"%+	c #92929A",
"&+	c #3C3C42",
"*+	c #B6B6B7",
"=+	c #D0D2CF",
"-+	c #434548",
";+	c #6C6C7B",
">+	c #292A35",
",+	c #040609",
"'+	c #090B0D",
")+	c #111319",
"!+	c #1D1F2A",
"~+	c #343746",
"{+	c #63677A",
"]+	c #979CBD",
"^+	c #C0C4F3",
"/+	c #C6C9F2",
"(+	c #A3A6C2",
"_+	c #71728B",
":+	c #707186",
"<+	c #686B7D",
"[+	c #B0B3D6",
"}+	c #CBD1FA",
"|+	c #D8DCFA",
"1+	c #DEE0FD",
"2+	c #D7D8FB",
"3+	c #D3D4F6",
"4+	c #DEDFF9",
"5+	c #F6F7FD",
"6+	c #FCFDFC",
"7+	c #FBFCFD",
"8+	c #D1D1D8",
"9+	c #4D4D54",
"0+	c #7D7C84",
"a+	c #515157",
"b+	c #848586",
"c+	c #F3F3F2",
"d+	c #FDFEFD",
"e+	c #E4E5E5",
"f+	c #58595D",
"g+	c #565564",
"h+	c #444451",
"i+	c #020304",
"j+	c #040507",
"k+	c #1A1B26",
"l+	c #44455A",
"m+	c #787A97",
"n+	c #A8ABCC",
"o+	c #BDC0EA",
"p+	c #C6CAFC",
"q+	c #A2A6C8",
"r+	c #56586B",
"s+	c #9595B4",
"t+	c #9C9CBB",
"u+	c #565669",
"v+	c #A7A6C7",
"w+	c #CCD0FB",
"x+	c #CED2FC",
"y+	c #CCCEFC",
"z+	c #CDCEF7",
"A+	c #DEDFF7",
"B+	c #F3F5FC",
"C+	c #FBFBFE",
"D+	c #F8F9FC",
"E+	c #FBFBFD",
"F+	c #EBEBF1",
"G+	c #747380",
"H+	c #53535D",
"I+	c #78787C",
"J+	c #5A5C5D",
"K+	c #E0E1DF",
"L+	c #FCFDFB",
"M+	c #FEFFFE",
"N+	c #F1F3F2",
"O+	c #7C7D7E",
"P+	c #373743",
"Q+	c #656472",
"R+	c #0B0C10",
"S+	c #26262D",
"T+	c #79798C",
"U+	c #A6A6C7",
"V+	c #BCBBE6",
"W+	c #C5C5F4",
"X+	c #C7C9FA",
"Y+	c #C7CCFA",
"Z+	c #A1A6C9",
"`+	c #696A86",
" @	c #AFAFD0",
".@	c #ACADC7",
"+@	c #ADADBF",
"@@	c #C4C4E1",
"#@	c #C8CCF8",
"$@	c #C8CBFC",
"%@	c #CCCEF8",
"&@	c #DFE2F7",
"*@	c #F1F3FC",
"=@	c #EFF1FB",
"-@	c #EEEDF6",
";@	c #FAFBFA",
">@	c #F9F9FC",
",@	c #B2B1C0",
"'@	c #3A3A46",
")@	c #88898F",
"!@	c #46474A",
"~@	c #B6B8B7",
"{@	c #FCFEFB",
"]@	c #F8F9F8",
"^@	c #9D9E9D",
"/@	c #292832",
"(@	c #71707F",
"_@	c #15151D",
":@	c #09090F",
"<@	c #1C1D27",
"[@	c #333443",
"}@	c #505265",
"|@	c #777A95",
"1@	c #9599BC",
"2@	c #B0B6DB",
"3@	c #C4C7F2",
"4@	c #C4C2EA",
"5@	c #B9B9D5",
"6@	c #656879",
"7@	c #6A6A79",
"8@	c #727485",
"9@	c #B7BCDE",
"0@	c #CACFF8",
"a@	c #D8DBFA",
"b@	c #E4E6FC",
"c@	c #DFDFFB",
"d@	c #D8D7F8",
"e@	c #E7E6F7",
"f@	c #FCFDFA",
"g@	c #DCDBE3",
"h@	c #52525D",
"i@	c #6F6F77",
"j@	c #515256",
"k@	c #838585",
"l@	c #FBFCFB",
"m@	c #B9BBB7",
"n@	c #29292F",
"o@	c #6D6C7D",
"p@	c #272731",
"q@	c #06070B",
"r@	c #16171E",
"s@	c #272934",
"t@	c #3A3D4D",
"u@	c #5B5F77",
"v@	c #7E82A0",
"w@	c #A2A8CD",
"x@	c #C3C5F5",
"y@	c #B1B0D3",
"z@	c #686979",
"A@	c #838598",
"B@	c #89899F",
"C@	c #3F4053",
"D@	c #A2A6CA",
"E@	c #CDD0FA",
"F@	c #D3D4FB",
"G@	c #D0D0FB",
"H@	c #D2D1F9",
"I@	c #E3E1FB",
"J@	c #F8F8FE",
"K@	c #F9FAFD",
"L@	c #F3F3F8",
"M@	c #F7F7F9",
"N@	c #F4F4F7",
"O@	c #8A8A93",
"P@	c #4A4A53",
"Q@	c #66666B",
"R@	c #545557",
"S@	c #F4F4F4",
"T@	c #D8D9D7",
"U@	c #404044",
"V@	c #575665",
"W@	c #403F4D",
"X@	c #111214",
"Y@	c #3E4046",
"Z@	c #676878",
"`@	c #8A8BA3",
" #	c #A5A6C6",
".#	c #B3B5D9",
"+#	c #BCBFE8",
"@#	c #C3C5F3",
"##	c #9C9FBD",
"$#	c #4F5266",
"%#	c #A5A8C5",
"&#	c #A6A7BF",
"*#	c #A2A3B7",
"=#	c #C5C4EA",
"-#	c #CACBFB",
";#	c #D0D1FA",
">#	c #F0F3FC",
",#	c #E9E9FA",
"'#	c #E0DFF8",
")#	c #E7E7F7",
"!#	c #FBFCFC",
"~#	c #CECED5",
"{#	c #3C3C46",
"]#	c #6F7076",
"^#	c #37383C",
"/#	c #CCCDCE",
"(#	c #FDFEFE",
"_#	c #FDFCFA",
":#	c #EBEAEB",
"<#	c #616061",
"[#	c #3F3F4A",
"}#	c #505061",
"|#	c #08090B",
"1#	c #050608",
"2#	c #0C0D13",
"3#	c #1A1B24",
"4#	c #353646",
"5#	c #575971",
"6#	c #7E81A0",
"7#	c #B2B6DA",
"8#	c #C1C5EC",
"9#	c #B5B8DF",
"0#	c #B2B6D3",
"a#	c #6D707E",
"b#	c #63656B",
"c#	c #888798",
"d#	c #BBBAE0",
"e#	c #CECFFA",
"f#	c #DCDFFA",
"g#	c #E0E3FA",
"h#	c #D7DAF7",
"i#	c #D4D5F9",
"j#	c #E3E5FA",
"k#	c #F5F8FA",
"l#	c #FAFAFC",
"m#	c #EDEDF2",
"n#	c #5B5B65",
"o#	c #64656D",
"p#	c #434348",
"q#	c #979897",
"r#	c #F8F8F8",
"s#	c #FEFCFB",
"t#	c #F7F5F7",
"u#	c #868684",
"v#	c #2B2B34",
"w#	c #59596B",
"x#	c #0F0F16",
"y#	c #2D2C38",
"z#	c #4E4C60",
"A#	c #787791",
"B#	c #9596B3",
"C#	c #ACAFD1",
"D#	c #C1C4ED",
"E#	c #C8CAF8",
"F#	c #BEC0E4",
"G#	c #747587",
"H#	c #606272",
"I#	c #828591",
"J#	c #383947",
"K#	c #9394B6",
"L#	c #D1D3FB",
"M#	c #CECEFA",
"N#	c #CDCEFB",
"O#	c #E3E6FC",
"P#	c #F4F8FA",
"Q#	c #F3F6F9",
"R#	c #F5F5FB",
"S#	c #909098",
"T#	c #606167",
"U#	c #5D5E5F",
"V#	c #E8E8E8",
"W#	c #FFFDFD",
"X#	c #FEFCFD",
"Y#	c #B7B7B4",
"Z#	c #1F2025",
"`#	c #5D5E6C",
" $	c #151618",
".$	c #39393F",
"+$	c #5A5968",
"@$	c #76758E",
"#$	c #8989A8",
"$$	c #9C9DC1",
"%$	c #B1B3DE",
"&$	c #C2C5F3",
"*$	c #A5A8C8",
"=$	c #454557",
"-$	c #8584A2",
";$	c #A09FC1",
">$	c #A9AAC9",
",$	c #C0C1E8",
"'$	c #CACAFA",
")$	c #CBCCFA",
"!$	c #D0D2F8",
"~$	c #E1E5FA",
"{$	c #EAEFFC",
"]$	c #E1E3FC",
"^$	c #DDDDFB",
"/$	c #F0F0FB",
"($	c #CBCBD0",
"_$	c #52525B",
":$	c #76767C",
"<$	c #39393C",
"[$	c #BFBFC0",
"}$	c #FFFEFE",
"|$	c #D6D7D3",
"1$	c #242628",
"2$	c #575865",
"3$	c #2D2E36",
"4$	c #000202",
"5$	c #090910",
"6$	c #1B1C2B",
"7$	c #37394A",
"8$	c #5C5F75",
"9$	c #9095B2",
"0$	c #B9BEE1",
"a$	c #C2C4ED",
"b$	c #AAA9D3",
"c$	c #B4B3D9",
"d$	c #8988A2",
"e$	c #9999A8",
"f$	c #C0C2D7",
"g$	c #CBCCF1",
"h$	c #CECFF9",
"i$	c #DADCFA",
"j$	c #DDE1F6",
"k$	c #D4D6F7",
"l$	c #D9DAFB",
"m$	c #ECEEFC",
"n$	c #F7F8FA",
"o$	c #F4F4FC",
"p$	c #E7E7EC",
"q$	c #6E6F78",
"r$	c #66666F",
"s$	c #424347",
"t$	c #939394",
"u$	c #F6F6F6",
"v$	c #FFFEFD",
"w$	c #EEEEE9",
"x$	c #38393A",
"y$	c #4A4A58",
"z$	c #424151",
"A$	c #040409",
"B$	c #1B1C1D",
"C$	c #48484E",
"D$	c #7E7E91",
"E$	c #9F9FBC",
"F$	c #B2B4D7",
"G$	c #C1C4EC",
"H$	c #C7CAF6",
"I$	c #C9CBFA",
"J$	c #C8CBF2",
"K$	c #ACAEC5",
"L$	c #575768",
"M$	c #706D7E",
"N$	c #5F606E",
"O$	c #A8ABC4",
"P$	c #CFCFFD",
"Q$	c #CDCEF8",
"R$	c #D6D9F7",
"S$	c #EBEFFD",
"T$	c #EDEFFB",
"U$	c #E5E4F5",
"V$	c #F0F0F8",
"W$	c #F9FAFC",
"X$	c #E9E9EF",
"Y$	c #84848F",
"Z$	c #43434D",
"`$	c #676768",
" %	c #E7E7E7",
".%	c #FBFBFA",
"+%	c #5E5E5F",
"@%	c #35343B",
"#%	c #595868",
"$%	c #05050A",
"%%	c #121312",
"&%	c #252529",
"*%	c #35353F",
"=%	c #474655",
"-%	c #5E5E72",
";%	c #7A7B99",
">%	c #989ABF",
",%	c #BCBEEC",
"'%	c #A0A4C3",
")%	c #484D59",
"!%	c #66687B",
"~%	c #8785A1",
"{%	c #6B6A83",
"]%	c #A5A6C7",
"^%	c #C9CCFC",
"/%	c #CACDFC",
"(%	c #D5D8FA",
"_%	c #E2E6F9",
":%	c #DBDDF7",
"<%	c #EDEBFB",
"[%	c #F1F1F5",
"}%	c #D4D3DD",
"|%	c #7A7A87",
"1%	c #33323D",
"2%	c #3A3A42",
"3%	c #7B7B7F",
"4%	c #434344",
"5%	c #C4C4C4",
"6%	c #868686",
"7%	c #28272D",
"8%	c #666573",
"9%	c #08090E",
"0%	c #010202",
"a%	c #030406",
"b%	c #23232C",
"c%	c #474758",
"d%	c #777797",
"e%	c #9F9FC8",
"f%	c #C1C1F0",
"g%	c #ABAED4",
"h%	c #727590",
"i%	c #9898B5",
"j%	c #9191A8",
"k%	c #BBBAD2",
"l%	c #CBCAEF",
"m%	c #CED1FC",
"n%	c #D0D1F9",
"o%	c #D4D5F7",
"p%	c #E7E9F9",
"q%	c #E5E5F0",
"r%	c #B1B0C2",
"s%	c #616170",
"t%	c #3B3B46",
"u%	c #5D5D66",
"v%	c #74747C",
"w%	c #28282A",
"x%	c #A8A8A8",
"y%	c #ABABAB",
"z%	c #26262A",
"A%	c #666571",
"B%	c #17171E",
"C%	c #292A2C",
"D%	c #5F5F6B",
"E%	c #8A88A0",
"F%	c #A7A5C4",
"G%	c #B8B7DE",
"H%	c #C0C0EC",
"I%	c #C4C6F2",
"J%	c #C6C8F4",
"K%	c #C2C4EE",
"L%	c #BFC0E0",
"M%	c #636473",
"N%	c #6D6E77",
"O%	c #9EA0B0",
"P%	c #C5CAED",
"Q%	c #C9CEF9",
"R%	c #CBCDF9",
"S%	c #D2D3FA",
"T%	c #D9DCE6",
"U%	c #888893",
"V%	c #494958",
"W%	c #565660",
"X%	c #6E6E75",
"Y%	c #515159",
"Z%	c #3A3A3C",
"`%	c #CCCCCC",
" &	c #343438",
".&	c #53525D",
"+&	c #36363E",
"@&	c #151619",
"#&	c #1E1E24",
"$&	c #24232E",
"%&	c #2A2A37",
"&&	c #393B4B",
"*&	c #575A6B",
"=&	c #8588A5",
"-&	c #BFC1EF",
";&	c #BABBE3",
">&	c #7E7F94",
",&	c #4B4C59",
"'&	c #65666F",
")&	c #383A47",
"!&	c #9FA4C1",
"~&	c #C9CFF6",
"{&	c #CED1F8",
"]&	c #D4D8EB",
"^&	c #AEB0C2",
"/&	c #696A7F",
"(&	c #4B4B56",
"_&	c #626268",
":&	c #5C5C63",
"<&	c #65656C",
"[&	c #77777D",
"}&	c #4F5054",
"|&	c #353536",
"1&	c #B7B7B7",
"2&	c #4E4E50",
"3&	c #373741",
"4&	c #4F4F59",
"5&	c #03040A",
"6&	c #020204",
"7&	c #08090A",
"8&	c #1B1B20",
"9&	c #3F3F4C",
"0&	c #73748E",
"a&	c #9E9FC0",
"b&	c #BABDE3",
"c&	c #C8CAF6",
"d&	c #9B9DC2",
"e&	c #414355",
"f&	c #75778B",
"g&	c #767594",
"h&	c #8B8BAE",
"i&	c #BABEE4",
"j&	c #CBD0F4",
"k&	c #C4C7E5",
"l&	c #9194AC",
"m&	c #67697D",
"n&	c #5D5E71",
"o&	c #606073",
"p&	c #5D5C6D",
"q&	c #5D5D6A",
"r&	c #61616B",
"s&	c #5F5F65",
"t&	c #5C5C60",
"u&	c #2B2C2D",
"v&	c #707171",
"w&	c #DBDBDB",
"x&	c #ECECEC",
"y&	c #6D6D6E",
"z&	c #212127",
"A&	c #5F5F6A",
"B&	c #0B0B10",
"C&	c #060808",
"D&	c #6B6A79",
"E&	c #8F8EA5",
"F&	c #A0A0C2",
"G&	c #A4A5CC",
"H&	c #A4A7CD",
"I&	c #B0B3DD",
"J&	c #B4B7E4",
"K&	c #9B9EC5",
"L&	c #9FA3C7",
"M&	c #73749A",
"N&	c #B9BAE4",
"O&	c #C7C9F6",
"P&	c #AFB2D8",
"Q&	c #7F82A0",
"R&	c #656782",
"S&	c #656680",
"T&	c #64667A",
"U&	c #616273",
"V&	c #656677",
"W&	c #86848E",
"X&	c #8E8D95",
"Y&	c #8C8B93",
"Z&	c #3B3B40",
"`&	c #858586",
" *	c #F3F3F3",
".*	c #F7F7F7",
"+*	c #949594",
"@*	c #19191D",
"#*	c #61606D",
"$*	c #1C1D22",
"%*	c #050605",
"&*	c #121317",
"**	c #14141C",
"=*	c #191A24",
"-*	c #292B38",
";*	c #444858",
">*	c #6D7389",
",*	c #A3A7CC",
"'*	c #BEC1EF",
")*	c #C5C8F7",
"!*	c #B9BCE3",
"~*	c #6C708D",
"{*	c #A1A3C2",
"]*	c #A0A1C5",
"^*	c #787A99",
"/*	c #6D6F86",
"(*	c #6B6C80",
"_*	c #68697B",
":*	c #6B6C7B",
"<*	c #70727C",
"[*	c #6E7077",
"}*	c #67676E",
"|*	c #57565C",
"1*	c #4E4E54",
"2*	c #4C4B52",
"3*	c #545458",
"4*	c #8F8F8F",
"5*	c #EDEDED",
"6*	c #B4B4B3",
"7*	c #212124",
"8*	c #535260",
"9*	c #2F2F37",
"0*	c #020303",
"a*	c #080A0C",
"b*	c #202027",
"c*	c #40404E",
"d*	c #68697E",
"e*	c #7D7F99",
"f*	c #8588A4",
"g*	c #898CAA",
"h*	c #9395B9",
"i*	c #A9ABD1",
"j*	c #9FA1C0",
"k*	c #5D6074",
"l*	c #707283",
"m*	c #A8AABC",
"n*	c #A0A3B1",
"o*	c #9CA0A9",
"p*	c #A2A3AB",
"q*	c #A5A6AD",
"r*	c #ADAEB3",
"s*	c #B2B3B5",
"t*	c #B7B8B9",
"u*	c #C0C0C1",
"v*	c #CACACA",
"w*	c #D2D2D3",
"x*	c #DADADB",
"y*	c #E4E4E4",
"z*	c #F9F9F9",
"A*	c #D0D0CE",
"B*	c #343536",
"C*	c #3F3F4E",
"D*	c #41414B",
"E*	c #0D0F11",
"F*	c #24242D",
"G*	c #2C2C36",
"H*	c #2A2D37",
"I*	c #2E313D",
"J*	c #484B5B",
"K*	c #747589",
"L*	c #797A8F",
"M*	c #6A6C7B",
"N*	c #565861",
"O*	c #898A90",
"P*	c #E9EBEE",
"Q*	c #EFF1F3",
"R*	c #F0F3F2",
"S*	c #F4F5F5",
"T*	c #F6F7F6",
"U*	c #F9FAF8",
"V*	c #FBFCFA",
"W*	c #E9E9E7",
"X*	c #575858",
"Y*	c #2A2939",
"Z*	c #4E4D59",
"`*	c #0B0C0E",
" =	c #050707",
".=	c #111315",
"+=	c #27292D",
"@=	c #50535D",
"#=	c #6C7080",
"$=	c #70717F",
"%=	c #686870",
"&=	c #8A8B90",
"*=	c #CACBCD",
"==	c #EAEBEC",
"-=	c #E1E2E3",
";=	c #F0F1F2",
">=	c #FEFFFB",
",=	c #F6F6F5",
"'=	c #7C7C7E",
")=	c #1C1B28",
"!=	c #555462",
"~=	c #2C2B36",
"{=	c #42414E",
"]=	c #5D5C6E",
"^=	c #666575",
"/=	c #5B5C67",
"(=	c #5F6069",
"_=	c #86878D",
":=	c #CCCBCD",
"<=	c #F2F2F2",
"[=	c #FDFEFC",
"}=	c #FEFFFD",
"|=	c #A4A3A7",
"1=	c #14131B",
"2=	c #615F6B",
"3=	c #797786",
"4=	c #5D5B6A",
"5=	c #3F3E4B",
"6=	c #484751",
"7=	c #8E8D91",
"8=	c #EEEEEE",
"9=	c #CECECD",
"0=	c #161618",
"a=	c #1D1D21",
"b=	c #2D2C33",
"c=	c #515056",
"d=	c #9A9A9B",
"e=	c #DDDDDD",
"f=	c #E6E6E5",
"g=	c #444443",
"h=	c #4F4F4F",
"i=	c #DCDCDC",
"j=	c #F9F9F6",
"k=	c #C1C1C2",
"l=	c #D9D9D9",
". . . . . . . . . . . . . . . . . . . . . . . . . + @ # . . . . . . . . ",
". . . . . . . . . . . . . . . . . . . . . $ % & * = - ; > , . . . . . . ",
". . . . . . . . . . . . . . . . . . . $ ' ) ! ~ { ] ^ / ( _ $ . . . . . ",
". . . . . . . . . . . . . . . . . . . : < [ } | 1 2 3 4 5 6 $ $ . . . . ",
". . . $ 7 7 7 7 7 7 . . . . . $ 7 7 8 9 0 a b c d e f g h i , j . . . . ",
"k 8 ' % l m n m o p 7 7 7 7 $ l n q r s t u v w x y z A B C D E 7 F . . ",
"G H I J K L ' M N O P P P P Q R S T U V W X Y Z `  ...+.@.#.$.%.p F . . ",
"&.*.=.-.;.>.,.'.).!.~.{.m ].^./.(._.:.<.[.}.|.1.2.3.4.5.6.7.8.9.p F . . ",
"0.a.b.c.d.e.f.g.h.i.j.k.l.m.n.o.p.q.r.s.t.u.v.w.x.y.z.A.B.C.D.E.p . . . ",
"F.G.H.I.J.K.L.M.N.O.P.Q.R.S.T.U.V.W.X.Y.Z.`. +.+++w @+#+$+%+&+*+^.. . . ",
"=+-+;+>+,+'+)+!+~+{+]+^+/+(+_+:+<+[+}+|+1+2+3+4+5+6+7+8+9+0+a+b+c+d+. . ",
"e+f+g+h+i+j+k+l+m+n+o+p+q+r+s+t+u+v+w+x+y+z+A+B+C+D+E+F+G+H+I+J+K+L+M+. ",
"N+O+P+Q+R+S+T+U+V+W+X+Y+Z+`+ @.@+@@@#@$@%@&@*@=@++-@;@>@,@'@)@!@~@{@M+. ",
"]@^@/@(@_@:@<@[@}@|@1@2@3@4@5@6@7@8@9@0@a@b@c@d@e@D+f@w.g@h@i@j@k@l@M+. ",
"L+m@n@o@p@q@r@s@t@u@v@w@x@y@z@A@B@C@D@E@F@G@H@I@J@K@L@M@N@O@P@Q@R@S@$ . ",
": T@U@V@W@X@Y@Z@`@ #.#+#@###$#%#&#*#=#-#-#;#b@>#,#'#)#) !#~#{#]#^#/#(#. ",
"_#:#<#[#}#|#1#2#3#4#5#6#7#8#9#0#a#b#c#d#e#f#g#h#i#j#k#;@l#m#n#o#p#q#r#$ ",
"s#t#u#v#w#x#x#y#z#A#B#C#D#E#F#G#H#I#J#K#e#L#M#N#O#P#Q#X R#>@S#H+T#U#V#$ ",
"W#X#Y#Z#`#{  $.$+$@$#$$$%$&$*$=$-$;$>$,$'$)$!$~${$]$^$/$w.!#($_$:$<$[$% ",
"}$}$|$1$2$3$4$i+5$6$7$8$9$0$a$b$c$d$e$f$g$h$i$j$k$l$m$n$o$D+p$q$r$s$t$u$",
"v$}$w$x$y$z$A$B$C$D$E$F$G$H$I$J$K$L$M$N$O$e#P$Q$R$S$T$U$V$W$X$Y$Z$A `$ %",
"F . .%+%@%#%$%%%&%*%=%-%;%>%,%'%)%!%~%{%]%^%/%(%_%:%d@<%[%}%|%1%2%3%4%5%",
". . ' 6%7%8%9%0%a%2#b%c%d%e%f%g%h%i%j%k%l%/%m%(%n%o%p%q%r%s%t%u%v%} w%x%",
". . $ y%z%A%B%|#C%D%E%F%G%H%I%J%K%L%M%N%O%P%Q%R%S%j#T%U%V%W%X%Y%{#2%Z%5%",
". . $ `% &.&+&q@@&#&$&%&&&*&=&-&;&>&,&'&)&!&~&{&]&^&/&(&_&:&9+<&[&}&|&1&",
". . $ ; 2&3&4&5&6&7&8&9&0&a&b&c&d&e&f&g&h&i&j&k&l&m&n&o&p&q&r&s&t&u&v&w&",
". . ' x&y&z&A&B&C&5.D&E&F&G&H&I&J&K&L&M&N&O&P&Q&R&S&T&U&V&G+W&X&Y&Z&`& *",
". . $ .*+*@*#*$*%*&***=*-*;*>*,*'*)*!*~*{*]*^*/*(*_*:*<*[*}*|*1*2*3*4*5*",
". . $ % 6*7*8*9*0*a*b*c*d*e*f*g*h*i*j*k*l*m*n*o*p*q*r*s*t*u*v*w*x*y*x&z*",
". . . $ A*B*C*D*%*E*F*G*H*I*J*K*L*f&M*N*O*P*Q*R*S*T*U*V*L+m j j j p 7 . ",
". . . . W*X*Y*Z*`* =.=+=@=#=$=%=&=*===-=;=V*m >=>=o p p 7 7 7 7 7 7 . . ",
". . . . ,='=)=!=~={=]=^=/=(=_=:=<=^.m ' d+[=}=}=p p 7 . . . . . . . . . ",
". . . . % |=1=2=3=4=5=6=7=v*8=' . . . . . . . . . . . . . . . . . . . . ",
". . . . $ 9=0=a=b=c=d=e=, % j . . . . . . . . . . . . . . . . . . . . . ",
". . . . $ f=g=h=t$i=j=].$ $ $ . . . . . . . . . . . . . . . . . . . . . ",
". . . . $ .*k=l= *' p 7 . . . . . . . . . . . . . . . . . . . . . . . . "};
