/* XPM */
static char * CashRegister_xpm[] = {
"48 48 64 1",
" 	c None",
".	c #B6DAB2CAB6DA",
"X	c #CF3CCB2BCF3C",
"o	c #71C671C671C6",
"O	c #8E389E79DF7D",
"+	c #79E78A28CF3C",
"@	c #AEBABAEAEFBE",
"#	c #AEBAAAAAAEBA",
"$	c #D75CD34CD75C",
"%	c #E79DE79DE79D",
"&	c #9E799A69A699",
"*	c #492459659658",
"=	c #618579E7B6DA",
"-	c #596569A6A699",
";	c #71C68A28C71B",
":	c #79E78A28C71B",
">	c #BEFBBAEABEFB",
",	c #410351448E38",
"<	c #514461859E79",
"1	c #69A669A669A6",
"2	c #965892489658",
"3	c #618561856185",
"4	c #1861208130C2",
"5	c #28A2410379E7",
"6	c #596571C6AEBA",
"7	c #000008204103",
"8	c #000010404924",
"9	c #082018615144",
"0	c #492449244924",
"q	c #861782078617",
"w	c #082010401861",
"e	c #38E318611861",
"r	c #38E351448E38",
"t	c #0820104028A2",
"y	c #082020815965",
"u	c #69A67DF7B6DA",
"i	c #86179248B6DA",
"p	c #38E349248617",
"a	c #104028A26185",
"s	c #69A671C68E38",
"d	c #596559655965",
"f	c #6185618569A6",
"g	c #28A238E371C6",
"h	c #000000001040",
"j	c #000018615144",
"k	c #28A230C25144",
"l	c #186130C269A6",
"z	c #86179248D75C",
"x	c #A699A289A699",
"c	c #86178A289E79",
"v	c #104020815965",
"b	c #9E7945144103",
"n	c #596569A69658",
"m	c #38E3492471C6",
"M	c #208130C25965",
"N	c #71C608200820",
"B	c #30C2410369A6",
"V	c #9E79A289B6DA",
"C	c #208134D36185",
"Z	c #0000082038E3",
"A	c #D75C8E388E38",
"S	c #0000082030C2",
"D	c #A69969A669A6",
"F	c #492459658E38",
"                               .XXXXo           ",
"                      O+O@O@@ #$%%%$&o          ",
"                    *@=-;:O;O@#>$%%%$.o         ",
"                   *O,-=-;-*,<12#X%%344         ",
"                  *@55-=6789.#003q&qw0e         ",
"                 *+;;*r-8ty0X$>300334e4:uu      ",
"                *-=;;u=9ytt1>$$>#30344wi==      ",
"               *pp=;;;=5a3X3q$$$X.1s44:<-*      ",
"              **==5p=uu=a32.odq$#.fw4*;,p<      ",
"             **uu;;pg*=htt02.$30q1wtr==5=;=     ",
"             *-=;;u-,5pyttttd.X2dwt5<-6-u=;=    ",
"            *-=+;u=--*=-*y8tt0&ttjyg5r--*5-u=   ",
"            *u;66=---=--**5ttt7kaalaa5pljp====  ",
"           **;6---z;-*<*<rppy8<*,,r5l5l-*====== ",
"           ,z=--;;;*-*****r5lja*<**,*l2$@z=<--= ",
"          *,;==;;,,******,*p58jjp<--aa#$#i6---- ",
"          p*<=-,,********,,,pgljjy<5g5x$q2-<*-= ",
"         *5***rr,,,****,,,rpr5g5a9y5**s#qq-**-u ",
"         r,**r,,,,gg***,,rprrr5l555r*<rs#c*,*-= ",
"        **=-,pr,rr,*l,*,,,rppr,5g5p***-*,*,*<<- ",
"        ,=-,5aal5rp*p88,,rppr,,,5-;-r-*,*p*<--u ",
"       ,--*&#&pv9g55,rh8,pp5pr,,p=;*,-***,<--u* ",
"      r=-p&>bb#nmMa5pr,pr55pprrr*=-5***,,*--=u5 ",
"     56<,#>bNe.$XnBM5rrp5555pr,**=p,**,,**-=-*  ",
"    p<*5&>bNe&$%$$$nBkpp5555p5p*=*5*,***,*--*5  ",
"   ,**M2>bNe#$%2d$$$$nB955555pp-up,*p,*,,*-*5   ",
"  *r*g#>bNe#$%2d%2d%%$$nBv5555p*<5*,p,,,*-*5    ",
" *7aapV$Ne.$%o3%2d%23%%$$nB9g5y-,,*,,,,***5     ",
" 579yl,V..$%o3%23%21%23%$$C9gag<p,,,,*,**5      ",
" lZ889a,V$$>3%2d%21%2o%23>gaa85,,,p,,,**5       ",
" lZ7h8jjpc.$$31%21%23%23>mgllp,5,,p,*p*5        ",
" yZ7hZZ8ja,i$$2o3%23Ab3>s55gpu,p,p,*,*5         ",
" 8Z7ZSZZZj95s$$#o33Abe.s5p5,:<g,pp,,*5          ",
" yS7SSSZZZ8yl*i$XqAbe#s,5r,z;5ppm,,*5           ",
" a7S78ZSSSSSya5->$Decs*5,*z+55m5g,*5            ",
" g787787SSSSS8al,sVVs,g,*+OppB5mp-5             ",
"  jS888887ZhSSS9a5,Fpg5*:O,5BBgp-5              ",
"   jZ8887887SS888ylll5,;@*5ggC5,5               ",
"    j878888888888hjl5r=O-5ggCgp5                ",
"     j778888888888Z8,;=-mg5Cmp5                 ",
"      j888j888888888a,pgmCBB55                  ",
"        j888888888888agCCCB,5                   ",
"         j88jj8888889lCgBBg5                    ",
"           j8j8jj888yg5gCm5                     ",
"             j989j88yCgCg5                      ",
"              888888apmg5                       ",
"                8888l,p5                        ",
"                  88g,5                         "};
