/* XPM */
static char * search_advanced_xpm[] = {
"22 22 98 2",
"  	c None",
". 	c #000000",
"+ 	c #434F5D",
"@ 	c #697D92",
"# 	c #71879C",
"$ 	c #738AA1",
"% 	c #6B8198",
"& 	c #3D4B58",
"* 	c #5E7082",
"= 	c #8E9FB0",
"- 	c #B9C2CB",
"; 	c #D6DCE1",
"> 	c #D7DEE6",
", 	c #A2B6C9",
"' 	c #7C96B2",
") 	c #5D7186",
"! 	c #414E5B",
"~ 	c #91A2B3",
"{ 	c #D3D9DE",
"] 	c #F6F6F7",
"^ 	c #F5F7F9",
"/ 	c #E9EEF4",
"( 	c #D7E0EA",
"_ 	c #94ACC5",
": 	c #809BB8",
"< 	c #445364",
"[ 	c #6A7F94",
"} 	c #B9C4CF",
"| 	c #F5F6F8",
"1 	c #F2F6F9",
"2 	c #D3DDE8",
"3 	c #B1C3D6",
"4 	c #86A1BD",
"5 	c #8CA4BE",
"6 	c #738DA8",
"7 	c #70869C",
"8 	c #E3E6E9",
"9 	c #F9FAFC",
"0 	c #E7EDF3",
"a 	c #D4DFE9",
"b 	c #B6C7D9",
"c 	c #8BA6C1",
"d 	c #85A0BD",
"e 	c #95ACC4",
"f 	c #849CB8",
"g 	c #6A7F95",
"h 	c #D5DCE1",
"i 	c #E5EBF2",
"j 	c #8DA8C3",
"k 	c #88A3BF",
"l 	c #839EBB",
"m 	c #A2B5CA",
"n 	c #859DB7",
"o 	c #607489",
"p 	c #97A9BB",
"q 	c #CCD7E2",
"r 	c #B5C6D7",
"s 	c #88A2BE",
"t 	c #94ABC3",
"u 	c #AFC0D1",
"v 	c #6F89A4",
"w 	c #384351",
"x 	c #6B829A",
"y 	c #879BB1",
"z 	c #849DB9",
"A 	c #89A2BE",
"B 	c #97ADC5",
"C 	c #B9C8D7",
"D 	c #8DA4BD",
"E 	c #425263",
"F 	c #4F6073",
"G 	c #667C93",
"H 	c #8496AA",
"I 	c #8B9FB4",
"J 	c #9FB1C4",
"K 	c #ABBCCD",
"L 	c #98ADC3",
"M 	c #5D728A",
"N 	c #394755",
"O 	c #617488",
"P 	c #6F8399",
"Q 	c #6A829B",
"R 	c #69819C",
"S 	c #415162",
"T 	c #050505",
"U 	c #070707",
"V 	c #262626",
"W 	c #B9B9B9",
"X 	c #909090",
"Y 	c #161616",
"Z 	c #0D0D0D",
"` 	c #B1B1B1",
" .	c #6E6E6E",
"..	c #B7B7B7",
"+.	c #ABABAB",
"@.	c #767676",
"#.	c #080808",
"$.	c #1C1C1C",
"                                            ",
"                                            ",
"                    . . . . . .             ",
"                . . + @ # $ % & .           ",
"                . * = - ; > , ' ) .         ",
"              . ! ~ { ] ^ / ( _ : < .       ",
"              . [ } | 1 / 2 3 4 5 6 .       ",
"              . 7 8 9 0 a b c d e f .       ",
"              . g h i 2 b j k l m n .       ",
"              . o p q r c k s t u v .       ",
"              . w x y z l A B C D E .       ",
"              . . F G H I J K L M .         ",
"            . . . . N O P Q R S .           ",
"          . T U . . . . . . . .             ",
"        V W X Y .                           ",
"      Z `  .. .                             ",
"    . .. .. .                               ",
"  . +.@.. .                                 ",
"  . #.$..                                   ",
"    . .                                     ",
"                                            ",
"                                            "};
