/* XPM */
static char * services_xpm[] = {
"32 24 193 2",
"  	c None",
". 	c #B9B9B9",
"+ 	c #A7A7A7",
"@ 	c #8D8E8D",
"# 	c #B1B1B1",
"$ 	c #A9A9A9",
"% 	c #A4A4A4",
"& 	c #8D8D8D",
"* 	c #585958",
"= 	c #B7B7B7",
"- 	c #ACACAC",
"; 	c #AAAAAA",
"> 	c #A2A2A2",
", 	c #868686",
"' 	c #393939",
") 	c #E9E9E9",
"! 	c #B3B3B3",
"~ 	c #9F9F9F",
"{ 	c #828282",
"] 	c #373837",
"^ 	c #BFBFBF",
"/ 	c #AEAEAE",
"( 	c #A1A1A1",
"_ 	c #9C9C9C",
": 	c #6D6D6D",
"< 	c #474747",
"[ 	c #C3C3C3",
"} 	c #AFAFAF",
"| 	c #ABABAB",
"1 	c #9A9A9A",
"2 	c #535353",
"3 	c #676767",
"4 	c #919191",
"5 	c #8A8A8A",
"6 	c #A6A6A6",
"7 	c #969696",
"8 	c #373737",
"9 	c #7E7F7E",
"0 	c #9D9D9D",
"a 	c #ADADAD",
"b 	c #7A7A7A",
"c 	c #646464",
"d 	c #BDBDBD",
"e 	c #939393",
"f 	c #999999",
"g 	c #979797",
"h 	c #717171",
"i 	c #2F2F2F",
"j 	c #A6A7A6",
"k 	c #B0B0B0",
"l 	c #757575",
"m 	c #3B3B3B",
"n 	c #3D3D3D",
"o 	c #949494",
"p 	c #818181",
"q 	c #797979",
"r 	c #929292",
"s 	c #565656",
"t 	c #8C8D8C",
"u 	c #969796",
"v 	c #B4B4B4",
"w 	c #2A2A2A",
"x 	c #353535",
"y 	c #282828",
"z 	c #464646",
"A 	c #7E7E7E",
"B 	c #343434",
"C 	c #424242",
"D 	c #3F3F3F",
"E 	c #494949",
"F 	c #6B6B6B",
"G 	c #827375",
"H 	c #863C42",
"I 	c #A75155",
"J 	c #653A3B",
"K 	c #636363",
"L 	c #5A5A5A",
"M 	c #313131",
"N 	c #606060",
"O 	c #838383",
"P 	c #909090",
"Q 	c #616161",
"R 	c #1B1B1B",
"S 	c #151515",
"T 	c #0C0C0C",
"U 	c #141414",
"V 	c #737473",
"W 	c #837677",
"X 	c #814D54",
"Y 	c #B04651",
"Z 	c #86353B",
"` 	c #643B3B",
" .	c #7D7D7D",
"..	c #858585",
"+.	c #515151",
"@.	c #585858",
"#.	c #8C8C8C",
"$.	c #383838",
"%.	c #1C1C1C",
"&.	c #040404",
"*.	c #030303",
"=.	c #080808",
"-.	c #262626",
";.	c #595A59",
">.	c #917B7E",
",.	c #BA8088",
"'.	c #C87579",
").	c #9E3431",
"!.	c #51191A",
"~.	c #4E4343",
"{.	c #727272",
"].	c #8E8E8E",
"^.	c #8F8F8F",
"/.	c #0F0F0F",
"(.	c #212121",
"_.	c #525252",
":.	c #8B8C8B",
"<.	c #BDBEBD",
"[.	c #766A6B",
"}.	c #E1AFB4",
"|.	c #D58984",
"1.	c #B73C25",
"2.	c #6F1F10",
"3.	c #423333",
"4.	c #959493",
"5.	c #5C5C5C",
"6.	c #3E3E3E",
"7.	c #202020",
"8.	c #191919",
"9.	c #131313",
"0.	c #5D5D5D",
"a.	c #7E7374",
"b.	c #D6B4B8",
"c.	c #D8928B",
"d.	c #BB432B",
"e.	c #A62E14",
"f.	c #3D1811",
"g.	c #5F5C5B",
"h.	c #7A7B7A",
"i.	c #595959",
"j.	c #3A3A3A",
"k.	c #4F4F4F",
"l.	c #808080",
"m.	c #1F1F1F",
"n.	c #2E2E2E",
"o.	c #4C4C4C",
"p.	c #9B9B9B",
"q.	c #C2C3C2",
"r.	c #6C5F61",
"s.	c #D7BFC3",
"t.	c #E0A9A6",
"u.	c #BC422A",
"v.	c #B23215",
"w.	c #6E1F0C",
"x.	c #221F1E",
"y.	c #444444",
"z.	c #303030",
"A.	c #454545",
"B.	c #232323",
"C.	c #3C3C3C",
"D.	c #6A6B6A",
"E.	c #676061",
"F.	c #EED6D7",
"G.	c #DEA5A2",
"H.	c #BD462F",
"I.	c #B43316",
"J.	c #852510",
"K.	c #1D0D08",
"L.	c #2C2C2C",
"M.	c #555655",
"N.	c #888988",
"O.	c #484848",
"P.	c #949493",
"Q.	c #C3ACAE",
"R.	c #EDD0CE",
"S.	c #C15544",
"T.	c #B53418",
"U.	c #962A11",
"V.	c #320E06",
"W.	c #181817",
"X.	c #2D2D2D",
"Y.	c #707070",
"Z.	c #ACADAC",
"`.	c #906E6F",
" +	c #D8B2B4",
".+	c #B45444",
"++	c #A62F13",
"@+	c #361007",
"#+	c #161312",
"$+	c #31201F",
"%+	c #3E180F",
"&+	c #2E1610",
"*+	c #303130",
"                                                                ",
"                                                                ",
"                                            . + @               ",
"                                      # $ + % & *               ",
"                                  = - ; + % > , '               ",
"                            )   ! - ; + % > ~ { ]               ",
"                            ^ / - $ + % ( ~ _ : <               ",
"                          [ } | ; + % > ~ _ 1 2 3               ",
"                        4 5 6 $ + % > ~ _ 1 7 8 9               ",
"                      0 a b c d = e ~ _ f g h i j               ",
"                    k k l m n o p q _ 1 g r s 8 4 t 5 5 u v     ",
"                    v p w x y z : l 1 g o A B ' C D n E F       ",
"                G H I J K L M C N O g o P Q R S T T U ' V       ",
"              W X Y Z `  ...N +.@.#.o r ..$.%.&.*.=.-.;.        ",
"            >.,.'.).!.~.8 {.7 A c ].r ^.3 R /.&.T (._.:.        ",
"        <.[.}.|.1.2.3.4.5.(.6.A ^.4 ^.A 7.8.9.R B 0.u           ",
"      a a.b.c.d.e.f.g.h.i.j.(.M k.l.O D m.-.n.o.{.p.            ",
"    q.r.s.t.u.v.w.x.s y.B n.z.$.B ' A.B.C.k.D.                  ",
"    E.F.G.H.I.J.K.L.L.y n.C.M.l N.9 O.5.                        ",
"  P.Q.R.S.T.U.V.W.y X.' +.Y.                                    ",
"  Z.`. +.+++@+#+i D 2                                           ",
"    q $+%+&+*+i.:                                               ",
"                                                                ",
"                                                                "};
