/* XPM */
static char * small_house_xpm[] = {
"30 24 330 2",
"  	c None",
". 	c #FCFAFA",
"+ 	c #936D6C",
"@ 	c #AD7270",
"# 	c #7F2828",
"$ 	c #761E1E",
"% 	c #8C4242",
"& 	c #BDB5B3",
"* 	c #AA6665",
"= 	c #942D2B",
"- 	c #9F3939",
"; 	c #8A0202",
"> 	c #8C0000",
", 	c #860000",
"' 	c #800000",
") 	c #790000",
"! 	c #750000",
"~ 	c #995F5E",
"{ 	c #927070",
"] 	c #B06060",
"^ 	c #AE4242",
"/ 	c #A12422",
"( 	c #A00000",
"_ 	c #A20000",
": 	c #9D0000",
"< 	c #980000",
"[ 	c #950000",
"} 	c #910000",
"| 	c #8B0000",
"1 	c #7C1616",
"2 	c #D1ACAC",
"3 	c #A56262",
"4 	c #A53D3C",
"5 	c #B64A4A",
"6 	c #A30202",
"7 	c #B10000",
"8 	c #B00000",
"9 	c #AD0000",
"0 	c #AB0000",
"a 	c #A80000",
"b 	c #A40000",
"c 	c #9F0000",
"d 	c #9A0000",
"e 	c #960000",
"f 	c #7F0000",
"g 	c #761210",
"h 	c #B63535",
"i 	c #A50000",
"j 	c #BA0202",
"k 	c #BB0202",
"l 	c #BA0000",
"m 	c #B70000",
"n 	c #B50000",
"o 	c #B20000",
"p 	c #AF0000",
"q 	c #9C0000",
"r 	c #920000",
"s 	c #850000",
"t 	c #7E0000",
"u 	c #770000",
"v 	c #893232",
"w 	c #B33939",
"x 	c #A71210",
"y 	c #CF7171",
"z 	c #C31613",
"A 	c #C80A0A",
"B 	c #C80909",
"C 	c #C70707",
"D 	c #C40404",
"E 	c #C00202",
"F 	c #BC0000",
"G 	c #B30000",
"H 	c #AE0000",
"I 	c #890000",
"J 	c #830000",
"K 	c #7D0000",
"L 	c #760000",
"M 	c #A06565",
"N 	c #C44444",
"O 	c #A91212",
"P 	c #C64F4F",
"Q 	c #F1D7D7",
"R 	c #E79595",
"S 	c #D81616",
"T 	c #D81313",
"U 	c #D40F0F",
"V 	c #CE0A0A",
"W 	c #C70606",
"X 	c #B40000",
"Y 	c #AA0000",
"Z 	c #A30000",
"` 	c #940000",
" .	c #8E0000",
"..	c #880000",
"+.	c #820000",
"@.	c #7B0000",
"#.	c #740000",
"$.	c #773D3D",
"%.	c #B11919",
"&.	c #B73533",
"*.	c #E7DFD9",
"=.	c #C8D3CE",
"-.	c #FFFAFB",
";.	c #ED4745",
">.	c #E92222",
",.	c #E62020",
"'.	c #E31A1A",
").	c #DB1515",
"!.	c #D30F0F",
"~.	c #CA0707",
"{.	c #C20202",
"].	c #A60000",
"^.	c #9E0000",
"/.	c #970000",
"(.	c #730A0A",
"_.	c #A50D0D",
":.	c #AD2828",
"<.	c #EBE5E5",
"[.	c #A0D2DC",
"}.	c #0CBCDD",
"|.	c #DCDED9",
"1.	c #FFD4D3",
"2.	c #FD3333",
"3.	c #FE3232",
"4.	c #F62A2A",
"5.	c #ED2222",
"6.	c #E21A1A",
"7.	c #D81212",
"8.	c #CB0909",
"9.	c #A10000",
"0.	c #7C0000",
"a.	c #863030",
"b.	c #987374",
"c.	c #B53E3E",
"d.	c #A61E1D",
"e.	c #D8D3D3",
"f.	c #E3DDDD",
"g.	c #C6D2D2",
"h.	c #02C2E9",
"i.	c #C3D6DA",
"j.	c #FFFFFF",
"k.	c #FF9F9F",
"l.	c #FF4141",
"m.	c #FF3D3D",
"n.	c #FF3333",
"o.	c #F42929",
"p.	c #E61E1E",
"q.	c #B60000",
"r.	c #760604",
"s.	c #4F2020",
"t.	c #834B49",
"u.	c #E9E6E6",
"v.	c #CDC3C1",
"w.	c #C6C1C1",
"x.	c #DCD6D6",
"y.	c #D4DCD3",
"z.	c #FCF3EF",
"A.	c #FF8080",
"B.	c #FF4F4F",
"C.	c #FF4444",
"D.	c #FF3737",
"E.	c #F32828",
"F.	c #E31C1C",
"G.	c #D50F0F",
"H.	c #C60606",
"I.	c #990000",
"J.	c #470706",
"K.	c #A09A9A",
"L.	c #A39F9F",
"M.	c #E8E7E7",
"N.	c #D0C6C3",
"O.	c #BA968C",
"P.	c #475147",
"Q.	c #7F675C",
"R.	c #C3BEBE",
"S.	c #FFF2F1",
"T.	c #FF5656",
"U.	c #FF5555",
"V.	c #FF4545",
"W.	c #FF3535",
"X.	c #F02525",
"Y.	c #DD1616",
"Z.	c #C10202",
"`.	c #7C1C09",
" +	c #30201A",
".+	c #A29E9E",
"++	c #ABA8A8",
"@+	c #F4F4F4",
"#+	c #CFCACA",
"$+	c #B6958A",
"%+	c #248DA4",
"&+	c #5D5B47",
"*+	c #3C6B6F",
"=+	c #515450",
"-+	c #EBE1DA",
";+	c #FABABA",
">+	c #FF5454",
",+	c #FF5252",
"'+	c #FA2E2E",
")+	c #E51E1E",
"!+	c #D41010",
"~+	c #C50404",
"{+	c #630000",
"]+	c #45302D",
"^+	c #A1948E",
"/+	c #9E9694",
"(+	c #646060",
"_+	c #D3D3D3",
":+	c #C8C4C4",
"<+	c #B59C88",
"[+	c #218294",
"}+	c #4F5F4B",
"|+	c #1098B8",
"1+	c #307E8E",
"2+	c #DED1CB",
"3+	c #FFF9F9",
"4+	c #ED7373",
"5+	c #FF5757",
"6+	c #FF4848",
"7+	c #FF3434",
"8+	c #EE2424",
"9+	c #DA1515",
"0+	c #BD0707",
"a+	c #6B0200",
"b+	c #300704",
"c+	c #887F7D",
"d+	c #928986",
"e+	c #7B7778",
"f+	c #D5D4D4",
"g+	c #C5C0C0",
"h+	c #BBA799",
"i+	c #2D7677",
"j+	c #3F6E68",
"k+	c #10879D",
"l+	c #347F8E",
"m+	c #D4C6C6",
"n+	c #FFFCFD",
"o+	c #FDEAE9",
"p+	c #F64A4A",
"q+	c #FF5050",
"r+	c #FF3A3A",
"s+	c #E72525",
"t+	c #952926",
"u+	c #4E190C",
"v+	c #7B7370",
"w+	c #8D8A89",
"x+	c #898787",
"y+	c #B3AEAE",
"z+	c #BCB2AF",
"A+	c #59564D",
"B+	c #425652",
"C+	c #137B8A",
"D+	c #327B88",
"E+	c #D2C8C8",
"F+	c #F9F3F3",
"G+	c #FBF6F6",
"H+	c #FFFAFA",
"I+	c #E6A09E",
"J+	c #D43939",
"K+	c #6F4241",
"L+	c #918B8A",
"M+	c #A19D9C",
"N+	c #A19C9C",
"O+	c #5B5757",
"P+	c #8D8A8A",
"Q+	c #B7B3B3",
"R+	c #B19589",
"S+	c #5B5650",
"T+	c #325E57",
"U+	c #C6BCBD",
"V+	c #F3EDED",
"W+	c #FAF5F5",
"X+	c #F9F4F4",
"Y+	c #F7EEED",
"Z+	c #AC8987",
"`+	c #838080",
" @	c #A29D9D",
".@	c #969292",
"+@	c #BCBABB",
"@@	c #C2BDBD",
"#@	c #CBC6C6",
"$@	c #D6D1D0",
"%@	c #BAA097",
"&@	c #D7D0CE",
"*@	c #EFE9E9",
"=@	c #EEE9E9",
"-@	c #F5EFEF",
";@	c #FDF8F8",
">@	c #C1BDBD",
",@	c #7E7979",
"'@	c #908C8D",
")@	c #D1CBCB",
"!@	c #D9D4D4",
"~@	c #DAD5D5",
"{@	c #E0DBDB",
"]@	c #ECE5E5",
"^@	c #F0EBEB",
"/@	c #F0EAEA",
"(@	c #B2AEAE",
"_@	c #AEAAAA",
":@	c #9F9A9A",
"<@	c #A09D9D",
"[@	c #807D7D",
"}@	c #969393",
"|@	c #DBD8D8",
"1@	c #D2CDCD",
"2@	c #DCD7D7",
"3@	c #E2DCDC",
"4@	c #E2DDDD",
"5@	c #ECE6E6",
"6@	c #ADA8A8",
"7@	c #ACA7A7",
"8@	c #959191",
"9@	c #969191",
"0@	c #999595",
"a@	c #AAA7A7",
"b@	c #E1DEDE",
"c@	c #D8D4D4",
"d@	c #DFDADA",
"e@	c #E4DFDF",
"f@	c #A5A1A1",
"g@	c #A09C9C",
"h@	c #918B8B",
"i@	c #ACA6A6",
"j@	c #D5D0D0",
"k@	c #DAD4D4",
"l@	c #B1ACAC",
"m@	c #A6A2A2",
"n@	c #A8A4A4",
"o@	c #C5C1C1",
"                                                            ",
"                                    . + @ # $ %             ",
"                            & * = - ; > , ' ) ! ~           ",
"                    { ] ^ / ( _ : < [ } | , ' ) 1 2         ",
"            3 4 5 6 7 8 9 0 a b _ c d e } > , f ) g         ",
"          h i j k l l m n o p 9 a b ( q e r | s t u v       ",
"        w x y z A B C D E F m G H a b ( q e } I J K L M     ",
"      N O P Q R S S T U V W E l X p Y Z ( d `  ...+.@.#.$.  ",
"      %.&.*.=.-.;.>.,.'.).!.~.{.l G 9 ]._ ^./.r | s t u (.  ",
"    _.:.<.[.}.|.1.2.3.4.5.6.7.8.{.l o 0 i 9.d [  ...+.0.a.b.",
"  c.d.e.f.g.h.i.j.k.l.m.n.o.p.7.~.E q.p a Z ^./.r > r.s.    ",
"  t.u.v.w.x.y.z.j.j.A.B.C.D.E.F.G.H.F G 9 i ( I.s J.K.L.    ",
"    M.N.O.P.Q.R.j.j.S.T.U.V.W.X.Y.V Z.q.p a /.`. +.+.+++    ",
"    @+#+$+%+&+*+=+-+j.;+>+,+l.'+)+!+~+l a {+]+^+.+L./+(+    ",
"    _+:+<+[+}+|+1+2+j.3+4+5+6+7+8+9+0+a+b+c+.+L..+L.d+e+    ",
"    f+g+h+i+j+k+l+m+n+j.o+p+q+r+s+t+u+v+.+L..+L.L.w+x+      ",
"      y+z+A+B+C+D+E+F+G+H+I+6+J+K+L+M+L..+L.L.N+O+P+        ",
"        Q+w.R+S+T+U+V+W+X+Y+Z+`+.+L.L.L.L. @.@P++@          ",
"          @@#@$@%@&@*@=@-@;@>@L.L. @L..+.+,@'@              ",
"              )@!@~@{@]@^@/@(@_@K.:@.+<@[@}@                ",
"                |@1@2@3@4@5@6@7@8@9@0@a@                    ",
"                    b@c@d@e@f@g@h@i@                        ",
"                        j@k@l@m@n@                          ",
"                            o@                              "};
