/* XPM */
static char *stock_top[] = {
/* columns rows colors chars-per-pixel */
"24 24 35 1",
"  c opaque",
". c #2d2d2d",
"X c #3d4e39",
"o c #43543d",
"O c #475e3e",
"+ c #4c6046",
"@ c #576e54",
"# c #5d7555",
"$ c #5b7950",
"% c #6c806a",
"& c #6b8868",
"* c #6b9063",
"= c #889d7f",
"- c #8aaa87",
"; c #8bab89",
": c #95a88f",
"> c #9eac9d",
", c #9cb69b",
"< c #9eb89d",
"1 c #a5b7a5",
"2 c #a4bca3",
"3 c #abc2a9",
"4 c #acc8a9",
"5 c #b4c5b3",
"6 c #b8cbb7",
"7 c #baccba",
"8 c #c7d3c6",
"9 c #c8d6c8",
"0 c #c9dbc7",
"q c #d3dfd3",
"w c #d6e1d5",
"e c #d8e3d7",
"r c #d9e3d8",
"t c #f3f3f3",
"y c None",
/* pixels */
"yyyyyyyyyyyyyyyyyyyyyyyy",
"yyyyyyyyyyyyyyyyyyyyyyyy",
"yyy                 yyyy",
"yyy t000000,::::::= yyyy",
"yyy 8444444*$$$$$$O yyyy",
"yyy                 yyyy",
"yyyyyyyyyy   yyyyyyyyyyy",
"yyyyyyyyy .>  yyyyyyyyyy",
"yyyyyyyy  w-X  yyyyyyyyy",
"yyyyyyy  e6;#X  yyyyyyyy",
"yyyyyy  e7<;##X  yyyyyyy",
"yyyyy  r62<;###X  yyyyyy",
"yyyy  r52,<;####X  yyyyy",
"yyy  951<<<;##++++  yyyy",
"yy      3,,;##X      yyy",
"yyyyyyy 7,,;##X yyyyyyyy",
"yyyyyyy 9,,;##X yyyyyyyy",
"yyyyyyy q,,;##X yyyyyyyy",
"yyyyyyy q,,;##X yyyyyyyy",
"yyyyyyy w,<;##X yyyyyyyy",
"yyyyyyy 3%&@++o yyyyyyyy",
"yyyyyyy         yyyyyyyy",
"yyyyyyyyyyyyyyyyyyyyyyyy",
"yyyyyyyyyyyyyyyyyyyyyyyy"
};
