/* XPM */
static char *stock_ok[] = {
/* columns rows colors chars-per-pixel */
"24 24 22 1",
"  c opaque",
". c #1b231a",
"X c #364535",
"o c #445642",
"O c #4f644c",
"+ c #566c43",
"@ c #576f55",
"# c #5e764a",
"$ c #5f7952",
"% c #627b4d",
"& c #668050",
"* c #6d8855",
"= c #708c58",
"- c #688465",
"; c #718f6e",
": c #789774",
"> c #859d71",
", c #88ac84",
"< c #97ab86",
"1 c #a2bd9e",
"2 c #b3c2a7",
"3 c None",
/* pixels */
"333333333333333333333333",
"333333333333333333333333",
"333333333333333333333333",
"333333333333333333333333",
"33333333333333      3333",
"3333333333333        333",
"333333333333          33",
"333333333333   2=     33",
"333333         >%     33",
"33333         <=O     33",
"3333          >+      33",
"3333   1:    >=o      33",
"3333   ,,X   =+      333",
"3333    ,:X #=       333",
"3333    ;,@.*+       333",
"3333     ,,+%o      3333",
"33333    -,*$       3333",
"33333     ,,       33333",
"333333     -       33333",
"333333            333333",
"3333333           333333",
"33333333         3333333",
"333333333       33333333",
"3333333333     333333333"
};
