/* XPM */
static char *stock_convert[] = {
/* columns rows colors chars-per-pixel */
"24 24 117 2",
"   c #000000",
".  c #080703",
"X  c #0b0905",
"o  c #0c0c0c",
"O  c #100e08",
"+  c #1c0000",
"@  c #1a0a07",
"#  c #1d0e0c",
"$  c #131300",
"%  c #131209",
"&  c #1d1507",
"*  c #1d150b",
"=  c #1c1a0c",
"-  c #111418",
";  c #1e1b10",
":  c #181818",
">  c #181c21",
",  c #1e2b36",
"<  c #240000",
"1  c #21160b",
"2  c #201b0e",
"3  c #28130d",
"4  c #2b180f",
"5  c #201c10",
"6  c #36160f",
"7  c #321d11",
"8  c #391c13",
"9  c #242012",
"0  c #2b2719",
"q  c #2f2c19",
"w  c #302d1b",
"e  c #3d351f",
"r  c #202020",
"t  c #252c33",
"y  c #202f3b",
"u  c #2b333b",
"i  c #353120",
"p  c #303435",
"a  c #313739",
"s  c #263644",
"d  c #39414b",
"f  c #364a5d",
"g  c #3b4551",
"h  c #3e4955",
"j  c #394e62",
"k  c #3f566c",
"l  c #470705",
"z  c #490504",
"x  c #441c12",
"c  c #520907",
"v  c #6f0e0b",
"b  c #6b110e",
"n  c #6c1813",
"m  c #7f120e",
"M  c #574e2d",
"N  c #7f5b0a",
"B  c #735817",
"V  c #415b71",
"C  c #556573",
"Z  c #5a6a79",
"A  c #4b6983",
"S  c #687a8b",
"D  c #821a16",
"F  c #8f1611",
"G  c #961712",
"H  c #941e19",
"J  c #98231d",
"K  c #992c25",
"L  c #a62d26",
"P  c #aa3f3a",
"I  c #b9342c",
"U  c #b43531",
"Y  c #bc3930",
"T  c #8a681f",
"R  c #976e15",
"E  c #826321",
"W  c #916f25",
"Q  c #937025",
"!  c #9c7e2b",
"~  c #a37819",
"^  c #ac7c11",
"/  c #a97c1a",
"(  c #c03f35",
")  c #c4463a",
"_  c #c6493d",
"`  c #c14c44",
"'  c #cd5446",
"]  c #cf5749",
"[  c #c15450",
"{  c #c35c57",
"}  c #c6635e",
"|  c #d46051",
" . c #cb6a63",
".. c #d86e61",
"X. c #dc7b6e",
"o. c #b68411",
"O. c #bc8710",
"+. c #ae9c5c",
"@. c #c58f13",
"#. c #d29815",
"$. c #df8376",
"%. c #c6a546",
"&. c #dfb84f",
"*. c #cbb771",
"=. c #e3c05d",
"-. c #e5c470",
";. c #b3b1b0",
":. c #9db8d2",
">. c #a5bdd1",
",. c #b5cfe5",
"<. c #eed680",
"1. c #e6d498",
"2. c #edc5be",
"3. c #f0dcaa",
"4. c #eae8e3",
"5. c #eeecea",
"6. c None",
/* pixels */
"6.6.6.6.6.6.6.6.6.6.6.            . 6.6.6.6.6.6.",
"6.6.6.6.6.6.6.6.6.  o ;.5.3.-.&.W   O O =   6.6.",
"6.6.6.6.6.6.6.6.  r 5.1.<.<.<.=.#.R N = = #   6.",
"6.6.6.6.6.        4.*.      B %.=.O.^ = 5 =   6.",
"6.6.6.6.h t d &   +.  2 ; 2 o ! <.#.^ 9 5 ; < 6.",
"6.6.6.  d >.u d 5   2 2 2 2 = e <.#.~ 5 5 = $   ",
"6.6.6.h C ,.k u a ; ; ; X       <.#./       5 = ",
"6.6.  h :.,.A V u a 2 ; 2 4.<.<.<.#.@.o.E w 2 = ",
"6.6.h Z :.,.A A V t a = = e 4.<.<.#.#.W q ; 2 = ",
"6.g h :.:.,.A A A k u a = = 0 4.<.#.W e 2 ; = 1 ",
"6.h S :.:.,.A A A A j u a = = q 4.W i M 5 = =   ",
"6.- :.:.:.,.A A A A A f > 5 = = w w = 2 ; =   6.",
"6.    :.:.,.A A A A ,   o 5 = = = ; 2 ; *   6.6.",
"6.= X   :.,.A A y   . % 2 5 #           x %   6.",
"6.  =     ,.s   . O 2 2 2 8   ' ] ' _ )   x * $ ",
"6.6.  = X     % ; 5 = = 3   ' | X.| ' ) K   4 * ",
"6.6.6.  = = 2 ; 2 2 = +   _ ] $.2.$.] ) ` n . = ",
"6.6.6.6.  & 5 = %         ) ] | $.| ' )  .n   5 ",
"6.6.6.6.6.        6.6.<   Y ` ' ] ' _ )  .D   2 ",
"6.6.6.6.6.6.6.6.6.6.6.+   I ) ) _ ) Y Y [ b   5 ",
"6.6.6.6.6.6.6.6.6.6.6.    J L _ I I I { Y l o 2 ",
"6.6.6.6.6.6.6.6.6.6.6.  @ : H P  . .[ U c   7 = ",
"6.6.6.6.6.6.6.6.6.6.6.  & 6 o D G F b z   6 5 = ",
"6.6.6.6.6.6.6.6.6.6.6.6.+ = 8           8 5 ; ; "
};
