/* XPM */
static char *stock_down[] = {
/* columns rows colors chars-per-pixel */
"24 24 24 1",
"  c opaque",
". c #0f1308",
"X c #445b2c",
"o c #506b46",
"O c #5b7950",
"+ c #65815c",
"@ c #6b8561",
"# c #698d60",
"$ c #6b9062",
"% c #778e6f",
"& c #709867",
"* c #7f9f76",
"= c #77a16e",
"- c #8ca782",
"; c #a6bfa0",
": c #a5c4a3",
"> c #a8c6a5",
", c #aac6a8",
"< c #adc8ab",
"1 c #b0cbad",
"2 c #b3ccb0",
"3 c #bed3b9",
"4 c #c1d6bd",
"5 c None",
/* pixels */
"555555555555555555555555",
"555555555555555555555555",
"555555555555555555555555",
"5555555         55555555",
"555555           5555555",
"55555   4,;%@@+   555555",
"55555   3<,#OOo   555555",
"55555   4,>$OOo   555555",
"55555   4>>#OOo   555555",
"55555   4,,$OOo   555555",
"555     4>>$OOo     5555",
"55      4>,#OOo      555",
"5    -121,<$OOOooX    55",
"55    =<2<<$OOOOX    555",
"55     &,>,#OOOX     555",
"555     &:1$OOX     5555",
"5555    .*:$+X     55555",
"55555     $+X     555555",
"555555     X     5555555",
"5555555         55555555",
"55555555       555555555",
"555555555     5555555555",
"55555555555 555555555555",
"555555555555555555555555"
};
