/* XPM */
static char * text_bold_xpm[] = {
"22 21 72 1",
" 	c None",
".	c #000000",
"+	c #E2E2E2",
"@	c #F2F2F2",
"#	c #F3F3F3",
"$	c #F4F4F4",
"%	c #F5F5F5",
"&	c #F6F6F6",
"*	c #F7F7F7",
"=	c #DBDBDB",
"-	c #F0F0F0",
";	c #E0E0E0",
">	c #E1E1E1",
",	c #E3E3E3",
"'	c #E4E4E4",
")	c #E5E5E5",
"!	c #E6E6E6",
"~	c #E7E7E7",
"{	c #E8E8E8",
"]	c #E9E9E9",
"^	c #EAEAEA",
"/	c #EBEBEB",
"(	c #ECECEC",
"_	c #EDEDED",
":	c #EEEEEE",
"<	c #EFEFEF",
"[	c #F1F1F1",
"}	c #939393",
"|	c #979797",
"1	c #3D3D3D",
"2	c #404040",
"3	c #CECECE",
"4	c #010101",
"5	c #D5D5D5",
"6	c #7A7A7A",
"7	c #020202",
"8	c #7F7F7F",
"9	c #232323",
"0	c #393939",
"a	c #252525",
"b	c #B8B8B8",
"c	c #646464",
"d	c #BFBFBF",
"e	c #616161",
"f	c #BBBBBB",
"g	c #A6A6A6",
"h	c #656565",
"i	c #F8F8F8",
"j	c #0F0F0F",
"k	c #030303",
"l	c #111111",
"m	c #F9F9F9",
"n	c #9E9E9E",
"o	c #4C4C4C",
"p	c #FAFAFA",
"q	c #464646",
"r	c #4A4A4A",
"s	c #FBFBFB",
"t	c #FCFCFC",
"u	c #D9D9D9",
"v	c #FDFDFD",
"w	c #858585",
"x	c #717171",
"y	c #595959",
"z	c #8C8C8C",
"A	c #FEFEFE",
"B	c #2C2C2C",
"C	c #AAAAAA",
"D	c #2E2E2E",
"E	c #FFFFFF",
"F	c #C9C9C9",
"G	c #BDBDBD",
" .................... ",
".+@@@@###$$$%%%&&**$=.",
".-;;>+,')!~{{]^/(_:<_.",
".@>>+,')!~{]^^/(_:<-[.",
".@+,,')!}....|(_:<-[@.",
".#,'))!~1....2_:<-[@#.",
".#')!~~34....45<-[@#$.",
".#)!~{]6..7...8[[@#$%.",
".$!~{]^9..09..a@##$%&.",
".$~{]^b...6c...d$%%&*.",
".%{]^/e...fg...h%&**i.",
".%]^/)j..j_'k..l-*iim.",
".%^/(n...o@@0...gimpp.",
".&/(_q..........rmpst.",
".*__uk..........k'stv.",
".*:<w...x$%&*y...ztvA.",
".i-[B...d&*imC...DAEE.",
".i[@#$$%&*impstvvAEEE.",
".@@#$%&&*impstvAEEEE(.",
".F_i%&*iimpstvAEEEE:G.",
" .................... "};
