/* XPM */
static char * text_underline_xpm[] = {
"22 21 83 1",
" 	c None",
".	c #000000",
"+	c #E2E2E2",
"@	c #F2F2F2",
"#	c #F3F3F3",
"$	c #F4F4F4",
"%	c #F5F5F5",
"&	c #F6F6F6",
"*	c #F7F7F7",
"=	c #DBDBDB",
"-	c #F0F0F0",
";	c #E0E0E0",
">	c #E1E1E1",
",	c #E3E3E3",
"'	c #E4E4E4",
")	c #E5E5E5",
"!	c #E6E6E6",
"~	c #E7E7E7",
"{	c #E8E8E8",
"]	c #E9E9E9",
"^	c #EAEAEA",
"/	c #EBEBEB",
"(	c #ECECEC",
"_	c #EDEDED",
":	c #EEEEEE",
"<	c #EFEFEF",
"[	c #A9A9A9",
"}	c #111111",
"|	c #F1F1F1",
"1	c #515151",
"2	c #131313",
"3	c #989898",
"4	c #DADADA",
"5	c #080808",
"6	c #6A6A6A",
"7	c #1B1B1B",
"8	c #383838",
"9	c #8A8A8A",
"0	c #AFAFAF",
"a	c #C7C7C7",
"b	c #323232",
"c	c #141414",
"d	c #BFBFBF",
"e	c #686868",
"f	c #C4C4C4",
"g	c #636363",
"h	c #252525",
"i	c #101010",
"j	c #6C6C6C",
"k	c #B8B8B8",
"l	c #7B7B7B",
"m	c #979797",
"n	c #161616",
"o	c #1D1D1D",
"p	c #D0D0D0",
"q	c #353535",
"r	c #F8F8F8",
"s	c #A6A6A6",
"t	c #C8C8C8",
"u	c #F9F9F9",
"v	c #4C4C4C",
"w	c #070707",
"x	c #BABABA",
"y	c #666666",
"z	c #FAFAFA",
"A	c #040404",
"B	c #4D4D4D",
"C	c #212121",
"D	c #0D0D0D",
"E	c #FBFBFB",
"F	c #FCFCFC",
"G	c #868686",
"H	c #A2A2A2",
"I	c #7C7C7C",
"J	c #FDFDFD",
"K	c #2C2C2C",
"L	c #D8D8D8",
"M	c #FEFEFE",
"N	c #FFFFFF",
"O	c #C0C0C0",
"P	c #9F9F9F",
"Q	c #C9C9C9",
"R	c #BDBDBD",
" .................... ",
".+@@@@###$$$%%%&&**$=.",
".-;;>+,')!~{{]^/(_:<_.",
".@>>+,')![.},^/(_:<-|.",
".@+,,')!~12.3((_:<-|@.",
".#,'))!~45678__:<-|@#.",
".#')!~~{9.06.a<<-|@#$.",
".#)!~{]]bc]d.e-||@#$%.",
".$!~{]^f.g_:hi{@##$%&.",
".$~{]^/j.k:<l.m#$%%&*.",
".%{]^/]no:<-p.q$%&**r.",
".%]^/(s........t&*rru.",
".%^/(_vw>|@@#x.y*ruzz.",
".&/(_=AB|@#$$%CD_uzEF.",
".*__:G.H@#$%%&I.mzEFJ.",
".*:<<KD^#$%&**L.bEFJM.",
".r-|@@#$%&*ruzEEFJMNN.",
".r|@O............PNNN.",
".@@#$%&&*ruzEFJMNNNN(.",
".Q_r%&*rruzEFJMNNNN:R.",
" .................... "};
