<?xml version="1.0" encoding="UTF-8" standalone="no"?>
<!-- Created with Inkscape (http://www.inkscape.org/) -->

<svg
   xmlns:dc="http://purl.org/dc/elements/1.1/"
   xmlns:cc="http://creativecommons.org/ns#"
   xmlns:rdf="http://www.w3.org/1999/02/22-rdf-syntax-ns#"
   xmlns:svg="http://www.w3.org/2000/svg"
   xmlns="http://www.w3.org/2000/svg"
   xmlns:sodipodi="http://sodipodi.sourceforge.net/DTD/sodipodi-0.dtd"
   xmlns:inkscape="http://www.inkscape.org/namespaces/inkscape"
   inkscape:export-ydpi="96"
   inkscape:export-xdpi="96"
   inkscape:export-filename="/home/dajuda/Artwork/New_Age/Stoq/Icon/stoq.png"
   width="49"
   height="49"
   viewBox="0 0 49 49.000001"
   id="svg6076"
   version="1.1"
   inkscape:version="0.92.0 unknown"
   sodipodi:docname="stoq.svg">
  <sodipodi:namedview
     inkscape:object-paths="false"
     inkscape:snap-bbox-midpoints="false"
     id="base"
     pagecolor="#ffffff"
     bordercolor="#666666"
     borderopacity="1.0"
     inkscape:pageopacity="0.0"
     inkscape:pageshadow="2"
     inkscape:zoom="4"
     inkscape:cx="65.513631"
     inkscape:cy="83.152494"
     inkscape:document-units="px"
     inkscape:current-layer="layer1"
     showgrid="false"
     inkscape:window-width="1920"
     inkscape:window-height="1016"
     inkscape:window-x="0"
     inkscape:window-y="27"
     inkscape:window-maximized="1"
     units="px"
     inkscape:snap-bbox="true"
     inkscape:snap-bbox-edge-midpoints="false"
     inkscape:object-nodes="false"
     inkscape:bbox-nodes="false"
     inkscape:snap-smooth-nodes="false" />
  <defs
     id="defs6078">
    <inkscape:path-effect
       effect="envelope"
       id="path-effect6911"
       is_visible="true"
       yy="true"
       xx="true"
       bendpath1="M 2.4986602,9.3045505 23.485736,12.384403"
       bendpath2="m 23.485736,12.384403 -0.38368,35.722531"
       bendpath3="m 2.158609,35.905144 20.943447,12.20179"
       bendpath4="M 2.4986602,9.3045505 2.158609,35.905144"
       bendpath1-nodetypes="cc"
       bendpath3-nodetypes="cc"
       bendpath2-nodetypes="cc"
       bendpath4-nodetypes="cc" />
  </defs>
  <metadata
     id="metadata6081">
    <rdf:RDF>
      <cc:Work
         rdf:about="">
        <dc:format>image/svg+xml</dc:format>
        <dc:type
           rdf:resource="http://purl.org/dc/dcmitype/StillImage" />
        <dc:title />
      </cc:Work>
    </rdf:RDF>
  </metadata>
  <g
     transform="translate(0,-1003.3622)"
     id="layer1"
     inkscape:groupmode="layer"
     inkscape:label="Layer 1">
    <g
       id="g5642">
      <path
         inkscape:connector-curvature="0"
         id="path5596"
         d="M -2.9713533e-7,1011.8996 9.9506659,1003.6724 l 27.0294641,0.031 -13.87978,11.3343 z"
         style="fill:#4a9cc6;fill-rule:evenodd;stroke:none;stroke-width:1px;stroke-linecap:butt;stroke-linejoin:miter;stroke-opacity:1;fill-opacity:1" />
      <path
         inkscape:connector-curvature="0"
         id="path5613"
         d="m 28.123958,1034.0443 0.0062,14.3027 12.749088,-4.3105 -0.04385,-12.961 z"
         style="fill:#90635b;fill-opacity:1;fill-rule:evenodd;stroke:none;stroke-width:1px;stroke-linecap:butt;stroke-linejoin:miter;stroke-opacity:1"
         sodipodi:nodetypes="ccccc" />
      <path
         sodipodi:nodetypes="ccccc"
         inkscape:connector-curvature="0"
         id="path5598"
         d="m 40.879227,1044.0365 -12.749088,4.3105 -1.089086,-9.8993 c 5.162905,-1.2059 11.5092,-5.7311 14.063696,1.3941 z"
         style="fill:#f5caa2;fill-opacity:1;fill-rule:evenodd;stroke:none;stroke-width:1px;stroke-linecap:butt;stroke-linejoin:miter;stroke-opacity:1" />
      <g
         transform="matrix(0.7328661,0.02401609,-0.02401609,0.7328661,98.91709,315.41634)"
         id="g5509">
        <path
           inkscape:connector-curvature="0"
           style="fill:#ca5e48;fill-opacity:1;stroke:none;stroke-width:0.7976566"
           d="m -101.90759,953.94091 1.15377,37.57238 30.314865,15.93861 -1.652461,-50.45227 z"
           id="path3016-4-1"
           sodipodi:nodetypes="ccccc" />
        <path
           inkscape:connector-curvature="0"
           style="fill:#fdae55;fill-opacity:1;stroke:none;stroke-width:0.7976566"
           d="m -54.779901,941.89442 -17.311515,15.10521 1.652461,50.45227 6.768476,-2.9329 -1.203182,-36.17948 19.370374,-4.83053 1.114134,33.47266 5.554342,-1.64364 -1.475676,-45.59205 -14.467819,-7.85159 z m 10.330524,7.5439 0.226703,7.00418 -21.562057,5.59109 -0.226699,-7.00405 z"
           id="path3018-1-5"
           sodipodi:nodetypes="cccccccccccccccc" />
        <path
           sodipodi:nodetypes="ccccc"
           inkscape:connector-curvature="0"
           id="path2988-3-5"
           d="m -47.66078,964.04702 1.098013,31.68517 2.173702,1.24945 -1.114222,-33.47265 z"
           style="fill:#ca5e48;fill-opacity:1;stroke:none;stroke-width:0.7976566" />
        <g
           id="g10596-0-7"
           style="fill:#7db8d6;fill-opacity:1"
           transform="matrix(1.3942822,-0.04512867,0.04512867,1.3942822,-1970.2012,-696.8969)">
          <path
             id="path10565-9-6"
             d="m 1330.9121,1217.8848 -12.7226,10.6269 h -0.031 l 3.416,0.4629 13.5645,-11.0859 h -4.2266 z"
             style="fill:#7db8d6;fill-opacity:1;stroke:none"
             inkscape:connector-curvature="0" />
          <path
             id="path10570-9-5"
             d="m 1325.9043,1217.8809 -12.0215,10.0449 h -0.047 l 3.2715,0.4433 12.5528,-10.4843 h -3.7559 z"
             style="fill:#7db8d6;fill-opacity:1;stroke:none"
             inkscape:connector-curvature="0" />
          <path
             id="path10594-9-6"
             d="m 1309.5156,1227.3398 3.3887,0.459 11.873,-9.9179 h -3.8515 l -11.3301,9.4628 h -0.08 z"
             style="fill:#7db8d6;fill-opacity:1;stroke:none"
             inkscape:connector-curvature="0" />
          <path
             id="path10592-7-9"
             d="m 1319.8672,1217.877 h -3.8633 l -10.6406,8.8907 h -0.1 l 3.4101,0.4629 11.1934,-9.3496 z"
             style="fill:#7db8d6;fill-opacity:1;stroke:none"
             inkscape:connector-curvature="0" />
          <path
             id="path10587-9-3"
             d="m 1314.998,1217.873 h -3.9941 l -9.9453,8.3086 h -0.1211 l 3.543,0.4805 10.5175,-8.7852 z"
             style="fill:#7db8d6;fill-opacity:1;stroke:none"
             inkscape:connector-curvature="0" />
          <path
             id="path10582-5-7"
             d="m 1310.125,1217.8691 h -1.4102 l -9.7246,8.0469 1.293,0.1757 9.8418,-8.2207 z"
             style="fill:#7db8d6;fill-opacity:1;stroke:none"
             inkscape:connector-curvature="0" />
        </g>
        <path
           sodipodi:nodetypes="ccccc"
           inkscape:connector-curvature="0"
           id="path3010-1-4"
           d="m -53.678949,940.9306 16.701422,9.16236 -2.549828,0.0965 -15.250951,-8.29508 z"
           style="fill:#4a9cc6;fill-opacity:1;stroke:none;stroke-width:0.7976566" />
        <rect
           transform="matrix(0.96729993,-0.25363525,0.03235001,0.9994766,0,0)"
           y="930.31628"
           x="-99.356117"
           height="7.0699024"
           width="22.288891"
           id="rect3160-1-1-5"
           style="fill:#ffffc9;fill-opacity:1;stroke:none;stroke-width:0.7976566" />
      </g>
      <path
         inkscape:connector-curvature="0"
         id="path5600"
         d="m 28.117658,1023.5215 0.01262,26.0228 13.591167,-4.9863 -0.118862,-23.9337 z"
         style="fill:#4a9cc6;fill-opacity:1;fill-rule:evenodd;stroke:none;stroke-width:1px;stroke-linecap:butt;stroke-linejoin:miter;stroke-opacity:1"
         sodipodi:nodetypes="ccccc" />
      <path
         inkscape:connector-curvature="0"
         id="path5615"
         d="m 3.6182408,1020.9224 -0.00209,5.1964 2.8524288,1.1201 0.00209,-5.1965 z"
         style="fill:#77514b;fill-rule:evenodd;stroke:none;stroke-width:1px;stroke-linecap:butt;stroke-linejoin:miter;stroke-opacity:1;fill-opacity:1" />
      <path
         inkscape:connector-curvature="0"
         id="path5617"
         d="m 8.7221955,1022.289 -0.00241,5.9956 3.2920065,1.296 0.0024,-5.9956 z"
         style="fill:#77514b;fill-rule:evenodd;stroke:none;stroke-width:1px;stroke-linecap:butt;stroke-linejoin:miter;stroke-opacity:1;fill-opacity:1" />
      <path
         inkscape:connector-curvature="0"
         id="path5619"
         d="m 15.752095,1023.8622 -0.0029,7.2302 3.969067,1.5619 0.0029,-7.2302 z"
         style="fill:#77514b;fill-rule:evenodd;stroke:none;stroke-width:1px;stroke-linecap:butt;stroke-linejoin:miter;stroke-opacity:1;fill-opacity:1" />
    </g>
    <path
       style="fill:#327ca1;fill-opacity:1;fill-rule:evenodd;stroke:none;stroke-width:0.10174581px;stroke-linecap:butt;stroke-linejoin:miter;stroke-opacity:1"
       d="m 37.432917,1023.3199 c -0.01596,0.018 -0.03291,0.024 -0.04932,0.035 -0.282572,0.2305 -0.554379,0.4796 -0.815342,0.7401 -0.115578,0.1155 -0.221233,0.2411 -0.332738,0.3614 -0.163204,0.1768 -0.325008,0.3535 -0.478538,0.5417 -0.103532,0.126 -0.203542,0.2563 -0.30276,0.3875 -0.148537,0.1955 -0.291599,0.3952 -0.430573,0.6009 -0.09545,0.141 -0.188561,0.2831 -0.279076,0.4285 -0.135331,0.2159 -0.263333,0.4382 -0.388087,0.6636 -0.04809,0.084 -0.103622,0.1666 -0.150367,0.2523 0.0025,0 0.0051,0 0.0078,0 -1.385475,2.6171 -2.085058,5.7669 -1.98062,8.8585 l -0.01252,-0.073 c -1.75207,0.9525 -3.707458,3.2526 -3.097172,6.6028 0.01073,0.055 0.06908,0.1067 0.118415,0.037 0.968193,-1.5706 2.1782,-2.4115 3.521348,-2.8474 l -0.01402,-0.099 c 0.05983,0.2292 0.113051,0.4615 0.183267,0.6867 0.151973,-0.041 0.295254,-0.05 0.444935,-0.076 l -0.06244,0.4307 c -0.01032,0.068 0.03333,0.1264 0.100265,0.1301 l 0.322809,0.029 c -0.0805,0.056 -0.161996,0.1132 -0.217486,0.177 -0.02757,0.04 -0.04781,0.071 -0.07455,0.1058 -0.03601,0.048 -0.07102,0.1 -0.09041,0.1493 -0.174546,0.3151 -0.210453,0.6695 -0.139621,0.9721 0.02167,0.082 0.09332,0.09 0.164141,0.038 0.07749,-0.055 0.156316,-0.1095 0.224962,-0.2079 -0.02589,0.8137 -0.208196,2.0718 0.445512,3.029 0.09404,0.1329 0.273791,0.2054 0.440917,0.034 0.593768,-0.7664 1.170318,-1.6071 1.210934,-2.9207 0.03574,0.1429 0.102608,0.2572 0.231022,0.3243 0.140564,0.071 0.173649,0.05 0.238873,-0.08 0.146524,-0.3142 0.169562,-0.6304 0.08755,-0.9469 -0.0036,-0.015 -0.01081,-0.036 -0.01404,-0.05 -0.03728,-0.1229 -0.09213,-0.249 -0.166859,-0.3736 -0.01361,-0.023 -0.01545,-0.039 -0.03045,-0.062 l 0.456357,0.037 c 0.06708,0 0.129165,-0.045 0.136654,-0.1155 l 0.0625,-0.4306 c 0.120724,0.05 0.249357,0.082 0.366313,0.1406 0.147003,-0.226 0.267007,-0.4894 0.404685,-0.7295 l -0.06558,0.1435 c 1.185411,0.6405 2.121735,1.6583 2.612342,3.3472 0.02886,0.077 0.101111,0.034 0.125864,-0.021 1.566793,-3.1741 0.324146,-5.7335 -1.110815,-6.944 l -0.0418,0.095 c 0.937882,-2.8602 1.256816,-6.069 0.656519,-8.9622 0,0 0.0028,10e-5 0.0028,10e-5 -0.0045,-0.022 -0.0113,-0.044 -0.01581,-0.065 -0.06698,-0.3152 -0.148488,-0.6237 -0.238116,-0.9302 -0.02534,-0.087 -0.04721,-0.1744 -0.07445,-0.2606 -0.09782,-0.3092 -0.211185,-0.611 -0.333516,-0.909 -0.02772,-0.068 -0.05126,-0.1356 -0.08,-0.2027 -0.15567,-0.359 -0.328633,-0.7121 -0.522321,-1.0504 0,0 0,0 0,0 -0.200306,-0.35 -0.416351,-0.688 -0.658956,-1.0123 -0.0234,-0.031 -0.05174,-0.062 -0.0808,-0.077 -0.0019,10e-5 -0.01465,-0.018 -0.01737,0 -0.0034,0 -0.01437,-0.018 -0.02272,-0.017 -0.004,0 -0.0205,0.019 -0.02453,0.019 0,0 -0.0027,0 -0.0027,0 -0.008,0 -0.02133,-0.016 -0.03581,0.01 l -0.0019,0.022 c -0.036,0.01 -0.06692,0 -0.117316,0.047 0,0 -0.0027,1e-4 -0.0027,1e-4 z"
       id="path6486-2-9-4-7"
       inkscape:connector-curvature="0" />
  </g>
</svg>
