<?xml version="1.0" encoding="UTF-8" standalone="no"?>
<!-- Created with Inkscape (http://www.inkscape.org/) -->

<svg
   xmlns:dc="http://purl.org/dc/elements/1.1/"
   xmlns:cc="http://creativecommons.org/ns#"
   xmlns:rdf="http://www.w3.org/1999/02/22-rdf-syntax-ns#"
   xmlns:svg="http://www.w3.org/2000/svg"
   xmlns="http://www.w3.org/2000/svg"
   xmlns:sodipodi="http://sodipodi.sourceforge.net/DTD/sodipodi-0.dtd"
   xmlns:inkscape="http://www.inkscape.org/namespaces/inkscape"
   width="447.86099"
   height="143.004"
   viewBox="0 0 118.49655 37.836475"
   version="1.1"
   id="svg4722"
   inkscape:version="0.92.1 unknown"
   sodipodi:docname="stoq_logo.svg">
  <defs
     id="defs4716" />
  <sodipodi:namedview
     id="base"
     pagecolor="#ffffff"
     bordercolor="#666666"
     borderopacity="1.0"
     inkscape:pageopacity="0.0"
     inkscape:pageshadow="2"
     inkscape:zoom="0.98994949"
     inkscape:cx="185.7693"
     inkscape:cy="81.763202"
     inkscape:document-units="mm"
     inkscape:current-layer="layer1"
     showgrid="false"
     units="px"
     inkscape:window-width="1920"
     inkscape:window-height="1050"
     inkscape:window-x="1920"
     inkscape:window-y="0"
     inkscape:window-maximized="1" />
  <metadata
     id="metadata4719">
    <rdf:RDF>
      <cc:Work
         rdf:about="">
        <dc:format>image/svg+xml</dc:format>
        <dc:type
           rdf:resource="http://purl.org/dc/dcmitype/StillImage" />
        <dc:title></dc:title>
      </cc:Work>
    </rdf:RDF>
  </metadata>
  <g
     inkscape:label="Layer 1"
     inkscape:groupmode="layer"
     id="layer1"
     transform="translate(0,-259.16351)">
    <g
       transform="matrix(1.3113574,0,0,1.3113574,270.8959,327.76503)"
       id="g4563-7-9">
      <path
         id="path6-5-1"
         d="m -192.24499,-46.307269 0.60855,2.910416 h -1.87855 l -0.34395,-1.693333 c -0.0265,-0.185209 -0.18521,-0.3175 -0.39688,-0.3175 h -2.38125 c -0.18521,0 -0.34396,0.132291 -0.39688,0.3175 l -0.52916,2.566458 h 9.02229 c 0.42333,0 0.76729,0.291042 0.87313,0.714375 l 2.38125,11.377083 c 0.0794,0.423334 0,0.846667 -0.29105,1.190625 -0.29104,0.343959 -0.66145,0.529167 -1.11125,0.529167 h -17.62125 c -0.44979,0 -0.82021,-0.185208 -1.11125,-0.529167 -0.29104,-0.343958 -0.37041,-0.740833 -0.29104,-1.190625 l 2.38125,-11.377083 c 0.0794,-0.423333 0.44979,-0.714375 0.87313,-0.714375 h 1.82562 l -2.2225,10.662708 c -0.0265,0.15875 0,0.291042 0.10583,0.396875 0.10584,0.105834 0.23813,0.185209 0.37042,0.185209 h 13.81125 c 0.15875,0 0.29104,-0.05292 0.37042,-0.185209 0.10583,-0.105833 0.13229,-0.264583 0.10583,-0.396875 l -1.64041,-7.911041 c -0.0529,-0.238125 -0.23813,-0.396875 -0.47625,-0.396875 h -9.81605 l 1.27,-6.138333 c 0.10584,-0.449792 0.50271,-0.79375 0.9525,-0.79375 h 4.60375 c 0.4498,0 0.84667,0.3175 0.9525,0.79375 z"
         style="clip-rule:evenodd;fill:#0095d0;fill-rule:evenodd;stroke-width:0.26458332"
         inkscape:connector-curvature="0" />
      <path
         id="path8-3-2"
         d="m -175.41749,-43.370395 h 9.55146 c 0.10584,0 0.21167,0.07937 0.21167,0.211667 v 1.931458 c 0,0.105834 -0.0794,0.211667 -0.21167,0.211667 h -9.23396 c -1.16416,0 -1.82562,0.820208 -1.82562,1.825625 0,1.005417 0.82021,1.825625 1.82562,1.825625 h 5.95313 v 0 c 3.01625,0 4.49792,1.799167 4.49792,4.339167 0,2.54 -1.93146,4.339166 -4.33917,4.339166 h -0.0265 v 0 h -10.60979 c -0.10583,0 -0.21167,-0.07938 -0.21167,-0.211666 v -2.143125 c 0,-0.105834 0.0794,-0.211667 0.21167,-0.211667 h 9.81604 c 1.08479,0 1.95792,-0.873125 1.95792,-1.957917 0,-1.084791 -0.74084,-1.957916 -1.95792,-1.957916 h -0.74083 v 0 0 0 0 0 0 0 c -1.905,0 -3.41313,0 -5.34459,0 h -0.0265 c -2.24895,0 -4.07458,-1.825625 -4.07458,-4.101042 0,-2.275417 2.01083,-4.101042 4.57729,-4.101042 z"
         style="clip-rule:evenodd;fill:#0095d0;fill-rule:evenodd;stroke-width:0.26458332"
         inkscape:connector-curvature="0" />
      <path
         id="path10-5-7"
         d="m -154.09207,-31.278936 h -3.91583 c -0.76729,0 -1.37584,-0.291042 -1.77271,-0.820209 -0.29104,-0.370416 -0.44979,-0.846666 -0.44979,-1.455208 v -7.487708 h 4.49791 c 0.10584,0 0.21167,-0.07938 0.21167,-0.211667 v -1.931458 c 0,-0.105834 -0.0794,-0.211667 -0.21167,-0.211667 h -4.49791 v -3.518958 c 0,-0.105833 -0.0794,-0.211667 -0.21167,-0.211667 h -2.67229 c -0.10583,0 -0.21167,0.07938 -0.21167,0.211667 v 13.705416 c 0,1.402292 0.44979,2.592917 1.27,3.360209 0.71438,0.687916 1.85209,1.058333 2.93688,1.058333 h 5.02708 c 0.10583,0 0.21167,-0.07937 0.21167,-0.211667 v -2.143125 c 0,-0.05292 -0.10584,-0.132291 -0.21167,-0.132291 z"
         style="clip-rule:evenodd;fill:#0095d0;fill-rule:evenodd;stroke-width:0.26458332"
         inkscape:connector-curvature="0" />
      <path
         id="path12-6-0"
         d="m -136.78832,-36.067895 v 0 c 0,9.895417 -17.80646,9.895417 -17.80646,0 v 0 c 0,-10.133541 17.80646,-10.133541 17.80646,0 z m -3.175,-0.343958 c 0,-6.482292 -11.45646,-6.482292 -11.45646,0 v 0.423333 c 0,6.244167 11.45646,6.244167 11.45646,0 z"
         style="clip-rule:evenodd;fill:#0095d0;fill-rule:evenodd;stroke-width:0.26458332"
         inkscape:connector-curvature="0" />
      <path
         id="path14-2-9"
         d="m -117.87061,-36.067895 v 0 c 0,1.825625 -0.68792,3.4925 -1.82563,4.7625 h 2.43417 c 0.10583,0 0.21167,0.07938 0.21167,0.211667 0,0.714375 0,1.42875 0,2.143125 0,0.105833 -0.0794,0.211667 -0.21167,0.211667 h -8.06979 -1.69333 c -4.20688,0 -8.62542,-2.248959 -8.62542,-7.328959 v 0 c 0,-10.133541 17.78,-10.133541 17.78,0 z m -3.175,-0.343958 c 0,-6.482292 -11.45646,-6.482292 -11.45646,0 v 0.423333 c 0,6.244167 11.45646,6.244167 11.45646,0 z"
         style="clip-rule:evenodd;fill:#0095d0;fill-rule:evenodd;stroke-width:0.26458332"
         inkscape:connector-curvature="0" />
    </g>
  </g>
</svg>
