<?xml version="1.0" encoding="UTF-8" standalone="no"?>
<!-- Created with Inkscape (http://www.inkscape.org/) -->

<svg
   xmlns:dc="http://purl.org/dc/elements/1.1/"
   xmlns:cc="http://creativecommons.org/ns#"
   xmlns:rdf="http://www.w3.org/1999/02/22-rdf-syntax-ns#"
   xmlns:svg="http://www.w3.org/2000/svg"
   xmlns="http://www.w3.org/2000/svg"
   xmlns:sodipodi="http://sodipodi.sourceforge.net/DTD/sodipodi-0.dtd"
   xmlns:inkscape="http://www.inkscape.org/namespaces/inkscape"
   inkscape:export-ydpi="96"
   inkscape:export-xdpi="96"
   inkscape:export-filename="/home/dajuda/stoq.png"
   width="49"
   height="49"
   viewBox="0 0 49 49.000001"
   id="svg6076"
   version="1.1"
   inkscape:version="0.92.1 unknown"
   sodipodi:docname="stoq.svg">
  <sodipodi:namedview
     inkscape:object-paths="false"
     inkscape:snap-bbox-midpoints="false"
     id="base"
     pagecolor="#ffffff"
     bordercolor="#666666"
     borderopacity="1.0"
     inkscape:pageopacity="0.0"
     inkscape:pageshadow="2"
     inkscape:zoom="4"
     inkscape:cx="-37.014446"
     inkscape:cy="51.445338"
     inkscape:document-units="px"
     inkscape:current-layer="layer1"
     showgrid="false"
     inkscape:window-width="1920"
     inkscape:window-height="1050"
     inkscape:window-x="1920"
     inkscape:window-y="0"
     inkscape:window-maximized="1"
     units="px"
     inkscape:snap-bbox="true"
     inkscape:snap-bbox-edge-midpoints="false"
     inkscape:object-nodes="false"
     inkscape:bbox-nodes="false"
     inkscape:snap-smooth-nodes="false" />
  <defs
     id="defs6078">
    <inkscape:path-effect
       effect="envelope"
       id="path-effect6911"
       is_visible="true"
       yy="true"
       xx="true"
       bendpath1="M 2.4986602,9.3045505 23.485736,12.384403"
       bendpath2="m 23.485736,12.384403 -0.38368,35.722531"
       bendpath3="m 2.158609,35.905144 20.943447,12.20179"
       bendpath4="M 2.4986602,9.3045505 2.158609,35.905144"
       bendpath1-nodetypes="cc"
       bendpath3-nodetypes="cc"
       bendpath2-nodetypes="cc"
       bendpath4-nodetypes="cc" />
  </defs>
  <metadata
     id="metadata6081">
    <rdf:RDF>
      <cc:Work
         rdf:about="">
        <dc:format>image/svg+xml</dc:format>
        <dc:type
           rdf:resource="http://purl.org/dc/dcmitype/StillImage" />
        <dc:title />
      </cc:Work>
    </rdf:RDF>
  </metadata>
  <g
     transform="translate(0,-1003.3622)"
     id="layer1"
     inkscape:groupmode="layer"
     inkscape:label="Layer 1">
    <g
       id="g4515"
       transform="matrix(0.78904989,0,0,0.78904989,-48.590472,216.04751)">
      <path
         id="path2"
         d="m 66.780988,997.8009 h 51.700002 c 2.8,0 5.2,2.3 5.2,5.2 v 51.7 c 0,2.8 -2.3,5.2 -5.2,5.2 H 66.780988 c -2.8,0 -5.2,-2.3 -5.2,-5.2 v -51.8 c 0,-2.8 2.3,-5.1 5.2,-5.1 z"
         style="clip-rule:evenodd;fill:#0095d0;fill-rule:evenodd"
         inkscape:connector-curvature="0" />
      <path
         id="path48"
         d="m 99.480988,1010.0009 1.300002,6.1 h -4.000002 l -0.7,-3.6 c -0.1,-0.4 -0.4,-0.7 -0.8,-0.7 h -5.1 c -0.4,0 -0.7,0.3 -0.8,0.7 l -1.1,5.4 h 19.100002 c 0.9,0 1.6,0.6 1.8,1.5 l 5,24 c 0.2,0.9 0,1.8 -0.6,2.5 -0.6,0.7 -1.4,1.1 -2.3,1.1 H 74.080988 c -0.9,0 -1.7,-0.4 -2.3,-1.1 -0.6,-0.7 -0.8,-1.6 -0.6,-2.5 l 5,-24 c 0.2,-0.9 0.9,-1.5 1.8,-1.5 h 3.9 l -4.7,22.5 c -0.1,0.3 0,0.6 0.2,0.9 0.2,0.3 0.5,0.4 0.8,0.4 h 29.200002 c 0.3,0 0.6,-0.1 0.8,-0.4 0.2,-0.3 0.3,-0.5 0.2,-0.9 l -3.6,-16.6 c -0.1,-0.5 -0.5,-0.8 -1,-0.8 H 82.980988 l 2.7,-13 c 0.2,-1 1,-1.6 2,-1.6 h 9.8 c 1,0 1.8,0.7 2,1.6 z"
         style="clip-rule:evenodd;fill:#ffffff;fill-rule:evenodd"
         inkscape:connector-curvature="0" />
    </g>
  </g>
</svg>
