<?xml version="1.0" encoding="UTF-8" standalone="no"?>
<!-- Generator: Adobe Illustrator 16.0.0, SVG Export Plug-In . SVG Version: 6.00 Build 0)  -->

<svg
   xmlns:dc="http://purl.org/dc/elements/1.1/"
   xmlns:cc="http://creativecommons.org/ns#"
   xmlns:rdf="http://www.w3.org/1999/02/22-rdf-syntax-ns#"
   xmlns:svg="http://www.w3.org/2000/svg"
   xmlns="http://www.w3.org/2000/svg"
   xmlns:sodipodi="http://sodipodi.sourceforge.net/DTD/sodipodi-0.dtd"
   xmlns:inkscape="http://www.inkscape.org/namespaces/inkscape"
   version="1.1"
   id="Layer_1"
   x="0px"
   y="0px"
   width="447.861px"
   height="143.005px"
   viewBox="0 0 447.861 143.005"
   enable-background="new 0 0 447.861 143.005"
   xml:space="preserve"
   inkscape:version="0.48.3.1 r9886"
   sodipodi:docname="Logo STOQ.svg"><metadata
   id="metadata19"><rdf:RDF><cc:Work
       rdf:about=""><dc:format>image/svg+xml</dc:format><dc:type
         rdf:resource="http://purl.org/dc/dcmitype/StillImage" /></cc:Work></rdf:RDF></metadata><defs
   id="defs17" /><sodipodi:namedview
   pagecolor="#ffffff"
   bordercolor="#666666"
   borderopacity="1"
   objecttolerance="10"
   gridtolerance="10"
   guidetolerance="10"
   inkscape:pageopacity="0"
   inkscape:pageshadow="2"
   inkscape:window-width="1920"
   inkscape:window-height="1028"
   id="namedview15"
   showgrid="false"
   inkscape:zoom="1.8188389"
   inkscape:cx="183.79705"
   inkscape:cy="-25.418303"
   inkscape:window-x="0"
   inkscape:window-y="24"
   inkscape:window-maximized="1"
   inkscape:current-layer="Layer_1" />
<g
   id="g3">
	
</g>

<path
   id="circle9"
   style="fill:#e8503e;fill-rule:evenodd;fill-opacity:1"
   d="m 404.425,77.698997 c 0,19.085856 -15.47214,34.558003 -34.558,34.558003 -19.08585,0 -34.55799,-15.472147 -34.55799,-34.558003 0,-19.085855 15.47214,-34.557998 34.55799,-34.557998 19.08586,0 34.558,15.472143 34.558,34.557998 z m -99.76701,-6.221 c 0,22.519963 -18.25604,40.776003 -40.776,40.776003 -22.51996,0 -40.776,-18.25604 -40.776,-40.776003 0,-22.519964 18.25604,-40.776001 40.776,-40.776001 22.51996,0 40.776,18.256037 40.776,40.776001 z M 42.554,106.67 c 5.838,3.487 12.581,5.613 20.574,5.58 8.78,-0.037 20.746,-3.061 24.889,-9.548 0.453,-0.709 0.794,-1.451 1.019,-2.226 0.217,-0.747 0.326,-1.575 0.326,-2.492 0,-0.916 -0.103,-1.723 -0.311,-2.425 -0.196,-0.66 -0.49,-1.266 -0.886,-1.822 l -0.016,-0.016 c -0.407,-0.579 -0.972,-1.145 -1.692,-1.699 -0.852,-0.653 -1.869,-1.265 -3.05,-1.83 -1.275,-0.61 -2.816,-1.223 -4.626,-1.839 C 76.977,87.74 74.937,87.144 72.658,86.565 70.354,85.981 67.749,85.371 64.844,84.737 61.859,84.086 58.707,83.438 55.388,82.795 51.317,82.005 47.534,81.144 44.049,80.206 40.547,79.264 37.291,78.23 34.283,77.1 l -0.002,0.004 c -3,-1.112 -5.775,-2.351 -8.327,-3.716 -2.6,-1.391 -4.896,-2.874 -6.894,-4.448 L 19.044,68.924 C 16.983,67.284 15.173,65.5 13.62,63.571 12.065,61.641 10.774,59.561 9.749,57.331 8.727,55.103 7.972,52.743 7.48,50.248 6.993,47.773 6.751,45.162 6.751,42.413 c 0,-2.973 0.349,-5.857 1.05,-8.648 0.699,-2.78 1.747,-5.441 3.148,-7.98 l 10e-4,0.001 c 1.354,-2.5 2.997,-4.835 4.923,-7.007 1.93,-2.176 4.116,-4.157 6.553,-5.944 C 34.172,4.223 48.582,0.01 63.003,0.047 77.522,0.084 92.086,4.43 103.978,12.928 H 222.877 C 234.484,4.784 248.624,0 263.882,0 c 24.848,0 46.731,12.682 59.54,31.925 11.827,-11.999 28.266,-19.44 46.445,-19.44 36.017,0 65.215,29.198 65.215,65.215 0,12.716 -3.645,24.581 -9.939,34.612 h 19.537 c 1.086,0 1.971,0.886 1.971,1.971 v 26.661 c 0,1.085 -0.887,1.971 -1.971,1.971 h -74.813 -0.015 l 0,0 c -20.925,-0.005 -39.544,-9.865 -51.474,-25.19 -13.111,15.436 -32.658,25.232 -54.497,25.232 -39.476,0 -71.478,-32.002 -71.478,-71.478 0,-9.917 2.021,-19.361 5.671,-27.946 h -27.458 v 97.339 c 0,1.085 -0.885,1.971 -1.97,1.971 h -26.798 c -1.085,0 -1.971,-0.886 -1.971,-1.971 V 43.531 H 122.16 90.479 c -0.946,0 -1.772,-0.517 -2.187,-1.325 -0.478,-0.934 -0.769,-1.556 -1.454,-2.547 -1.098,-1.59 -2.769,-3.233 -4.71,-4.415 -4.848,-2.949 -12.041,-4.595 -18.982,-4.707 -3.56,-0.057 -9.276,0.794 -13.666,2.27 -2.862,0.962 -6.031,2.56 -7.772,5.118 -0.79,1.162 -1.255,2.499 -1.255,4.03 0,0.541 0.06,1.006 0.177,1.391 0.112,0.372 0.292,0.732 0.535,1.077 0.269,0.382 0.629,0.752 1.074,1.107 0.547,0.438 1.261,0.887 2.131,1.344 l 0,0 c 0.942,0.485 2.021,0.96 3.239,1.421 1.204,0.456 2.59,0.909 4.167,1.357 1.717,0.488 3.556,0.963 5.509,1.411 1.961,0.45 4.029,0.881 6.197,1.282 l 0.08,0.016 c 1.142,0.235 2.295,0.471 3.458,0.709 3.439,0.702 6.952,1.42 9.327,1.935 l -10e-4,0.006 c 2.259,0.474 4.474,1.001 6.649,1.58 2.099,0.558 4.277,1.2 6.53,1.92 h 0.016 c 2.121,0.684 4.237,1.455 6.348,2.319 2.091,0.855 4.103,1.777 6.028,2.765 2.017,1.01 3.923,2.153 5.718,3.424 1.847,1.308 3.535,2.716 5.066,4.219 1.573,1.545 2.987,3.248 4.248,5.102 1.25,1.836 2.32,3.786 3.218,5.843 0.932,2.133 1.632,4.433 2.097,6.893 0.458,2.427 0.689,4.974 0.689,7.635 0,3.207 -0.373,6.312 -1.114,9.309 -0.739,2.992 -1.853,5.852 -3.335,8.575 v 0.017 c -1.474,2.69 -3.221,5.178 -5.238,7.468 -1.995,2.266 -4.13,4.33 -6.712,6.253 -6.359,4.736 -13.134,8.474 -20.674,10.978 -7.232,2.402 -15.354,3.605 -22.975,3.69 -18.358,0.202 -39.88,-8.399 -51.493,-22.706 C 4.158,111.361 0.544,99.494 0.004,89.917 -0.028,89.356 0.153,88.861 0.54,88.452 0.926,88.044 1.41,87.835 1.972,87.835 h 2.486 24.175 1.282 c 1.16,0 2.126,0.847 2.279,1.997 0.734,5.529 3.537,12.116 10.36,16.838 l 0,0 z m 59.362,-43.073 0.004,0.002 -0.004,-0.002 z" />
<path
   clip-rule="evenodd"
   d="M433.413,25.029h1.312l3.009,5.473h3.296l-3.329-5.696  c1.729-0.128,3.137-0.992,3.137-3.393c0-2.976-1.983-3.936-5.345-3.936h-4.863v13.025h2.784V25.029L433.413,25.029z M433.413,22.821  v-3.136h1.951c1.057,0,2.497,0.096,2.497,1.44c0,1.44-0.736,1.696-1.984,1.696H433.413z"
   id="path11"
   fill-rule="evenodd"
   fill="#E7503E" />
<path
   clip-rule="evenodd"
   d="M435.272,11.65c3.476,0,6.623,1.409,8.901,3.688  c2.277,2.278,3.688,5.425,3.688,8.902c0,3.476-1.41,6.623-3.688,8.901c-2.278,2.278-5.426,3.687-8.901,3.687  c-3.477,0-6.624-1.409-8.901-3.687c-2.279-2.278-3.688-5.426-3.688-8.901c0-3.477,1.409-6.624,3.688-8.902  C428.648,13.06,431.796,11.65,435.272,11.65L435.272,11.65z M442.256,17.255c-1.787-1.788-4.256-2.893-6.983-2.893  s-5.197,1.105-6.984,2.893c-1.788,1.787-2.894,4.257-2.894,6.985c0,2.727,1.105,5.197,2.894,6.984  c1.787,1.788,4.257,2.893,6.984,2.893s5.196-1.105,6.983-2.893c1.788-1.787,2.894-4.257,2.894-6.984  C445.149,21.512,444.044,19.042,442.256,17.255z"
   id="path13"
   fill-rule="evenodd"
   fill="#E7503E" />
</svg>