/* XPM */
static char * alert_xpm[] = {
"24 24 294 2",
"  	c None",
". 	c #D5D5D5",
"+ 	c #D4D4D2",
"@ 	c #CDCDB9",
"# 	c #BCBC6A",
"$ 	c #ABAB20",
"% 	c #A1A13D",
"& 	c #ABAB8E",
"* 	c #C5C5C3",
"= 	c #D3D3D3",
"- 	c #D5D5D4",
"; 	c #CFCFC1",
"> 	c #C3C37B",
", 	c #D1D127",
"' 	c #E6E611",
") 	c #C9C935",
"! 	c #93935F",
"~ 	c #94948D",
"{ 	c #BCBCBC",
"] 	c #D0D0D0",
"^ 	c #D3D3D0",
"/ 	c #C8C8A6",
"( 	c #C4C448",
"_ 	c #E4E409",
": 	c #FBFB02",
"< 	c #EEEE12",
"[ 	c #A9A92B",
"} 	c #747455",
"| 	c #939392",
"1 	c #BFBFBF",
"2 	c #D2D2D2",
"3 	c #CFCFC2",
"4 	c #C2C275",
"5 	c #D2D21A",
"6 	c #F5F502",
"7 	c #FFFF00",
"8 	c #FBFB04",
"9 	c #D7D720",
"0 	c #82823F",
"a 	c #6E6E67",
"b 	c #9F9F9F",
"c 	c #C7C7C7",
"d 	c #D4D4D4",
"e 	c #D3D3D1",
"f 	c #C9C9A8",
"g 	c #C3C343",
"h 	c #E4E407",
"i 	c #FCFC00",
"j 	c #FFFF01",
"k 	c #F3F30A",
"l 	c #ABAB28",
"m 	c #6C6C50",
"n 	c #848483",
"o 	c #B7B7B7",
"p 	c #D1D1D1",
"q 	c #CFCFC5",
"r 	c #C3C37D",
"s 	c #D0D017",
"t 	c #F8F801",
"u 	c #FAFA06",
"v 	c #D4D41E",
"w 	c #80803D",
"x 	c #6E6E66",
"y 	c #C9C9C9",
"z 	c #C8C8A7",
"A 	c #C2C246",
"B 	c #E7E707",
"C 	c #F2F20A",
"D 	c #D3D311",
"E 	c #B4B407",
"F 	c #B9B90A",
"G 	c #DBDB11",
"H 	c #E8E814",
"I 	c #A8A82F",
"J 	c #6D6D51",
"K 	c #838380",
"L 	c #BABABA",
"M 	c #C2C27A",
"N 	c #D0D01D",
"O 	c #F4F402",
"P 	c #D6D611",
"Q 	c #74741D",
"R 	c #2B2B0C",
"S 	c #363611",
"T 	c #8D8D1C",
"U 	c #E1E10E",
"V 	c #D2D218",
"W 	c #838339",
"X 	c #707065",
"Y 	c #A1A1A1",
"Z 	c #D3D3CF",
"` 	c #C8C8A4",
" .	c #C3C344",
"..	c #E6E607",
"+.	c #F8F800",
"@.	c #C0C002",
"#.	c #474704",
"$.	c #060602",
"%.	c #0D0D02",
"&.	c #646404",
"*.	c #D6D602",
"=.	c #EDED0F",
"-.	c #A9A92C",
";.	c #6D6D4E",
">.	c #868684",
",.	c #B8B8B8",
"'.	c #D0D0C4",
").	c #C2C279",
"!.	c #D1D11D",
"~.	c #F9F900",
"{.	c #BEBE00",
"].	c #434300",
"^.	c #040400",
"/.	c #0A0A00",
"(.	c #606000",
"_.	c #D5D500",
":.	c #F9F904",
"<.	c #D4D41D",
"[.	c #7E7E38",
"}.	c #737369",
"|.	c #A2A2A2",
"1.	c #D4D4D1",
"2.	c #C9C9A9",
"3.	c #C2C242",
"4.	c #E5E507",
"5.	c #FDFD00",
"6.	c #FAFA00",
"7.	c #C3C301",
"8.	c #4B4B01",
"9.	c #070700",
"0.	c #0F0F01",
"a.	c #686802",
"b.	c #D8D801",
"c.	c #FDFD01",
"d.	c #F1F10C",
"e.	c #AAAA2A",
"f.	c #6B6B4F",
"g.	c #858584",
"h.	c #D0D0C6",
"i.	c #C1C179",
"j.	c #D1D114",
"k.	c #F7F701",
"l.	c #FBFB01",
"m.	c #D3D309",
"n.	c #686810",
"o.	c #131306",
"p.	c #202009",
"q.	c #83830F",
"r.	c #E3E306",
"s.	c #FEFE00",
"t.	c #FCFC04",
"u.	c #DBDB1E",
"v.	c #7C7C3C",
"w.	c #6D6D66",
"x.	c #9E9E9E",
"y.	c #C9C9AF",
"z.	c #BEBE43",
"A.	c #E7E705",
"B.	c #FEFE01",
"C.	c #E8E80E",
"D.	c #8E8E19",
"E.	c #25250A",
"F.	c #39390F",
"G.	c #A6A618",
"H.	c #F1F10A",
"I.	c #A7A72C",
"J.	c #69694E",
"K.	c #848482",
"L.	c #BBBBBB",
"M.	c #BFBF7A",
"N.	c #D1D119",
"O.	c #F5F506",
"P.	c #B4B411",
"Q.	c #4F4F10",
"R.	c #616110",
"S.	c #C8C80F",
"T.	c #FDFD03",
"U.	c #7F7F3E",
"V.	c #6E6E65",
"W.	c #A0A09F",
"X.	c #CBCBCB",
"Y.	c #C7C7A8",
"Z.	c #BFBF41",
"`.	c #E9E906",
" +	c #FCFC03",
".+	c #D7D715",
"++	c #868624",
"@+	c #91911E",
"#+	c #E3E310",
"$+	c #FDFD02",
"%+	c #F1F10D",
"&+	c #6A6A4C",
"*+	c #D1D1C8",
"=+	c #BFBF79",
"-+	c #D0D01A",
";+	c #FEFE02",
">+	c #ECEC0F",
",+	c #B9B919",
"'+	c #B9B914",
")+	c #EEEE0D",
"!+	c #FBFB03",
"~+	c #D5D51B",
"{+	c #7B7B36",
"]+	c #717168",
"^+	c #C7C7A9",
"/+	c #C0C03F",
"(+	c #E7E706",
"_+	c #E3E317",
":+	c #9E9E20",
"<+	c #898918",
"[+	c #C7C71D",
"}+	c #F4F40B",
"|+	c #AAAA31",
"1+	c #65654E",
"2+	c #868685",
"3+	c #B9B9B9",
"4+	c #BBBB6F",
"5+	c #D0D015",
"6+	c #F8F802",
"7+	c #B9B90F",
"8+	c #4A4A14",
"9+	c #2D2D0F",
"0+	c #7F7F13",
"a+	c #E0E007",
"b+	c #DDDD19",
"c+	c #787838",
"d+	c #6E6E68",
"e+	c #A1A1A0",
"f+	c #CACACA",
"g+	c #AFAF20",
"h+	c #E9E904",
"i+	c #BCBC12",
"j+	c #4C4C19",
"k+	c #2C2C13",
"l+	c #818118",
"m+	c #E1E109",
"n+	c #F6F609",
"o+	c #ABAB2E",
"p+	c #5E5E47",
"q+	c #858583",
"r+	c #AAAA03",
"s+	c #F3F300",
"t+	c #E5E512",
"u+	c #AEAE18",
"v+	c #9B9B12",
"w+	c #C9C917",
"x+	c #F4F409",
"y+	c #C6C617",
"z+	c #5B5B35",
"A+	c #787875",
"B+	c #9B9B9A",
"C+	c #AEAE1C",
"D+	c #EAEA05",
"E+	c #F7F703",
"F+	c #EEEE05",
"G+	c #EBEB03",
"H+	c #F2F204",
"I+	c #F9F902",
"J+	c #EEEE16",
"K+	c #A9A93D",
"L+	c #5B5B49",
"M+	c #757574",
"N+	c #848484",
"O+	c #C0C087",
"P+	c #C2C233",
"Q+	c #BABA0D",
"R+	c #ADAD07",
"S+	c #ACAC06",
"T+	c #ABAB06",
"U+	c #A9A90B",
"V+	c #969631",
"W+	c #6C6C51",
"X+	c #6D6D6B",
"Y+	c #7D7D7D",
"Z+	c #838383",
"`+	c #D0D0C7",
" @	c #BDBD95",
".@	c #949468",
"+@	c #5F5F41",
"@@	c #5E5E40",
"#@	c #5E5E41",
"$@	c #5D5D4D",
"%@	c #6C6C69",
"&@	c #7C7C7C",
"*@	c #878787",
"=@	c #D2D2CE",
"-@	c #C6C6C3",
";@	c #A4A4A3",
">@	c #7E7E7D",
",@	c #7A7A78",
"'@	c #7A7A79",
")@	c #7E7E7E",
"!@	c #828282",
"~@	c #C5C5C5",
". . . . . . . + @ # $ % & * = . . . . . . . . . ",
". . . . . . - ; > , ' ) ! ~ { ] . . . . . . . . ",
". . . . . . ^ / ( _ : < [ } | 1 2 . . . . . . . ",
". . . . . - 3 4 5 6 7 8 9 0 a b c d . . . . . . ",
". . . . . e f g h i 7 j k l m n o p . . . . . . ",
". . . . - q r s 6 : t t u v w x b y d . . . . . ",
". . . . ^ z A B C D E F G H I J K L 2 . . . . . ",
". . . - 3 M N O P Q R S T U V W X Y y d . . . . ",
". . . Z `  ...+.@.#.$.%.&.*.=.-.;.>.,.p . . . . ",
". . - '.).!.6 ~.{.].^./.(._.:.<.[.}.|.y d . . . ",
". . 1.2.3.4.5.6.7.8.9.0.a.b.c.d.e.f.g.,.p . . . ",
". - h.i.j.k.7 l.m.n.o.p.q.r.s.t.u.v.w.x.y d . . ",
". + y.z.A.5.7 B.C.D.E.F.G.H.7 7 k I.J.K.L.2 . . ",
". h.M.N.+.7 7 j O.P.Q.R.S.:.7 7 T.<.U.V.W.X.. . ",
"1.Y.Z.`.s.7 7 7  +.+++@+#+$+7 7 7 %+[ &+K.L 2 . ",
"*+=+-+k.7 7 7 7 ;+>+,+'+)+;+7 7 7 !+~+{+]+|.X.. ",
"^+/+(+5.7 7 7 7 T._+:+<+[+}+7 7 7 j %+|+1+2+3+= ",
"4+5+k.7 7 7 7 7 6+7+8+9+0+a+s.7 7 7  +b+c+d+e+f+",
"g+h+5.7 7 7 7 7 6+i+j+k+l+m+s.7 7 7 7 n+o+p+q+3+",
"r+s+7 7 7 7 7 7 $+t+u+v+w+x+7 7 7 7 7 T.y+z+A+B+",
"C+D+6.6.6.6.6.6.6.E+F+G+H+I+6.6.6.6.I+J+K+L+M+N+",
"O+P+Q+R+S+S+S+S+S+T+T+T+T+S+S+S+S+S+U+V+W+X+Y+Z+",
"`+ @.@&++@@@@@@@@@@@@@@@@@@@@@@@@@@@#@$@%@&@*@x.",
"- =@-@;@>@,@,@,@,@,@,@,@,@,@,@,@,@,@,@'@)@!@b ~@"};
