/* XPM */
static char * aprove_xpm[] = {
"24 24 123 2",
"  	c None",
". 	c #B4B5B4",
"+ 	c #414141",
"@ 	c #979897",
"# 	c #8C8D8C",
"$ 	c #8DAAC4",
"% 	c #A1B8C1",
"& 	c #39454D",
"* 	c #A5A5A5",
"= 	c #515E6A",
"- 	c #97B3CE",
"; 	c #477198",
"> 	c #1F1F1F",
", 	c #949594",
"' 	c #686968",
") 	c #779DC0",
"! 	c #8FAECA",
"~ 	c #0B1218",
"{ 	c #656665",
"] 	c #A9AAA9",
"^ 	c #AFAFAF",
"/ 	c #36495B",
"( 	c #252525",
"_ 	c #959595",
": 	c #3C3C3C",
"< 	c #779DBF",
"[ 	c #0D1418",
"} 	c #626262",
"| 	c #ACADAC",
"1 	c #8D8E8D",
"2 	c #3C5E7D",
"3 	c #C1D2E2",
"4 	c #32516D",
"5 	c #212121",
"6 	c #969696",
"7 	c #404547",
"8 	c #A9C0D6",
"9 	c #628DB5",
"0 	c #0D1419",
"a 	c #5C5C5C",
"b 	c #B7B8B7",
"c 	c #456B8C",
"d 	c #273036",
"e 	c #ADAEAD",
"f 	c #5F8BB4",
"g 	c #A4BDD5",
"h 	c #355674",
"i 	c #171817",
"j 	c #8F908F",
"k 	c #2D3A44",
"l 	c #D7E2EC",
"m 	c #253848",
"n 	c #888988",
"o 	c #AFB0AF",
"p 	c #465056",
"q 	c #A3BCD4",
"r 	c #5987B2",
"s 	c #131E28",
"t 	c #484848",
"u 	c #838483",
"v 	c #5886B1",
"w 	c #B2C7DB",
"x 	c #273D51",
"y 	c #7A7C7B",
"z 	c #494D4E",
"A 	c #8BABC9",
"B 	c #7299BD",
"C 	c #3C6081",
"D 	c #090A09",
"E 	c #808080",
"F 	c #33383B",
"G 	c #7A9FC1",
"H 	c #769CBF",
"I 	c #233749",
"J 	c #787979",
"K 	c #606160",
"L 	c #33516A",
"M 	c #5483AF",
"N 	c #1C2D3D",
"O 	c #323232",
"P 	c #638EB6",
"Q 	c #203242",
"R 	c #121313",
"S 	c #ADC3D8",
"T 	c #42698D",
"U 	c #080C0E",
"V 	c #6B6B6B",
"W 	c #4D4F4F",
"X 	c #48739B",
"Y 	c #6690B7",
"Z 	c #7DA1C2",
"` 	c #BACDDF",
" .	c #8CACC9",
"..	c #4E7DA9",
"+.	c #263C51",
"@.	c #1E1E1E",
"#.	c #232D34",
"$.	c #5D8AB4",
"%.	c #5785B0",
"&.	c #5584B0",
"*.	c #4F7EAA",
"=.	c #426A8F",
"-.	c #0C141B",
";.	c #4F504F",
">.	c #8B8C8B",
",.	c #243A4F",
"'.	c #4C79A3",
").	c #49749C",
"!.	c #294158",
"~.	c #0D0D0D",
"{.	c #848584",
"].	c #333637",
"^.	c #406689",
"/.	c #47729A",
"(.	c #3D6284",
"_.	c #424242",
":.	c #1F2428",
"<.	c #33526E",
"[.	c #1B2B3A",
"}.	c #818281",
"|.	c #26292A",
"1.	c #070807",
"2.	c #636463",
"                                                ",
"                                                ",
"                                . + + @         ",
"                                # $ % &         ",
"                              * = - ; > ,       ",
"                              ' ) ! ~ { ]       ",
"                            ^ / - ; ( _         ",
"                            : < ! [ } |         ",
"                          1 2 3 4 5 6           ",
"                          7 8 9 0 a b           ",
"        c d e           ' f g h i j             ",
"        k l m n       o p q r s t               ",
"        u v w x y     z A B C D E               ",
"          F G H I J K L w M N O                 ",
"          . m ) P Q R S P T U V                 ",
"            W X Y Z `  ...+.@.,                 ",
"              #.$.%.&.*.=.-.;.                  ",
"              >.,.*.'.).!.~.{.                  ",
"                ].^./.(.-._.                    ",
"                  :.<.[.~.}.                    ",
"                    |.1.2.                      ",
"                                                ",
"                                                ",
"                                                "};
