/* XPM */
static char * cancel_xpm[] = {
"16 16 49 1",
" 	c None",
".	c #000000",
"+	c #F6939B",
"@	c #BF4951",
"#	c #B8454F",
"$	c #F35A69",
"%	c #E35762",
"&	c #CF626B",
"*	c #BB4751",
"=	c #DE525F",
"-	c #AF414B",
";	c #D86770",
">	c #C94B56",
",	c #802F36",
"'	c #CC4C58",
")	c #C64B57",
"!	c #DA6871",
"~	c #CF4E59",
"{	c #983941",
"]	c #C34852",
"^	c #CD4D58",
"/	c #D14E5A",
"(	c #D04E5A",
"_	c #B0424B",
":	c #C94A57",
"<	c #D04C57",
"[	c #C74A55",
"}	c #DB6972",
"|	c #CD4D5A",
"1	c #C54854",
"2	c #C14852",
"3	c #DB6871",
"4	c #D24E5A",
"5	c #CB4C57",
"6	c #C34752",
"7	c #BD4652",
"8	c #D96770",
"9	c #9E3A43",
"0	c #CD4D59",
"a	c #963841",
"b	c #D87880",
"c	c #9B3A43",
"d	c #BB4750",
"e	c #D04D59",
"f	c #C14953",
"g	c #973841",
"h	c #D24F5B",
"i	c #B4444D",
"j	c #B6454D",
"                ",
"    ..      .   ",
"   .+@.    .#.  ",
"   .$%.   .&*.  ",
"    .=-. .;>,.  ",
"    .')..!~{.   ",
"     .]^/(_.    ",
"     .:<^[..    ",
"    .}|12..     ",
"   .34567.      ",
" ..8(9..0a.     ",
" .b^c. .de..    ",
" .fg.   .hi.    ",
"  ..    .j~.    ",
"         ...    ",
"                "};
