/* XPM */
static char * contract_xpm[] = {
"24 24 176 2",
"  	c None",
". 	c #98ACC2",
"+ 	c #B8C4C1",
"@ 	c #D9DCC1",
"# 	c #D6DABE",
"$ 	c #D6D9BE",
"% 	c #D6DABF",
"& 	c #D5D8BD",
"* 	c #D4D8BD",
"= 	c #D2D6BC",
"- 	c #D2D5BA",
"; 	c #D0D4BA",
"> 	c #CFD2B8",
", 	c #B3BEBC",
"' 	c #94A7B2",
") 	c #CDD1AC",
"! 	c #D8DBBF",
"~ 	c #D8DCC0",
"{ 	c #D7DABE",
"] 	c #D1D5B9",
"^ 	c #CDD1B5",
"/ 	c #C6CBA6",
"( 	c #C5CAA5",
"_ 	c #C3C8A4",
": 	c #C2C6A2",
"< 	c #C0C5A1",
"[ 	c #BEC3A0",
"} 	c #BDC29E",
"| 	c #869CA9",
"1 	c #D2D5BB",
"2 	c #D3D6B6",
"3 	c #FCFCFC",
"4 	c #F8F8F8",
"5 	c #F4F4F4",
"6 	c #EEEEEE",
"7 	c #C8CAB6",
"8 	c #C4C9A4",
"9 	c #C2C7A3",
"0 	c #C1C6A2",
"a 	c #BFC4A0",
"b 	c #B6B39E",
"c 	c #B2AE9C",
"d 	c #989C7E",
"e 	c #D2D6B4",
"f 	c #ECEDE0",
"g 	c #F2F2F2",
"h 	c #ECECEC",
"i 	c #EAEAEA",
"j 	c #D5D5D5",
"k 	c #CACACA",
"l 	c #BBBEA7",
"m 	c #B8B5A0",
"n 	c #AFA1AA",
"o 	c #957B93",
"p 	c #795B74",
"q 	c #9BA07D",
"r 	c #CFD2B6",
"s 	c #FEFEFE",
"t 	c #F6F6F6",
"u 	c #EBEBEB",
"v 	c #E0E2D8",
"w 	c #B9B6A1",
"x 	c #B0A1AB",
"y 	c #99829C",
"z 	c #705169",
"A 	c #684B57",
"B 	c #837A65",
"C 	c #999F76",
"D 	c #848768",
"E 	c #D2D5B4",
"F 	c #ECEEE0",
"G 	c #E8E8E8",
"H 	c #E1DAD6",
"I 	c #B19EA4",
"J 	c #977F98",
"K 	c #654953",
"L 	c #817962",
"M 	c #969C71",
"N 	c #979D72",
"O 	c #9DA37B",
"P 	c #9DA280",
"Q 	c #F5F5F5",
"R 	c #F1F1F1",
"S 	c #F0F0F0",
"T 	c #EDEDED",
"U 	c #E7D5C5",
"V 	c #E2A75C",
"W 	c #A57A64",
"X 	c #674B56",
"Y 	c #837B63",
"Z 	c #99A074",
"` 	c #9AA075",
" .	c #9FA47B",
"..	c #A4AA84",
"+.	c #ACB08C",
"@.	c #B0B492",
"#.	c #969A7D",
"$.	c #D2D6B6",
"%.	c #FBFBFB",
"&.	c #F9F9F9",
"*.	c #A28E85",
"=.	c #D7B38F",
"-.	c #AC9B70",
";.	c #A0A67A",
">.	c #9EA378",
",.	c #A1A77E",
"'.	c #A8AD86",
").	c #ADB28E",
"!.	c #B1B693",
"~.	c #B2B795",
"{.	c #B2B695",
"].	c #A0A486",
"^.	c #92A6BB",
"/.	c #B7C1AC",
"(.	c #D4D8B8",
"_.	c #D8DCBF",
":.	c #D8DBBE",
"<.	c #D6DABD",
"[.	c #D5D9BC",
"}.	c #D4D8BB",
"|.	c #D2D6BA",
"1.	c #D1D4B9",
"2.	c #CED2B6",
"3.	c #C8CCAF",
"4.	c #AEB48C",
"5.	c #A9AF86",
"6.	c #ACB08A",
"7.	c #B0B590",
"8.	c #B4B895",
"9.	c #B5B997",
"0.	c #B4B997",
"a.	c #B3B896",
"b.	c #B0B494",
"c.	c #8BA1BA",
"d.	c #869EB8",
"e.	c #7590AE",
"f.	c #CCD1AB",
"g.	c #CAD0AA",
"h.	c #C9CEA8",
"i.	c #C8CCA7",
"j.	c #C6CAA6",
"k.	c #C2C8A3",
"l.	c #C0C4A0",
"m.	c #BCC19D",
"n.	c #B8BD99",
"o.	c #B6BB97",
"p.	c #B6BB98",
"q.	c #B7BC99",
"r.	c #B7BB99",
"s.	c #B6BA98",
"t.	c #B4B897",
"u.	c #B2B796",
"v.	c #B1B594",
"w.	c #95A7B1",
"x.	c #455566",
"y.	c #5D6664",
"z.	c #757862",
"A.	c #747762",
"B.	c #747661",
"C.	c #737660",
"D.	c #72745F",
"E.	c #71745F",
"F.	c #70735E",
"G.	c #6F725D",
"H.	c #6E715C",
"I.	c #6C6F5B",
"J.	c #6B6E5A",
"K.	c #6B6D59",
"L.	c #696C58",
"M.	c #696C59",
"N.	c #686B57",
"O.	c #686A57",
"P.	c #676956",
"Q.	c #666855",
"R.	c #555E5D",
"S.	c #47586A",
"                                                ",
"                                                ",
"                                                ",
"                                                ",
"                                                ",
"                                                ",
"                                                ",
"        . + @ @ @ # $ % & * = - ; > , .         ",
"        ' ) ! ~ { ] ^ / / ( _ : < [ } |         ",
"      1 ) 2 3 4 5 6 6 7 ( 8 9 0 a } b c d       ",
"      e ) f 4 g h i j k l _ : a m n o p q       ",
"    r ) 2 s t g h h i u v 0 w x y z A B C D     ",
"    E ) F 3 t 6 h u G 6 H I J z K L M N O P     ",
"  r ) 2 s Q 5 R S T h U V W X Y Z `  ...+.@.#.  ",
"  $.) F %.4 4 4 4 &.&.*.=.-.;.>.,.'.).!.~.{.].  ",
"^./.) (._.:.<.[.}.|.1.2.3.4.5.6.7.8.9.0.a.{.b.c.",
"d.e./.) f.g.h.i.j.8 k.l.m.n.o.p.q.r.s.t.u.v.w.e.",
"  x.y.z.A.B.C.D.E.F.G.H.I.J.K.L.M.N.O.P.Q.R.x.S.",
"                                                ",
"                                                ",
"                                                ",
"                                                ",
"                                                ",
"                                                "};
