/* XPM */
static char * draft_market_xpm[] = {
"15 17 139 2",
"  	c None",
". 	c #4A4A4A",
"+ 	c #7B7B7B",
"@ 	c #828282",
"# 	c #838383",
"$ 	c #818181",
"% 	c #6B6B6B",
"& 	c #353535",
"* 	c #767676",
"= 	c #DEDEDE",
"- 	c #E8E8E8",
"; 	c #E4E4E4",
"> 	c #D0D0D0",
", 	c #C9C9C9",
"' 	c #D5D5D5",
") 	c #EBEBEB",
"! 	c #DCDCDC",
"~ 	c #8E8E8E",
"{ 	c #383838",
"] 	c #787878",
"^ 	c #E0E0E0",
"/ 	c #D9D9D9",
"( 	c #9D9D9D",
"_ 	c #898988",
": 	c #858484",
"< 	c #A6A6A6",
"[ 	c #E3E3E3",
"} 	c #EEEEEE",
"| 	c #EFEFEF",
"1 	c #6F6F6F",
"2 	c #D3D3D3",
"3 	c #8C8C8B",
"4 	c #7D7C7B",
"5 	c #707171",
"6 	c #616363",
"7 	c #6B6C6C",
"8 	c #6C6C6C",
"9 	c #969696",
"0 	c #F1F1F1",
"a 	c #EAEAEA",
"b 	c #888888",
"c 	c #A2A2A2",
"d 	c #7C7C7B",
"e 	c #6A6C6D",
"f 	c #808B91",
"g 	c #99A9B1",
"h 	c #727E86",
"i 	c #656869",
"j 	c #676767",
"k 	c #CACACA",
"l 	c #F2F2F2",
"m 	c #ECECEC",
"n 	c #898989",
"o 	c #707070",
"p 	c #8F8F8E",
"q 	c #717B82",
"r 	c #DFEBEF",
"s 	c #E2EEF2",
"t 	c #B5C9D7",
"u 	c #6F7880",
"v 	c #646464",
"w 	c #A9A9A9",
"x 	c #F3F3F3",
"y 	c #6D6D6D",
"z 	c #79858D",
"A 	c #D4E6EF",
"B 	c #D1E0E9",
"C 	c #B6CCDB",
"D 	c #6A6A6A",
"E 	c #A3A4A4",
"F 	c #737373",
"G 	c #939393",
"H 	c #6F6F70",
"I 	c #646B70",
"J 	c #9EB1BF",
"K 	c #ADC3D3",
"L 	c #90A3B1",
"M 	c #71787B",
"N 	c #686867",
"O 	c #B4B4B4",
"P 	c #F5F5F5",
"Q 	c #EDEDED",
"R 	c #BFBFBF",
"S 	c #757575",
"T 	c #676868",
"U 	c #656C70",
"V 	c #717B81",
"W 	c #6F7478",
"X 	c #7F7F7E",
"Y 	c #6B6F69",
"Z 	c #929491",
"` 	c #E5E6E6",
" .	c #E1E1E1",
"..	c #B9B9B9",
"+.	c #777776",
"@.	c #676666",
"#.	c #6A6969",
"$.	c #5E615D",
"%.	c #6E8168",
"&.	c #6B7B65",
"*.	c #999B98",
"=.	c #E3E2E3",
"-.	c #878787",
";.	c #DBDBDB",
">.	c #BABABA",
",.	c #B0B1B0",
"'.	c #BDBEBE",
").	c #A2A4A2",
"!.	c #4C5B4B",
"~.	c #6C8863",
"{.	c #6F7E68",
"].	c #999B99",
"^.	c #808081",
"/.	c #F0F0F0",
"(.	c #AEAFAE",
"_.	c #4C5C4A",
":.	c #72826E",
"<.	c #828382",
"[.	c #747474",
"}.	c #F4F4F4",
"|.	c #F6F6F6",
"1.	c #F7F7F7",
"2.	c #F8F8F8",
"3.	c #AFAFAF",
"4.	c #7F7F7F",
"5.	c #808080",
"6.	c #D1D1D1",
"7.	c #E2E2E2",
"8.	c #CDCDCD",
"9.	c #7A7A7A",
"0.	c #3B3B3B",
"a.	c #606060",
"b.	c #656464",
"c.	c #656666",
"d.	c #656566",
"e.	c #636364",
"f.	c #626262",
"g.	c #616161",
"h.	c #424242",
"                              ",
"  . + @ @ # @ @ $ $ $ % &     ",
"  * = - ; > , ' - ) ) ! ~ {   ",
"  ] ^ / ( _ : $ < [ } | / 1   ",
"  ] 2 3 4 5 6 7 8 9 ) 0 a b   ",
"  * c d e f g h i j k l m n   ",
"  o p * q r s t u v w x m n   ",
"  y b y z A B C z D E x m n   ",
"  F G H I J K L M N O P Q b   ",
"  * R S T U V W X Y Z ` } b   ",
"  *  ...+.v @.#.$.%.&.*.=.-.  ",
"  * [ } ;.>.,.'.).!.~.{.].^.  ",
"  * [ /.0 x P P 0 (._.:.<.[.  ",
"  S ; l }.}.|.1.2.2.3.4.w 5.  ",
"  % 6.^  .^ ^  . .7.! , 8.9.  ",
"  0.a.b.c.j j d.e.f.v v g.h.  ",
"                              "};
