/* XPM */
static char * draft_schedule_xpm[] = {
"17 17 115 2",
"  	c None",
". 	c #0F0F0F",
"+ 	c #2C2B2B",
"@ 	c #262525",
"# 	c #212120",
"$ 	c #000000",
"% 	c #040404",
"& 	c #1A1A19",
"* 	c #1E1E1D",
"= 	c #1D1D1D",
"- 	c #1D1D1C",
"; 	c #1E1E1E",
"> 	c #1F1F1E",
", 	c #1A1A1A",
"' 	c #757575",
") 	c #A1A1A1",
"! 	c #9C9C9C",
"~ 	c #9B9B9B",
"{ 	c #9D9D9D",
"] 	c #9F9F9F",
"^ 	c #A0A0A0",
"/ 	c #A4A4A4",
"( 	c #A5A5A5",
"_ 	c #A7A7A7",
": 	c #ABABAB",
"< 	c #8C8C8C",
"[ 	c #8E8E8E",
"} 	c #D2D2D2",
"| 	c #C6C6C6",
"1 	c #D0D0D0",
"2 	c #C1C1C1",
"3 	c #D3D3D3",
"4 	c #D4D4D4",
"5 	c #D5D5D5",
"6 	c #B8B8B8",
"7 	c #DDDDDD",
"8 	c #E1E1E1",
"9 	c #B9B9B9",
"0 	c #909090",
"a 	c #CDCDCD",
"b 	c #919191",
"c 	c #A6A6A6",
"d 	c #949494",
"e 	c #4F4F4F",
"f 	c #828282",
"g 	c #6A6A6A",
"h 	c #A9A9A9",
"i 	c #BFBFBF",
"j 	c #E2E2E2",
"k 	c #E3E3E3",
"l 	c #E5E5E5",
"m 	c #E7E7E7",
"n 	c #D7D7D7",
"o 	c #7B7B7B",
"p 	c #8D8D8D",
"q 	c #959595",
"r 	c #9A9A9A",
"s 	c #7C7C7C",
"t 	c #727272",
"u 	c #E0E0E0",
"v 	c #8998A7",
"w 	c #C7C7C7",
"x 	c #626262",
"y 	c #C3C3C3",
"z 	c #EEEEEE",
"A 	c #F2F2F2",
"B 	c #F3F3F3",
"C 	c #999999",
"D 	c #E4E4E4",
"E 	c #A5AFBA",
"F 	c #CECECE",
"G 	c #686868",
"H 	c #C2C2C2",
"I 	c #F5F5F5",
"J 	c #F9F9F9",
"K 	c #DCDCDC",
"L 	c #DFDFDF",
"M 	c #F7F7F7",
"N 	c #E6E6E6",
"O 	c #777777",
"P 	c #E8E8E8",
"Q 	c #C3C9CF",
"R 	c #858585",
"S 	c #ECECEC",
"T 	c #FBFBFB",
"U 	c #EDEDED",
"V 	c #353535",
"W 	c #EBEBEB",
"X 	c #9AA7B4",
"Y 	c #A3A3A3",
"Z 	c #969696",
"` 	c #F6F6F6",
" .	c #414141",
"..	c #8B8B8B",
"+.	c #F0F0F0",
"@.	c #B3B3B3",
"#.	c #EFEFEF",
"$.	c #EAEAEA",
"%.	c #424242",
"&.	c #080808",
"*.	c #0C0C0C",
"=.	c #070707",
"-.	c #888888",
";.	c #747474",
">.	c #3D3D3D",
",.	c #454545",
"'.	c #DEDEDE",
").	c #656565",
"!.	c #B0B0B0",
"~.	c #323232",
"{.	c #060606",
"].	c #E9E9E9",
"^.	c #D8D8D8",
"/.	c #585858",
"(.	c #1C1C1C",
"                                  ",
". + @ @ @ @ @ @ @ @ @ @ @ @ # $   ",
"% & * = - - = = = = ; ; ; > , $   ",
"  ' ) ! ~ { ] ^ ^ ) / ( _ : < $   ",
"  [ } | 1 2 3 4 4 5 6 7 7 8 9 $   ",
"  0 5 ^ a b c _ d c e f g h i $   ",
"  0 j 8 k l m n o p ~ q r s t $   ",
"  0 j u v w s x y z A B A k C ,   ",
"  0 l D E F G H I J K L M B N O   ",
"  b P m Q 9 R S M T 1 3 M B U w V ",
"  b W W X Y Z A M T H | ` A S D  .",
"  ..8 8 k r q +.I J @._ B #.$.l %.",
"  &.*.*.*.=.-.S +.B l ;.Y N P K >.",
"            ,.u U #.#.'.)./ l !.~.",
"          $ {.d k $.$.].^.3 1 /.  ",
"              (.O w D l K !./.    ",
"                  V  .%.>.~.      "};
