/* XPM */
static char * error_xpm[] = {
"24 24 230 2",
"  	c None",
". 	c #D5D5D5",
"+ 	c #D5D4D4",
"@ 	c #D3CECE",
"# 	c #D0C6C6",
"$ 	c #CAB2B2",
"% 	c #C19191",
"& 	c #BE8A8A",
"* 	c #BF8D8D",
"= 	c #C7A8A8",
"- 	c #CFC2C2",
"; 	c #D2CDCD",
"> 	c #D4D3D3",
", 	c #D5D6D5",
"' 	c #D4D4D3",
") 	c #D0C6C5",
"! 	c #C49796",
"~ 	c #BA6766",
"{ 	c #BE4646",
"] 	c #C71B1B",
"^ 	c #C91111",
"/ 	c #C91515",
"( 	c #C13A39",
"_ 	c #BB6060",
": 	c #C08887",
"< 	c #CDBCBB",
"[ 	c #D4D2D1",
"} 	c #D5D5D4",
"| 	c #D3CECD",
"1 	c #CCB7B6",
"2 	c #C68888",
"3 	c #C93535",
"4 	c #DA0C0C",
"5 	c #E60605",
"6 	c #F60101",
"7 	c #FA0000",
"8 	c #F80000",
"9 	c #EB0404",
"0 	c #DC0A0A",
"a 	c #CD2525",
"b 	c #C57271",
"c 	c #CAACAB",
"d 	c #D1CAC9",
"e 	c #C89E9D",
"f 	c #C04C4B",
"g 	c #CC1817",
"h 	c #F00404",
"i 	c #FD0000",
"j 	c #FE0000",
"k 	c #FF0000",
"l 	c #F50202",
"m 	c #D6100F",
"n 	c #C23938",
"o 	c #C58A89",
"p 	c #CFC4C3",
"q 	c #D4D5D4",
"r 	c #C04B4B",
"s 	c #E20C0C",
"t 	c #F70101",
"u 	c #FE0101",
"v 	c #FF0202",
"w 	c #FF0101",
"x 	c #E90707",
"y 	c #C73535",
"z 	c #C09393",
"A 	c #D0CDCC",
"B 	c #C68988",
"C 	c #FF1010",
"D 	c #FF2424",
"E 	c #FF1717",
"F 	c #FF0303",
"G 	c #FF0F0F",
"H 	c #FF1616",
"I 	c #FF0404",
"J 	c #FA0101",
"K 	c #D60B0B",
"L 	c #B05050",
"M 	c #BFADAC",
"N 	c #D1D1D0",
"O 	c #D3CFCE",
"P 	c #FF4F4F",
"Q 	c #FF9191",
"R 	c #FF6B6B",
"S 	c #FF1F1F",
"T 	c #FF1313",
"U 	c #FF5151",
"V 	c #FF9292",
"W 	c #FF6767",
"X 	c #FF1D1D",
"Y 	c #FE0303",
"Z 	c #F40101",
"` 	c #CB1212",
" .	c #AA6868",
"..	c #C6BEBE",
"+.	c #D3D4D3",
"@.	c #D0C7C6",
"#.	c #FFE4E4",
"$.	c #FFCACA",
"%.	c #FF1E1E",
"&.	c #FF0505",
"*.	c #FF1414",
"=.	c #FF5252",
"-.	c #FFB2B2",
";.	c #FFAEAE",
">.	c #FF3E3E",
",.	c #FF0707",
"'.	c #EB0101",
").	c #A73635",
"!.	c #AE9C9C",
"~.	c #CBCCCB",
"{.	c #BE4746",
"].	c #FFECEC",
"^.	c #FFC5C5",
"/.	c #FF6C6C",
"(.	c #FF3232",
"_.	c #FF5656",
":.	c #FFB0B0",
"<.	c #FFE8E8",
"[.	c #FFD8D8",
"}.	c #FF8686",
"|.	c #FF2A2A",
"1.	c #B21C1C",
"2.	c #976E6D",
"3.	c #BDBBBA",
"4.	c #FFCDCD",
"5.	c #FFA2A2",
"6.	c #FFBFBF",
"7.	c #FFEBEB",
"8.	c #FFD9D9",
"9.	c #FF8585",
"0.	c #FF2D2D",
"a.	c #FC0000",
"b.	c #D00909",
"c.	c #954949",
"d.	c #B7B1B0",
"e.	c #FFF6F6",
"f.	c #FFF5F5",
"g.	c #FFDEDE",
"h.	c #FF8B8B",
"i.	c #FF2E2E",
"j.	c #FF0606",
"k.	c #D70505",
"l.	c #964443",
"m.	c #B6B0AF",
"n.	c #FFFFFF",
"o.	c #FFF9F9",
"p.	c #FF0C0C",
"q.	c #FFF8F8",
"r.	c #FFD4D4",
"s.	c #FF7575",
"t.	c #FF2121",
"u.	c #C81515",
"v.	c #FFC0C0",
"w.	c #FFEFEF",
"x.	c #FFC9C9",
"y.	c #D40707",
"z.	c #964645",
"A.	c #C03A39",
"B.	c #FF7676",
"C.	c #FF6A6A",
"D.	c #F60000",
"E.	c #B91515",
"F.	c #905C5C",
"G.	c #B6B3B2",
"H.	c #BA6060",
"I.	c #FFE7E7",
"J.	c #FF3F3F",
"K.	c #ED0101",
"L.	c #9F2626",
"M.	c #897272",
"N.	c #B6B6B5",
"O.	c #CD2625",
"P.	c #FF8080",
"Q.	c #FF2929",
"R.	c #FE0404",
"S.	c #F80101",
"T.	c #D40A0A",
"U.	c #914141",
"V.	c #877C7C",
"W.	c #B6B7B6",
"X.	c #FF0808",
"Y.	c #FC0101",
"Z.	c #DE0505",
"`.	c #A62E2E",
" +	c #866868",
".+	c #8B8888",
"++	c #BABBBA",
"@+	c #C23838",
"#+	c #EE0202",
"$+	c #BC1717",
"%+	c #8D5353",
"&+	c #8A8383",
"*+	c #A8A8A7",
"=+	c #C9CAC9",
"-+	c #DD0505",
";+	c #964545",
">+	c #847171",
",+	c #999897",
"'+	c #C4C4C3",
")+	c #8C8989",
"!+	c #B4B5B4",
"~+	c #D0D1D0",
"{+	c #BFACAB",
"]+	c #AA6867",
"^+	c #A63635",
"/+	c #898383",
"(+	c #989797",
"_+	c #B4B4B4",
":+	c #CECFCE",
"<+	c #C6BEBD",
"[+	c #966E6D",
"}+	c #934848",
"|+	c #923E3E",
"1+	c #903C3C",
"2+	c #8F3F3F",
"3+	c #885555",
"4+	c #846C6C",
"5+	c #867A7A",
"6+	c #A7A8A7",
"7+	c #C3C4C3",
"8+	c #CBCBCA",
"9+	c #BCBAB9",
"0+	c #ADA6A5",
"a+	c #938B8A",
"b+	c #827979",
"c+	c #807878",
"d+	c #817C7C",
"e+	c #8D8D8C",
"f+	c #A9A9A8",
"g+	c #B8B9B8",
". . . . . + @ # $ % & & & * = - ; > . . . . . . ",
". , , , ' ) ! ~ { ] ^ ^ ^ / ( _ : < [ , , , , , ",
". , } | 1 2 3 4 5 6 7 7 7 8 9 0 a b c d ' , , , ",
". , | e f g h i j k k k k k k j l m n o p q , , ",
". ' 1 r s t u v w k k k k k w v u 7 x y z A , , ",
"+ ) B g t v C D E F k k k w G D H I J K L M N , ",
"O ! 3 h u C P Q R S I k v T U V W X Y Z `  ...+.",
"@.~ 4 i v D Q #.$.R %.&.*.=.-.#.;.>.,.j '.).!.~.",
"$ {.5 j w E R $.].^./.(._.:.<.[.}.|.I k Z 1.2.3.",
"% ] 6 k k F S R ^.].4.5.6.7.8.9.0.,.k k a.b.c.d.",
"& ^ 7 k k k I %./.4.e.f.e.g.h.i.j.k k k j k.l.m.",
"& ^ 7 k k k k &.(.5.f.n.o.6.P p.k k k k j k.l.m.",
"& ^ 7 k k k v *._.6.e.o.q.r.s.t.I k k k j k.l.m.",
"* u.8 k k w T =.:.7.g.v.r.w.x.R %.I k k i y.z.m.",
"= A.9 k w G U -.<.8.h.P B.x.].^.C.X F k D.E.F.G.",
"- H.0 j v D V #.[.9.i.p.t.R ^.I.;.J.,.j K.L.M.N.",
"; : O.l u H W ;.}.0.j.k I %.C.;.P.Q.R.S.T.U.V.W.",
"> < b m 7 I X >.|.,.k k k I X J.Q.X.Y.Z.`. +.+++",
". [ c @+x J Y ,.I k k k k k F ,.R.Y.#+$+%+&+*+=+",
". , d o y K Z j k k k k k k k j S.-+$+;+>+,+'++.",
". , ' p z L ` '.Z a.j j j i D.K.T.`.%+>+)+!+~+, ",
". , , q A {+]+^+1.b.k.k.k.y.E.L.U. +/+(+_+:+q , ",
". , , , , N <+!.[+}+|+1+1+2+3+4+5+.+6+7+~+q , , ",
". , , , , , +.8+9+0+a+b+c+c+d+e+f+g+=++., , , , "};
