/* XPM */
static char * letter_xpm[] = {
"24 24 380 2",
"  	c None",
". 	c #101010",
"+ 	c #1B1B1B",
"@ 	c #2A2A2A",
"# 	c #070707",
"$ 	c #0D1418",
"% 	c #303030",
"& 	c #2C3F4B",
"* 	c #2D414E",
"= 	c #2F2F2F",
"- 	c #000000",
"; 	c #1E1E1E",
"> 	c #121212",
", 	c #2C2C2C",
"' 	c #BEBEBE",
") 	c #636363",
"! 	c #000101",
"~ 	c #35454E",
"{ 	c #ADB2B5",
"] 	c #404040",
"^ 	c #111314",
"/ 	c #697982",
"( 	c #4B606D",
"_ 	c #263844",
": 	c #4D5051",
"< 	c #D0D0D0",
"[ 	c #515151",
"} 	c #666666",
"| 	c #BFBFBF",
"1 	c #333333",
"2 	c #171717",
"3 	c #5D5D5D",
"4 	c #A8A8A8",
"5 	c #D2D2D2",
"6 	c #E2E2E2",
"7 	c #DEDEDE",
"8 	c #CACBCB",
"9 	c #C5CACD",
"0 	c #87959E",
"a 	c #CCCDCE",
"b 	c #CFCFCF",
"c 	c #B9C1C6",
"d 	c #617682",
"e 	c #61737F",
"f 	c #B5BBBF",
"g 	c #E8E8E8",
"h 	c #DDDDDD",
"i 	c #CCCCCC",
"j 	c #E6E6E6",
"k 	c #EDEDED",
"l 	c #D5D5D5",
"m 	c #A3A3A3",
"n 	c #D1D1D1",
"o 	c #D8D8D8",
"p 	c #D9D9D9",
"q 	c #DADADA",
"r 	c #DBDBDB",
"s 	c #95A0A7",
"t 	c #B0B7BC",
"u 	c #DDDEDE",
"v 	c #C5C9CB",
"w 	c #73848F",
"x 	c #627682",
"y 	c #A5AEB4",
"z 	c #E3E3E3",
"A 	c #E4E4E4",
"B 	c #E5E5E5",
"C 	c #E7E7E7",
"D 	c #C3C3C3",
"E 	c #414141",
"F 	c #2B2B2B",
"G 	c #C0C0C0",
"H 	c #DCDCDC",
"I 	c #B7BDC1",
"J 	c #96A1A8",
"K 	c #D9DADA",
"L 	c #D3D5D6",
"M 	c #808F99",
"N 	c #5F7480",
"O 	c #9DA8AF",
"P 	c #BBBBBB",
"Q 	c #252525",
"R 	c #080808",
"S 	c #737373",
"T 	c #2D2D2E",
"U 	c #2F3032",
"V 	c #303232",
"W 	c #30363A",
"X 	c #323F46",
"Y 	c #333536",
"Z 	c #313334",
"` 	c #314049",
" .	c #334754",
"..	c #354046",
"+.	c #343535",
"@.	c #393939",
"#.	c #3A3A39",
"$.	c #353535",
"%.	c #E9E9E9",
"&.	c #CDCDCD",
"*.	c #5F5F5F",
"=.	c #C6C6C6",
"-.	c #2F3031",
";.	c #676A6C",
">.	c #6B6E70",
",.	c #546067",
"'.	c #596166",
").	c #717171",
"!.	c #6A6F70",
"~.	c #475861",
"{.	c #445863",
"].	c #60696C",
"^.	c #73726F",
"/.	c #868680",
"(.	c #868580",
"_.	c #3E3E3C",
":.	c #AFAFAF",
"<.	c #606060",
"[.	c #323231",
"}.	c #74726F",
"|.	c #727373",
"1.	c #515F67",
"2.	c #706F6C",
"3.	c #757069",
"4.	c #717371",
"5.	c #465862",
"6.	c #475862",
"7.	c #6E726E",
"8.	c #918E80",
"9.	c #868076",
"0.	c #3D3C39",
"a.	c #EAEAEA",
"b.	c #30414B",
"c.	c #667781",
"d.	c #768691",
"e.	c #758590",
"f.	c #35444E",
"g.	c #566267",
"h.	c #4F5E66",
"i.	c #6B6F6D",
"j.	c #847D73",
"k.	c #897F72",
"l.	c #555D60",
"m.	c #455760",
"n.	c #5B686C",
"o.	c #999182",
"p.	c #9A8E7C",
"q.	c #948876",
"r.	c #8D806E",
"s.	c #403C37",
"t.	c #EBEBEB",
"u.	c #BDBDBD",
"v.	c #353C40",
"w.	c #B4B9BD",
"x.	c #BEC3C6",
"y.	c #B6BCC0",
"z.	c #343D42",
"A.	c #536064",
"B.	c #5E6768",
"C.	c #686E6B",
"D.	c #686E6C",
"E.	c #747670",
"F.	c #4E5C61",
"G.	c #4A5A60",
"H.	c #777B74",
"I.	c #B6A386",
"J.	c #96836A",
"K.	c #A29176",
"L.	c #A79479",
"M.	c #49443C",
"N.	c #ECECEC",
"O.	c #C1C1C1",
"P.	c #707070",
"Q.	c #3B3B3B",
"R.	c #0A0D0E",
"S.	c #C2C4C5",
"T.	c #CED1D2",
"U.	c #A8B0B6",
"V.	c #404A4E",
"W.	c #8B7D66",
"X.	c #AA906D",
"Y.	c #A89170",
"Z.	c #827C6C",
"`.	c #5D6766",
" +	c #546163",
".+	c #4E5C5E",
"++	c #A69677",
"@+	c #B69970",
"#+	c #A48A64",
"$+	c #CDB181",
"%+	c #D6BC89",
"&+	c #564E41",
"*+	c #BABABA",
"=+	c #2D2D2D",
"-+	c #1F2426",
";+	c #7C878E",
">+	c #89979F",
",+	c #86959D",
"'+	c #A1ABB1",
")+	c #453B2E",
"!+	c #C3955B",
"~+	c #CA9C61",
"{+	c #BD9964",
"]+	c #857B65",
"^+	c #5F6762",
"/+	c #616862",
"(+	c #686A5D",
"_+	c #767364",
":+	c #97825F",
"<+	c #CBA76B",
"[+	c #E5B870",
"}+	c #E6BB71",
"|+	c #5A4F3A",
"1+	c #EEEEEE",
"2+	c #9A9A9A",
"3+	c #161616",
"4+	c #191919",
"5+	c #919495",
"6+	c #ABB4BA",
"7+	c #A8B1B6",
"8+	c #C0C5C8",
"9+	c #4C3925",
"0+	c #DA9547",
"a+	c #C48F50",
"b+	c #7C725A",
"c+	c #64665C",
"d+	c #62655C",
"e+	c #867B5A",
"f+	c #B58E4E",
"g+	c #826D4B",
"h+	c #7C7559",
"i+	c #948760",
"j+	c #B08C53",
"k+	c #E0AD52",
"l+	c #5D4F33",
"m+	c #EFEFEF",
"n+	c #DFDFDF",
"o+	c #959595",
"p+	c #171818",
"q+	c #2B3B45",
"r+	c #6A7B86",
"s+	c #70828D",
"t+	c #6E808B",
"u+	c #374248",
"v+	c #5E5448",
"w+	c #58554F",
"x+	c #4F5251",
"y+	c #4D5251",
"z+	c #535047",
"A+	c #876033",
"B+	c #8A602C",
"C+	c #593E1C",
"D+	c #6B5832",
"E+	c #5E5642",
"F+	c #584F43",
"G+	c #5E5948",
"H+	c #3F4644",
"I+	c #CBD0D3",
"J+	c #D8DBDD",
"K+	c #A7AAAD",
"L+	c #5C6063",
"M+	c #31404A",
"N+	c #72818B",
"O+	c #778792",
"P+	c #2B3C49",
"Q+	c #2D3E49",
"R+	c #2A3842",
"S+	c #191616",
"T+	c #160C08",
"U+	c #150D09",
"V+	c #090605",
"W+	c #0B0605",
"X+	c #15100F",
"Y+	c #191A1C",
"Z+	c #1F2529",
"`+	c #2B373F",
" @	c #8796A0",
".@	c #72838D",
"+@	c #3C4C56",
"@@	c #5A6E7B",
"#@	c #5F7481",
"$@	c #5F7380",
"%@	c #516672",
"&@	c #516572",
"*@	c #6D7D87",
"=@	c #98A2A8",
"-@	c #667680",
";@	c #4C5B65",
">@	c #747D82",
",@	c #ADADAD",
"'@	c #AEAEAE",
")@	c #B0B0B0",
"!@	c #B1B1B1",
"~@	c #B4B6B8",
"{@	c #BABDBF",
"]@	c #DCDFE1",
"^@	c #DDE0E2",
"/@	c #D6DADD",
"(@	c #BCC1C4",
"_@	c #34393B",
":@	c #192730",
"<@	c #3C4B54",
"[@	c #7F8E97",
"}@	c #86949E",
"|@	c #939FA7",
"1@	c #ADB6BA",
"2@	c #D1D4D6",
"3@	c #BBC2C7",
"4@	c #70808A",
"5@	c #3A4C58",
"6@	c #9AA0A4",
"7@	c #B0B2B4",
"8@	c #565656",
"9@	c #A2A2A2",
"0@	c #F2F2F2",
"a@	c #F3F3F3",
"b@	c #545454",
"c@	c #C8C8C8",
"d@	c #C9CBCC",
"e@	c #858F95",
"f@	c #4D5C66",
"g@	c #47555F",
"h@	c #818B92",
"i@	c #4B4F53",
"j@	c #9D9D9D",
"k@	c #868686",
"l@	c #A7A7A7",
"m@	c #767676",
"n@	c #7F7F80",
"o@	c #9A9D9F",
"p@	c #6E7B84",
"q@	c #5C6D77",
"r@	c #43545F",
"s@	c #4F5D66",
"t@	c #9CA4AA",
"u@	c #E6E8E9",
"v@	c #E8E9EA",
"w@	c #D0D2D3",
"x@	c #696B6C",
"y@	c #06080A",
"z@	c #B7B7B7",
"A@	c #575757",
"B@	c #E1E1E1",
"C@	c #82878A",
"D@	c #95A1A9",
"E@	c #81909A",
"F@	c #5F6F79",
"G@	c #7B8C96",
"H@	c #7F8F99",
"I@	c #7C8C97",
"J@	c #2A3A45",
"K@	c #3D3D3D",
"L@	c #D6D6D6",
"M@	c #F0F0F0",
"N@	c #F1F1F1",
"O@	c #ECEDED",
"P@	c #D8DCDE",
"Q@	c #D8DCDF",
"R@	c #D9DDDF",
"S@	c #DADEE0",
"T@	c #ACB0B3",
"U@	c #2A3034",
"V@	c #E0E0E0",
"W@	c #B4B4B4",
"X@	c #C5C5C5",
"Y@	c #D3D3D3",
"Z@	c #B9B9B9",
"`@	c #C7C7C7",
" #	c #5E5E5E",
".#	c #ACACAC",
"+#	c #3E3E3E",
"@#	c #111111",
"##	c #949494",
"$#	c #484848",
"%#	c #585858",
"&#	c #757575",
"*#	c #1F1F1F",
"=#	c #262626",
"-#	c #292929",
";#	c #131313",
". +     @ #   $ %     & *     = -   # @     ; > ",
"+ , - % ' ) ! ~ { ] ^ / ( _ : < [ - } | 1 2 3 ; ",
"  - 4 5 6 7 8 9 0 a b c d e f g h i j k l m 2   ",
"  ] n o p q q r s t u v w x y 6 z A B j C D E   ",
"F G h p p r r H I J K L M N O z A B j C C g P Q ",
"R S 7 q r T U V W X Y Z `  ...+.@.#.$.g %.&.*.# ",
"  - =.r r -.;.>.,.'.).!.~.{.].^./.(._.%.%.:.-   ",
"- <.7 r H [.}.|.1.2.3.4.5.6.7.8.8.9.0.%.a.o <.- ",
"b.c.d.e.e.f.g.h.i.j.k.l.m.n.o.p.q.r.s.t.t.7 u., ",
"  v.w.x.y.z.A.B.C.D.E.F.G.H.I.J.K.L.M.t.N.O.P.Q.",
"  R.S.T.U.V.W.X.Y.Z.`. +.+++@+#+$+%+&+N.k *+=+  ",
"-+;+>+,+'+)+!+~+{+]+^+/+(+_+:+<+[+}+|+k 1+t.2+3+",
"4+5+6+7+8+9+0+a+b+c+d+e+f+g+h+i+j+k+l+1+m+n+o+p+",
"  q+r+s+t+u+v+w+x+y+z+A+B+C+D+E+F+G+H+I+J+K+L+  ",
"  M+N+O+t+* P+Q+Q+R+S+T+U+V+W+X+Y+Z+`+ @ @.@+@  ",
" .@@#@$@$@%@&@*@=@-@;@>@,@'@:.)@!@~@{@]@^@/@(@_@",
":@<@[@}@|@1@2@j g %.3@4@5@6@7@8@9@%.| 0@a@b b@- ",
"  - c@B B C C g %.a.t.d@e@f@g@h@i@j@k@a@a@l@-   ",
"R m@B B j C g %.a.t.N.q n@o@p@q@r@s@t@u@v@w@x@y@",
", D g C C g %.a.t.N.N.z@A@S B@C@D@E@F@G@H@I@F@J@",
"  K@L@C g %.a.t.N.N.k 1+m+M@N@0@O@P@Q@R@S@T@U@  ",
"  2 4 ' V@b W@q g X@*+%.6 z@b N@Y@Z@j A `@o+4+  ",
";  #2 $..#P.- <.D +#@#####. $#=.%#- &#P K@4+) *#",
"> ;     =##   - ,     3+3+    F -   # -#    *#;#"};
