/* XPM */
static char * request_xpm[] = {
"24 24 206 2",
"  	c None",
". 	c #000000",
"+ 	c #414141",
"@ 	c #C6C6C5",
"# 	c #BEBFB9",
"$ 	c #BEBEB4",
"% 	c #BDBEAE",
"& 	c #BCBDA8",
"* 	c #BABCA2",
"= 	c #BCBEA2",
"- 	c #BABCA1",
"; 	c #1E1E1A",
"> 	c #9B9B9B",
", 	c #8E8E8E",
"' 	c #272725",
") 	c #3A3A37",
"! 	c #373732",
"~ 	c #383831",
"{ 	c #3B3B33",
"] 	c #34352E",
"^ 	c #747663",
"/ 	c #1C1C18",
"( 	c #272727",
"_ 	c #111111",
": 	c #9C9C96",
"< 	c #666661",
"[ 	c #09090B",
"} 	c #626263",
"| 	c #BBBBBB",
"1 	c #FFFFFF",
"2 	c #848484",
"3 	c #9C9D92",
"4 	c #686961",
"5 	c #040404",
"6 	c #1A1A1A",
"7 	c #6D6D6C",
"8 	c #C2C2C2",
"9 	c #F6F6F5",
"0 	c #FCFCFC",
"a 	c #D3D3D3",
"b 	c #9C9D8D",
"c 	c #65655A",
"d 	c #4D4D4C",
"e 	c #A8A8A8",
"f 	c #C3C3C3",
"g 	c #545456",
"h 	c #6D6D6E",
"i 	c #EEEEEE",
"j 	c #F3F3F3",
"k 	c #EAEAEA",
"l 	c #F8F8F8",
"m 	c #3F3F3F",
"n 	c #030403",
"o 	c #9D9F8B",
"p 	c #565749",
"q 	c #39383B",
"r 	c #373738",
"s 	c #1A1B14",
"t 	c #0B0B07",
"u 	c #5C5C5D",
"v 	c #C4C4C4",
"w 	c #B5B5B5",
"x 	c #929292",
"y 	c #010101",
"z 	c #313131",
"A 	c #898988",
"B 	c #060609",
"C 	c #969882",
"D 	c #575849",
"E 	c #3C3C3F",
"F 	c #DFDFDF",
"G 	c #08080A",
"H 	c #9E9E8D",
"I 	c #5E5E53",
"J 	c #29292B",
"K 	c #D2D2D2",
"L 	c #F9F9F9",
"M 	c #DEDEDE",
"N 	c #0B0B0B",
"O 	c #323232",
"P 	c #CCCCCC",
"Q 	c #F6F6F6",
"R 	c #0E0E11",
"S 	c #94967F",
"T 	c #5A5B4C",
"U 	c #2E2E31",
"V 	c #CCCCCB",
"W 	c #A9AAA9",
"X 	c #020205",
"Y 	c #989A84",
"Z 	c #525445",
"` 	c #424144",
" .	c #EDEDED",
"..	c #FAFAFA",
"+.	c #4C4C4C",
"@.	c #EBEBEB",
"#.	c #E6E6E6",
"$.	c #09090C",
"%.	c #959780",
"&.	c #5C5D4F",
"*.	c #222225",
"=.	c #D1D1D1",
"-.	c #0A0A0D",
";.	c #979983",
">.	c #555648",
",.	c #38383B",
"'.	c #E0E0DF",
").	c #B1B1B1",
"!.	c #B7B7B7",
"~.	c #F4F4F4",
"{.	c #A1A1A1",
"].	c #020202",
"^.	c #CBCBCB",
"/.	c #F7F7F7",
"(.	c #E7E7E6",
"_.	c #08080B",
":.	c #959680",
"<.	c #58594A",
"[.	c #3E3D40",
"}.	c #0E0D10",
"|.	c #979982",
"1.	c #58594B",
"2.	c #272729",
"3.	c #C1C1C1",
"4.	c #C7C7C7",
"5.	c #FBFBFB",
"6.	c #E9E9E9",
"7.	c #131313",
"8.	c #808080",
"9.	c #EBEBEA",
"0.	c #989985",
"a.	c #5E5F51",
"b.	c #232325",
"c.	c #E4E4E3",
"d.	c #BDBDBC",
"e.	c #9B9D87",
"f.	c #58584B",
"g.	c #3B3A3D",
"h.	c #FDFDFD",
"i.	c #ECECEC",
"j.	c #5A5A5A",
"k.	c #F1F1F1",
"l.	c #28282A",
"m.	c #535446",
"n.	c #CED0B3",
"o.	c #515150",
"p.	c #464646",
"q.	c #020200",
"r.	c #D8DABD",
"s.	c #2F2F26",
"t.	c #565557",
"u.	c #FBFBFA",
"v.	c #C8C8C8",
"w.	c #AFAFAF",
"x.	c #BEBEBE",
"y.	c #989984",
"z.	c #B5B79D",
"A.	c #C5C8AB",
"B.	c #868774",
"C.	c #8D8D8C",
"D.	c #B6B6B6",
"E.	c #D0D0D0",
"F.	c #1E1E1E",
"G.	c #727272",
"H.	c #8A8A8A",
"I.	c #B6B79E",
"J.	c #9FA18B",
"K.	c #B2B39A",
"L.	c #A0A18B",
"M.	c #777776",
"N.	c #D6D6D6",
"O.	c #E1E1E1",
"P.	c #FEFEFE",
"Q.	c #444444",
"R.	c #252525",
"S.	c #81826F",
"T.	c #838383",
"U.	c #828282",
"V.	c #2C2C2C",
"W.	c #040306",
"X.	c #868686",
"Y.	c #E4E4E4",
"Z.	c #8C8C8C",
"`.	c #2D2D2D",
" +	c #646464",
".+	c #F3F3F2",
"++	c #E8E8E8",
"@+	c #373737",
"#+	c #090909",
"$+	c #1B1B1B",
"%+	c #F0F0F0",
"&+	c #F5F5F5",
"*+	c #AAAAAA",
"=+	c #565656",
"-+	c #101010",
";+	c #3D3D3D",
">+	c #ACACAC",
",+	c #B9B9B9",
"'+	c #575757",
")+	c #080808",
"!+	c #393939",
"~+	c #737374",
"{+	c #1A1A1B",
"]+	c #060606",
"^+	c #1B1B16",
"/+	c #0E0F0A",
"                                                ",
"            . . . . . . . . . .                 ",
"          . + @ # $ % & * = - ; .               ",
"          . > , ' ) ! ~ { ] ^ / . ( _ .         ",
"          . : < .   . . . . [ } | 1 2 .         ",
"          . 3 4 . 5 . 6 7 8 9 1 0 1 a 5         ",
"          . b c . d e f g h i j k l 1 m .       ",
"      . n . o p q 1 1 r s t u v w j 1 x .       ",
"  . y z A B C D E 1 F G H I J K F L 1 M N       ",
". O P Q 1 R S T U V W X Y Z ` 1 Q  ...1 +..     ",
". m 1 @.#.$.%.&.*.@ =.-.;.>.,.'.).!.~.1 {..     ",
"  ].^./.(._.:.<.[.1 ~.}.|.1.2.3.4.#.5.1 6.7.    ",
"  . 8.1 9.R 0.a.b.c.d.. e.f.g.1 h.L i.5.1 j..   ",
"  . z k.9 l.m.n.. o.p.q.r.s.t.u.v.w !.Q 1 w..   ",
"    . x.1 e . y.z.. . A.B.. C.D.D.E.k ..h.j F.  ",
"    . G.h.0 H.. I.J.K.L.. M.N.O./.P.1 P.h.1 Q.. ",
"    . R.i i h.j.. S S.. T.1 /.h.P.P.1 N.U.V..   ",
"      . D.0 @.3.u X W.X.1 0 P.1 Y.Z.`.5 . .     ",
"      .  +1 i i.0 9..+1 1 ++> @+. #+z           ",
"        $+++%+&+h.1 j *+=+-+. ;+                ",
"        . >+1 k.,+'+)+. ].                      ",
"        . !+~+{+. F.                            ",
"          ]+^+/+                                ",
"                                                "};
