/* XPM */
static char * revert_xpm[] = {
"24 24 117 2",
"  	c None",
". 	c #010100",
"+ 	c #000000",
"@ 	c #010000",
"# 	c #604700",
"$ 	c #8B6900",
"% 	c #C59900",
"& 	c #020200",
"* 	c #896800",
"= 	c #FABA00",
"- 	c #C49600",
"; 	c #876600",
"> 	c #FCBC00",
", 	c #FCB800",
"' 	c #C29400",
") 	c #020100",
"! 	c #836300",
"~ 	c #FEBA00",
"{ 	c #C09300",
"] 	c #030200",
"^ 	c #806100",
"/ 	c #FCBB00",
"( 	c #FFBA00",
"_ 	c #F3B400",
": 	c #CF9D00",
"< 	c #D09E00",
"[ 	c #C69700",
"} 	c #977100",
"| 	c #342600",
"1 	c #7D5E00",
"2 	c #FDB800",
"3 	c #FEB900",
"4 	c #7A5C00",
"5 	c #FDBC00",
"6 	c #FDBD00",
"7 	c #523D00",
"8 	c #3C2C00",
"9 	c #FBBE01",
"0 	c #E5AC12",
"a 	c #E4AC12",
"b 	c #E8AE10",
"c 	c #FAB803",
"d 	c #CB9B00",
"e 	c #7C5E00",
"f 	c #F2B608",
"g 	c #D3A320",
"h 	c #D2A321",
"i 	c #D2A221",
"j 	c #D1A221",
"k 	c #D4A41F",
"l 	c #F6B606",
"m 	c #FCBA00",
"n 	c #181200",
"o 	c #F7B905",
"p 	c #DEA918",
"q 	c #DCA81A",
"r 	c #E7AD12",
"s 	c #E6AC12",
"t 	c #E6AD12",
"u 	c #E0AA16",
"v 	c #FDBE00",
"w 	c #362800",
"x 	c #F9BA03",
"y 	c #E8AE11",
"z 	c #E6AE13",
"A 	c #E6AE12",
"B 	c #F3B401",
"C 	c #D19F00",
"D 	c #D3A000",
"E 	c #E4AB00",
"F 	c #FEBD00",
"G 	c #F5B507",
"H 	c #E6AD14",
"I 	c #FCB802",
"J 	c #FCBE00",
"K 	c #402F00",
"L 	c #030300",
"M 	c #FBBB01",
"N 	c #F2B30A",
"O 	c #EEB10B",
"P 	c #BE9001",
"Q 	c #5A4200",
"R 	c #F2B409",
"S 	c #FDB901",
"T 	c #F8B603",
"U 	c #BE9100",
"V 	c #C49500",
"W 	c #FBB801",
"X 	c #BE9000",
"Y 	c #B78C00",
"Z 	c #7B5C00",
"` 	c #BD9300",
" .	c #332500",
"..	c #493500",
"+.	c #090700",
"@.	c #DEA600",
"#.	c #F5B500",
"$.	c #0C0900",
"%.	c #140E00",
"&.	c #211800",
"*.	c #BA8B00",
"=.	c #FDB900",
"-.	c #A17B00",
";.	c #130E00",
">.	c #A07700",
",.	c #F6B700",
"'.	c #FBB800",
").	c #FDBA00",
"!.	c #DDA800",
"~.	c #191200",
"{.	c #B18900",
"].	c #BF9100",
"^.	c #BA8E00",
"/.	c #876400",
"(.	c #1A1300",
"_.	c #100C00",
":.	c #221900",
"                                                ",
"                      . +                       ",
"                    @ # .                       ",
"                  . $ % &                       ",
"                . * = - &                       ",
"              . ; > , ' &                       ",
"            ) ! > ~ , { ] ) ) ) . )             ",
"          ) ^ / ~ ( ~ _ : < < [ } | .           ",
"        & 1 > ~ ( ( ( ~ 2 2 2 , 3 > 1 .         ",
"      . 4 5 ~ ~ ~ ~ ~ ~ ~ ~ ~ 3 3 ~ 6 7 .       ",
"    . 8 9 0 a a a a a a a a a b c ~ 2 d .       ",
"      . e f g h i i i i i i i j k l 3 m n       ",
"        & e o p q q q r s s t s q u ~ v w ]     ",
"          & e x y z A B C D E F G H I J K L     ",
"            & e M N O P ] ) & Q m R S J K L     ",
"              & e / T U &     & V W 3 J K L     ",
"                & e = X &     ) Y , ( J K L     ",
"                  ] Z ` &     ) Y , ~ v  .]     ",
"                    . ...   ) +.@.3 3 #.$.      ",
"                      %.. . &.*.~ ~ =.-..       ",
"                        ;.>.,.'., ).!.~..       ",
"                        n {.U ].^./.%..         ",
"                        (.+ + + + _.:.          ",
"                                                "};
