/* XPM */
static char * journal_xpm[] = {
"36 36 800 2",
"  	c None",
". 	c #FFFFFF",
"+ 	c #FFFFFE",
"@ 	c #FFFEFF",
"# 	c #82807F",
"$ 	c #8D8A8A",
"% 	c #D6D5D4",
"& 	c #FEFEFE",
"* 	c #FFFEFE",
"= 	c #797774",
"- 	c #4E4945",
"; 	c #625B57",
"> 	c #423E3D",
", 	c #6F6D6C",
"' 	c #FCFAF8",
") 	c #FFFFFD",
"! 	c #EFEFEE",
"~ 	c #746F6C",
"{ 	c #5E544F",
"] 	c #837770",
"^ 	c #62554C",
"/ 	c #83756D",
"( 	c #6A5F56",
"_ 	c #2C241F",
": 	c #9B9694",
"< 	c #DFDEDC",
"[ 	c #FEFEFC",
"} 	c #FFFFFC",
"| 	c #686562",
"1 	c #453B36",
"2 	c #8E7F77",
"3 	c #635449",
"4 	c #5E4E44",
"5 	c #8A7970",
"6 	c #9D8B80",
"7 	c #8F7F75",
"8 	c #6F635A",
"9 	c #777069",
"0 	c #8F8B88",
"a 	c #D0CECC",
"b 	c #FEFFFF",
"c 	c #948F8C",
"d 	c #5F554F",
"e 	c #71625B",
"f 	c #827169",
"g 	c #948378",
"h 	c #79685E",
"i 	c #8E7C72",
"j 	c #9D897C",
"k 	c #9E8A7C",
"l 	c #9C8B7E",
"m 	c #95877B",
"n 	c #766C63",
"o 	c #716A65",
"p 	c #656362",
"q 	c #E7E6E4",
"r 	c #726D6A",
"s 	c #655952",
"t 	c #9B8B81",
"u 	c #8A7C74",
"v 	c #655B55",
"w 	c #524741",
"x 	c #7B6D64",
"y 	c #917F74",
"z 	c #988577",
"A 	c #998678",
"B 	c #9A8779",
"C 	c #9F8C7E",
"D 	c #A08F81",
"E 	c #A09288",
"F 	c #605852",
"G 	c #423C37",
"H 	c #393330",
"I 	c #CECCCA",
"J 	c #D5D5D5",
"K 	c #FAFAF9",
"L 	c #6C6967",
"M 	c #443B36",
"N 	c #83766E",
"O 	c #8B7E75",
"P 	c #7E756E",
"Q 	c #BAB6B1",
"R 	c #A9A4A1",
"S 	c #6B635D",
"T 	c #72665E",
"U 	c #95867A",
"V 	c #978578",
"W 	c #9D887B",
"X 	c #9C8A7B",
"Y 	c #9F8E7F",
"Z 	c #8C7C72",
"` 	c #5B5047",
" .	c #9B8F87",
"..	c #8E827B",
"+.	c #68615D",
"@.	c #5F5B57",
"#.	c #827F7D",
"$.	c #A8A6A4",
"%.	c #F8F8F8",
"&.	c #71716F",
"*.	c #48403B",
"=.	c #7A6F68",
"-.	c #6C605A",
";.	c #4F4842",
">.	c #B2AFAA",
",.	c #D0CFCC",
"'.	c #D4D3D2",
").	c #C1BEBB",
"!.	c #958E88",
"~.	c #51473D",
"{.	c #86776B",
"].	c #978479",
"^.	c #99877A",
"/.	c #918276",
"(.	c #695B52",
"_.	c #97887F",
":.	c #AA998F",
"<.	c #8F7E74",
"[.	c #685C54",
"}.	c #928981",
"|.	c #736B65",
"1.	c #4C4742",
"2.	c #4E4C49",
"3.	c #C3C2C0",
"4.	c #FEFFFE",
"5.	c #A3A2A2",
"6.	c #2A2625",
"7.	c #8C8279",
"8.	c #94877F",
"9.	c #665C55",
"0.	c #66635F",
"a.	c #93928F",
"b.	c #C8C7C5",
"c.	c #D0CFCD",
"d.	c #BCB9B5",
"e.	c #6B655E",
"f.	c #655A4F",
"g.	c #34291F",
"h.	c #615852",
"i.	c #8C827A",
"j.	c #736760",
"k.	c #84766E",
"l.	c #9F8E83",
"m.	c #98877C",
"n.	c #7D6F66",
"o.	c #8A7D74",
"p.	c #8F8177",
"q.	c #BFB0A6",
"r.	c #C2B5AC",
"s.	c #A99E97",
"t.	c #6A635E",
"u.	c #403C3B",
"v.	c #ACABAA",
"w.	c #D8D8D8",
"x.	c #BEBDBC",
"y.	c #45413F",
"z.	c #4E4741",
"A.	c #736961",
"B.	c #776F68",
"C.	c #6E6863",
"D.	c #C3C1BD",
"E.	c #A3A2A0",
"F.	c #9A9997",
"G.	c #B2AFAC",
"H.	c #726A60",
"I.	c #908373",
"J.	c #8C7E6E",
"K.	c #4F463D",
"L.	c #6A6663",
"M.	c #4D4742",
"N.	c #534A45",
"O.	c #998D86",
"P.	c #98887E",
"Q.	c #77685F",
"R.	c #91857C",
"S.	c #766A61",
"T.	c #9F9087",
"U.	c #C1B0A6",
"V.	c #CABCB1",
"W.	c #CDBFB6",
"X.	c #CABEB6",
"Y.	c #9C938D",
"Z.	c #5C5652",
"`.	c #676260",
" +	c #ACAAA7",
".+	c #F2F2F0",
"++	c #FBFBFB",
"@+	c #474542",
"#+	c #615B56",
"$+	c #837A73",
"%+	c #564F49",
"&+	c #5F5A57",
"*+	c #B7B5B3",
"=+	c #D1D0CE",
"-+	c #CCCBCA",
";+	c #B9B6B4",
">+	c #6D655D",
",+	c #6E5E4B",
"'+	c #A99379",
")+	c #766655",
"!+	c #79726A",
"~+	c #BAB9B6",
"{+	c #53514E",
"]+	c #615C59",
"^+	c #827974",
"/+	c #A79B93",
"(+	c #8F8279",
"_+	c #82766E",
":+	c #B5A69E",
"<+	c #C4B3AB",
"[+	c #CCBEB3",
"}+	c #CEC0B5",
"|+	c #CEC0B6",
"1+	c #CFC1B9",
"2+	c #C5B8B0",
"3+	c #B1A6A0",
"4+	c #726C66",
"5+	c #878582",
"6+	c #BCBBBA",
"7+	c #FBFBFA",
"8+	c #676561",
"9+	c #BCB8B3",
"0+	c #726D69",
"a+	c #4C4A47",
"b+	c #B3B1B1",
"c+	c #D6D4D5",
"d+	c #D2D1D1",
"e+	c #B5B0AA",
"f+	c #806F58",
"g+	c #BDA586",
"h+	c #9C8566",
"i+	c #61574A",
"j+	c #A2A09A",
"k+	c #646462",
"l+	c #8E8E8C",
"m+	c #BDBBB8",
"n+	c #8A8682",
"o+	c #736B66",
"p+	c #9F948D",
"q+	c #B2A59C",
"r+	c #B3A49D",
"s+	c #BCADA5",
"t+	c #C0B2A7",
"u+	c #CBBDB4",
"v+	c #CDBFB5",
"w+	c #CFC1B6",
"x+	c #D0C2B9",
"y+	c #D3C5BC",
"z+	c #D5C8BF",
"A+	c #CCC0B7",
"B+	c #A19A94",
"C+	c #231F1E",
"D+	c #5E5A57",
"E+	c #DED9D5",
"F+	c #DFDAD7",
"G+	c #676562",
"H+	c #7A7978",
"I+	c #727071",
"J+	c #A19F9E",
"K+	c #BBB7B2",
"L+	c #776D60",
"M+	c #C4AC8E",
"N+	c #B19677",
"O+	c #79644C",
"P+	c #645E55",
"Q+	c #848380",
"R+	c #706F6E",
"S+	c #A1A0A0",
"T+	c #D1D1CF",
"U+	c #E4E2E0",
"V+	c #BEB9B7",
"W+	c #8B8481",
"X+	c #8A8079",
"Y+	c #B8AAA2",
"Z+	c #BFB1A8",
"`+	c #C2B5AB",
" @	c #C9BCB3",
".@	c #CBBEB4",
"+@	c #D0C2B8",
"@@	c #D2C4BC",
"#@	c #BBB0A8",
"$@	c #5F5853",
"%@	c #5E5B5A",
"&@	c #585450",
"*@	c #E2DEDA",
"=@	c #EAE6E3",
"-@	c #7F7B77",
";@	c #545150",
">@	c #A3A1A2",
",@	c #77736F",
"'@	c #61584D",
")@	c #9D8C77",
"!@	c #C3A989",
"~@	c #90795F",
"{@	c #766759",
"]@	c #8E8985",
"^@	c #4C4B4A",
"/@	c #848283",
"(@	c #C0BEBF",
"_@	c #E6E5E3",
":@	c #E7E5E3",
"<@	c #D9D7D5",
"[@	c #A09B97",
"}@	c #776D65",
"|@	c #AEA39A",
"1@	c #C1B6AD",
"2@	c #C7BAB1",
"3@	c #C9BBB2",
"4@	c #CFC3B7",
"5@	c #D1C4B9",
"6@	c #D1C4BB",
"7@	c #88807A",
"8@	c #4A4745",
"9@	c #D6D6D5",
"0@	c #5E5B57",
"a@	c #DAD6D1",
"b@	c #797470",
"c@	c #4C4744",
"d@	c #93908E",
"e@	c #D1CDCC",
"f@	c #A59E96",
"g@	c #82725E",
"h@	c #CAB191",
"i@	c #A1886D",
"j@	c #736353",
"k@	c #BEB8B4",
"l@	c #696967",
"m@	c #797876",
"n@	c #72716F",
"o@	c #C0BFBC",
"p@	c #DAD9D7",
"q@	c #E5E5E3",
"r@	c #E7E7E6",
"s@	c #E6E5E4",
"t@	c #C0BDBA",
"u@	c #736E6A",
"v@	c #8A827C",
"w@	c #B9AFA6",
"x@	c #C6B9B0",
"y@	c #CBBEB5",
"z@	c #CEC1B8",
"A@	c #D0C3BA",
"B@	c #C0B6AD",
"C@	c #272321",
"D@	c #949494",
"E@	c #FDFDFD",
"F@	c #54534F",
"G@	c #8E8983",
"H@	c #504842",
"I@	c #544F4A",
"J@	c #ACA7A4",
"K@	c #C1BBB6",
"L@	c #766858",
"M@	c #B9A387",
"N@	c #BCA181",
"O@	c #685640",
"P@	c #786E65",
"Q@	c #7E7B7B",
"R@	c #5C5C5B",
"S@	c #8A8988",
"T@	c #B6B5B3",
"U@	c #A09E9A",
"V@	c #A3A09D",
"W@	c #D6D4D2",
"X@	c #E9E9E7",
"Y@	c #E6E6E6",
"Z@	c #E8E8E8",
"`@	c #EAE9E8",
" #	c #94908D",
".#	c #7A726C",
"+#	c #A89E97",
"@#	c #C9BDB5",
"##	c #776F69",
"$#	c #676564",
"%#	c #F0F0F0",
"&#	c #363431",
"*#	c #5E5851",
"=#	c #71655D",
"-#	c #4E453C",
";#	c #544C44",
">#	c #685D51",
",#	c #B5A186",
"'#	c #C8AD8D",
")#	c #987E62",
"!#	c #64594B",
"~#	c #1E1B18",
"{#	c #3D3B39",
"]#	c #7B7A77",
"^#	c #A7A6A4",
"/#	c #D6D2CF",
"(#	c #ADA9A6",
"_#	c #8B8785",
":#	c #D9D8D7",
"<#	c #E9E9E9",
"[#	c #EAEAEA",
"}#	c #ECEBEC",
"|#	c #F1F0F0",
"1#	c #EEECEC",
"2#	c #C3BEBC",
"3#	c #817B76",
"4#	c #90867F",
"5#	c #C4B9B2",
"6#	c #9F9791",
"7#	c #4A4643",
"8#	c #E5E4E4",
"9#	c #2E2D2A",
"0#	c #746D66",
"a#	c #807266",
"b#	c #63513D",
"c#	c #715F49",
"d#	c #978369",
"e#	c #D6B997",
"f#	c #AA9071",
"g#	c #67553F",
"h#	c #625950",
"i#	c #2B231C",
"j#	c #362C23",
"k#	c #2B241C",
"l#	c #595651",
"m#	c #9A9A98",
"n#	c #D5D4D0",
"o#	c #E6E3E0",
"p#	c #D2CECD",
"q#	c #827F7E",
"r#	c #B3B2B1",
"s#	c #E4E3E4",
"t#	c #F0F0F1",
"u#	c #F1F1F3",
"v#	c #F3F3F3",
"w#	c #F8F7F5",
"x#	c #F7F6F4",
"y#	c #B5B2B0",
"z#	c #5F5D59",
"A#	c #454340",
"B#	c #999798",
"C#	c #61615F",
"D#	c #514B44",
"E#	c #6D5E50",
"F#	c #AC987F",
"G#	c #AB9679",
"H#	c #CBB292",
"I#	c #C7A883",
"J#	c #947A5B",
"K#	c #47351F",
"L#	c #5F5242",
"M#	c #655849",
"N#	c #5F5243",
"O#	c #413B30",
"P#	c #595751",
"Q#	c #999996",
"R#	c #DBDBD8",
"S#	c #E8E7E4",
"T#	c #ECE9E8",
"U#	c #D4D2D1",
"V#	c #9D9B9B",
"W#	c #A09FA0",
"X#	c #E2E1E1",
"Y#	c #F6F5F5",
"Z#	c #FAF9F9",
"`#	c #F9F9F9",
" $	c #FBFCFC",
".$	c #959594",
"+$	c #555555",
"@$	c #E5E5E5",
"#$	c #D5D6D4",
"$$	c #534D46",
"%$	c #807160",
"&$	c #C2AE94",
"*$	c #C8B192",
"=$	c #DCC1A0",
"-$	c #B5956F",
";$	c #A98E6D",
">$	c #958065",
",$	c #816E57",
"'$	c #76654F",
")$	c #4C3E2C",
"!$	c #292218",
"~$	c #2D2B26",
"{$	c #6E6E6C",
"]$	c #DEDEDC",
"^$	c #EDEDEB",
"/$	c #EFEEEC",
"($	c #F1F1F1",
"_$	c #E8E6E7",
":$	c #B4B2B1",
"<$	c #8E8C8B",
"[$	c #D2D0CF",
"}$	c #F9F8F7",
"|$	c #FAFAFA",
"1$	c #FCFCFC",
"2$	c #E4E5E4",
"3$	c #404142",
"4$	c #B1B1B2",
"5$	c #FDFFFE",
"6$	c #FDFEFC",
"7$	c #B9B2A7",
"8$	c #AD9C85",
"9$	c #C3AB8E",
"0$	c #DDC3A2",
"a$	c #C5A985",
"b$	c #BB9C76",
"c$	c #D6B791",
"d$	c #D8BC99",
"e$	c #826C50",
"f$	c #4C3B27",
"g$	c #46392B",
"h$	c #4F463A",
"i$	c #4C4740",
"j$	c #585754",
"k$	c #81817F",
"l$	c #E0E0DE",
"m$	c #F3F2F0",
"n$	c #F4F4F2",
"o$	c #F6F6F4",
"p$	c #C8C7C4",
"q$	c #94938F",
"r$	c #B1B0AC",
"s$	c #F0F0EE",
"t$	c #EAEAE9",
"u$	c #4E4E4E",
"v$	c #757575",
"w$	c #F1F0EC",
"x$	c #B8AD9F",
"y$	c #D0BDA4",
"z$	c #CFB89A",
"A$	c #E5CAA9",
"B$	c #D1B591",
"C$	c #D1B491",
"D$	c #D5B792",
"E$	c #C5A67F",
"F$	c #B49977",
"G$	c #856F55",
"H$	c #746554",
"I$	c #5A5146",
"J$	c #545049",
"K$	c #91908E",
"L$	c #858583",
"M$	c #9D9D9B",
"N$	c #DDDCDB",
"O$	c #F6F6F5",
"P$	c #F8F8F6",
"Q$	c #F8F8F5",
"R$	c #D8D8D5",
"S$	c #9F9E9B",
"T$	c #9E9E9C",
"U$	c #8E8F8E",
"V$	c #272829",
"W$	c #E7E4DD",
"X$	c #ACA08F",
"Y$	c #CCB69C",
"Z$	c #E8D2B6",
"`$	c #ECD3B3",
" %	c #D8BC98",
".%	c #E3C6A4",
"+%	c #C9AC88",
"@%	c #D3B48D",
"#%	c #D4B48C",
"$%	c #AF9575",
"%%	c #594631",
"&%	c #281E11",
"*%	c #36312A",
"=%	c #8C8C89",
"-%	c #C6C6C4",
";%	c #C5C4C4",
">%	c #8D8B8C",
",%	c #D7D7D7",
"'%	c #F8F8F7",
")%	c #F9F9F7",
"!%	c #FDFCFA",
"~%	c #EAE9E7",
"{%	c #8A8A88",
"]%	c #1D1F1D",
"^%	c #8C8D8F",
"/%	c #D3CCC4",
"(%	c #AD9D8A",
"_%	c #D8C0A3",
":%	c #F0D9BC",
"<%	c #E2CAAC",
"[%	c #E7CBAA",
"}%	c #DBBA94",
"|%	c #D9B993",
"1%	c #DDBF9A",
"2%	c #B99C77",
"3%	c #A48A6A",
"4%	c #5E4930",
"5%	c #493928",
"6%	c #3A3228",
"7%	c #898784",
"8%	c #BABAB8",
"9%	c #F3F3F2",
"0%	c #E4E4E4",
"a%	c #848482",
"b%	c #A4A4A2",
"c%	c #EAEAE8",
"d%	c #858685",
"e%	c #6A6C6B",
"f%	c #FFFFFB",
"g%	c #A49A8E",
"h%	c #CAB9A3",
"i%	c #EAD2B4",
"j%	c #EBD3B3",
"k%	c #E5CCAA",
"l%	c #DEC19E",
"m%	c #DEBE99",
"n%	c #E5C49D",
"o%	c #D2B28B",
"p%	c #BD9E77",
"q%	c #C0A584",
"r%	c #968065",
"s%	c #6C5C49",
"t%	c #4C443B",
"u%	c #8F8E8B",
"v%	c #BABAB9",
"w%	c #FEFEFD",
"x%	c #DFDFDD",
"y%	c #939290",
"z%	c #8B8B89",
"A%	c #E3E3E3",
"B%	c #313332",
"C%	c #C6C7C7",
"D%	c #F9F6F2",
"E%	c #7E705E",
"F%	c #DBC8AE",
"G%	c #EBD3B5",
"H%	c #E3C7A4",
"I%	c #DEC19C",
"J%	c #DCBD98",
"K%	c #E8CAA4",
"L%	c #D7B78F",
"M%	c #C5A47B",
"N%	c #B89872",
"O%	c #9F8463",
"P%	c #786248",
"Q%	c #5B4E3F",
"R%	c #423C35",
"S%	c #807F7C",
"T%	c #CCCCCA",
"U%	c #FBFBF9",
"V%	c #FDFDFB",
"W%	c #E9E8E6",
"X%	c #A8A7A5",
"Y%	c #7D7D7D",
"Z%	c #DADADA",
"`%	c #656565",
" &	c #7E7F7F",
".&	c #C1BCB5",
"+&	c #C8B398",
"@&	c #E0C6A6",
"#&	c #E8CDAC",
"$&	c #D9B990",
"%&	c #E0C096",
"&&	c #DCBC95",
"*&	c #CDAC84",
"=&	c #BE9E77",
"-&	c #A58764",
";&	c #93795A",
">&	c #6F5942",
",&	c #5D4D3E",
"'&	c #5B524B",
")&	c #76706B",
"!&	c #6A6661",
"~&	c #C6C4C1",
"{&	c #F8F7F4",
"]&	c #FAFAF8",
"^&	c #AEAFAE",
"/&	c #2C2D2C",
"(&	c #2C2C2C",
"_&	c #97928A",
":&	c #D7C0A2",
"<&	c #E6C8A4",
"[&	c #E0C09A",
"}&	c #DAB98D",
"|&	c #DAB88E",
"1&	c #BD9C76",
"2&	c #A48763",
"3&	c #8F7553",
"4&	c #856F52",
"5&	c #655540",
"6&	c #3B2E20",
"7&	c #544A41",
"8&	c #857E78",
"9&	c #A59F9A",
"0&	c #B9B2AC",
"a&	c #908A84",
"b&	c #B7B3B0",
"c&	c #F3F2F1",
"d&	c #BEC0BF",
"e&	c #2D2E2E",
"f&	c #AAAAAA",
"g&	c #98928A",
"h&	c #DCC3A4",
"i&	c #E2C29A",
"j&	c #DAB98E",
"k&	c #D8B68A",
"l&	c #C9A77E",
"m&	c #9D7E5A",
"n&	c #836C4F",
"o&	c #78654D",
"p&	c #564734",
"q&	c #494036",
"r&	c #5F5A54",
"s&	c #75706C",
"t&	c #B4ACA6",
"u&	c #D4CBC4",
"v&	c #DAD1CA",
"w&	c #CBC1BB",
"x&	c #948D89",
"y&	c #9A9896",
"z&	c #FCFCFA",
"A&	c #646665",
"B&	c #656665",
"C&	c #D4D1CD",
"D&	c #BAB0A4",
"E&	c #DCC2A1",
"F&	c #DBB98F",
"G&	c #D9B78B",
"H&	c #C2A178",
"I&	c #A0835F",
"J&	c #897156",
"K&	c #584C3D",
"L&	c #6F675E",
"M&	c #9F9993",
"N&	c #BDBCBB",
"O&	c #686563",
"P&	c #A79F9A",
"Q&	c #CDC2BC",
"R&	c #DBD0CA",
"S&	c #DCD3CD",
"T&	c #D9D1CB",
"U&	c #9C9691",
"V&	c #7C7A79",
"W&	c #D6D6D6",
"X&	c #9A9A9A",
"Y&	c #3B3D3C",
"Z&	c #E3E4E4",
"`&	c #D2D0CC",
" *	c #C9BFB3",
".*	c #D8BD9A",
"+*	c #DCBB90",
"@*	c #DAB88B",
"#*	c #B3946E",
"$*	c #957E61",
"%*	c #978877",
"&*	c #BAB7B0",
"**	c #F0EEEA",
"=*	c #FEFCFC",
"-*	c #F5F5F5",
";*	c #B9B7B6",
">*	c #6D6966",
",*	c #938C86",
"'*	c #CCC2BC",
")*	c #DDD3CC",
"!*	c #DED4CC",
"~*	c #D1C9C2",
"{*	c #97928E",
"]*	c #656462",
"^*	c #1D1D1D",
"/*	c #A1A2A2",
"(*	c #F6F5F4",
"_*	c #F4EEE6",
":*	c #D8C1A4",
"<*	c #D7BB96",
"[*	c #CFB28D",
"}*	c #B0987A",
"|*	c #968673",
"1*	c #D7D1C9",
"2*	c #C0C1BD",
"3*	c #615E5A",
"4*	c #9A938D",
"5*	c #D1C7C0",
"6*	c #D8CEC5",
"7*	c #C6BCB3",
"8*	c #CBC3BD",
"9*	c #5A5754",
"0*	c #7E7E7E",
"a*	c #F8FAF9",
"b*	c #FFFEFD",
"c*	c #FFFEF8",
"d*	c #FFFEF5",
"e*	c #ECE5DA",
"f*	c #EEE6DE",
"g*	c #F5F0EB",
"h*	c #FFFEFC",
"i*	c #D6D6D4",
"j*	c #64625F",
"k*	c #9E9791",
"l*	c #C0B7AE",
"m*	c #CCC2BA",
"n*	c #8E8884",
"o*	c #494745",
"p*	c #E0DFDF",
"q*	c #DFDFDE",
"r*	c #6B6865",
"s*	c #817B77",
"t*	c #B5AEA9",
"u*	c #42403D",
"v*	c #ADADAD",
"w*	c #E0E1E0",
"x*	c #A09E9C",
"y*	c #5F5B59",
". . . . . . . . . . . . + . . . . . . . . . . . . . . . . . . . . . . . ",
". . . . . . . . . @ . + # $ % & . . . . . . . . . . . . . . . . . . + + ",
". . . . . . & . . @ * = - ; > , ' * . . . . . . . . . . . . . . . . . ) ",
". . . . . . . . . ! ~ { ] ^ / ( _ : < [ + . . . . . . . . . . . . . . . ",
". . . . . . . + } | 1 2 3 4 5 6 7 8 9 0 a * . . . . . b . . . . . . . b ",
". . . . . . . } c d e f g h i j k l m n o p q ) . . . b b . . . . . b b ",
". . & . . . ! r s t u v w x y z A B C D E F G H I J K + . . . . . . + ) ",
". . . . . + L M N O P Q R S T U V W X Y Z `  ...+.@.#.$.%.b . . . b + ) ",
". . . . . &.*.=.-.;.>.,.'.).!.~.{.].^./.(._.:.<.[.}.|.1.2.3.& . . b 4.) ",
". . . %.5.6.7.8.9.0.a.b.c.d.e.f.g.h.i.j.k.l.m.n.o.p.q.r.s.t.u.v.w.& . . ",
". . . x.y.z.A.B.C.D.E.F.G.H.I.J.K.L.M.N.O.P.Q.R.S.T.U.V.W.X.Y.Z.`. +.+. ",
". . ++@+#+$+%+&+*+=+-+;+>+,+'+)+!+~+{+]+^+/+(+_+_+:+<+[+}+|+1+2+3+4+5+6+",
". . 7+8+9+0+a+# b+c+d+e+f+g+h+i+j+k+l+m+n+o+p+q+r+s+t+u+v+w+x+y+z+A+B+C+",
". . + D+E+F+G+H+I+J+K+L+M+N+O+P+Q+R+S+T+U+V+W+X+Y+Z+`+ @.@|++@x+@@#@$@%@",
". . ) &@*@=@-@;@>@,@'@)@!@~@{@]@^@/@(@< _@:@<@[@}@|@1@2@3@W.4@5@6@7@8@9@",
". . + 0@a@b@c@d@e@f@g@h@i@j@k@l@m@n@o@p@q q@r@s@t@u@v@w@x@y@z@A@B@C@D@E@",
". . + F@G@H@I@J@K@L@M@N@O@P@Q@R@S@T@U@V@W@X@Y@Z@`@W@ #.#+#@#z@@###$#%#. ",
". . . &#*#=#-#;#>#,#'#)#!#M.~#{#]#^#/#(#_#:#<#[#}#|#1#2#3#4#5#6#7#8#. . ",
". . . 9#0#a#b#c#d#e#f#g#h#i#j#k#l#m#n#o#p#q#r#s#t#u#v#w#x#y#z#A#B#@ . b ",
". . . C#D#E#F#G#H#I#J#K#L#M#N#O#P#Q#R#S#T#U#V#W#X#Y#Z#`#7+ $.$+$@$. b b ",
". . . #$$$%$&$*$=$-$;$>$,$'$)$!$~${$]$^$/$($_$:$<$[$}$|$1$2$3$4$& & b 5$",
". . . 6$7$8$9$0$a$b$c$d$e$f$g$h$i$j$k$l$m$n$o$o$p$q$r$s$t$u$v$. . . . . ",
". . + w$x$y$z$A$B$C$D$E$F$G$H$I$J$K$L$M$N$O$P$w#Q$R$S$T$U$V$@$. @ . . . ",
". @ ) W$X$Y$Z$`$ %.%+%@%#%$%%%&%*%=%-%;%>%,%'%w#)%!%~%{%]%^%. @ @ . . . ",
". + } /%(%_%:%<%[%}%|%1%2%3%4%5%6%7%8%9%0%a%b%c%`#++& d%e%%#. . . . . . ",
". + f%g%h%i%j%k%l%m%n%o%p%q%r%s%t%u%v%9%w%x%y%z%A%E@w.B%C%. . . . . . . ",
". . D%E%F%G%H%I%J%K%L%M%N%O%P%Q%R%S%T%U%V%V%W%X%Y%Z%`% &++. . . . . . . ",
". . .&+&@&#&$&%&&&*&=&-&;&>&,&'&)&!&~&{&!%[ [ ]&^&/&(&E@. & . . . . . . ",
". . _&:&<&[&}&|&1&2&3&4&5&6&7&8&9&0&a&b&c&V%V%[ d&e&f&. . . . . . . . . ",
". .+g&h&i&j&k&l&m&n&o&p&q&r&s&t&u&v&w&x&y&z&V%[ A&B&<#& . . . . . . . . ",
"} C&D&E&F&G&H&I&J&K&L&M&w#N&O&P&Q&R&S&T&U&V&W&X&Y&Z&. . . . . . . . . . ",
") `& *.*+*@*#*$*%*&***=*@ -*;*>*,*'*)*!*~*{*]*^*/*b . . . . . . . . . . ",
". (*_*:*<*[*}*|*1*) + * & . 1$2*3*4*5*6*7*8*9*0*a*b . . . . . . . . . . ",
"b . b*c*d*e*f*g*h*. + ) . . . + i*j*k*l*m*n*o*p*. . . . . . . . . . . . ",
"b + + . + } * + . . + ) + + . . . q*r*s*t*u*v*& . . . b . . . . . . . . ",
". + ) . . . . . . . + ) ) + . . . . w*x*y*S+($. . . . b b . . . . . . . "};
