/* XPM */
static char * stock_book_xpm[] = {
"24 24 117 2",
"  	c None",
". 	c #000000",
"+ 	c #11161D",
"@ 	c #97A8BE",
"# 	c #7E94AD",
"$ 	c #748CA5",
"% 	c #6C849C",
"& 	c #647C96",
"* 	c #6A7B8C",
"= 	c #526D8A",
"- 	c #526A82",
"; 	c #4B6886",
"> 	c #54687F",
", 	c #495869",
"' 	c #141B22",
") 	c #8EA2B8",
"! 	c #567290",
"~ 	c #4E6A88",
"{ 	c #44607C",
"] 	c #3C5875",
"^ 	c #34516E",
"/ 	c #314E6B",
"( 	c #355270",
"_ 	c #395572",
": 	c #33404F",
"< 	c #0A0D11",
"[ 	c #99ACC0",
"} 	c #8096AE",
"| 	c #5C7896",
"1 	c #415D7A",
"2 	c #2C445B",
"3 	c #242D33",
"4 	c #5B6979",
"5 	c #486583",
"6 	c #3D5A78",
"7 	c #353C41",
"8 	c #8097B0",
"9 	c #18242D",
"0 	c #7E8285",
"a 	c #333639",
"b 	c #597492",
"c 	c #466280",
"d 	c #293E54",
"e 	c #21272E",
"f 	c #494C4D",
"g 	c #8E9092",
"h 	c #54708E",
"i 	c #575859",
"j 	c #64686A",
"k 	c #647382",
"l 	c #46484A",
"m 	c #8E9398",
"n 	c #9AABBC",
"o 	c #879CB4",
"p 	c #637E9B",
"q 	c #344B62",
"r 	c #6B6E70",
"s 	c #30475D",
"t 	c #8B8F94",
"u 	c #0C0E0F",
"v 	c #7A8C9F",
"w 	c #1A2530",
"x 	c #747575",
"y 	c #425A72",
"z 	c #BDC6D3",
"A 	c #AEBECC",
"B 	c #ACB8C3",
"C 	c #A5B4C4",
"D 	c #90A0B0",
"E 	c #7B8FA1",
"F 	c #708499",
"G 	c #54667B",
"H 	c #5B5E61",
"I 	c #070A0E",
"J 	c #030609",
"K 	c #B2BAC2",
"L 	c #24364A",
"M 	c #2B353F",
"N 	c #87939D",
"O 	c #404145",
"P 	c #5F6060",
"Q 	c #939495",
"R 	c #AFAFB0",
"S 	c #C5C5C6",
"T 	c #CECECF",
"U 	c #B2B5B9",
"V 	c #BCC3C9",
"W 	c #C4CBD2",
"X 	c #CBD2D9",
"Y 	c #D6DADE",
"Z 	c #90969B",
"` 	c #858A8F",
" .	c #131A20",
"..	c #7D7E80",
"+.	c #E1E2E3",
"@.	c #E2E6E9",
"#.	c #DFDFE0",
"$.	c #F1F2F4",
"%.	c #F9FAFB",
"&.	c #A5A7A8",
"*.	c #222224",
"=.	c #9FA3A6",
"-.	c #D6DCE1",
";.	c #E8EBED",
">.	c #EDEFF1",
",.	c #727A83",
"'.	c #121920",
").	c #000204",
"!.	c #8797A7",
"~.	c #81858A",
"{.	c #010407",
"].	c #191919",
"^.	c #010101",
"/.	c #516980",
"(.	c #E7EAED",
"_.	c #42556A",
":.	c #000306",
"                                                ",
"            . . . . . . . . . . . . . . . .     ",
"          . + @ # $ % & * = - ; - > - - , '     ",
"          . $ ) $ ! ~ { ] ^ / / ( ^ _ ^ : '     ",
"        . < [ } | = ; 1 _ / / / / / _ 2 3 .     ",
"        . 4 [ $ ! ~ 5 6 ( / / / / ^ _ 2 7 . .   ",
"      . . [ 8 | ! ; 1 6 ( / / / / _ 2 9 0 a .   ",
"      . 4 ) $ b ~ c 1 ( / / / / / ] d e f g .   ",
"    . . [ 8 | h ; 1 6 ( / / / / ( 2 9 i j . .   ",
"    . k ) $ b = ; 1 ( / / / / / _ 2 3 l m .     ",
"  . . n o p h ~ 5 6 ( / / / / ( q 9 j r s .     ",
"  . k ) $ | h ~ 1 6 ^ / / / / ] d 3 i t u .     ",
". . v ) % b ~ 5 6 _ / / / / / q w f x y .       ",
". x z A B C n n D E $ v $ v F G a H m I .       ",
"J K d L L L L L L L L L L L L M j x 1 .         ",
"u N O P x Q R R S T U V V W X Y Z `  ..         ",
"u * i ..+.@.#.#.#.$.%.$.$.$.&.U r 1 .           ",
"*./ =.- 1 -.;.>.>.@.#.+.+.#.+.,.t '..           ",
". . )./ =.=.=.= !.-.@.;.%.%.~.&.=.{.            ",
"    ].^.. . / / =./ /.- B #.(.=.'..             ",
"          . . . . . / =./ =./ _.:.              ",
"                . . . . . / / . .               ",
"                        . . . .                 ",
"                                                "};
