/* XPM */
static char * stock_edit_xpm[] = {
"24 24 191 2",
"  	c None",
". 	c #000000",
"+ 	c #D3D3D3",
"@ 	c #F6F6F6",
"# 	c #FFFFFF",
"$ 	c #F9F9F9",
"% 	c #232323",
"& 	c #060606",
"* 	c #FFFFFE",
"= 	c #1A1A19",
"- 	c #7C7C7C",
"; 	c #080808",
"> 	c #FEFEFE",
", 	c #FDFDFC",
"' 	c #151515",
") 	c #E1E1E1",
"! 	c #D9D9D9",
"~ 	c #555555",
"{ 	c #FBE73B",
"] 	c #F2B64D",
"^ 	c #FDFDFD",
"/ 	c #FCFCFB",
"( 	c #FBFBFA",
"_ 	c #121212",
": 	c #E9E9E9",
"< 	c #DEDEDE",
"[ 	c #FCEB3D",
"} 	c #F7B544",
"| 	c #60532D",
"1 	c #686868",
"2 	c #6A6A6A",
"3 	c #9C9C9C",
"4 	c #C2C2C1",
"5 	c #505050",
"6 	c #808080",
"7 	c #FAFAF9",
"8 	c #F9F9F8",
"9 	c #0F0F0F",
"0 	c #F0F0F0",
"a 	c #FCE93B",
"b 	c #F7B545",
"c 	c #6C5F34",
"d 	c #FBFBFB",
"e 	c #F8F8F7",
"f 	c #F8F7F6",
"g 	c #353535",
"h 	c #FAE43A",
"i 	c #F4B244",
"j 	c #504627",
"k 	c #F7F6F5",
"l 	c #F6F6F4",
"m 	c #C9C8C7",
"n 	c #040301",
"o 	c #F9DF39",
"p 	c #F3AF42",
"q 	c #5D5132",
"r 	c #44423D",
"s 	c #7F7F7F",
"t 	c #747474",
"u 	c #929291",
"v 	c #A4A4A3",
"w 	c #797878",
"x 	c #989897",
"y 	c #F5F4F3",
"z 	c #F3F2F1",
"A 	c #F9DC38",
"B 	c #EFB44D",
"C 	c #665A32",
"D 	c #787876",
"E 	c #67645D",
"F 	c #F4F3F2",
"G 	c #F3F3F1",
"H 	c #F2F2F0",
"I 	c #F8D837",
"J 	c #F0A93F",
"K 	c #655930",
"L 	c #939291",
"M 	c #979695",
"N 	c #7D7971",
"O 	c #F6F5F4",
"P 	c #F5F5F3",
"Q 	c #F1F1EF",
"R 	c #F6D236",
"S 	c #EDA43E",
"T 	c #5C5230",
"U 	c #9C9B9A",
"V 	c #AFAEAC",
"W 	c #B9B8B5",
"X 	c #878279",
"Y 	c #868585",
"Z 	c #717170",
"` 	c #707070",
" .	c #9F9F9E",
"..	c #CFCFCD",
"+.	c #EFEEEC",
"@.	c #E9E8E6",
"#.	c #D7AE74",
"$.	c #61562F",
"%.	c #9C9B99",
"&.	c #AEADAB",
"*.	c #C6C5C3",
"=.	c #D8D6D3",
"-.	c #959086",
";.	c #F0F0EE",
">.	c #EFEFED",
",.	c #F1F0EE",
"'.	c #EDECEA",
").	c #4F4115",
"!.	c #9E9D9C",
"~.	c #C8C7C4",
"{.	c #D9D8D5",
"].	c #DFDDDA",
"^.	c #A49E93",
"/.	c #EEEDEB",
"(.	c #ECEBE9",
"_.	c #E4E3E1",
":.	c #9D9C9B",
"<.	c #9F9E9C",
"[.	c #B0AFAD",
"}.	c #C7C6C3",
"|.	c #D9D7D4",
"1.	c #DFDEDA",
"2.	c #E0DFDB",
"3.	c #A19C90",
"4.	c #EDEDEB",
"5.	c #797978",
"6.	c #747473",
"7.	c #6F6E6D",
"8.	c #898988",
"9.	c #434342",
"0.	c #7C7C7A",
"a.	c #A6A5A3",
"b.	c #A9A8A6",
"c.	c #B3B2B0",
"d.	c #CAC9C6",
"e.	c #DAD9D5",
"f.	c #DDDCD8",
"g.	c #DEDDD9",
"h.	c #A19B90",
"i.	c #EBEAE8",
"j.	c #E8E7E5",
"k.	c #E8E7E4",
"l.	c #E6E5E2",
"m.	c #D7D6D3",
"n.	c #BFBEBB",
"o.	c #B7B7B4",
"p.	c #C7C5C2",
"q.	c #D1D0CC",
"r.	c #DBDAD7",
"s.	c #DCDBD7",
"t.	c #E7E6E3",
"u.	c #E5E4E1",
"v.	c #E5E3E0",
"w.	c #D6D4D2",
"x.	c #D4D3D0",
"y.	c #DBD9D5",
"z.	c #D9D7D3",
"A.	c #9F998D",
"B.	c #E4E3E0",
"C.	c #E3E2DF",
"D.	c #E3E2DE",
"E.	c #E4E2DF",
"F.	c #E4E3DF",
"G.	c #E2E1DD",
"H.	c #E1E0DC",
"I.	c #DDDBD7",
"J.	c #DCDAD6",
"K.	c #D8D6D2",
"L.	c #9E988D",
"M.	c #EDEDED",
"N.	c #E1E0DD",
"O.	c #E1DFDC",
"P.	c #E0DEDA",
"Q.	c #D8D6D1",
"R.	c #D7D5D1",
"S.	c #9D978B",
"T.	c #D1D1D1",
"U.	c #E1DFDB",
"V.	c #DEDCD8",
"W.	c #D7D6D1",
"X.	c #D5D3CE",
"Y.	c #9B958A",
"Z.	c #999891",
"`.	c #A39E92",
" +	c #A39D92",
".+	c #A39D91",
"++	c #A29C90",
"@+	c #A19B8F",
"#+	c #9D978C",
"$+	c #9B968A",
"%+	c #676359",
"                                                ",
"      . . . . . . . . . . . .                   ",
"    . + @ # # # # # # # # $ % & .               ",
"    . @ # # # # # # # # # * = - ; . .   . .     ",
"    . # # # # # # # > # > , ' ) ! ~ . . { ] .   ",
"    . # # # # # > ^ / ^ / ( _ : # < . [ } | .   ",
"    . # # 1 2 3 4 - 5 6 7 8 9 0 > . a b c .     ",
"    . # > ^ / d 7 8 e 8 e f g . . h i j .       ",
"    . # / d 7 8 e f k f k l m n o p q . r .     ",
"    . # 7 s t u v l w x y z . A B C . D E .     ",
"    . # e f k l y F G F H . I J K . L M N .     ",
"    . # O P F F G H Q Q . R S T . U V W X .     ",
"    . # F Y Z `  ...+.@.. #.$.. %.&.*.=.-..     ",
"    . # F z H ;.>.,.'.. ).. . !.V ~.{.].^..     ",
"    . # ;.>.>.+./.(._.. . :.<.[.}.|.1.2.3..     ",
"    . # 4.5.6.7.7.8.9.0.a.b.c.d.e.f.g.f.h..     ",
"    . # i.@.@.j.k.l.m.n.o.p.q.r.1.g.f.s.h..     ",
"    . # t.l.l.l.u.v.g.w.x.r.1.1.g.s.y.z.A..     ",
"    . $ B.C.D.E.F.G.G.2.H.2.H.g.I.J.z.K.L..     ",
"    . M.N.O.H.2.G.2.H.2.H.1.P.I.J.z.Q.R.S..     ",
"    . T.U.P.1.g.2.g.P.g.P.V.V.J.J.K.W.X.Y..     ",
"    . Z.`.^. +.+ +3.++3.++@+h.A.A.#+#+$+%+.     ",
"      . . . . . . . . . . . . . . . . . .       ",
"                                                "};
