/* XPM */
static char *stock_cancel[] = {
/* columns rows colors chars-per-pixel */
"24 24 24 1",
"  c opaque",
". c #802f36",
"X c #963841",
"o c #9b3942",
"O c #af414b",
"+ c #b3434c",
"@ c #b8454f",
"# c #bb4651",
"$ c #bf4951",
"% c #c34752",
"& c #c34953",
"* c #c94b56",
"= c #cd4d58",
"- c #d04c57",
"; c #d04e5a",
": c #de525f",
"> c #cf626b",
", c #d86770",
"< c #da6871",
"1 c #e35762",
"2 c #f35a69",
"3 c #d87880",
"4 c #f6939b",
"5 c None",
/* pixels */
"555555555555555555555555",
"555555555555555555555555",
"555555555555555555555555",
"555555555555555555555555",
"5555555      55     5555",
"555555               555",
"55555                 55",
"55555   4$      @     55",
"55555   21     >$     55",
"55555    :O   ,*.     55",
"55555    =&  <=X      55",
"55555     &===+       55",
"55555     *==*        55",
"55555    <=&&        555",
"5555    <==%#       5555",
"555    <;o  =X      5555",
"555   3=o   #=      5555",
"555   &X     ;@     5555",
"555          @=     5555",
"555                 5555",
"555                 5555",
"5555                5555",
"55555              55555",
"555555555555      555555"
};
