/* XPM */
static char * text_italic_xpm[] = {
"22 21 83 1",
" 	c None",
".	c #000000",
"+	c #E2E2E2",
"@	c #F2F2F2",
"#	c #F3F3F3",
"$	c #F4F4F4",
"%	c #F5F5F5",
"&	c #F6F6F6",
"*	c #F7F7F7",
"=	c #DBDBDB",
"-	c #F0F0F0",
";	c #E0E0E0",
">	c #E1E1E1",
",	c #E3E3E3",
"'	c #E4E4E4",
")	c #E5E5E5",
"!	c #E6E6E6",
"~	c #E7E7E7",
"{	c #E8E8E8",
"]	c #E9E9E9",
"^	c #EAEAEA",
"/	c #EBEBEB",
"(	c #ECECEC",
"_	c #EDEDED",
":	c #EEEEEE",
"<	c #EFEFEF",
"[	c #F1F1F1",
"}	c #CDCDCD",
"|	c #070707",
"1	c #C8C8C8",
"2	c #525252",
"3	c #101010",
"4	c #A6A6A6",
"5	c #BCBCBC",
"6	c #737373",
"7	c #090909",
"8	c #848484",
"9	c #3B3B3B",
"0	c #0C0C0C",
"a	c #DDDDDD",
"b	c #1D1D1D",
"c	c #606060",
"d	c #A4A4A4",
"e	c #767676",
"f	c #393939",
"g	c #3D3D3D",
"h	c #262626",
"i	c #141414",
"j	c #5B5B5B",
"k	c #191919",
"l	c #8C8C8C",
"m	c #888888",
"n	c #7F7F7F",
"o	c #F8F8F8",
"p	c #151515",
"q	c #1F1F1F",
"r	c #A3A3A3",
"s	c #C7C7C7",
"t	c #F9F9F9",
"u	c #747474",
"v	c #FAFAFA",
"w	c #D5D5D5",
"x	c #565656",
"y	c #040404",
"z	c #FBFBFB",
"A	c #FCFCFC",
"B	c #020202",
"C	c #CFCFCF",
"D	c #232323",
"E	c #FDFDFD",
"F	c #C4C4C4",
"G	c #010101",
"H	c #464646",
"I	c #363636",
"J	c #FEFEFE",
"K	c #424242",
"L	c #030303",
"M	c #D3D3D3",
"N	c #6B6B6B",
"O	c #111111",
"P	c #FFFFFF",
"Q	c #C9C9C9",
"R	c #BDBDBD",
" .................... ",
".+@@@@###$$$%%%&&**$=.",
".-;;>+,')!~{{]^/(_:<_.",
".@>>+,')!~{]^^/(_:<-[.",
".@+,,')!~{]}|.1_:<-[@.",
".#,'))!~{]^23.4:<-[@#.",
".#')!~~{]^5.678<-[@#$.",
".#)!~{]]^/90abc[[@#$%.",
".$!~{]^^/d.e<fg@##$%&.",
".$~{]^/({hi,-jk#$%%&*.",
".%{]^/(_l.m-[n.^%&**o.",
".%]^/(_+pq^[@r.s&*oot.",
".%^/(_:u.......d*otvv.",
".&/(_:w7x@#$$@ynotvzA.",
".*__:<jBC#$%%&DjtvzAE.",
".*:<<FGj#$%&**HIvzAEJ.",
".o-[@KLM%&*otvNOAEJPP.",
".o[@#$$%&*otvzAEEJPPP.",
".@@#$%&&*otvzAEJPPPP(.",
".Q_o%&*ootvzAEJPPPP:R.",
" .................... "};
