/* XPM */
static char * user_xpm[] = {
"36 36 167 2",
"  	c None",
". 	c #FFFFFF",
"+ 	c #FAFAFA",
"@ 	c #EEEEEE",
"# 	c #DEDEDE",
"$ 	c #CDCDCD",
"% 	c #C1C1C1",
"& 	c #999999",
"* 	c #848484",
"= 	c #828282",
"- 	c #919191",
"; 	c #A8A8A8",
"> 	c #BCBCBC",
", 	c #C7C7C7",
"' 	c #D8D8D8",
") 	c #F7F7F7",
"! 	c #F2F2F2",
"~ 	c #C9C9C9",
"{ 	c #AAAAAA",
"] 	c #8E8E8E",
"^ 	c #737373",
"/ 	c #616161",
"( 	c #414141",
"_ 	c #383838",
": 	c #353535",
"< 	c #3E3E3E",
"[ 	c #535353",
"} 	c #606060",
"| 	c #787878",
"1 	c #BABABA",
"2 	c #F3F3F3",
"3 	c #E0E0E0",
"4 	c #B0B0B0",
"5 	c #757575",
"6 	c #4A4A4A",
"7 	c #3A3A3A",
"8 	c #363636",
"9 	c #313131",
"0 	c #505050",
"a 	c #A6A6A6",
"b 	c #F1F1F1",
"c 	c #FCFCFC",
"d 	c #DCDCDC",
"e 	c #9E9E9E",
"f 	c #636363",
"g 	c #484848",
"h 	c #393939",
"i 	c #373737",
"j 	c #3D3D3D",
"k 	c #3C3C3C",
"l 	c #3B3B3B",
"m 	c #333333",
"n 	c #BDBDBD",
"o 	c #FEFEFE",
"p 	c #A0A0A0",
"q 	c #646464",
"r 	c #454545",
"s 	c #B3B3B3",
"t 	c #565656",
"u 	c #F8F8F8",
"v 	c #BEBEBE",
"w 	c #5B5B5B",
"x 	c #343434",
"y 	c #858585",
"z 	c #ECECEC",
"A 	c #424242",
"B 	c #2F2F2F",
"C 	c #7C7C7C",
"D 	c #FBFBFB",
"E 	c #E1E1E1",
"F 	c #666666",
"G 	c #4E4E4E",
"H 	c #323232",
"I 	c #434343",
"J 	c #E3E3E3",
"K 	c #B8B8B8",
"L 	c #4B4B4B",
"M 	c #5A5A5A",
"N 	c #7E7E7E",
"O 	c #929292",
"P 	c #7A7A7A",
"Q 	c #595959",
"R 	c #E7E7E7",
"S 	c #B9B9B9",
"T 	c #4C4C4C",
"U 	c #4F4F4F",
"V 	c #C3C3C3",
"W 	c #A5A5A5",
"X 	c #DADADA",
"Y 	c #D4D4D4",
"Z 	c #B4B4B4",
"` 	c #CCCCCC",
" .	c #F5F5F5",
"..	c #979797",
"+.	c #3F3F3F",
"@.	c #5C5C5C",
"#.	c #696969",
"$.	c #2E2E2E",
"%.	c #555555",
"&.	c #A7A7A7",
"*.	c #E2E2E2",
"=.	c #D2D2D2",
"-.	c #656565",
";.	c #2D2D2D",
">.	c #818181",
",.	c #D3D3D3",
"'.	c #797979",
").	c #959595",
"!.	c #FDFDFD",
"~.	c #F6F6F6",
"{.	c #B1B1B1",
"].	c #AEAEAE",
"^.	c #DFDFDF",
"/.	c #2C2C2C",
"(.	c #747474",
"_.	c #EAEAEA",
":.	c #ABABAB",
"<.	c #6C6C6C",
"[.	c #9D9D9D",
"}.	c #444444",
"|.	c #C0C0C0",
"1.	c #B2B2B2",
"2.	c #626262",
"3.	c #303030",
"4.	c #D9D9D9",
"5.	c #D7D7D7",
"6.	c #808080",
"7.	c #585858",
"8.	c #909090",
"9.	c #515151",
"0.	c #D5D5D5",
"a.	c #E4E4E4",
"b.	c #6A6A6A",
"c.	c #5D5D5D",
"d.	c #ADADAD",
"e.	c #ACACAC",
"f.	c #CFCFCF",
"g.	c #686868",
"h.	c #BBBBBB",
"i.	c #A2A2A2",
"j.	c #F9F9F9",
"k.	c #A1A1A1",
"l.	c #CACACA",
"m.	c #8A8A8A",
"n.	c #D6D6D6",
"o.	c #8D8D8D",
"p.	c #EBEBEB",
"q.	c #8C8C8C",
"r.	c #404040",
"s.	c #6F6F6F",
"t.	c #BFBFBF",
"u.	c #F4F4F4",
"v.	c #545454",
"w.	c #464646",
"x.	c #E6E6E6",
"y.	c #707070",
"z.	c #4D4D4D",
"A.	c #717171",
"B.	c #C4C4C4",
"C.	c #E9E9E9",
"D.	c #767676",
"E.	c #474747",
"F.	c #6D6D6D",
"G.	c #575757",
"H.	c #6B6B6B",
"I.	c #EDEDED",
"J.	c #DDDDDD",
". . . . . . . . . . . . . + @ # $ % & * = - ; > , ' ) . . . . . . . . . ",
". . . . . . . . . . . . ! ~ { ] ^ / ( _ : _ < [ } | 1 2 . . . . . . . . ",
". . . . . . . . . . . 3 4 5 } 6 ( 7 : 8 _ _ _ _ 9 : 0 a b . . . . . . . ",
". . . . . . . . . c d e f g h 8 i 7 j k l k 7 7 _ 8 m 6 n o . . . . . . ",
". . . . . . . . . @ p q r h i h 7 l l k 7 7 7 7 7 h 8 _ ] 2 . . . . . . ",
". . . . . . . . ! s t 8 : h h l k l l k 7 7 7 7 7 7 7 9 0 > . . . . . . ",
". . . . . . . u v w _ x l 7 7 7 l l k k 7 7 7 7 7 7 h : i y . . . . . . ",
". . . . . . . z ] A i _ 7 h 7 7 k l 7 l k 7 7 7 7 7 h i B C D . . . . . ",
". . . . . . . E F i 8 i 7 7 7 h _ h k 7 j l h 7 7 7 7 _ B F 3 . . . . . ",
". . . . . . . % G h k _ _ 7 7 8 H 9 9 H 9 h l 7 7 7 7 _ 9 I J . . . . . ",
". . . . . . . K L i l i h 7 _ 8 M N O P Q H h l 7 7 7 _ H A R . . . . . ",
". . . . . . . S T _ 7 h h h _ U V W X Y Z 6 : 7 7 7 h 7 m 0 ` . . . . . ",
". . . . . .  ...+.7 h h _ 7 x @.#.$.%.&.Y P _ h 7 7 h _ H ^ *.. . . . . ",
". . . . . . =.-.8 l h h 7 7 H w I B ;.>.,.'.i _ 7 7 h i h ).!.. . . . . ",
". . . . . ~.e ( : l 7 _ 7 7 _ _ _ x 6 {.].r : h h h h 9 6 {.. . . . . . ",
". . . . . ^.t m 7 l 7 7 7 7 7 _ : /.&.a L H h l 7 h h H (._.. . . . . . ",
". . . . . :.k : l l 7 7 7 7 7 h : <.[.6 9 l _ l l 7 8 }.% !.. . . . . . ",
". . . . . (.9 H h 7 7 l l 7 7 8 0 |._ x _ _ l h 7 _ /.q E . . . . . . . ",
". . . . . 1.2.I l 7 h h i 7 7 8 3.-.9 i 7 7 7 7 7 8 %.4.. . . . . . . . ",
". . . . . 2 5.W 6.6 _ 7 l 7 7 i i -.7.: _ 7 7 7 8 < 8.! . . . . . . . . ",
". . . . . . !.! 5.q _ : _ 7 7 8 } ~ 1.9.7 7 7 8 : 2.0.. . . . . . . . . ",
". . . . . . . . a.b.h 7 h 7 7 8 c.d.).}.i 7 7 i 9.e. .. . . . . . . . . ",
". . . . . . . . f.g.h h _ 7 7 8 _ I j : h 7 _ l C ^.. . . . . . . . . . ",
". . . . . . . !.h.l H h _ 7 7 h l i i l 7 7 i : i.2 . . . . . . . . . . ",
". . . . . . . j.|.9 : h _ 7 7 _ h h j l 7 7 8 m ,.. . . . . . . . . . . ",
". . . . . . . !.E L ;.: _ 7 h 7 l h k 7 7 7 8 8 ' . . . . . . . . . . . ",
". . . . . . . . c p t ;.m _ _ h 7 7 7 7 7 7 _ $.k.) . . . . . . . . . . ",
". . . . . . . . . u l.m.0 +.x 8 7 7 7 7 7 7 7 9 -.n.c . . . . . . . . . ",
". . . . . . . . . . . u ,.W } l h 7 7 7 l l h x g o.^.. . . . . . . . . ",
". . . . . . . . . . . . . p.q.r.i 7 7 7 k l h h t s.t.. . . . . . . . . ",
". . . . . . . . . . . . u.&.v.7 7 7 7 7 j k < w.w 6.$ . . . . . . . . . ",
". . . . . . . . . . . . x.y.k l h 7 h h l +.w.z.A.B.D . . . . . . . . . ",
". . . . . . . . . . . . C.D.j 7 h h _ 7 j I E.F.1 ~.. . . . . . . . . . ",
". . . . . . . . . . . . 2 p 9.< +.r.A 6 U #.] 5.u . . . . . . . . . . . ",
". . . . . . . . . . . . . E k.g.t %.G.H.q.V I.!.. . . . . . . . . . . . ",
". . . . . . . . . . . . o z , o.H.f g.y 4 J.D . . . . . . . . . . . . . "};
